<svg width="24" height="24" viewBox="0 0 24 24" fill="none" xmlns="http://www.w3.org/2000/svg">
<path d="M16 6C17.1046 6 18 5.10457 18 4C18 2.89543 17.1046 2 16 2C14.8954 2 14 2.89543 14 4C14 5.10457 14.8954 6 16 6Z" fill="#7E8084"/>
<path d="M16 22C17.1046 22 18 21.1046 18 20C18 18.8954 17.1046 18 16 18C14.8954 18 14 18.8954 14 20C14 21.1046 14.8954 22 16 22Z" fill="#7E8084"/>
<path d="M20 14C21.1046 14 22 13.1046 22 12C22 10.8954 21.1046 10 20 10C18.8954 10 18 10.8954 18 12C18 13.1046 18.8954 14 20 14Z" fill="#7E8084"/>
<path d="M1 2.77L2.28 1.5L22 21.23L20.73 22.5L1 2.77Z" fill="#7E8084"/>
<path opacity="0.24" fill-rule="evenodd" clip-rule="evenodd" d="M5.93006 5.15269C5.35291 5.78696 4.99981 6.63575 4.99981 7.57001C4.99981 8.42227 5.29825 9.20821 5.79585 9.82089C5.52717 9.88089 5.25854 9.9706 4.99981 10.09C3.24981 10.93 2.48981 13.04 3.30981 14.82C3.66981 15.59 4.99981 16.44 4.99981 16.44C4.99981 18.4 6.56981 19.99 8.49981 19.99C9.22981 19.99 9.89981 19.76 10.4598 19.38V9.68245L5.93006 5.15269ZM10.4598 7.13606V4.62001C9.89981 4.23001 9.21981 4.01001 8.49981 4.01001C8.14767 4.01001 7.80752 4.06294 7.4867 4.16145L10.4598 7.13606Z" fill="#7E8084"/>
<path fill-rule="evenodd" clip-rule="evenodd" d="M5.23143 4.45407C4.48037 5.27097 4.01997 6.36692 4.01997 7.57C4.01997 8.17 4.12997 8.76 4.34997 9.29C2.26997 10.43 1.39997 13.04 2.41997 15.24C2.74997 15.95 3.53997 16.61 4.04997 16.99C4.32997 19.25 6.22997 21 8.51997 21C9.41997 21 10.29 20.73 11.04 20.22C11.32 20.03 11.48 19.72 11.48 19.38V16H15V19H17V16.2226L14.7774 14H11.48V13H13.7774L11.7774 11H11.48V10.7026L9.47997 8.70261V18.78C9.17997 18.9 8.84997 18.97 8.51997 18.97C7.13997 18.97 6.01997 17.83 6.01997 16.43C6.01997 16.08 5.83997 15.76 5.54997 15.57C5.02997 15.24 4.37997 14.68 4.23997 14.38C3.64997 13.12 4.18997 11.6 5.43997 11.01C5.44603 11.007 5.453 11.0039 5.46061 11.0006L5.46062 11.0006C5.47815 10.993 5.49906 10.9839 5.51997 10.97C5.89997 11.31 6.32997 11.59 6.81997 11.79L7.57997 9.92C6.62997 9.53 6.01997 8.61 6.01997 7.57C6.01997 6.92118 6.26053 6.3282 6.65603 5.87866L5.23143 4.45407ZM9.47997 6.15573V5.22C9.17997 5.09 8.84997 5.03 8.51997 5.03C8.46622 5.03 8.41286 5.03173 8.35995 5.03514L6.71135 3.3857C7.2652 3.13774 7.87713 3 8.51997 3C9.41997 3 10.29 3.27 11.04 3.78C11.32 3.97 11.48 4.28 11.48 4.62V8H15V5H17V9L16 10H13.3223L9.47997 6.15573ZM14.3218 11L16.3208 13H20V11H14.3218Z" fill="#7E8084"/>
</svg>
