<svg width="24" height="24" viewBox="0 0 24 24" fill="none" xmlns="http://www.w3.org/2000/svg">
<g clip-path="url(#clip0_1944_10048)">
<path opacity="0.24" d="M12 5.5C9.2 5.5 7 7.7 7 10.5V17.5H17V10.5C17 7.7 14.8 5.5 12 5.5ZM13 15.5H11V13.5H13V15.5ZM13 11.5H11V7.5H13V11.5Z" fill="#7E8084"/>
<path d="M12 22.5C13.1 22.5 14 21.6 14 20.5H10C10 21.6 10.9 22.5 12 22.5ZM19 16.5V10.5C19 7.2 16.6 4.3 13.5 3.7V2.5C13.5 1.7 12.8 1 12 1C11.2 1 10.5 1.7 10.5 2.5V3.7C7.4 4.3 5 7.2 5 10.5V16.5L3 18.5V19.5H21V18.5L19 16.5ZM17 17.5H7V10.5C7 7.7 9.2 5.5 12 5.5C14.8 5.5 17 7.7 17 10.5V17.5ZM11 7.5H13V11.5H11V7.5ZM11 13.5H13V15.5H11V13.5Z" fill="#7E8084"/>
</g>
<defs>
<clipPath id="clip0_1944_10048">
<rect width="18" height="21.5" fill="white" transform="translate(3 1)"/>
</clipPath>
</defs>
</svg>
