<svg width="24" height="24" viewBox="0 0 24 24" fill="none" xmlns="http://www.w3.org/2000/svg">
<path d="M7 5H21V7H7V5Z" fill="#7E8084"/>
<path d="M4 7.5C4.82843 7.5 5.5 6.82843 5.5 6C5.5 5.17157 4.82843 4.5 4 4.5C3.17157 4.5 2.5 5.17157 2.5 6C2.5 6.82843 3.17157 7.5 4 7.5Z" fill="#7E8084"/>
<path d="M7 11H21V13H7V11ZM7 17H21V19H7V17ZM4 19.5C4.8 19.5 5.5 18.8 5.5 18C5.5 17.2 4.8 16.5 4 16.5C3.2 16.5 2.5 17.2 2.5 18C2.5 18.8 3.2 19.5 4 19.5Z" fill="#7E8084"/>
<path d="M4 13.5C4.82843 13.5 5.5 12.8284 5.5 12C5.5 11.1716 4.82843 10.5 4 10.5C3.17157 10.5 2.5 11.1716 2.5 12C2.5 12.8284 3.17157 13.5 4 13.5Z" fill="#7E8084"/>
</svg>
