<svg width="24" height="24" viewBox="0 0 24 24" fill="none" xmlns="http://www.w3.org/2000/svg">
<path opacity="0.24" d="M5 19H19V5H5V19ZM13.03 7.06L14.09 6L15.5 7.41L16.91 6L17.97 7.06L16.56 8.47L17.97 9.88L16.91 10.94L15.5 9.54L14.09 10.95L13.03 9.89L14.44 8.48L13.03 7.06ZM13 13.25H18V14.75H13V13.25ZM13 15.75H18V17.25H13V15.75ZM6.25 7.72H11.25V9.22H6.25V7.72ZM6 14.5H8V12.5H9.5V14.5H11.5V16H9.5V18H8V16H6V14.5Z" fill="#7E8084"/>
<path fill-rule="evenodd" clip-rule="evenodd" d="M5 3H19C20.1 3 21 3.9 21 5V19C21 20.1 20.1 21 19 21H5C3.9 21 3 20.1 3 19V5C3 3.9 3.9 3 5 3ZM5 19H19V5H5V19ZM6.25 7.71997H11.25V9.21997H6.25V7.71997ZM18 15.75H13V17.25H18V15.75ZM13 13.25H18V14.75H13V13.25ZM8 18H9.5V16H11.5V14.5H9.5V12.5H8V14.5H6V16H8V18ZM15.4998 9.54L14.0898 10.95L13.0298 9.89L14.4398 8.47L13.0298 7.06L14.0898 6L15.4998 7.41L16.9098 6L17.9698 7.06L16.5598 8.47L17.9698 9.89L16.9098 10.95L15.4998 9.54Z" fill="#7E8084"/>
</svg>
