<svg width="24" height="24" viewBox="0 0 24 24" fill="none" xmlns="http://www.w3.org/2000/svg">
<path opacity="0.24" fill-rule="evenodd" clip-rule="evenodd" d="M5 5H19V19H5V5ZM7 17H9V10H7V17ZM13 17H11V7H13V17ZM15 17H17V13H15V17Z" fill="#7E8084"/>
<path fill-rule="evenodd" clip-rule="evenodd" d="M3 19V5C3 3.9 3.9 3 5 3H19C20.1 3 21 3.9 21 5V19C21 20.1 20.1 21 19 21H5C3.9 21 3 20.1 3 19ZM19 5H5V19H19V5Z" fill="#7E8084"/>
<path d="M7 10H9V17H7V10Z" fill="#7E8084"/>
<path d="M11 7H13V17H11V7Z" fill="#7E8084"/>
<path d="M15 13H17V17H15V13Z" fill="#7E8084"/>
</svg>
