<svg width="24" height="24" viewBox="0 0 24 24" fill="none" xmlns="http://www.w3.org/2000/svg">
<path opacity="0.24" d="M12 4C7.6 4 4 7.6 4 12C4 16.4 7.6 20 12 20C16.4 20 20 16.4 20 12C20 7.6 16.4 4 12 4ZM17 13H13V17H11V13H7V11H11V7H13V11H17V13Z" fill="#7E8084"/>
<path d="M13 7H11V11H7V13H11V17H13V13H17V11H13V7ZM12 2C6.5 2 2 6.5 2 12C2 17.5 6.5 22 12 22C17.5 22 22 17.5 22 12C22 6.5 17.5 2 12 2ZM12 20C7.6 20 4 16.4 4 12C4 7.6 7.6 4 12 4C16.4 4 20 7.6 20 12C20 16.4 16.4 20 12 20Z" fill="#7E8084"/>
</svg>
