<svg width="24" height="24" viewBox="0 0 24 24" fill="none" xmlns="http://www.w3.org/2000/svg">
<path opacity="0.24" fill-rule="evenodd" clip-rule="evenodd" d="M4 12C4 7.59 7.59 4 12 4C16.41 4 20 7.59 20 12C20 16.41 16.41 20 12 20C7.59 20 4 16.41 4 12ZM15.59 17L17 15.59L13.41 12L17 8.41L15.59 7L12 10.59L8.41 7L7 8.41L10.59 12L7 15.59L8.41 17L12 13.41L15.59 17Z" fill="#7E8084"/>
<path fill-rule="evenodd" clip-rule="evenodd" d="M2 12C2 6.47 6.47 2 12 2C17.53 2 22 6.47 22 12C22 17.53 17.53 22 12 22C6.47 22 2 17.53 2 12ZM4 12C4 16.41 7.59 20 12 20C16.41 20 20 16.41 20 12C20 7.59 16.41 4 12 4C7.59 4 4 7.59 4 12Z" fill="#7E8084"/>
<path d="M15.59 7L12 10.59L8.41 7L7 8.41L10.59 12L7 15.59L8.41 17L12 13.41L15.59 17L17 15.59L13.41 12L17 8.41L15.59 7Z" fill="#7E8084"/>
</svg>
