<svg width="24" height="24" viewBox="0 0 24 24" fill="none" xmlns="http://www.w3.org/2000/svg">
<path d="M11 16H13V18H11V16Z" fill="#7E8084"/>
<path fill-rule="evenodd" clip-rule="evenodd" d="M2 12C2 6.48 6.48 2 12 2C17.52 2 22 6.48 22 12C22 17.52 17.52 22 12 22C6.48 22 2 17.52 2 12ZM4 12C4 16.41 7.59 20 12 20C16.41 20 20 16.41 20 12C20 7.59 16.41 4 12 4C7.59 4 4 7.59 4 12Z" fill="#7E8084"/>
<path d="M12 6C9.79 6 8 7.79 8 10H10C10 8.9 10.9 8 12 8C13.1 8 14 8.9 14 10C14 12 11 11.75 11 15H13C13 12.75 16 12.5 16 10C16 7.79 14.21 6 12 6Z" fill="#7E8084"/>
</svg>
