<svg width="24" height="24" viewBox="0 0 24 24" fill="none" xmlns="http://www.w3.org/2000/svg">
<path opacity="0.24" fill-rule="evenodd" clip-rule="evenodd" d="M7 12C7 13.3795 5.87946 14.5 4.5 14.5C3.12054 14.5 2 13.3795 2 12C2 10.6205 3.12054 9.5 4.5 9.5C5.87946 9.5 7 10.6205 7 12ZM22.2646 12C22.2646 13.3795 21.1441 14.5 19.7646 14.5C18.3852 14.5 17.2646 13.3795 17.2646 12C17.2646 10.6205 18.3852 9.5 19.7646 9.5C21.1441 9.5 22.2646 10.6205 22.2646 12Z" fill="#7E8084"/>
<path fill-rule="evenodd" clip-rule="evenodd" d="M12 15.5C10.069 15.5 8.5 13.931 8.5 12C8.5 10.069 10.069 8.5 12 8.5C13.931 8.5 15.5 10.069 15.5 12C15.5 13.931 13.931 15.5 12 15.5ZM7.04927 9.60278C6.41074 8.92406 5.50452 8.5 4.5 8.5C2.56825 8.5 1 10.0683 1 12C1 13.9317 2.56825 15.5 4.5 15.5C5.50452 15.5 6.41074 15.0759 7.04927 14.3972C7.94069 16.2331 9.82353 17.5 12 17.5C14.1765 17.5 16.0593 16.2331 16.9507 14.3972C17.5893 15.0759 18.4955 15.5 19.5 15.5C21.4317 15.5 23 13.9317 23 12C23 10.0683 21.4317 8.5 19.5 8.5C18.4955 8.5 17.5893 8.92406 16.9507 9.60278C16.0593 7.76685 14.1765 6.5 12 6.5C9.82353 6.5 7.94069 7.76685 7.04927 9.60278ZM3 12C3 12.8272 3.67282 13.5 4.5 13.5C5.32718 13.5 6 12.8272 6 12C6 11.1728 5.32718 10.5 4.5 10.5C3.67282 10.5 3 11.1728 3 12ZM18 12C18 12.8272 18.6728 13.5 19.5 13.5C20.3272 13.5 21 12.8272 21 12C21 11.1728 20.3272 10.5 19.5 10.5C18.6728 10.5 18 11.1728 18 12Z" fill="#7E8084"/>
</svg>
