<svg width="24" height="24" viewBox="0 0 24 24" fill="none" xmlns="http://www.w3.org/2000/svg">
<g clip-path="url(#clip0_1944_10870)">
<path d="M6.8 2C6.8 2 3 6.2 3 8.7C3 10.8 4.7 12.5 6.8 12.5C8.9 12.5 10.6 10.8 10.6 8.7C10.5 6.2 6.8 2 6.8 2Z" fill="#7E8084"/>
<path d="M15 2H21.5L19.2 6.6H21.5L16.9 15V9.8H15V2Z" fill="#7E8084"/>
<path d="M12.7999 12.2C12.2999 12.3 11.7999 12.6 11.3999 12.9C9.99992 14 9.49992 16.1 10.0999 17.7C10.0999 17.8 10.1999 17.8 10.1999 17.9C10.1999 18 10.0999 18.1 9.99992 18.2C9.89992 18.2 9.89992 18.2 9.89992 18.2C9.79992 18.2 9.69992 18.1 9.69992 18.1C9.59992 18.1 9.59992 18 9.59992 18C8.89992 17.3 8.89992 16.2 9.29992 15.3C8.39992 16.1 7.89992 17.3 7.99992 18.5C7.99992 18.8 8.09992 19 8.19992 19.3C8.29992 19.6 8.39992 20 8.59992 20.2C9.09992 21.1 10.1999 21.8 11.1999 21.9C11.3999 22 11.6999 22 11.8999 22C12.7999 22 13.7999 21.7 14.4999 21.1C15.4999 20.2 15.8999 18.8 15.2999 17.5C15.2999 17.5 15.0999 16.8 14.3999 16.2C13.9999 15.9 13.5999 15.7 13.2999 15.3C12.4999 14.5 12.2999 13.2 12.7999 12.2Z" fill="#7E8084"/>
</g>
<defs>
<clipPath id="clip0_1944_10870">
<rect width="18.5" height="20" fill="white" transform="translate(3 2)"/>
</clipPath>
</defs>
</svg>
