<svg width="24" height="24" viewBox="0 0 24 24" fill="none" xmlns="http://www.w3.org/2000/svg">
<path fill-rule="evenodd" clip-rule="evenodd" d="M13.0002 4V7H11.0002V4L13.0002 4ZM13.0002 10V14H11.0002V10H13.0002ZM13.0002 17V20H11.0002V17H13.0002Z" fill="#7E8084"/>
<path fill-rule="evenodd" clip-rule="evenodd" d="M16.6114 3V5H19.0002V7H21.0002V5C21.0002 4.94129 20.9977 4.88314 20.9927 4.82567C20.9613 4.46634 20.8338 4.13344 20.6362 3.85301C20.5026 3.66333 20.3369 3.49765 20.1472 3.36403C19.8668 3.16648 19.5339 3.03899 19.1746 3.00759C19.1171 3.00256 19.059 3 19.0002 3H16.6114ZM21.0002 10H19.0002V14H21.0002V10ZM21.0002 17H19.0002V19H16.6114V21H19.0002C19.059 21 19.1171 20.9974 19.1746 20.9924C19.5339 20.961 19.8668 20.8335 20.1472 20.636C20.3369 20.5023 20.5026 20.3367 20.6362 20.147C20.8338 19.8666 20.9613 19.5337 20.9927 19.1743C20.9977 19.1169 21.0002 19.0587 21.0002 19V17ZM14.3891 21V19H9.61136V21H14.3891ZM7.38913 21V19H5.00024V17H3.00024V19C3.00024 19.0587 3.00281 19.1169 3.00783 19.1743C3.03923 19.5337 3.16672 19.8666 3.36428 20.147C3.4979 20.3367 3.66358 20.5023 3.85325 20.636C4.13369 20.8335 4.46658 20.961 4.82592 20.9924C4.88338 20.9974 4.94153 21 5.00024 21H7.38913ZM3.00024 14H5.00024V10H3.00024V14ZM3.00024 7H5.00024V5H7.38913V3H5.00024C4.94153 3 4.88338 3.00256 4.82592 3.00759C4.46658 3.03899 4.13369 3.16648 3.85325 3.36403C3.66358 3.49765 3.4979 3.66333 3.36428 3.85301C3.16672 4.13344 3.03923 4.46634 3.00783 4.82567C3.00281 4.88314 3.00024 4.94129 3.00024 5V7ZM9.61135 3V5H14.3891V3H9.61135Z" fill="#7E8084"/>
</svg>
