<svg width="24" height="24" viewBox="0 0 24 24" fill="none" xmlns="http://www.w3.org/2000/svg">
<path d="M7.06006 3.86L8.64006 5.44C9.54006 5.18 10.6601 5 12.0001 5C15.8701 5 18.0001 6.5 18.0001 7C18.0001 7.5 15.9401 8.94 12.1901 9L14.0601 10.86C15.6101 10.65 16.9701 10.22 18.0001 9.64V12.45C17.5801 12.76 17.0501 13.03 16.4501 13.25L20.0001 16.8V7C20.0001 4.79 16.4201 3 12.0001 3C10.1301 3 8.42006 3.33 7.06006 3.86Z" fill="#7E8084"/>
<path d="M2.38986 1.72998L1.10986 2.99998L4.20986 6.09998C4.07986 6.38998 3.99986 6.68998 3.99986 6.99998V17C3.99986 19.21 7.58986 21 11.9999 21C14.2999 21 16.3799 20.5 17.8399 19.73L20.8399 22.73L22.1099 21.46L2.38986 1.72998ZM5.99986 9.63998C6.75986 10.07 7.69986 10.42 8.75986 10.65L12.1099 14C10.0612 14 7.70216 13.694 5.99986 12.45V9.63998ZM11.9999 19C8.42142 19 5.99986 17.5 5.99986 17V14.77C7.60986 15.55 9.71986 16 11.9999 16C12.6799 16 13.3399 15.95 13.9999 15.87L16.3399 18.23C15.3299 18.65 13.8699 19 11.9999 19Z" fill="#7E8084"/>
<path opacity="0.24" d="M16.4487 13.2576C17.0503 13.0312 17.577 12.7591 18 12.45V9.64001C16.9667 10.2235 15.6023 10.6587 14.0527 10.8657L16.4487 13.2576Z" fill="#7E8084"/>
<path opacity="0.24" d="M12.1827 8.99888C15.937 8.95273 18.0001 7.49208 18.0001 7C18.0001 6.5 15.8701 5 12.0001 5C10.6567 5 9.52297 5.18075 8.61523 5.43767L12.1827 8.99888Z" fill="#7E8084"/>
<path opacity="0.24" d="M16.0543 15.4859L17.8596 17.2814C17.6288 17.5553 17.1159 17.9146 16.3406 18.2339C15.3274 18.6511 13.866 18.9998 12 18.9998C8.13 18.9998 6 17.4998 6 16.9998V14.7698C7.61 15.5498 9.72 15.9998 12 15.9998C12.7037 15.9998 13.3462 15.9531 14.0078 15.8709C14.7078 15.7839 15.4237 15.6567 16.0543 15.4859Z" fill="#7E8084"/>
<path opacity="0.24" d="M11.537 10.9932L14.3645 13.8054C13.6136 13.9319 12.9051 13.996 12.0904 13.996C9.37973 14.0328 7.3 13.3999 6 12.4499V9.63989C7.3744 10.4159 9.33449 10.9297 11.537 10.9932Z" fill="#7E8084"/>
</svg>
