<svg width="24" height="24" viewBox="0 0 24 24" fill="none" xmlns="http://www.w3.org/2000/svg">
<path opacity="0.24" d="M5 7H19V6H5V7Z" fill="#7E8084"/>
<path fill-rule="evenodd" clip-rule="evenodd" d="M18 6H16H8H6H5V7H19V6H18ZM5 20V8H19V20H5ZM19 4H18V2H16V4H14H10H8V2H6V4H5C3.9 4 3 4.9 3 6V20C3 21.1 3.9 22 5 22H19C20.1 22 21 21.1 21 20V6C21 4.9 20.1 4 19 4ZM7.71916 14.1617C7.21916 14.2617 6.91916 14.8617 7.01916 15.3617C7.11916 15.8617 7.71916 16.1617 8.31916 16.0617L10.5192 15.4617L9.91916 17.6617C9.71916 18.2617 10.0192 18.8617 10.6192 18.9617C11.2192 19.1617 11.8192 18.8617 11.9192 18.2617L12.5192 15.9617L14.1192 17.6617C14.5192 18.0617 15.2192 18.0617 15.6192 17.6617C16.0192 17.2617 16.0192 16.5617 15.6192 16.1617L13.9192 14.4617L16.1192 13.8617C16.6192 13.7617 16.9192 13.1617 16.8192 12.6617C16.6192 12.0617 16.1192 11.7617 15.5192 11.9617L13.3192 12.5617L13.9192 10.3617C14.1192 9.7617 13.8192 9.1617 13.2192 9.0617C12.7192 8.8617 12.1192 9.1617 12.0192 9.7617L11.5192 12.0617L9.81916 10.3617C9.41916 9.9617 8.71916 9.9617 8.31916 10.3617C7.91916 10.8617 7.91916 11.4617 8.31916 11.8617L10.0192 13.4617L7.71916 14.1617Z" fill="#7E8084"/>
</svg>
