<svg width="24" height="24" viewBox="0 0 24 24" fill="none" xmlns="http://www.w3.org/2000/svg">
<path d="M16 4.2C17.5 4.2 19 4.8 20.2 5.9L21 5.1C19.6 3.7 17.8 3 16 3C14.2 3 12.4 3.7 11 5.1L11.8 5.9C13 4.8 14.5 4.2 16 4.2ZM12.7 6.7L13.5 7.5C14.2 6.8 15.1 6.5 16 6.5C16.9 6.5 17.8 6.8 18.5 7.5L19.3 6.7C18.4 5.8 17.2 5.3 16 5.3C14.8 5.3 13.6 5.8 12.7 6.7Z" fill="#7E8084"/>
<path fill-rule="evenodd" clip-rule="evenodd" d="M5 13C5 11.8954 5.89543 11 7 11H17C18.1046 11 19 11.8954 19 13V17C19 18.1046 18.1046 19 17 19H7C5.89543 19 5 18.1046 5 17V13ZM7 17H17V13H7V17Z" fill="#7E8084"/>
<path opacity="0.24" fill-rule="evenodd" clip-rule="evenodd" d="M7 17H17V13H7V17Z" fill="#7E8084"/>
<path fill-rule="evenodd" clip-rule="evenodd" d="M7 11V9H9V11H7Z" fill="#7E8084"/>
<path fill-rule="evenodd" clip-rule="evenodd" d="M11 11V9H13V11H11Z" fill="#7E8084"/>
<path fill-rule="evenodd" clip-rule="evenodd" d="M15 11V9H17V11H15Z" fill="#7E8084"/>
<path fill-rule="evenodd" clip-rule="evenodd" d="M7 21V19H9V21H7Z" fill="#7E8084"/>
<path fill-rule="evenodd" clip-rule="evenodd" d="M11 21V19H13V21H11Z" fill="#7E8084"/>
<path fill-rule="evenodd" clip-rule="evenodd" d="M15 21V19H17V21H15Z" fill="#7E8084"/>
</svg>
