<svg width="24" height="24" viewBox="0 0 24 24" fill="none" xmlns="http://www.w3.org/2000/svg">
<g clip-path="url(#clip0_2393_1742)">
<path opacity="0.24" fill-rule="evenodd" clip-rule="evenodd" d="M4.48431 5.52836C9.11461 0.443455 17.5138 0.858549 21.6056 6.66987C23.9746 10.1982 23.867 14.9718 21.3903 18.5001C19.2367 21.4057 15.8985 22.8585 12.5604 22.8585V20.7831C15.2524 20.7831 18.0522 19.5378 19.7751 17.0472C21.7133 14.2453 21.7133 10.5095 19.7751 7.81138C16.5446 3.34911 10.1914 2.93402 6.42258 6.46232C3.4075 9.47176 3.08446 14.2453 5.66881 17.5661L7.17635 19.0189L5.66881 20.4718L5.1304 19.9529C1.03851 16.0095 0.715466 9.6793 4.48431 5.52836ZM16.2217 10.1979C14.7142 7.91491 11.4837 7.60359 9.54546 9.47151C8.03792 10.8206 7.93024 12.896 8.89938 14.4526L10.2992 16.0092L8.68401 17.5659L7.39184 15.9055C6.96111 15.2828 6.63807 14.6602 6.4227 14.0375C5.66893 11.6508 6.53039 8.95264 8.79169 7.29227C11.053 5.63189 14.2834 5.73566 16.5448 7.39604C19.5598 9.78283 19.7752 14.1413 17.0832 16.7357C15.8987 17.9809 14.1758 18.6036 12.5605 18.6036V16.5281C14.0681 16.5281 15.4679 15.8017 16.3294 14.3489C17.0832 13.1036 17.0832 11.4432 16.2217 10.1979Z" fill="#7E8084"/>
<path d="M4.9149 19.7453L5.66867 20.4717L14.2832 12.1698L12.7756 10.717L4.16113 19.0189" fill="#7E8084"/>
<path d="M14.0679 10.0943C15.2573 10.0943 16.2216 9.16511 16.2216 8.01886C16.2216 6.87261 15.2573 5.94339 14.0679 5.94339C12.8785 5.94339 11.9143 6.87261 11.9143 8.01886C11.9143 9.16511 12.8785 10.0943 14.0679 10.0943Z" fill="#7E8084"/>
<path d="M13.314 19.5377C14.5034 19.5377 15.4677 18.6085 15.4677 17.4623C15.4677 16.316 14.5034 15.3868 13.314 15.3868C12.1246 15.3868 11.1604 16.316 11.1604 17.4623C11.1604 18.6085 12.1246 19.5377 13.314 19.5377Z" fill="#7E8084"/>
<path d="M2.65363 15.1792C3.84304 15.1792 4.80725 14.25 4.80725 13.1038C4.80725 11.9575 3.84304 11.0283 2.65363 11.0283C1.46421 11.0283 0.5 11.9575 0.5 13.1038C0.5 14.25 1.46421 15.1792 2.65363 15.1792Z" fill="#7E8084"/>
</g>
<defs>
<clipPath id="clip0_2393_1742">
<rect width="22.8284" height="20.7547" fill="white" transform="translate(0.5 2)"/>
</clipPath>
</defs>
</svg>
