<svg width="24" height="24" viewBox="0 0 24 24" fill="none" xmlns="http://www.w3.org/2000/svg">
<path d="M18.1401 16.7C17.2301 18.21 16.0801 17.73 15.0001 17.09C13.9201 16.45 12.9001 15.68 12.2501 16.59C11.5401 17.37 12.0901 18.62 12.3701 19.72C12.6501 20.83 12.6701 21.79 10.9001 22C9.50008 21.81 9.58008 20.65 9.81008 19.42C10.0401 18.19 10.4001 16.89 9.50008 16.43C8.78008 15.95 8.28008 16.78 7.65008 17.6C7.00008 18.41 6.26008 19.2 5.04008 18.62C3.94008 17.71 4.36008 17.18 4.94008 16.5C5.52008 15.82 6.27008 14.91 5.84008 13.31C5.66008 12.66 4.76008 12.81 3.87008 12.79C3.00008 12.77 2.12008 12.59 2.03008 11.29C1.96008 10.5 2.55008 10.18 3.16008 9.93C3.78008 9.68 4.41008 9.5 4.42008 8.87C4.45008 8.26 4.04008 7.83 3.78008 7.38C3.52008 6.93 3.41008 6.46 4.03008 5.76C5.08008 4.9 5.92008 5.63 6.76008 6.42C7.60008 7.21 8.43008 8.04 9.46008 7.39C10.2801 6.85 9.53008 5.9 8.95008 4.97C8.37008 4.04 7.96008 3.15 9.46008 2.74C10.7601 2.38 11.2601 3.27 11.7101 4.3C12.1701 5.33 12.5701 6.5 13.6701 6.71C15.2401 7 16.3801 5.16 17.4701 3.7C18.5601 2.24 19.6301 1.15 21.0001 2.95C22.5001 4.84 21.0701 5.72 19.4001 6.5C17.7301 7.23 15.8101 7.87 16.2701 9.28C16.5401 10.1 17.4201 9.65 18.3501 9.34C19.2701 9.03 20.2601 8.86 20.7401 10.27C21.2501 11.76 20.0401 12.1 18.6801 12.24C17.3201 12.38 15.8001 12.32 15.7001 13C15.5901 13.71 16.5001 14 17.2901 14.42C18.0801 14.85 18.7501 15.42 18.1401 16.7ZM20.5001 19C19.5501 19 19.0601 18.26 19.0601 17.5C19.0601 16.74 19.5401 16 20.5001 16C21.5001 16 22.0001 16.74 22.0001 17.5C22.0001 18.26 21.5001 19 20.5001 19Z" fill="#7E8084"/>
</svg>
