<?xml version="1.0" encoding="utf-8"?>
<svg viewBox="0 0 24 24" xmlns="http://www.w3.org/2000/svg">
    <path style=" stroke:none;fill-rule:evenodd;fill:rgb(0%,0%,0%);fill-opacity:1;"
        d="M 12.405 23.606 L 9.752 6.551 C 9.733 6.414 9.612 6.313 9.475 6.313 L 6.807 6.313 C 6.666 6.313 6.549 6.414 6.526 6.551 L 3.873 23.606 C 3.85 23.758 3.959 23.902 4.112 23.926 C 4.268 23.949 4.413 23.844 4.436 23.692 L 7.049 6.875 L 9.229 6.875 L 11.846 23.692 C 11.87 23.844 12.014 23.949 12.166 23.926 C 12.323 23.902 12.428 23.758 12.405 23.606 Z M 12.405 23.606"
        transform="matrix(1, 0, 0, 1, -2.220446049250313e-16, 0)" />
    <path style=" stroke:none;fill-rule:evenodd;fill:rgb(0%,0%,0%);fill-opacity:1;"
        d="M 19.721 23.606 L 18.081 13.043 C 18.061 12.906 17.94 12.805 17.799 12.805 L 16.147 12.805 C 16.01 12.805 15.889 12.906 15.87 13.043 L 14.225 23.606 C 14.202 23.758 14.311 23.902 14.463 23.926 C 14.62 23.949 14.764 23.844 14.788 23.692 L 16.393 13.367 L 17.557 13.367 L 19.163 23.692 C 19.186 23.844 19.331 23.949 19.487 23.926 C 19.639 23.902 19.745 23.758 19.721 23.606 Z M 19.721 23.606"
        transform="matrix(1, 0, 0, 1, -2.220446049250313e-16, 0)" />
    <path style=" stroke:none;fill-rule:evenodd;fill:rgb(0%,0%,0%);fill-opacity:1;"
        d="M 6.295 10.172 L 9.987 10.172 C 10.143 10.172 10.268 10.047 10.268 9.891 C 10.268 9.734 10.143 9.609 9.987 9.609 L 6.295 9.609 C 6.139 9.609 6.01 9.734 6.01 9.891 C 6.01 10.047 6.139 10.172 6.295 10.172 Z M 6.295 10.172"
        transform="matrix(1, 0, 0, 1, -2.220446049250313e-16, 0)" />
    <path style=" stroke:none;fill-rule:evenodd;fill:rgb(0%,0%,0%);fill-opacity:1;"
        d="M 15.831 15.41 L 18.12 15.41 C 18.276 15.41 18.401 15.281 18.401 15.129 C 18.401 14.973 18.276 14.848 18.12 14.848 L 15.831 14.848 C 15.674 14.848 15.549 14.973 15.549 15.129 C 15.549 15.281 15.674 15.41 15.831 15.41 Z M 15.831 15.41"
        transform="matrix(1, 0, 0, 1, -2.220446049250313e-16, 0)" />
    <path style=" stroke:none;fill-rule:evenodd;fill:rgb(0%,0%,0%);fill-opacity:1;"
        d="M 5.581 14.75 L 10.698 14.75 C 10.854 14.75 10.983 14.625 10.983 14.473 C 10.983 14.317 10.854 14.192 10.698 14.192 L 5.581 14.192 C 5.424 14.192 5.299 14.317 5.299 14.473 C 5.299 14.625 5.424 14.75 5.581 14.75 Z M 5.581 14.75"
        transform="matrix(1, 0, 0, 1, -2.220446049250313e-16, 0)" />
    <path style=" stroke:none;fill-rule:evenodd;fill:rgb(0%,0%,0%);fill-opacity:1;"
        d="M 15.389 18.246 L 18.557 18.246 C 18.713 18.246 18.842 18.117 18.842 17.965 C 18.842 17.809 18.713 17.684 18.557 17.684 L 15.389 17.684 C 15.233 17.684 15.108 17.809 15.108 17.965 C 15.108 18.117 15.233 18.246 15.389 18.246 Z M 15.389 18.246"
        transform="matrix(1, 0, 0, 1, -2.220446049250313e-16, 0)" />
    <path style=" stroke:none;fill-rule:evenodd;fill:rgb(0%,0%,0%);fill-opacity:1;"
        d="M 4.87 19.332 L 11.409 19.332 C 11.565 19.332 11.694 19.207 11.694 19.051 C 11.694 18.895 11.565 18.77 11.409 18.77 L 4.87 18.77 C 4.713 18.77 4.584 18.895 4.584 19.051 C 4.584 19.207 4.713 19.332 4.87 19.332 Z M 4.87 19.332"
        transform="matrix(1, 0, 0, 1, -2.220446049250313e-16, 0)" />
    <path style=" stroke:none;fill-rule:evenodd;fill:rgb(0%,0%,0%);fill-opacity:1;"
        d="M 14.948 21.082 L 18.92 21.082 C 19.077 21.082 19.202 20.957 19.202 20.801 C 19.202 20.645 19.077 20.52 18.92 20.52 L 14.948 20.52 C 14.791 20.52 14.666 20.645 14.666 20.801 C 14.666 20.957 14.791 21.082 14.948 21.082 Z M 14.948 21.082"
        transform="matrix(1, 0, 0, 1, -2.220446049250313e-16, 0)" />
    <path style=" stroke:none;fill-rule:evenodd;fill:rgb(0%,0%,0%);fill-opacity:1;"
        d="M 4.307 23.883 L 11.561 19.285 C 11.694 19.203 11.733 19.031 11.647 18.899 C 11.565 18.77 11.389 18.731 11.256 18.813 L 4.002 23.41 C 3.87 23.492 3.831 23.668 3.916 23.797 C 4.002 23.93 4.178 23.969 4.307 23.883 Z M 4.307 23.883"
        transform="matrix(1, 0, 0, 1, -2.220446049250313e-16, 0)" />
    <path style=" stroke:none;fill-rule:evenodd;fill:rgb(0%,0%,0%);fill-opacity:1;"
        d="M 15.827 23.145 L 19.073 21.086 C 19.206 21.004 19.241 20.832 19.159 20.699 C 19.073 20.57 18.897 20.531 18.768 20.613 L 15.522 22.672 C 15.389 22.754 15.354 22.926 15.436 23.059 C 15.522 23.188 15.698 23.227 15.827 23.145 Z M 15.827 23.145"
        transform="matrix(1, 0, 0, 1, -2.220446049250313e-16, 0)" />
    <path style=" stroke:none;fill-rule:evenodd;fill:rgb(0%,0%,0%);fill-opacity:1;"
        d="M 5.088 18.852 L 10.92 15.156 C 11.053 15.074 11.092 14.902 11.006 14.77 C 10.924 14.641 10.748 14.602 10.616 14.684 L 4.784 18.379 C 4.651 18.465 4.612 18.637 4.698 18.766 C 4.784 18.899 4.959 18.938 5.088 18.852 Z M 5.088 18.852"
        transform="matrix(1, 0, 0, 1, -2.220446049250313e-16, 0)" />
    <path style=" stroke:none;fill-rule:evenodd;fill:rgb(0%,0%,0%);fill-opacity:1;"
        d="M 15.143 20.77 L 18.756 18.481 C 18.885 18.399 18.924 18.223 18.842 18.094 C 18.756 17.961 18.581 17.922 18.452 18.008 L 14.838 20.297 C 14.706 20.379 14.666 20.551 14.752 20.684 C 14.838 20.813 15.014 20.852 15.143 20.77 Z M 15.143 20.77"
        transform="matrix(1, 0, 0, 1, -2.220446049250313e-16, 0)" />
    <path style=" stroke:none;fill-rule:evenodd;fill:rgb(0%,0%,0%);fill-opacity:1;"
        d="M 6.041 14.383 L 10.221 10.383 C 10.334 10.277 10.334 10.098 10.229 9.984 C 10.12 9.875 9.94 9.871 9.827 9.981 L 5.647 13.981 C 5.534 14.086 5.534 14.266 5.639 14.375 C 5.748 14.488 5.928 14.488 6.041 14.383 Z M 6.041 14.383"
        transform="matrix(1, 0, 0, 1, -2.220446049250313e-16, 0)" />
    <path style=" stroke:none;fill-rule:evenodd;fill:rgb(0%,0%,0%);fill-opacity:1;"
        d="M 10.998 22.602 L 5.022 18.813 C 4.889 18.731 4.713 18.77 4.631 18.899 C 4.545 19.031 4.584 19.203 4.717 19.285 L 10.694 23.074 C 10.827 23.156 10.998 23.117 11.084 22.988 C 11.17 22.859 11.131 22.684 10.998 22.602 Z M 10.998 22.602"
        transform="matrix(1, 0, 0, 1, -2.220446049250313e-16, 0)" />
    <path style=" stroke:none;fill-rule:evenodd;fill:rgb(0%,0%,0%);fill-opacity:1;"
        d="M 10.174 17.543 L 5.663 14.684 C 5.534 14.602 5.358 14.641 5.272 14.77 C 5.186 14.902 5.225 15.074 5.358 15.156 L 9.87 18.016 C 10.002 18.102 10.178 18.063 10.26 17.934 C 10.346 17.801 10.307 17.629 10.174 17.543 Z M 10.174 17.543"
        transform="matrix(1, 0, 0, 1, -2.220446049250313e-16, 0)" />
    <path style=" stroke:none;fill-rule:evenodd;fill:rgb(0%,0%,0%);fill-opacity:1;"
        d="M 9.69 13.078 L 6.452 9.981 C 6.338 9.871 6.159 9.875 6.053 9.988 C 5.944 10.098 5.948 10.277 6.057 10.383 L 9.295 13.481 C 9.409 13.59 9.588 13.586 9.698 13.473 C 9.807 13.363 9.803 13.184 9.69 13.078 Z M 9.69 13.078"
        transform="matrix(1, 0, 0, 1, -2.220446049250313e-16, 0)" />
    <path style=" stroke:none;fill-rule:evenodd;fill:rgb(0%,0%,0%);fill-opacity:1;"
        d="M 18.592 17.582 L 16.006 15.106 C 15.893 15 15.713 15 15.604 15.113 C 15.495 15.223 15.498 15.402 15.612 15.508 L 18.198 17.984 C 18.311 18.094 18.491 18.09 18.6 17.981 C 18.709 17.867 18.706 17.692 18.592 17.582 Z M 18.592 17.582"
        transform="matrix(1, 0, 0, 1, -2.220446049250313e-16, 0)" />
    <path style=" stroke:none;fill-rule:evenodd;fill:rgb(0%,0%,0%);fill-opacity:1;"
        d="M 6.272 9.609 L 3.147 9.609 L 3.147 8.965 C 3.147 8.859 3.206 8.762 3.299 8.715 L 6.916 6.844 C 7.057 6.77 7.108 6.602 7.038 6.465 C 6.963 6.328 6.791 6.274 6.655 6.344 C 6.655 6.344 3.959 7.738 3.038 8.215 C 2.756 8.363 2.581 8.649 2.581 8.961 L 2.581 9.891 C 2.581 10.047 2.709 10.172 2.866 10.172 L 6.272 10.172 C 6.428 10.172 6.557 10.047 6.557 9.891 C 6.557 9.734 6.428 9.609 6.272 9.609 Z M 6.272 9.609"
        transform="matrix(1, 0, 0, 1, -2.220446049250313e-16, 0)" />
    <path style=" stroke:none;fill-rule:evenodd;fill:rgb(0%,0%,0%);fill-opacity:1;"
        d="M 15.819 14.848 L 13.991 14.848 L 13.991 14.684 C 13.991 14.578 14.049 14.481 14.143 14.434 L 16.268 13.336 C 16.405 13.262 16.459 13.094 16.389 12.957 C 16.315 12.82 16.143 12.766 16.006 12.836 C 16.006 12.836 14.534 13.598 13.881 13.938 C 13.6 14.082 13.424 14.367 13.424 14.684 L 13.424 15.129 C 13.424 15.281 13.553 15.41 13.709 15.41 L 15.819 15.41 C 15.975 15.41 16.104 15.281 16.104 15.129 C 16.104 14.973 15.975 14.848 15.819 14.848 Z M 15.819 14.848"
        transform="matrix(1, 0, 0, 1, -2.220446049250313e-16, 0)" />
    <path style=" stroke:none;fill-rule:evenodd;fill:rgb(0%,0%,0%);fill-opacity:1;"
        d="M 10.998 10.172 L 13.416 10.172 C 13.573 10.172 13.698 10.047 13.698 9.891 L 13.698 8.965 C 13.698 8.649 13.522 8.363 13.241 8.215 C 12.319 7.738 9.623 6.344 9.623 6.344 C 9.487 6.274 9.315 6.328 9.241 6.465 C 9.17 6.602 9.225 6.77 9.362 6.844 C 9.362 6.844 12.057 8.238 12.979 8.715 C 13.073 8.762 13.131 8.859 13.131 8.965 L 13.131 9.609 L 10.998 9.609 C 10.842 9.609 10.717 9.734 10.717 9.891 C 10.717 10.047 10.842 10.172 10.998 10.172 Z M 10.998 10.172"
        transform="matrix(1, 0, 0, 1, -2.220446049250313e-16, 0)" />
    <path style=" stroke:none;fill-rule:evenodd;fill:rgb(0%,0%,0%);fill-opacity:1;"
        d="M 19.057 15.41 L 20.241 15.41 C 20.397 15.41 20.526 15.281 20.526 15.129 L 20.526 14.684 C 20.526 14.367 20.35 14.082 20.069 13.938 C 19.416 13.598 17.944 12.836 17.944 12.836 C 17.807 12.766 17.635 12.82 17.561 12.957 C 17.491 13.094 17.541 13.262 17.682 13.336 C 17.682 13.336 19.155 14.098 19.807 14.434 C 19.901 14.481 19.959 14.578 19.959 14.684 L 19.959 14.848 L 19.057 14.848 C 18.901 14.848 18.776 14.973 18.776 15.129 C 18.776 15.281 18.901 15.41 19.057 15.41 Z M 19.057 15.41"
        transform="matrix(1, 0, 0, 1, -2.220446049250313e-16, 0)" />
    <path style=" stroke:none;fill-rule:evenodd;fill:rgb(0%,0%,0%);fill-opacity:1;"
        d="M 2.581 9.891 L 2.581 11.059 C 2.581 11.211 2.709 11.34 2.866 11.34 C 3.022 11.34 3.147 11.211 3.147 11.059 L 3.147 9.891 C 3.147 9.734 3.022 9.609 2.866 9.609 C 2.709 9.609 2.581 9.734 2.581 9.891 Z M 2.581 9.891"
        transform="matrix(1, 0, 0, 1, -2.220446049250313e-16, 0)" />
    <path style=" stroke:none;fill-rule:evenodd;fill:rgb(0%,0%,0%);fill-opacity:1;"
        d="M 13.424 15.129 L 13.424 15.852 C 13.424 16.004 13.549 16.133 13.706 16.133 C 13.862 16.133 13.991 16.004 13.991 15.852 L 13.991 15.129 C 13.991 14.973 13.862 14.848 13.706 14.848 C 13.549 14.848 13.424 14.973 13.424 15.129 Z M 13.424 15.129"
        transform="matrix(1, 0, 0, 1, -2.220446049250313e-16, 0)" />
    <path style=" stroke:none;fill-rule:evenodd;fill:rgb(0%,0%,0%);fill-opacity:1;"
        d="M 13.131 9.891 L 13.131 11.059 C 13.131 11.211 13.26 11.34 13.416 11.34 C 13.573 11.34 13.698 11.211 13.698 11.059 L 13.698 9.891 C 13.698 9.734 13.573 9.609 13.416 9.609 C 13.26 9.609 13.131 9.734 13.131 9.891 Z M 13.131 9.891"
        transform="matrix(1, 0, 0, 1, -2.220446049250313e-16, 0)" />
    <path style=" stroke:none;fill-rule:evenodd;fill:rgb(0%,0%,0%);fill-opacity:1;"
        d="M 19.959 15.129 L 19.959 15.852 C 19.959 16.004 20.084 16.133 20.241 16.133 C 20.397 16.133 20.526 16.004 20.526 15.852 L 20.526 15.129 C 20.526 14.973 20.397 14.848 20.241 14.848 C 20.084 14.848 19.959 14.973 19.959 15.129 Z M 19.959 15.129"
        transform="matrix(1, 0, 0, 1, -2.220446049250313e-16, 0)" />
    <path style=" stroke:none;fill-rule:evenodd;fill:rgb(0%,0%,0%);fill-opacity:1;"
        d="M 17.893 7.984 L 18.424 7 C 18.502 6.856 18.498 6.68 18.413 6.539 C 18.327 6.399 18.174 6.313 18.006 6.313 L 17.327 6.313 C 17.166 6.313 17.022 6.391 16.932 6.52 L 15.35 8.863 C 15.256 9.008 15.245 9.192 15.327 9.344 C 15.409 9.496 15.569 9.59 15.745 9.59 L 16.725 9.59 L 15.913 11.117 C 15.827 11.277 15.873 11.481 16.018 11.59 C 16.17 11.699 16.377 11.688 16.51 11.559 C 17.245 10.856 18.737 9.43 19.405 8.789 C 19.541 8.656 19.584 8.453 19.514 8.277 C 19.44 8.102 19.268 7.984 19.077 7.984 L 17.893 7.984 Z M 17.85 6.875 L 17.323 7.859 C 17.245 8.004 17.248 8.18 17.334 8.32 C 17.416 8.461 17.573 8.547 17.737 8.547 L 18.842 8.547 L 16.967 10.344 L 17.448 9.442 C 17.491 9.356 17.491 9.25 17.436 9.164 C 17.385 9.082 17.295 9.031 17.194 9.031 L 15.92 9.031 L 17.377 6.875 L 17.85 6.875 Z M 17.85 6.875"
        transform="matrix(1, 0, 0, 1, -2.220446049250313e-16, 0)" />
    <path style=" stroke:none;fill-rule:evenodd;fill:rgb(0%,0%,0%);fill-opacity:1;"
        d="M 7.475 2.922 L 6.604 2.293 C 6.565 2.262 6.498 2.254 6.444 2.27 C 6.389 2.289 6.354 2.324 6.354 2.367 L 6.354 3.418 C 6.354 3.445 6.37 3.473 6.397 3.492 L 8.034 4.672 C 8.088 4.715 8.182 4.715 8.241 4.672 L 9.873 3.492 C 9.901 3.473 9.916 3.445 9.916 3.418 L 9.916 2.367 C 9.916 2.324 9.881 2.289 9.827 2.27 C 9.772 2.254 9.709 2.262 9.666 2.293 L 8.795 2.922 L 8.795 0.332 C 8.795 0.168 8.616 0.039 8.393 0.039 L 7.877 0.039 C 7.655 0.039 7.475 0.168 7.475 0.332 L 7.475 2.922 Z M 7.475 2.922"
        transform="matrix(1, 0, 0, 1, -2.220446049250313e-16, 0)" />
</svg>