<?xml version="1.0" encoding="utf-8"?>
<svg viewBox="0 0 24 24" xmlns="http://www.w3.org/2000/svg">
  <path style="stroke: none; fill-rule: evenodd; fill: rgb(0, 0, 0); fill-opacity: 1;" d="M 12.78 23.637 L 10.125 6.562 C 10.104 6.424 9.987 6.324 9.846 6.324 L 7.174 6.324 C 7.036 6.324 6.916 6.424 6.895 6.562 L 4.241 23.637 C 4.217 23.789 4.323 23.933 4.478 23.956 C 4.634 23.98 4.777 23.874 4.801 23.722 L 7.417 6.884 L 9.603 6.884 L 12.219 23.722 C 12.243 23.874 12.389 23.98 12.542 23.956 C 12.697 23.933 12.803 23.789 12.78 23.637 Z M 12.78 23.637" transform="matrix(1, 0, 0, 1, 0, -1.7763568394002505e-15)"/>
  <path style="stroke: none; fill-rule: evenodd; fill: rgb(0, 0, 0); fill-opacity: 1;" d="M 20.107 23.637 L 18.464 13.062 C 18.441 12.924 18.324 12.824 18.183 12.824 L 16.528 12.824 C 16.388 12.824 16.27 12.924 16.25 13.062 L 14.604 23.637 C 14.581 23.789 14.686 23.933 14.842 23.956 C 14.997 23.98 15.141 23.874 15.164 23.722 L 16.772 13.385 L 17.939 13.385 L 19.547 23.722 C 19.57 23.874 19.714 23.98 19.869 23.956 C 20.025 23.933 20.131 23.789 20.107 23.637 Z M 20.107 23.637" transform="matrix(1, 0, 0, 1, 0, -1.7763568394002505e-15)"/>
  <path style="stroke: none; fill-rule: evenodd; fill: rgb(0, 0, 0); fill-opacity: 1;" d="M 6.661 10.187 L 10.357 10.187 C 10.515 10.187 10.641 10.061 10.641 9.906 C 10.641 9.75 10.515 9.624 10.357 9.624 L 6.661 9.624 C 6.505 9.624 6.379 9.75 6.379 9.906 C 6.379 10.061 6.505 10.187 6.661 10.187 Z M 6.661 10.187" transform="matrix(1, 0, 0, 1, 0, -1.7763568394002505e-15)"/>
  <path style="stroke: none; fill-rule: evenodd; fill: rgb(0, 0, 0); fill-opacity: 1;" d="M 16.212 15.429 L 18.5 15.429 C 18.658 15.429 18.784 15.303 18.784 15.148 C 18.784 14.992 18.658 14.869 18.5 14.869 L 16.212 14.869 C 16.056 14.869 15.927 14.992 15.927 15.148 C 15.927 15.303 16.056 15.429 16.212 15.429 Z M 16.212 15.429" transform="matrix(1, 0, 0, 1, 0, -1.7763568394002505e-15)"/>
  <path style="stroke: none; fill-rule: evenodd; fill: rgb(0, 0, 0); fill-opacity: 1;" d="M 5.948 14.772 L 11.072 14.772 C 11.228 14.772 11.354 14.646 11.354 14.49 C 11.354 14.335 11.228 14.209 11.072 14.209 L 5.948 14.209 C 5.792 14.209 5.666 14.335 5.666 14.49 C 5.666 14.646 5.792 14.772 5.948 14.772 Z M 5.948 14.772" transform="matrix(1, 0, 0, 1, 0, -1.7763568394002505e-15)"/>
  <path style="stroke: none; fill-rule: evenodd; fill: rgb(0, 0, 0); fill-opacity: 1;" d="M 15.769 18.269 L 18.943 18.269 C 19.098 18.269 19.227 18.142 19.227 17.987 C 19.227 17.834 19.098 17.708 18.943 17.708 L 15.769 17.708 C 15.613 17.708 15.487 17.834 15.487 17.987 C 15.487 18.142 15.613 18.269 15.769 18.269 Z M 15.769 18.269" transform="matrix(1, 0, 0, 1, 0, -1.7763568394002505e-15)"/>
  <path style="stroke: none; fill-rule: evenodd; fill: rgb(0, 0, 0); fill-opacity: 1;" d="M 5.235 19.357 L 11.785 19.357 C 11.941 19.357 12.067 19.231 12.067 19.075 C 12.067 18.92 11.941 18.794 11.785 18.794 L 5.235 18.794 C 5.079 18.794 4.953 18.92 4.953 19.075 C 4.953 19.231 5.079 19.357 5.235 19.357 Z M 5.235 19.357" transform="matrix(1, 0, 0, 1, 0, -1.7763568394002505e-15)"/>
  <path style="stroke: none; fill-rule: evenodd; fill: rgb(0, 0, 0); fill-opacity: 1;" d="M 15.329 21.108 L 19.303 21.108 C 19.459 21.108 19.588 20.982 19.588 20.829 C 19.588 20.674 19.459 20.548 19.303 20.548 L 15.329 20.548 C 15.17 20.548 15.044 20.674 15.044 20.829 C 15.044 20.982 15.17 21.108 15.329 21.108 Z M 15.329 21.108" transform="matrix(1, 0, 0, 1, 0, -1.7763568394002505e-15)"/>
  <path style="stroke: none; fill-rule: evenodd; fill: rgb(0, 0, 0); fill-opacity: 1;" d="M 4.675 23.915 L 11.938 19.313 C 12.07 19.228 12.108 19.055 12.023 18.926 C 11.941 18.794 11.765 18.756 11.633 18.841 L 4.367 23.44 C 4.235 23.525 4.197 23.698 4.282 23.83 C 4.367 23.959 4.543 23.997 4.675 23.915 Z M 4.675 23.915" transform="matrix(1, 0, 0, 1, 0, -1.7763568394002505e-15)"/>
  <path style="stroke: none; fill-rule: evenodd; fill: rgb(0, 0, 0); fill-opacity: 1;" d="M 16.209 23.173 L 19.456 21.117 C 19.588 21.032 19.626 20.859 19.541 20.727 C 19.459 20.598 19.283 20.56 19.151 20.642 L 15.904 22.701 C 15.772 22.783 15.73 22.959 15.816 23.088 C 15.901 23.22 16.077 23.258 16.209 23.173 Z M 16.209 23.173" transform="matrix(1, 0, 0, 1, 0, -1.7763568394002505e-15)"/>
  <path style="stroke: none; fill-rule: evenodd; fill: rgb(0, 0, 0); fill-opacity: 1;" d="M 5.455 18.879 L 11.295 15.18 C 11.427 15.095 11.465 14.922 11.38 14.79 C 11.295 14.661 11.122 14.622 10.99 14.705 L 5.15 18.404 C 5.018 18.489 4.98 18.662 5.065 18.794 C 5.147 18.923 5.323 18.961 5.455 18.879 Z M 5.455 18.879" transform="matrix(1, 0, 0, 1, 0, -1.7763568394002505e-15)"/>
  <path style="stroke: none; fill-rule: evenodd; fill: rgb(0, 0, 0); fill-opacity: 1;" d="M 15.522 20.797 L 19.139 18.506 C 19.271 18.421 19.309 18.248 19.224 18.116 C 19.142 17.987 18.966 17.949 18.834 18.031 L 15.217 20.322 C 15.085 20.407 15.047 20.58 15.132 20.709 C 15.214 20.841 15.39 20.879 15.522 20.797 Z M 15.522 20.797" transform="matrix(1, 0, 0, 1, 0, -1.7763568394002505e-15)"/>
  <path style="stroke: none; fill-rule: evenodd; fill: rgb(0, 0, 0); fill-opacity: 1;" d="M 6.408 14.402 L 10.594 10.398 C 10.706 10.29 10.709 10.111 10.6 9.999 C 10.492 9.888 10.313 9.885 10.198 9.994 L 6.015 13.998 C 5.904 14.106 5.898 14.282 6.009 14.397 C 6.118 14.508 6.297 14.511 6.408 14.402 Z M 6.408 14.402" transform="matrix(1, 0, 0, 1, 0, -1.7763568394002505e-15)"/>
  <path style="stroke: none; fill-rule: evenodd; fill: rgb(0, 0, 0); fill-opacity: 1;" d="M 11.372 22.631 L 5.387 18.841 C 5.255 18.756 5.082 18.794 4.997 18.926 C 4.912 19.055 4.95 19.228 5.082 19.313 L 11.066 23.103 C 11.198 23.188 11.374 23.15 11.46 23.018 C 11.542 22.889 11.504 22.713 11.372 22.631 Z M 11.372 22.631" transform="matrix(1, 0, 0, 1, 0, -1.7763568394002505e-15)"/>
  <path style="stroke: none; fill-rule: evenodd; fill: rgb(0, 0, 0); fill-opacity: 1;" d="M 10.55 17.568 L 6.03 14.705 C 5.898 14.622 5.722 14.661 5.64 14.79 C 5.555 14.922 5.593 15.095 5.725 15.18 L 10.242 18.043 C 10.374 18.125 10.55 18.087 10.635 17.955 C 10.72 17.826 10.682 17.653 10.55 17.568 Z M 10.55 17.568" transform="matrix(1, 0, 0, 1, 0, -1.7763568394002505e-15)"/>
  <path style="stroke: none; fill-rule: evenodd; fill: rgb(0, 0, 0); fill-opacity: 1;" d="M 10.063 13.094 L 6.822 9.994 C 6.707 9.885 6.529 9.888 6.42 9.999 C 6.311 10.111 6.314 10.29 6.426 10.398 L 9.667 13.499 C 9.782 13.608 9.961 13.605 10.069 13.493 C 10.178 13.382 10.175 13.203 10.063 13.094 Z M 10.063 13.094" transform="matrix(1, 0, 0, 1, 0, -1.7763568394002505e-15)"/>
  <path style="stroke: none; fill-rule: evenodd; fill: rgb(0, 0, 0); fill-opacity: 1;" d="M 18.975 17.606 L 16.385 15.127 C 16.273 15.018 16.091 15.021 15.983 15.133 C 15.874 15.244 15.877 15.423 15.992 15.532 L 18.582 18.01 C 18.696 18.119 18.875 18.116 18.984 18.005 C 19.092 17.893 19.089 17.714 18.975 17.606 Z M 18.975 17.606" transform="matrix(1, 0, 0, 1, 0, -1.7763568394002505e-15)"/>
  <path style="stroke: none; fill-rule: evenodd; fill: rgb(0, 0, 0); fill-opacity: 1;" d="M 6.643 9.624 L 3.51 9.624 L 3.51 8.976 C 3.51 8.87 3.569 8.776 3.663 8.726 L 7.285 6.852 C 7.423 6.782 7.479 6.611 7.406 6.474 C 7.332 6.336 7.162 6.283 7.024 6.353 C 7.024 6.353 4.323 7.75 3.402 8.228 C 3.12 8.374 2.944 8.662 2.944 8.976 L 2.944 9.906 C 2.944 10.061 3.07 10.187 3.229 10.187 L 6.64 10.187 C 6.798 10.187 6.925 10.061 6.925 9.906 C 6.925 9.75 6.798 9.624 6.64 9.624 L 6.643 9.624 Z M 6.643 9.624" transform="matrix(1, 0, 0, 1, 0, -1.7763568394002505e-15)"/>
  <path style="stroke: none; fill-rule: evenodd; fill: rgb(0, 0, 0); fill-opacity: 1;" d="M 16.2 14.869 L 14.369 14.869 L 14.369 14.702 C 14.369 14.599 14.428 14.502 14.522 14.452 L 16.649 13.352 C 16.787 13.282 16.842 13.112 16.769 12.974 C 16.696 12.836 16.525 12.783 16.385 12.854 C 16.385 12.854 14.912 13.616 14.258 13.954 C 13.976 14.1 13.8 14.388 13.8 14.702 L 13.8 15.148 C 13.8 15.303 13.929 15.429 14.085 15.429 L 16.2 15.429 C 16.355 15.429 16.481 15.303 16.481 15.148 C 16.481 14.992 16.355 14.869 16.2 14.869 Z M 16.2 14.869" transform="matrix(1, 0, 0, 1, 0, -1.7763568394002505e-15)"/>
  <path style="stroke: none; fill-rule: evenodd; fill: rgb(0, 0, 0); fill-opacity: 1;" d="M 11.374 10.187 L 13.792 10.187 C 13.95 10.187 14.076 10.061 14.076 9.906 L 14.076 8.976 C 14.076 8.662 13.9 8.374 13.618 8.228 C 12.697 7.753 9.996 6.353 9.996 6.353 C 9.858 6.283 9.688 6.336 9.614 6.474 C 9.541 6.611 9.594 6.782 9.735 6.852 C 9.735 6.852 12.433 8.248 13.354 8.726 C 13.448 8.776 13.507 8.87 13.507 8.976 L 13.507 9.624 L 11.374 9.624 C 11.216 9.624 11.09 9.75 11.09 9.906 C 11.09 10.061 11.216 10.187 11.374 10.187 Z M 11.374 10.187" transform="matrix(1, 0, 0, 1, 0, -1.7763568394002505e-15)"/>
  <path style="stroke: none; fill-rule: evenodd; fill: rgb(0, 0, 0); fill-opacity: 1;" d="M 19.441 15.429 L 20.626 15.429 C 20.785 15.429 20.911 15.303 20.911 15.148 L 20.911 14.702 C 20.911 14.388 20.735 14.1 20.453 13.957 C 19.802 13.616 18.327 12.854 18.327 12.854 C 18.189 12.783 18.016 12.836 17.945 12.974 C 17.872 13.112 17.925 13.282 18.065 13.352 C 18.065 13.352 19.538 14.115 20.192 14.452 C 20.286 14.502 20.345 14.599 20.345 14.702 L 20.345 14.869 L 19.441 14.869 C 19.286 14.869 19.157 14.995 19.157 15.148 C 19.157 15.303 19.286 15.429 19.441 15.429 Z M 19.441 15.429" transform="matrix(1, 0, 0, 1, 0, -1.7763568394002505e-15)"/>
  <path style="stroke: none; fill-rule: evenodd; fill: rgb(0, 0, 0); fill-opacity: 1;" d="M 2.944 9.906 L 2.944 11.073 C 2.944 11.229 3.07 11.355 3.229 11.355 C 3.384 11.355 3.51 11.229 3.51 11.073 L 3.51 9.906 C 3.51 9.75 3.384 9.624 3.229 9.624 C 3.07 9.624 2.944 9.75 2.944 9.906 Z M 2.944 9.906" transform="matrix(1, 0, 0, 1, 0, -1.7763568394002505e-15)"/>
  <path style="stroke: none; fill-rule: evenodd; fill: rgb(0, 0, 0); fill-opacity: 1;" d="M 13.8 15.148 L 13.8 15.872 C 13.8 16.028 13.929 16.154 14.085 16.154 C 14.24 16.154 14.369 16.028 14.369 15.872 L 14.369 15.148 C 14.369 14.992 14.24 14.869 14.085 14.869 C 13.929 14.869 13.8 14.992 13.8 15.148 Z M 13.8 15.148" transform="matrix(1, 0, 0, 1, 0, -1.7763568394002505e-15)"/>
  <path style="stroke: none; fill-rule: evenodd; fill: rgb(0, 0, 0); fill-opacity: 1;" d="M 13.507 9.906 L 13.507 11.073 C 13.507 11.229 13.636 11.355 13.792 11.355 C 13.95 11.355 14.076 11.229 14.076 11.073 L 14.076 9.906 C 14.076 9.75 13.95 9.624 13.792 9.624 C 13.636 9.624 13.507 9.75 13.507 9.906 Z M 13.507 9.906" transform="matrix(1, 0, 0, 1, 0, -1.7763568394002505e-15)"/>
  <path style="stroke: none; fill-rule: evenodd; fill: rgb(0, 0, 0); fill-opacity: 1;" d="M 20.345 15.148 L 20.345 15.872 C 20.345 16.028 20.471 16.154 20.626 16.154 C 20.785 16.154 20.911 16.028 20.911 15.872 L 20.911 15.148 C 20.911 14.992 20.785 14.869 20.626 14.869 C 20.471 14.869 20.345 14.992 20.345 15.148 Z M 20.345 15.148" transform="matrix(1, 0, 0, 1, 0, -1.7763568394002505e-15)"/>
  <path style="stroke: none; fill-rule: evenodd; fill: rgb(0, 0, 0); fill-opacity: 1;" d="M 18.277 7.996 L 18.808 7.01 C 18.884 6.867 18.881 6.691 18.796 6.55 C 18.711 6.409 18.555 6.324 18.391 6.324 L 17.708 6.324 C 17.549 6.324 17.403 6.4 17.315 6.532 L 15.73 8.876 C 15.634 9.02 15.625 9.205 15.707 9.357 C 15.789 9.51 15.95 9.603 16.124 9.603 L 17.106 9.603 L 16.294 11.132 C 16.206 11.293 16.253 11.496 16.399 11.607 C 16.549 11.716 16.757 11.704 16.889 11.575 C 17.625 10.871 19.119 9.442 19.787 8.803 C 19.928 8.671 19.972 8.465 19.899 8.289 C 19.825 8.113 19.652 7.996 19.459 7.996 L 18.277 7.996 Z M 18.233 6.884 L 17.702 7.87 C 17.625 8.014 17.628 8.19 17.713 8.33 C 17.801 8.471 17.954 8.559 18.121 8.559 L 19.227 8.559 L 17.347 10.357 L 17.828 9.454 C 17.875 9.369 17.872 9.263 17.819 9.178 C 17.769 9.093 17.675 9.043 17.579 9.043 L 16.3 9.043 L 17.757 6.884 L 18.233 6.884 Z M 18.233 6.884" transform="matrix(1, 0, 0, 1, 0, -1.7763568394002505e-15)"/>
  <path style="stroke: none; fill-rule: evenodd; fill: rgb(0, 0, 0); fill-opacity: 1;" d="M 9.169 1.824 L 10.04 2.452 C 10.081 2.481 10.145 2.493 10.198 2.475 C 10.254 2.458 10.289 2.42 10.289 2.379 L 10.289 1.328 C 10.289 1.299 10.274 1.273 10.248 1.252 L 8.611 0.073 C 8.553 0.029 8.459 0.029 8.403 0.073 L 6.766 1.252 C 6.74 1.273 6.722 1.299 6.722 1.328 L 6.722 2.379 C 6.722 2.42 6.757 2.458 6.813 2.475 C 6.869 2.493 6.933 2.481 6.974 2.452 L 7.846 1.824 L 7.846 4.417 C 7.846 4.579 8.028 4.711 8.25 4.711 L 8.764 4.711 C 8.987 4.711 9.169 4.579 9.169 4.417 L 9.169 1.824 Z M 9.169 1.824" transform="matrix(1, 0, 0, 1, 0, -1.7763568394002505e-15)"/>
</svg>