<?xml version="1.0" encoding="UTF-8"?>
<svg xmlns="http://www.w3.org/2000/svg" xmlns:xlink="http://www.w3.org/1999/xlink" width="24px"
    height="24px" viewBox="0 0 24 23" version="1.1">
    <path style=" stroke:none;fill-rule:nonzero;fill:rgb(0%,0%,0%);fill-opacity:1;"
        d="M 23.207031 5.742188 L 22.078125 5.742188 L 22.078125 3.421875 C 22.078125 3 21.699219 2.65625 21.234375 2.65625 C 20.765625 2.65625 20.386719 2.996094 20.386719 3.421875 L 20.386719 5.742188 L 17.855469 5.742188 L 17.855469 3.421875 C 17.855469 3 17.476562 2.65625 17.007812 2.65625 C 16.542969 2.65625 16.164062 2.996094 16.164062 3.421875 L 16.164062 5.742188 L 15.027344 5.742188 C 14.695312 5.742188 14.429688 5.988281 14.429688 6.285156 L 14.429688 7.910156 C 14.429688 8.210938 14.699219 8.453125 15.027344 8.453125 L 15.195312 8.453125 L 15.195312 10.46875 C 15.195312 11.605469 16.21875 12.527344 17.480469 12.527344 L 17.789062 12.527344 L 17.789062 14.589844 C 17.789062 14.832031 18.007812 15.03125 18.277344 15.03125 L 18.878906 15.03125 L 18.878906 16.304688 C 18.878906 19.757812 15.765625 22.558594 11.941406 22.558594 C 8.117188 22.558594 5.003906 19.75 5.003906 16.304688 L 5.003906 15.59375 L 6.65625 14.101562 C 8.507812 12.433594 9.523438 10.214844 9.523438 7.859375 C 9.523438 5.5 8.503906 3.28125 6.65625 1.617188 L 4.933594 0.0625 C 4.839844 -0.0195312 4.6875 -0.0195312 4.589844 0.0625 L 2.863281 1.617188 C -0.953125 5.058594 -0.953125 10.660156 2.863281 14.105469 L 4.519531 15.597656 L 4.519531 16.3125 C 4.519531 20 7.84375 23 11.9375 23 C 16.027344 23 19.355469 20 19.355469 16.3125 L 19.355469 15.035156 L 19.953125 15.035156 C 20.226562 15.035156 20.445312 14.839844 20.445312 14.59375 L 20.445312 12.535156 L 20.753906 12.535156 C 22.011719 12.535156 23.035156 11.609375 23.035156 10.472656 L 23.035156 8.457031 L 23.203125 8.457031 C 23.539062 8.457031 23.804688 8.214844 23.804688 7.914062 L 23.804688 6.292969 C 23.808594 5.988281 23.535156 5.742188 23.210938 5.742188 Z M 3.207031 1.925781 L 4.761719 0.523438 L 6.320312 1.925781 C 8.082031 3.511719 9.046875 5.621094 9.046875 7.863281 C 9.046875 10.109375 8.082031 12.214844 6.320312 13.804688 L 5.007812 14.984375 L 5.007812 11.464844 L 7.101562 9.578125 C 7.195312 9.496094 7.195312 9.359375 7.101562 9.273438 C 7.011719 9.1875 6.855469 9.1875 6.757812 9.273438 L 5.007812 10.847656 L 5.007812 8.308594 L 7.101562 6.425781 C 7.195312 6.339844 7.195312 6.203125 7.101562 6.117188 C 7.011719 6.03125 6.855469 6.03125 6.757812 6.117188 L 5.007812 7.695312 L 5.007812 4.085938 C 5.007812 3.96875 4.902344 3.871094 4.769531 3.871094 C 4.636719 3.871094 4.527344 3.96875 4.527344 4.085938 L 4.527344 7.6875 L 2.777344 6.109375 C 2.683594 6.027344 2.53125 6.027344 2.433594 6.109375 C 2.339844 6.195312 2.339844 6.332031 2.433594 6.417969 L 4.527344 8.304688 L 4.527344 10.84375 L 2.777344 9.265625 C 2.683594 9.183594 2.53125 9.183594 2.433594 9.265625 C 2.339844 9.351562 2.339844 9.488281 2.433594 9.574219 L 4.527344 11.460938 L 4.527344 14.980469 L 3.207031 13.796875 C -0.421875 10.523438 -0.421875 5.195312 3.207031 1.925781 Z M 20.867188 3.421875 C 20.867188 3.242188 21.03125 3.09375 21.234375 3.09375 C 21.433594 3.09375 21.597656 3.242188 21.597656 3.421875 L 21.597656 5.742188 L 20.867188 5.742188 Z M 17.003906 3.09375 C 17.203125 3.09375 17.367188 3.242188 17.367188 3.421875 L 17.367188 5.742188 L 16.640625 5.742188 L 16.640625 3.421875 C 16.640625 3.242188 16.804688 3.09375 17.003906 3.09375 Z M 19.960938 14.59375 C 19.960938 14.597656 19.957031 14.597656 19.957031 14.597656 L 18.273438 14.59375 L 18.277344 12.535156 L 19.960938 12.535156 Z M 20.75 12.097656 L 17.480469 12.097656 C 16.488281 12.097656 15.675781 11.371094 15.675781 10.472656 L 15.675781 8.457031 L 22.554688 8.457031 L 22.554688 10.472656 C 22.554688 11.363281 21.746094 12.097656 20.75 12.097656 Z M 23.328125 7.910156 C 23.328125 7.96875 23.273438 8.015625 23.207031 8.015625 L 15.027344 8.015625 C 14.960938 8.015625 14.910156 7.96875 14.910156 7.910156 L 14.910156 6.285156 C 14.910156 6.226562 14.960938 6.179688 15.027344 6.179688 L 23.207031 6.179688 C 23.273438 6.179688 23.328125 6.226562 23.328125 6.285156 Z M 23.328125 7.910156 " />
</svg>