<?xml version="1.0" encoding="UTF-8"?>
<svg xmlns="http://www.w3.org/2000/svg" xmlns:xlink="http://www.w3.org/1999/xlink" width="24px"
    height="24px" viewBox="0 0 24 20" version="1.1">
    <path style=" stroke:none;fill-rule:evenodd;fill:rgb(0%,0%,0%);fill-opacity:1;"
        d="M 12.28125 14.074219 L 12.28125 19.257812 L 15.589844 19.257812 C 15.792969 19.257812 15.957031 19.425781 15.957031 19.628906 C 15.957031 19.835938 15.792969 20 15.589844 20 L 8.238281 20 C 8.035156 20 7.867188 19.835938 7.867188 19.628906 C 7.867188 19.425781 8.035156 19.257812 8.238281 19.257812 L 11.546875 19.257812 L 11.546875 14.074219 L 0.882812 14.074219 C 0.21875 14.074219 -0.167969 13.503906 0.0703125 12.882812 L 4.820312 0.578125 C 4.949219 0.246094 5.3125 0 5.664062 0 L 18.164062 0 C 18.515625 0 18.878906 0.246094 19.007812 0.578125 L 23.753906 12.882812 C 23.996094 13.503906 23.605469 14.074219 22.941406 14.074219 Z M 8.90625 0.742188 L 5.664062 0.742188 C 5.613281 0.742188 5.523438 0.800781 5.507812 0.847656 L 4.402344 3.703125 L 8.414062 3.703125 Z M 9.652344 0.742188 L 9.160156 3.703125 L 14.664062 3.703125 L 14.175781 0.742188 Z M 14.921875 0.742188 L 15.410156 3.703125 L 19.421875 3.703125 L 18.320312 0.847656 C 18.304688 0.800781 18.214844 0.742188 18.164062 0.742188 Z M 14.789062 4.445312 L 9.039062 4.445312 L 8.425781 8.148438 L 15.402344 8.148438 Z M 8.292969 4.445312 L 4.191406 4.445312 C 4.167969 4.445312 4.144531 4.441406 4.121094 4.4375 L 2.6875 8.148438 L 7.679688 8.148438 Z M 15.53125 4.445312 L 16.144531 8.148438 L 21.136719 8.148438 L 19.707031 4.4375 C 19.683594 4.441406 19.660156 4.445312 19.632812 4.445312 Z M 16.257812 13.332031 L 15.523438 8.890625 L 8.304688 8.890625 L 7.566406 13.332031 Z M 6.820312 13.332031 L 7.558594 8.890625 L 2.402344 8.890625 L 0.757812 13.148438 C 0.703125 13.285156 0.738281 13.332031 0.882812 13.332031 Z M 17.003906 13.332031 L 22.941406 13.332031 C 23.089844 13.332031 23.121094 13.285156 23.070312 13.148438 L 21.425781 8.890625 L 16.269531 8.890625 Z M 17.003906 13.332031 " />
</svg>