<?xml version="1.0" encoding="utf-8"?>
<svg viewBox="0 0 24 24" fill="none" xmlns="http://www.w3.org/2000/svg">
  <path fill-rule="evenodd" clip-rule="evenodd" d="M 10.204 8.428 L 10.204 6.846 C 10.204 6.7 10.322 6.582 10.466 6.582 L 13.633 6.582 C 13.778 6.582 13.897 6.7 13.897 6.846 L 13.897 8.428 L 15.48 8.428 C 15.626 8.428 15.744 8.546 15.744 8.692 L 15.744 23.731 C 15.744 23.877 15.626 23.995 15.48 23.995 L 8.62 23.995 C 8.474 23.995 8.356 23.877 8.356 23.731 L 8.356 8.692 C 8.356 8.546 8.474 8.428 8.62 8.428 L 10.204 8.428 Z M 8.884 23.468 L 15.216 23.468 L 15.216 8.956 L 8.884 8.956 L 8.884 23.468 Z M 10.73 8.428 L 13.37 8.428 L 13.37 7.109 L 10.73 7.109 L 10.73 8.428 Z M 12.499 20.187 C 12.499 20.243 12.495 20.291 12.483 20.336 C 12.455 20.444 12.394 20.533 12.257 20.56 C 12.119 20.587 12.029 20.526 11.963 20.437 C 11.936 20.4 11.913 20.357 11.892 20.304 L 9.976 15.516 C 9.837 15.167 10.113 14.888 10.463 15.019 L 11.545 15.424 L 11.545 12.392 C 11.545 12.336 11.549 12.287 11.561 12.242 C 11.589 12.135 11.649 12.045 11.786 12.018 C 11.924 11.991 12.014 12.052 12.081 12.142 C 12.108 12.179 12.13 12.223 12.151 12.274 L 14.066 17.064 C 14.206 17.411 13.93 17.692 13.58 17.56 L 12.499 17.154 L 12.499 20.187 Z M 11.971 19.081 L 11.971 16.774 C 11.971 16.589 12.155 16.461 12.328 16.527 L 13.452 16.948 L 12.072 13.499 L 12.072 15.805 C 12.072 15.989 11.888 16.117 11.716 16.053 L 10.591 15.631 L 11.971 19.081 Z" fill="black" style=""/>
  <path fill-rule="evenodd" clip-rule="evenodd" d="M 12.707 1.812 L 13.559 2.432 C 13.6 2.462 13.662 2.471 13.716 2.455 C 13.77 2.439 13.805 2.401 13.805 2.358 L 13.805 1.322 C 13.805 1.294 13.789 1.267 13.763 1.248 L 12.162 0.082 C 12.106 0.041 12.014 0.041 11.958 0.082 L 10.357 1.248 C 10.331 1.267 10.315 1.294 10.315 1.322 L 10.315 2.358 C 10.315 2.401 10.35 2.439 10.404 2.455 C 10.458 2.471 10.52 2.462 10.561 2.432 L 11.413 1.812 L 11.413 4.374 C 11.413 4.533 11.59 4.662 11.808 4.662 L 12.312 4.662 C 12.53 4.662 12.707 4.533 12.707 4.374 L 12.707 1.812 Z" fill="black" style=""/>
</svg>