<?xml version="1.0" encoding="UTF-8"?>
<svg xmlns="http://www.w3.org/2000/svg" xmlns:xlink="http://www.w3.org/1999/xlink" width="24px"
    height="24px" viewBox="0 0 24 24" version="1.1">
    <path style=" stroke:none;fill-rule:evenodd;fill:rgb(0%,0%,0%);fill-opacity:1;"
        d="M 8.167969 17.429688 L 2.167969 23.351562 C 2.019531 23.5 2.019531 23.742188 2.167969 23.890625 C 2.320312 24.035156 2.5625 24.035156 2.710938 23.890625 L 8.710938 17.964844 C 8.859375 17.820312 8.859375 17.578125 8.710938 17.429688 C 8.558594 17.28125 8.316406 17.28125 8.167969 17.429688 Z M 0.65625 21.859375 L 7.691406 14.910156 C 7.84375 14.761719 7.84375 14.519531 7.691406 14.371094 C 7.542969 14.222656 7.300781 14.222656 7.148438 14.371094 L 0.113281 21.320312 C -0.0390625 21.46875 -0.0390625 21.710938 0.113281 21.859375 C 0.261719 22.003906 0.503906 22.003906 0.65625 21.859375 Z M 0.65625 21.859375 " />
    <path style=" stroke:none;fill-rule:evenodd;fill:rgb(0%,0%,0%);fill-opacity:1;"
        d="M 16.898438 12.839844 C 14.835938 13.75 12.632812 14.886719 10.660156 16.769531 C 10.507812 16.914062 10.269531 16.914062 10.125 16.769531 L 10.121094 16.765625 C 9.378906 16.039062 8.0625 14.738281 7.320312 14.003906 C 7.171875 13.859375 7.171875 13.621094 7.316406 13.472656 C 7.316406 13.472656 7.320312 13.472656 7.320312 13.472656 C 8.761719 11.996094 9.773438 10.394531 10.578125 8.816406 C 10.671875 8.632812 10.597656 8.402344 10.410156 8.308594 C 10.21875 8.214844 9.988281 8.289062 9.894531 8.476562 C 9.121094 9.988281 8.152344 11.53125 6.765625 12.945312 C 6.328125 13.386719 6.332031 14.101562 6.777344 14.539062 C 7.519531 15.273438 8.839844 16.574219 9.582031 17.304688 C 10.027344 17.742188 10.746094 17.746094 11.195312 17.3125 C 13.097656 15.496094 15.222656 14.410156 17.210938 13.535156 C 17.40625 13.449219 17.492188 13.222656 17.40625 13.03125 C 17.320312 12.84375 17.09375 12.757812 16.898438 12.839844 Z M 16.898438 12.839844 " />
    <path style=" stroke:none;fill-rule:evenodd;fill:rgb(0%,0%,0%);fill-opacity:1;"
        d="M 8.824219 13.1875 L 11.910156 16.234375 C 12.058594 16.382812 12.300781 16.382812 12.453125 16.234375 C 12.601562 16.085938 12.601562 15.84375 12.453125 15.695312 L 9.367188 12.652344 C 9.21875 12.503906 8.976562 12.503906 8.824219 12.652344 C 8.675781 12.800781 8.675781 13.039062 8.824219 13.1875 Z M 8.824219 13.1875 " />
    <path style=" stroke:none;fill-rule:evenodd;fill:rgb(0%,0%,0%);fill-opacity:1;"
        d="M 19.691406 10.863281 L 23.648438 6.957031 C 23.863281 6.742188 23.984375 6.453125 23.984375 6.152344 C 23.984375 5.851562 23.863281 5.5625 23.648438 5.347656 C 23.554688 5.253906 23.457031 5.15625 23.359375 5.0625 C 23.144531 4.851562 22.851562 4.730469 22.546875 4.730469 C 22.242188 4.730469 21.949219 4.851562 21.730469 5.0625 L 17.773438 8.972656 C 17.625 9.121094 17.625 9.359375 17.773438 9.507812 C 17.925781 9.65625 18.167969 9.65625 18.316406 9.507812 L 22.273438 5.597656 C 22.347656 5.527344 22.445312 5.488281 22.546875 5.488281 C 22.648438 5.488281 22.746094 5.527344 22.816406 5.597656 L 23.105469 5.882812 C 23.179688 5.957031 23.21875 6.050781 23.21875 6.152344 C 23.21875 6.253906 23.179688 6.347656 23.105469 6.421875 L 19.148438 10.328125 C 19 10.476562 19 10.714844 19.148438 10.863281 C 19.296875 11.011719 19.542969 11.011719 19.691406 10.863281 Z M 19.691406 10.863281 " />
    <path style=" stroke:none;fill-rule:evenodd;fill:rgb(0%,0%,0%);fill-opacity:1;"
        d="M 15.21875 6.449219 L 19.175781 2.539062 C 19.390625 2.324219 19.511719 2.035156 19.511719 1.734375 C 19.511719 1.433594 19.390625 1.144531 19.175781 0.929688 C 19.082031 0.835938 18.984375 0.742188 18.886719 0.648438 C 18.671875 0.433594 18.378906 0.3125 18.074219 0.3125 C 17.769531 0.3125 17.476562 0.433594 17.257812 0.648438 L 13.300781 4.554688 C 13.152344 4.703125 13.152344 4.941406 13.300781 5.089844 C 13.453125 5.238281 13.695312 5.238281 13.84375 5.089844 L 17.800781 1.183594 C 17.875 1.109375 17.972656 1.070312 18.074219 1.070312 C 18.175781 1.070312 18.273438 1.109375 18.34375 1.183594 L 18.632812 1.46875 C 18.707031 1.539062 18.746094 1.632812 18.746094 1.734375 C 18.746094 1.835938 18.707031 1.933594 18.632812 2.003906 C 18.632812 2.003906 14.675781 5.910156 14.675781 5.910156 C 14.527344 6.058594 14.527344 6.300781 14.675781 6.445312 C 14.824219 6.59375 15.070312 6.59375 15.21875 6.445312 Z M 15.21875 6.449219 " />
    <path style=" stroke:none;fill-rule:evenodd;fill:rgb(0%,0%,0%);fill-opacity:1;"
        d="M 20.476562 12.710938 C 20.925781 12.269531 20.925781 11.546875 20.476562 11.105469 C 18.945312 9.589844 14.59375 5.292969 13.058594 3.777344 C 12.609375 3.335938 11.878906 3.335938 11.429688 3.777344 L 10.023438 5.167969 C 9.574219 5.613281 9.574219 6.332031 10.023438 6.777344 C 11.554688 8.292969 15.90625 12.589844 17.441406 14.101562 C 17.890625 14.546875 18.617188 14.546875 19.070312 14.101562 C 19.484375 13.691406 20.058594 13.125 20.476562 12.710938 Z M 19.933594 12.175781 L 18.527344 13.566406 C 18.375 13.714844 18.132812 13.714844 17.984375 13.566406 L 10.566406 6.242188 C 10.414062 6.09375 10.414062 5.855469 10.566406 5.707031 L 11.972656 4.316406 C 12.125 4.167969 12.367188 4.167969 12.515625 4.316406 C 12.515625 4.316406 19.933594 11.640625 19.933594 11.640625 C 20.085938 11.789062 20.085938 12.027344 19.933594 12.175781 Z M 19.933594 12.175781 " />
    <path style=" stroke:none;fill-rule:evenodd;fill:rgb(0%,0%,0%);fill-opacity:1;"
        d="M 3.328125 6.15625 L 1.402344 9.78125 C 1.285156 10.003906 1.347656 10.273438 1.550781 10.421875 C 1.75 10.570312 2.03125 10.550781 2.210938 10.378906 C 3.613281 9.035156 7.175781 5.617188 8.4375 4.40625 C 8.625 4.226562 8.683594 3.957031 8.585938 3.71875 C 8.488281 3.480469 8.253906 3.324219 7.992188 3.324219 L 5.054688 3.324219 L 6.339844 0.925781 C 6.445312 0.730469 6.4375 0.496094 6.320312 0.304688 C 6.207031 0.117188 5.996094 0 5.773438 0 L 4.160156 0 C 3.945312 0 3.746094 0.105469 3.625 0.28125 C 3.199219 0.917969 1.078125 4.0625 0.328125 5.175781 C 0.199219 5.371094 0.1875 5.621094 0.296875 5.824219 C 0.410156 6.03125 0.625 6.15625 0.859375 6.15625 Z M 5.5625 0.757812 L 4.277344 3.152344 C 4.171875 3.347656 4.175781 3.585938 4.292969 3.773438 C 4.410156 3.964844 4.617188 4.082031 4.839844 4.082031 L 7.675781 4.082031 L 2.828125 8.734375 L 4.109375 6.324219 C 4.210938 6.128906 4.203125 5.894531 4.089844 5.703125 C 3.972656 5.515625 3.765625 5.398438 3.542969 5.398438 L 1.101562 5.398438 L 4.226562 0.757812 Z M 5.5625 0.757812 " />
</svg>