<?xml version="1.0" encoding="utf-8"?>
<svg viewBox="0 0 24 24" xmlns="http://www.w3.org/2000/svg">
  <path style="stroke: none; fill-rule: evenodd; fill: rgb(0, 0, 0); fill-opacity: 1;" d="M 10.268 8.378 L 10.268 6.803 C 10.268 6.658 10.386 6.541 10.533 6.541 L 13.711 6.541 C 13.857 6.541 13.977 6.658 13.977 6.803 L 13.977 8.378 L 15.565 8.378 C 15.711 8.378 15.83 8.497 15.83 8.642 L 15.83 23.613 C 15.83 23.758 15.711 23.876 15.565 23.876 L 8.679 23.876 C 8.532 23.876 8.414 23.758 8.414 23.613 L 8.414 8.642 C 8.414 8.497 8.532 8.378 8.679 8.378 L 10.268 8.378 Z M 8.943 23.351 L 15.3 23.351 L 15.3 8.904 L 8.943 8.904 L 8.943 23.351 Z M 10.797 8.378 L 13.447 8.378 L 13.447 7.066 L 10.797 7.066 L 10.797 8.378 Z M 12.573 20.083 C 12.573 20.141 12.568 20.188 12.557 20.233 C 12.529 20.34 12.467 20.43 12.329 20.455 C 12.191 20.482 12.101 20.422 12.034 20.332 C 12.008 20.297 11.985 20.253 11.964 20.201 L 10.04 15.434 C 9.901 15.088 10.179 14.809 10.529 14.94 L 11.615 15.344 L 11.615 12.326 C 11.615 12.268 11.619 12.221 11.631 12.175 C 11.66 12.069 11.721 11.979 11.858 11.954 C 11.996 11.927 12.086 11.987 12.154 12.075 C 12.18 12.113 12.202 12.156 12.223 12.207 L 14.146 16.975 C 14.285 17.321 14.01 17.6 13.658 17.47 L 12.573 17.065 L 12.573 20.083 Z M 12.043 18.983 L 12.043 16.686 C 12.043 16.502 12.228 16.376 12.401 16.44 L 13.53 16.86 L 12.145 13.426 L 12.145 15.722 C 12.145 15.906 11.959 16.033 11.786 15.969 L 10.657 15.549 L 12.043 18.983 Z M 12.043 18.983"/>
  <path style="stroke: none; fill-rule: evenodd; fill: rgb(0, 0, 0); fill-opacity: 1;" d="M 11.483 2.877 L 10.626 2.259 C 10.586 2.23 10.524 2.22 10.469 2.235 C 10.416 2.252 10.38 2.291 10.38 2.333 L 10.38 3.364 C 10.38 3.392 10.396 3.418 10.423 3.438 L 12.029 4.599 C 12.086 4.64 12.178 4.64 12.234 4.599 L 13.842 3.438 C 13.868 3.418 13.883 3.392 13.883 3.364 L 13.883 2.333 C 13.883 2.291 13.849 2.252 13.795 2.235 C 13.74 2.22 13.679 2.23 13.636 2.259 L 12.781 2.877 L 12.781 0.327 C 12.781 0.168 12.604 0.04 12.385 0.04 L 11.879 0.04 C 11.661 0.04 11.483 0.168 11.483 0.327 L 11.483 2.877 Z M 11.483 2.877"/>
</svg>