<?xml version="1.0" encoding="UTF-8"?>
<svg xmlns="http://www.w3.org/2000/svg" xmlns:xlink="http://www.w3.org/1999/xlink" width="24px"
    height="24px" viewBox="0 0 24 18" version="1.1">
    <path style=" stroke:none;fill-rule:evenodd;fill:rgb(0%,0%,0%);fill-opacity:1;"
        d="M 7.261719 10.984375 L 7.261719 8.027344 L 13.5625 8.027344 C 13.957031 8.027344 14.1875 7.703125 14.042969 7.347656 L 11.238281 0.332031 C 11.160156 0.140625 10.949219 0 10.738281 0 L 3.347656 0 C 3.140625 0 2.925781 0.140625 2.851562 0.332031 L 0.0429688 7.347656 C -0.101562 7.703125 0.128906 8.027344 0.523438 8.027344 L 6.824219 8.027344 L 6.824219 10.984375 L 4.871094 10.984375 C 4.75 10.984375 4.652344 11.082031 4.652344 11.195312 C 4.652344 11.3125 4.75 11.410156 4.871094 11.410156 L 6.777344 11.410156 L 6.847656 11.472656 L 6.847656 12.101562 C 6.847656 15.355469 9.777344 18 13.378906 18 C 16.980469 18 19.910156 15.355469 19.910156 12.101562 L 19.910156 10.976562 L 20.4375 10.976562 C 20.675781 10.976562 20.871094 10.804688 20.871094 10.589844 L 20.871094 8.769531 L 21.140625 8.769531 C 22.25 8.769531 23.152344 7.957031 23.152344 6.953125 L 23.152344 5.175781 L 23.300781 5.175781 C 23.59375 5.175781 23.828125 4.960938 23.828125 4.699219 L 23.828125 3.265625 C 23.832031 3 23.59375 2.78125 23.304688 2.78125 L 22.308594 2.78125 L 22.308594 0.734375 C 22.308594 0.363281 21.972656 0.0625 21.5625 0.0625 C 21.152344 0.0625 20.820312 0.359375 20.820312 0.734375 L 20.820312 2.78125 L 18.589844 2.78125 L 18.589844 0.734375 C 18.589844 0.363281 18.253906 0.0625 17.84375 0.0625 C 17.433594 0.0625 17.101562 0.359375 17.101562 0.734375 L 17.101562 2.78125 L 16.101562 2.78125 C 15.808594 2.78125 15.574219 2.996094 15.574219 3.261719 L 15.574219 4.695312 C 15.574219 4.957031 15.8125 5.171875 16.101562 5.171875 L 16.25 5.171875 L 16.25 6.949219 C 16.25 7.949219 17.152344 8.765625 18.257812 8.765625 L 18.53125 8.765625 L 18.53125 10.582031 C 18.53125 10.800781 18.722656 10.972656 18.964844 10.972656 L 19.492188 10.972656 L 19.492188 12.097656 C 19.492188 15.140625 16.75 17.609375 13.382812 17.609375 C 10.015625 17.609375 7.273438 15.136719 7.273438 12.097656 L 7.273438 11.46875 L 7.339844 11.410156 L 9.21875 11.410156 C 9.335938 11.410156 9.433594 11.3125 9.433594 11.195312 C 9.433594 11.082031 9.335938 10.984375 9.21875 10.984375 Z M 3.347656 0.421875 L 5.265625 0.421875 L 4.976562 2.113281 L 2.601562 2.113281 L 3.253906 0.484375 C 3.265625 0.457031 3.320312 0.421875 3.347656 0.421875 Z M 5.417969 2.113281 L 5.707031 0.421875 L 8.382812 0.421875 L 8.671875 2.113281 Z M 9.113281 2.113281 L 8.820312 0.421875 L 10.738281 0.421875 C 10.769531 0.421875 10.820312 0.457031 10.832031 0.484375 L 11.484375 2.113281 Z M 5.34375 2.535156 L 8.742188 2.535156 L 9.105469 4.648438 L 4.980469 4.648438 Z M 2.480469 2.535156 L 4.902344 2.535156 L 4.539062 4.648438 L 1.589844 4.648438 L 2.4375 2.53125 C 2.449219 2.535156 2.464844 2.535156 2.480469 2.535156 Z M 9.546875 4.648438 L 9.183594 2.535156 L 11.609375 2.535156 C 11.621094 2.535156 11.636719 2.535156 11.652344 2.53125 L 12.496094 4.648438 Z M 9.179688 5.070312 L 9.613281 7.605469 L 4.472656 7.605469 L 4.910156 5.070312 Z M 4.46875 5.070312 L 4.035156 7.605469 L 0.523438 7.605469 C 0.433594 7.605469 0.417969 7.578125 0.445312 7.5 L 1.417969 5.070312 Z M 13.5625 7.605469 L 10.054688 7.605469 L 9.617188 5.070312 L 12.667969 5.070312 L 13.640625 7.5 C 13.671875 7.578125 13.652344 7.605469 13.5625 7.605469 Z M 21.242188 0.734375 C 21.242188 0.574219 21.386719 0.445312 21.5625 0.445312 C 21.738281 0.445312 21.882812 0.574219 21.882812 0.734375 L 21.882812 2.78125 L 21.242188 2.78125 Z M 17.839844 0.445312 C 18.015625 0.445312 18.160156 0.574219 18.160156 0.734375 L 18.160156 2.78125 L 17.519531 2.78125 L 17.519531 0.734375 C 17.519531 0.574219 17.664062 0.445312 17.839844 0.445312 Z M 20.445312 10.589844 C 20.445312 10.59375 20.441406 10.59375 20.441406 10.59375 L 18.957031 10.589844 L 18.960938 8.769531 L 20.445312 8.769531 Z M 21.140625 8.386719 L 18.257812 8.386719 C 17.386719 8.386719 16.671875 7.746094 16.671875 6.953125 L 16.671875 5.175781 L 22.726562 5.175781 L 22.726562 6.953125 C 22.726562 7.738281 22.015625 8.386719 21.140625 8.386719 Z M 23.40625 4.695312 C 23.40625 4.746094 23.363281 4.785156 23.304688 4.785156 L 16.101562 4.785156 C 16.042969 4.785156 15.996094 4.746094 15.996094 4.695312 L 15.996094 3.261719 C 15.996094 3.207031 16.042969 3.167969 16.101562 3.167969 L 23.304688 3.167969 C 23.363281 3.167969 23.40625 3.207031 23.40625 3.261719 Z M 23.40625 4.695312 " />
</svg>