<svg width="24" height="24" viewBox="0 0 24 24" fill="none" xmlns="http://www.w3.org/2000/svg">
<path d="M8.7001 12.1C9.7001 11.1 10.2001 9.7 10.0001 8.4L9.9001 8H8.0001L8.1001 8.6C8.2001 9.4 8.0001 10.2 7.4001 10.8V10.9C6.4001 11.9 5.9001 13.3 6.1001 14.6V15H8.0001L7.9001 14.4C7.8001 13.6 8.0001 12.8 8.7001 12.1Z" fill="#7E8084"/>
<path d="M12.7001 12.2C13.7001 11.2 14.2001 9.8 14.0001 8.5L13.9001 8H12.0001L12.1001 8.6C12.2001 9.4 12.0001 10.2 11.4001 10.8V10.9C10.4001 11.9 9.9001 13.3 10.1001 14.6V15H12.0001L11.9001 14.4C11.8001 13.6 12.0001 12.8 12.7001 12.2Z" fill="#7E8084"/>
<path d="M16.7 12.2C17.7 11.2 18.2 9.8 18 8.5L17.9 8H16L16.1 8.6C16.2 9.4 16 10.2 15.4 10.8L15.3 10.9C14.3 11.9 13.8 13.3 14 14.6L14.1 15H16L15.9 14.4C15.8 13.6 16 12.8 16.7 12.2Z" fill="#7E8084"/>
<path d="M12 2C6.5 2 2 6.5 2 12C2 17.5 6.5 22 12 22C17.5 22 22 17.5 22 12C22 6.5 17.5 2 12 2ZM12 20C7.6 20 4 16.4 4 12C4 7.6 7.6 4 12 4C16.4 4 20 7.6 20 12C20 16.4 16.4 20 12 20Z" fill="#7E8084"/>
<path opacity="0.24" d="M5.80005 17C8.30005 20.1 12.7 20.9 16.2 18.9C17 18.4 17.7 17.8 18.3 17H5.80005V17Z" fill="#7E8084"/>
</svg>
