<svg width="24" height="24" viewBox="0 0 24 24" fill="none" xmlns="http://www.w3.org/2000/svg">
<path d="M21.37 7.37L20 8L21.37 8.63L22 10L22.63 8.63L24 8L22.63 7.37L22 6L21.37 7.37ZM19 6L19.94 3.94L22 3L19.94 2.06L19 0L18.06 2.06L16 3L18.06 3.94L19 6Z" fill="#7E8084"/>
<path opacity="0.24" d="M9 4C6.2 4 4 6.2 4 9C4 11.9 6.9 16.2 9 18.9C11.1 16.2 14 11.9 14 9C14 6.2 11.8 4 9 4ZM9 11.5C7.6 11.5 6.5 10.4 6.5 9C6.5 7.6 7.6 6.5 9 6.5C10.4 6.5 11.5 7.6 11.5 9C11.5 10.4 10.4 11.5 9 11.5Z" fill="#7E8084"/>
<path d="M9 2C5.1 2 2 5.1 2 9C2 14.2 9 22 9 22C9 22 16 14.2 16 9C16 5.1 12.9 2 9 2ZM4 9C4 6.2 6.2 4 9 4C11.8 4 14 6.2 14 9C14 11.9 11.1 16.2 9 18.9C6.9 16.2 4 11.9 4 9Z" fill="#7E8084"/>
<path d="M9 11.5C10.3807 11.5 11.5 10.3807 11.5 9C11.5 7.61929 10.3807 6.5 9 6.5C7.61929 6.5 6.5 7.61929 6.5 9C6.5 10.3807 7.61929 11.5 9 11.5Z" fill="#7E8084"/>
</svg>
