<svg width="24" height="24" viewBox="0 0 24 24" fill="none" xmlns="http://www.w3.org/2000/svg">
<path d="M12.9 2V4C17.3 4.5 20.4 8.5 19.9 12.9C19.4 16.5 16.6 19.4 12.9 19.9V21.9C18.4 21.3 22.4 16.5 21.9 11C21.5 6.2 17.7 2.5 12.9 2ZM10.9 2C9 2.2 7.1 3 5.6 4.2L7 5.7C8.2 4.8 9.5 4.2 10.9 4V2ZM4.2 5.6C3 7.2 2.2 9 2 11H4C4.2 9.6 4.8 8.2 5.6 7.1L4.2 5.6ZM15.4 8.5L10.5 13.4L8.4 11.2L7.3 12.3L10.5 15.5L16.4 9.6L15.4 8.5ZM2 13C2.2 15 3 16.8 4.2 18.3L5.6 16.9C4.8 15.7 4.2 14.4 4 13H2ZM7.1 18.3L5.7 19.7C7.1 21 9 21.8 10.9 22V20C9.5 19.8 8.2 19.2 7.1 18.3Z" fill="#7E8084"/>
</svg>
