<svg width="24" height="24" viewBox="0 0 24 24" fill="none" xmlns="http://www.w3.org/2000/svg">
<path opacity="0.24" d="M15 16C12.3 16 9.2 17.3 9 18H21C20.8 17.3 17.7 16 15 16Z" fill="#7E8084"/>
<path opacity="0.24" d="M15 10C16.1046 10 17 9.10457 17 8C17 6.89543 16.1046 6 15 6C13.8954 6 13 6.89543 13 8C13 9.10457 13.8954 10 15 10Z" fill="#7E8084"/>
<path d="M15 12C17.2 12 19 10.2 19 8C19 5.8 17.2 4 15 4C12.8 4 11 5.8 11 8C11 10.2 12.8 12 15 12ZM15 6C16.1 6 17 6.9 17 8C17 9.1 16.1 10 15 10C13.9 10 13 9.1 13 8C13 6.9 13.9 6 15 6ZM15 14C12.3 14 7 15.3 7 18V20H23V18C23 15.3 17.7 14 15 14ZM9 18C9.2 17.3 12.3 16 15 16C17.7 16 20.8 17.3 21 18H9ZM6 15V12H9V10H6V7H4V10H1V12H4V15H6Z" fill="#7E8084"/>
</svg>
