<svg width="24" height="24" viewBox="0 0 24 24" fill="none" xmlns="http://www.w3.org/2000/svg">
<path opacity="0.3" d="M7 10H5C4.45 10 4 10.45 4 11V15H6V13H10L7 10Z" fill="#7E8084"/>
<path d="M1.41 1.60001L0 3.01001L5 8.00001C3.34 8.00001 2 9.34001 2 11V17H6V21H18L20.95 23.96L22.36 22.55L1.41 1.60001ZM6 15H4V11C4 10.45 4.45 10 5 10H7L10 13H6V15ZM8 19V15H12L16 19H8Z" fill="#7E8084"/>
<path opacity="0.3" d="M17.9999 15.01L19.9999 15V11C19.9999 10.45 19.5499 10 18.9999 10H12.6599L15.6599 13H17.9999V15.01ZM16.9999 11.51C16.9999 10.96 17.4499 10.51 17.9999 10.51C18.5499 10.51 18.9999 10.96 18.9999 11.51C18.9999 12.06 18.5499 12.51 17.9999 12.51C17.4499 12.51 16.9999 12.06 16.9999 11.51Z" fill="#7E8084"/>
<path d="M18 12.51C18.5523 12.51 19 12.0623 19 11.51C19 10.9577 18.5523 10.51 18 10.51C17.4477 10.51 17 10.9577 17 11.51C17 12.0623 17.4477 12.51 18 12.51Z" fill="#7E8084"/>
<path opacity="0.3" d="M16 5H8V5.35L10.66 8H16V5Z" fill="#7E8084"/>
<path d="M19 8H18V3H6V3.36L8 5.36V5H16V8H10.66L12.66 10H19C19.55 10 20 10.45 20 11V15L18 15.01V13H15.66L19.66 17H22V11C22 9.34 20.66 8 19 8Z" fill="#7E8084"/>
</svg>
