<svg width="20" height="20" viewBox="0 0 20 20" fill="none" xmlns="http://www.w3.org/2000/svg">
<path fill-rule="evenodd" clip-rule="evenodd" d="M5.00008 1.66667V1.67044L8.33341 5.18713V3.33333H11.6667V8.67572L15.4911 12.5H15.8334V10.4882L13.3334 7.98816V3.33333H15.0001V1.66667H5.00008ZM6.66675 7.9031L1.66675 2.90317L2.84525 1.72465L18.2758 17.1549L17.0973 18.3335L11.2637 12.5H10.8334V17.5L10.0001 18.3333L9.16675 17.5V12.5H4.16675V10.4882L6.66675 7.98816V7.9031ZM9.59702 10.8333H6.17859L7.88779 9.12413L9.59702 10.8333Z" fill="#7E8084"/>
<path opacity="0.24" fill-rule="evenodd" clip-rule="evenodd" d="M8.33329 7.69931V8.67851L6.17847 10.8333H11.4673L8.33329 7.69931ZM11.6666 8.6756V3.33333H8.33329V5.20867L11.0806 8.08958L11.6666 8.6756Z" fill="#7E8084"/>
</svg>