<svg width="24" height="24" viewBox="0 0 24 24" fill="none" xmlns="http://www.w3.org/2000/svg">
<path d="M5.79289 7.20713L3 10L3.70745 10.7068C4.48888 11.4875 5.75552 11.4871 6.53657 10.7061L10.7792 6.46345C11.5603 5.6824 11.56 4.41638 10.7785 3.63572L10.0711 2.92896L7.20711 5.79292L8.53553 7.12134L7.12132 8.53556L5.79289 7.20713Z" fill="#7E8084"/>
<path d="M20.6839 17.772L18.3493 15.4397L17.3602 20.1057L17.8555 20.6004L20.6839 17.772Z" fill="#7E8084"/>
<path d="M11.4867 7.17021L12.2649 7.94765L10.7813 14.9467L10.0738 14.2399L10.2857 13.0381L7.95113 10.7057L11.4867 7.17021Z" fill="#7E8084"/>
<path d="M14.1046 11.1991L14.3165 9.99726L15.0947 10.7747L13.6111 17.7737L12.9036 17.0669L13.1863 15.9358L11.7714 14.5223L12.6897 9.78558L14.1046 11.1991Z" fill="#7E8084"/>
<path d="M16.9344 14.0261L17.1463 12.8243L17.9245 13.6017L16.4409 20.6008L15.7334 19.894L16.0161 18.7628L14.6012 17.3493L15.5195 12.6126L16.9344 14.0261Z" fill="#7E8084"/>
</svg>
