<svg width="24" height="24" viewBox="0 0 24 24" fill="none" xmlns="http://www.w3.org/2000/svg">
<g clip-path="url(#clip0_1944_8726)">
<path opacity="0.24" d="M19.2002 13C19.2002 12.7 19.3002 12.4 19.3002 12C19.3002 11.7 19.3002 11.3 19.2002 11L21.3002 9.4C21.5002 9.2 21.5002 9 21.4002 8.8L19.4002 5.3C19.3002 5.1 19.1002 5 19.0002 5C18.9002 5 18.9002 5 18.8002 5L16.3002 6C15.8002 5.6 15.2002 5.3 14.6002 5L14.2002 2.3C14.2002 2.2 14.0002 2 13.7002 2H9.70023C9.50023 2 9.30023 2.2 9.20023 2.4L8.90023 5.1C8.20023 5.3 7.70023 5.7 7.20023 6L4.70023 5C4.60023 5 4.60023 5 4.50023 5C4.30023 5 4.20023 5.1 4.10023 5.3L2.10023 8.8C1.90023 9 2.00023 9.2 2.20023 9.4L4.30023 11C4.30023 11.3 4.20023 11.7 4.20023 12C4.20023 12.3 4.20023 12.6 4.30023 13L2.20023 14.7C2.00023 14.8 1.90023 15 2.10023 15.3L4.10023 18.8C4.20023 18.9 4.30023 19 4.50023 19C4.60023 19 4.60023 19 4.70023 19L7.20023 18C7.70023 18.4 8.30023 18.7 8.90023 19L9.30023 21.6C9.30023 21.8 9.50023 22 9.80023 22H13.8002C14.0002 22 14.3002 21.8 14.3002 21.6L14.7002 19C15.3002 18.7 15.9002 18.4 16.4002 18L18.9002 19C19.0002 19 19.0002 19 19.1002 19C19.3002 19 19.4002 18.9 19.5002 18.7L21.5002 15.2C21.6002 15 21.6002 14.7 21.4002 14.6L19.2002 13ZM11.7002 14C10.6002 14 9.70023 13.1 9.70023 12C9.70023 10.9 10.6002 10 11.7002 10C12.8002 10 13.7002 10.9 13.7002 12C13.7002 13.1 12.8002 14 11.7002 14Z" fill="#7E8084"/>
<path d="M11.7002 8C9.5002 8 7.7002 9.8 7.7002 12C7.7002 14.2 9.5002 16 11.7002 16C13.9002 16 15.7002 14.2 15.7002 12C15.7002 9.8 13.9002 8 11.7002 8ZM11.7002 14C10.6002 14 9.7002 13.1 9.7002 12C9.7002 10.9 10.6002 10 11.7002 10C12.8002 10 13.7002 10.9 13.7002 12C13.7002 13.1 12.8002 14 11.7002 14Z" fill="#7E8084"/>
<path d="M12.4002 4L12.6002 5.3L12.8002 6.5L13.9002 6.9C14.3002 7.1 14.7002 7.3 15.1002 7.6L16.0002 8.3L17.0002 7.9L18.3002 7.4L19.0002 8.6L17.9002 9.4L17.0002 10.1L17.1002 11.2C17.1002 11.5 17.2002 11.8 17.2002 12C17.2002 12.2 17.2002 12.4 17.1002 12.7L17.0002 13.8L17.9002 14.5L19.0002 15.4L18.3002 16.6L17.0002 16.1L16.0002 15.7L15.1002 16.4C14.7002 16.7 14.3002 17 13.9002 17.1L12.8002 17.5L12.6002 18.6L12.4002 20H11.0002L10.8002 18.7L10.6002 17.5L9.50023 17.1C9.10023 16.9 8.70023 16.7 8.30023 16.4L7.40023 15.7L6.30023 16.1L5.00023 16.6L4.30023 15.4L5.40023 14.5L6.30023 13.8L6.20023 12.7C6.20023 12.4 6.10023 12.2 6.10023 12C6.10023 11.8 6.10023 11.6 6.20023 11.2L6.30023 10.1L5.50023 9.4L4.50023 8.6L5.20023 7.4L6.50023 7.9L7.50023 8.3L8.40023 7.6C8.90023 7.3 9.20023 7 9.60023 6.9L10.7002 6.5L10.9002 5.3L11.0002 4H12.4002ZM13.7002 2H9.70023C9.50023 2 9.30023 2.2 9.20023 2.4L8.90023 5.1C8.20023 5.3 7.70023 5.7 7.20023 6L4.70023 5C4.60023 5 4.60023 5 4.50023 5C4.30023 5 4.20023 5.1 4.10023 5.3L2.10023 8.8C1.90023 8.9 2.00023 9.2 2.20023 9.4L4.30023 11C4.30023 11.3 4.20023 11.7 4.20023 12C4.20023 12.3 4.20023 12.6 4.30023 13L2.20023 14.7C2.00023 14.8 2.00023 15.1 2.10023 15.3L4.10023 18.8C4.20023 18.9 4.30023 19 4.50023 19C4.60023 19 4.60023 19 4.70023 19L7.20023 18C7.70023 18.4 8.30023 18.7 8.90023 19L9.30023 21.6C9.30023 21.8 9.50023 22 9.80023 22H13.8002C14.0002 22 14.3002 21.8 14.3002 21.6L14.7002 19C15.3002 18.7 15.9002 18.4 16.4002 18L18.9002 19C19.0002 19 19.0002 19 19.1002 19C19.3002 19 19.4002 18.9 19.5002 18.7L21.5002 15.2C21.6002 15 21.6002 14.7 21.4002 14.6L19.2002 13C19.2002 12.7 19.3002 12.4 19.3002 12C19.3002 11.6 19.3002 11.3 19.2002 11L21.3002 9.4C21.5002 9.3 21.5002 9 21.4002 8.8L19.4002 5.3C19.3002 5.1 19.1002 5 19.0002 5C18.9002 5 18.9002 5 18.8002 5L16.3002 6C15.8002 5.6 15.2002 5.3 14.6002 5L14.2002 2.4C14.2002 2.2 14.0002 2 13.7002 2Z" fill="#7E8084"/>
</g>
<defs>
<clipPath id="clip0_1944_8726">
<rect width="19.5" height="20" fill="white" transform="translate(2 2)"/>
</clipPath>
</defs>
</svg>
