<svg width="24" height="24" viewBox="0 0 24 24" fill="none" xmlns="http://www.w3.org/2000/svg">
<path d="M15 6.4L10.4 11L15 15.6L13.6 17L9 12.4L4.4 17L3 15.6L7.6 11L3 6.4L4.4 5L9 9.6L13.6 5L15 6.4ZM20.9 20H16V19L16.9 18.2C17.7 17.6 18.2 17 18.6 16.6C19 16.2 19.2 15.7 19.2 15.4C19.2 15.1 19.1 14.9 18.9 14.7C18.7 14.5 18.4 14.4 18 14.4C17.7 14.4 17.4 14.5 17.2 14.6L16.5 15L16 13.8C16.3 13.6 16.6 13.4 17 13.3C17.4 13.1 17.9 13 18.3 13C19.1 13 19.7 13.2 20.1 13.7C20.5 14.2 20.7 14.6 20.7 15.3C20.7 15.9 20.5 16.4 20.2 16.9C19.9 17.4 19.4 17.8 18.9 18.3L18.3 18.8H20.9V20V20Z" fill="#7E8084"/>
</svg>
