<svg width="24" height="24" viewBox="0 0 24 24" fill="none" xmlns="http://www.w3.org/2000/svg">
<path d="M15 9.4L10.4 14L15 18.6L13.6 20L9 15.4L4.4 20L3 18.6L7.6 14L3 9.4L4.4 8L9 12.6L13.6 8L15 9.4ZM20.9 11H16V10L16.9 9.2C17.7 8.6 18.2 8 18.6 7.6C19 7.2 19.2 6.7 19.2 6.4C19.2 6.1 19.1 5.9 18.9 5.7C18.7 5.5 18.4 5.4 18 5.4C17.7 5.4 17.4 5.5 17.2 5.6L16.5 6L16 4.7C16.3 4.5 16.6 4.3 17 4.2C17.4 4 17.9 4 18.3 4C19.1 4 19.7 4.2 20.1 4.6C20.5 5 20.7 5.5 20.7 6.2C20.7 6.8 20.5 7.3 20.2 7.8C19.9 8.3 19.4 8.7 18.9 9.2L18.3 9.7H20.9V11V11Z" fill="#7E8084"/>
</svg>
