<svg width="24" height="24" viewBox="0 0 24 24" fill="none" xmlns="http://www.w3.org/2000/svg">
<path fill-rule="evenodd" clip-rule="evenodd" d="M17 5.5C17 6.32718 17.6728 7 18.5 7C19.3272 7 20 6.32718 20 5.5C20 4.67282 19.3272 4 18.5 4C17.6728 4 17 4.67282 17 5.5ZM18.5 9C18.1335 9 17.7801 8.94355 17.448 8.83887L16.4747 10.156C16.8077 10.6916 17 11.3235 17 12C17 12.6764 16.8077 13.3082 16.4749 13.8438L17.4481 15.1611C17.7802 15.0564 18.1335 15 18.5 15C20.4317 15 22 16.5683 22 18.5C22 20.4317 20.4317 22 18.5 22C16.5683 22 15 20.4317 15 18.5C15 17.6491 15.3043 16.8687 15.8099 16.2618L14.9985 15.1635C14.5441 15.3792 14.0361 15.5 13.5 15.5C12.1561 15.5 10.9882 14.741 10.4018 13.6287L8.81884 13.6136C8.35324 15.0001 7.04251 16 5.5 16C3.56825 16 2 14.4317 2 12.5C2 10.5683 3.56825 9 5.5 9C7.13597 9 8.51123 10.1248 8.89402 11.6425L10.017 11.6533C10.1913 9.88405 11.6852 8.5 13.5 8.5C14.036 8.5 14.5439 8.62072 14.9982 8.83642L15.8098 7.73806C15.3042 7.13119 15 6.35085 15 5.5C15 3.56825 16.5683 2 18.5 2C20.4317 2 22 3.56825 22 5.5C22 7.43175 20.4317 9 18.5 9ZM4 12.5C4 13.3272 4.67282 14 5.5 14C6.32718 14 7 13.3272 7 12.5C7 11.6728 6.32718 11 5.5 11C4.67282 11 4 11.6728 4 12.5ZM18.5 20C17.6728 20 17 19.3272 17 18.5C17 17.6728 17.6728 17 18.5 17C19.3272 17 20 17.6728 20 18.5C20 19.3272 19.3272 20 18.5 20ZM13.5 13.5C12.6728 13.5 12 12.8272 12 12C12 11.1728 12.6728 10.5 13.5 10.5C14.3272 10.5 15 11.1728 15 12C15 12.8272 14.3272 13.5 13.5 13.5Z" fill="#7E8084"/>
<path opacity="0.24" fill-rule="evenodd" clip-rule="evenodd" d="M18.5 8C19.8795 8 21 6.87946 21 5.5C21 4.12054 19.8795 3 18.5 3C17.1205 3 16 4.12054 16 5.5C16 6.87946 17.1205 8 18.5 8ZM5.5 15C6.87946 15 8 13.8795 8 12.5C8 11.1205 6.87946 10 5.5 10C4.12054 10 3 11.1205 3 12.5C3 13.8795 4.12054 15 5.5 15ZM21 18.5C21 19.8795 19.8795 21 18.5 21C17.1205 21 16 19.8795 16 18.5C16 17.1205 17.1205 16 18.5 16C19.8795 16 21 17.1205 21 18.5ZM16 12C16 13.3795 14.8795 14.5 13.5 14.5C12.1205 14.5 11 13.3795 11 12C11 10.6205 12.1205 9.5 13.5 9.5C14.8795 9.5 16 10.6205 16 12Z" fill="#7E8084"/>
</svg>
