<svg width="24" height="24" viewBox="0 0 24 24" fill="none" xmlns="http://www.w3.org/2000/svg">
<path fill-rule="evenodd" clip-rule="evenodd" d="M15.75 12.75H18.75V22.5H15.75V12.75ZM0 17.25H3V22.5H0V17.25ZM8.25 13.5H5.25V22.5H8.25V13.5ZM10.5 18H13.5V22.5H10.5V18ZM24 18.75H21V22.5H24V18.75Z" fill="#7E8084"/>
<path opacity="0.4" fill-rule="evenodd" clip-rule="evenodd" d="M5.25 1.5H8.25V12H5.25V1.5ZM0 7.52948H3V15.7795H0V7.52948ZM13.5 8.25H10.5V16.5H13.5V8.25ZM15.75 1.5H18.75V11.25H15.75V1.5ZM24 13.5H21V17.25H24V13.5Z" fill="#7E8084"/>
</svg>
