<svg width="24" height="25" viewBox="0 0 24 25" fill="none" xmlns="http://www.w3.org/2000/svg">
<g clip-path="url(#clip0)">
<path opacity="0.24" d="M4.00049 10.5192H7.00049L8.50049 12.0192L10.5005 10.0192H15.0005L13.0005 14.5192L9.00049 15.5192L5.00049 13.5192L4.00049 10.5192Z" fill="#7E8084"/>
<path d="M9.00049 12.5192L7.20049 10.7192H4.00049V8.71917H8.00049L9.00049 9.71917L10.0005 8.71917H12.5005L15.6005 4.11917L19.0005 8.71917H21.0005V10.7192H18.0005L15.7005 7.61917L13.5005 10.7192H10.9005L9.00049 12.5192Z" fill="#7E8084"/>
<path d="M15.5005 14.5192H14.7005L14.4005 14.2192C15.4005 13.1192 16.0005 11.6192 16.0005 10.0192C16.0005 8.41917 15.4005 7.01917 14.5005 5.81916L13.3005 7.51917C13.7005 8.31917 14.0005 9.11916 14.0005 10.0192C14.0005 12.5192 12.0005 14.5192 9.50049 14.5192C7.00049 14.5192 5.00049 12.5192 5.00049 10.0192C5.00049 7.51917 7.00049 5.51917 9.50049 5.51917C10.4005 5.51917 11.1005 5.81916 11.8005 6.21917L13.0005 4.51917C12.0005 3.91917 10.8005 3.51917 9.50049 3.51917C5.90049 3.51917 3.00049 6.41917 3.00049 10.0192C3.00049 13.6192 5.90049 16.5192 9.50049 16.5192C11.1005 16.5192 12.6005 15.9192 13.7005 14.9192L14.0005 15.2192V16.0192L19.0005 21.0192L20.5005 19.5192L15.5005 14.5192Z" fill="#7E8084"/>
</g>
<defs>
<clipPath id="clip0">
<rect width="18" height="17.5" fill="white" transform="translate(3.00049 3.51917)"/>
</clipPath>
</defs>
</svg>
