<svg width="24" height="24" viewBox="0 0 24 24" fill="none" xmlns="http://www.w3.org/2000/svg">
<g clip-path="url(#clip0)">
<path opacity="0.24" d="M4 10H7L8.5 11.5L10.5 9.5H15L13 14L9 15L5 13L4 10Z" fill="#7E8084"/>
<path d="M9 12.0001L7.2 10.2001H4V8.2001H8L9 9.2001L10 8.2001H12.5L15.6 3.6001L19 8.2001H21V10.2001H18L15.7 7.1001L13.5 10.2001H10.9L9 12.0001Z" fill="#7E8084"/>
<path d="M15.5 14H14.7L14.4 13.7C15.4 12.6 16 11.1 16 9.5C16 7.9 15.4 6.5 14.5 5.3L13.3 7C13.7 7.8 14 8.6 14 9.5C14 12 12 14 9.5 14C7 14 5 12 5 9.5C5 7 7 5 9.5 5C10.4 5 11.1 5.3 11.8 5.7L13 4C12 3.4 10.8 3 9.5 3C5.9 3 3 5.9 3 9.5C3 13.1 5.9 16 9.5 16C11.1 16 12.6 15.4 13.7 14.4L14 14.7V15.5L19 20.5L20.5 19L15.5 14Z" fill="#7E8084"/>
</g>
<defs>
<clipPath id="clip0">
<rect width="18" height="17.5" fill="white" transform="translate(3 3)"/>
</clipPath>
</defs>
</svg>
