<svg width="24" height="25" viewBox="0 0 24 25" fill="none" xmlns="http://www.w3.org/2000/svg">
<g clip-path="url(#clip0)">
<path opacity="0.24" d="M4.00024 10.5192H7.00024L8.50024 12.0192L10.5002 10.0192H15.0002L13.0002 14.5192L9.00024 15.5192L5.00024 13.5192L4.00024 10.5192Z" fill="#7E8084"/>
<path d="M9.00024 12.5191L7.20024 10.7191H4.00024V8.71914H8.00024L9.00024 9.71914L10.0002 8.71914H12.5002L15.6002 4.11914L19.0002 8.71914H21.0002V10.7191H18.0002L15.7002 7.61914L13.5002 10.7191H10.9002L9.00024 12.5191Z" fill="#7E8084"/>
<path d="M15.5002 14.5192H14.7002L14.4002 14.2192C15.4002 13.1192 16.0002 11.6192 16.0002 10.0192C16.0002 8.41917 15.4002 7.01917 14.5002 5.81916L13.3002 7.51917C13.7002 8.31917 14.0002 9.11916 14.0002 10.0192C14.0002 12.5192 12.0002 14.5192 9.50024 14.5192C7.00024 14.5192 5.00024 12.5192 5.00024 10.0192C5.00024 7.51917 7.00024 5.51917 9.50024 5.51917C10.4002 5.51917 11.1002 5.81916 11.8002 6.21917L13.0002 4.51917C12.0002 3.91917 10.8002 3.51917 9.50024 3.51917C5.90024 3.51917 3.00024 6.41917 3.00024 10.0192C3.00024 13.6192 5.90024 16.5192 9.50024 16.5192C11.1002 16.5192 12.6002 15.9192 13.7002 14.9192L14.0002 15.2192V16.0192L19.0002 21.0192L20.5002 19.5192L15.5002 14.5192Z" fill="#7E8084"/>
</g>
<defs>
<clipPath id="clip0">
<rect width="18" height="17.5" fill="white" transform="translate(3.00024 3.51917)"/>
</clipPath>
</defs>
</svg>
