<svg width="24" height="25" viewBox="0 0 24 25" fill="none" xmlns="http://www.w3.org/2000/svg">
<path d="M16.0005 6.51917C17.1051 6.51917 18.0005 5.62373 18.0005 4.51917C18.0005 3.4146 17.1051 2.51917 16.0005 2.51917C14.8959 2.51917 14.0005 3.4146 14.0005 4.51917C14.0005 5.62373 14.8959 6.51917 16.0005 6.51917Z" fill="#7E8084"/>
<path d="M16.0005 22.5192C17.1051 22.5192 18.0005 21.6237 18.0005 20.5192C18.0005 19.4146 17.1051 18.5192 16.0005 18.5192C14.8959 18.5192 14.0005 19.4146 14.0005 20.5192C14.0005 21.6237 14.8959 22.5192 16.0005 22.5192Z" fill="#7E8084"/>
<path d="M20.0005 14.5192C21.1051 14.5192 22.0005 13.6237 22.0005 12.5192C22.0005 11.4146 21.1051 10.5192 20.0005 10.5192C18.8959 10.5192 18.0005 11.4146 18.0005 12.5192C18.0005 13.6237 18.8959 14.5192 20.0005 14.5192Z" fill="#7E8084"/>
<path d="M16.0005 10.5192H11.0005V8.51917H15.0005V5.51917H17.0005V9.51917L16.0005 10.5192Z" fill="#7E8084"/>
<path d="M17.0005 19.5192H15.0005V16.5192H11.0005V14.5192H16.0005L17.0005 15.5192V19.5192Z" fill="#7E8084"/>
<path d="M20.0005 11.5192H11.0005V13.5192H20.0005V11.5192Z" fill="#7E8084"/>
<path opacity="0.24" d="M7.1803 11.3692C5.9003 10.8492 5.0003 9.56916 5.0003 8.08916C5.0003 6.11916 6.5703 4.52916 8.5003 4.52916C9.2203 4.52916 9.9003 4.74916 10.4603 5.13916V19.8992C9.9003 20.2792 9.2303 20.5092 8.5003 20.5092C6.5703 20.5092 5.0003 18.9192 5.0003 16.9592C5.0003 16.9592 3.6703 16.1092 3.3103 15.3392C2.4903 13.5592 3.2503 11.4492 5.0003 10.6092C5.2603 10.4892 5.5303 10.3992 5.8003 10.3392" fill="#7E8084"/>
<path d="M8.52046 21.5192C6.23046 21.5192 4.33046 19.7692 4.05046 17.5092C3.54046 17.1292 2.75046 16.4692 2.42046 15.7592C1.40046 13.5592 2.27046 10.9492 4.35046 9.80917C4.13046 9.27917 4.02046 8.68917 4.02046 8.08917C4.02046 5.56917 6.04046 3.51917 8.52046 3.51917C9.42046 3.51917 10.2905 3.78917 11.0405 4.29917C11.3205 4.48917 11.4805 4.79916 11.4805 5.13916V19.8992C11.4805 20.2392 11.3205 20.5492 11.0405 20.7392C10.2905 21.2492 9.42046 21.5192 8.52046 21.5192ZM5.52046 11.4892C5.49046 11.5092 5.46046 11.5192 5.44046 11.5292C4.19046 12.1192 3.65046 13.6392 4.24046 14.8992C4.38046 15.1992 5.03046 15.7592 5.55046 16.0892C5.84046 16.2792 6.02046 16.5992 6.02046 16.9492C6.02046 18.3492 7.14046 19.4892 8.52046 19.4892C8.85046 19.4892 9.18046 19.4192 9.48046 19.2992V5.73917C9.18046 5.60917 8.85046 5.54917 8.52046 5.54917C7.14046 5.54917 6.02046 6.68917 6.02046 8.08917C6.02046 9.12917 6.63046 10.0492 7.58046 10.4392L6.82046 12.3092C6.33046 12.1092 5.90046 11.8292 5.52046 11.4892Z" fill="#7E8084"/>
</svg>
