<svg width="24" height="24" viewBox="0 0 24 24" fill="none" xmlns="http://www.w3.org/2000/svg">
<path d="M16 6C17.1046 6 18 5.10457 18 4C18 2.89543 17.1046 2 16 2C14.8954 2 14 2.89543 14 4C14 5.10457 14.8954 6 16 6Z" fill="#7E8084"/>
<path d="M16 22C17.1046 22 18 21.1046 18 20C18 18.8954 17.1046 18 16 18C14.8954 18 14 18.8954 14 20C14 21.1046 14.8954 22 16 22Z" fill="#7E8084"/>
<path d="M20 14C21.1046 14 22 13.1046 22 12C22 10.8954 21.1046 10 20 10C18.8954 10 18 10.8954 18 12C18 13.1046 18.8954 14 20 14Z" fill="#7E8084"/>
<path d="M16 10H11V8H15V5H17V9L16 10Z" fill="#7E8084"/>
<path d="M17 19H15V16H11V14H16L17 15V19Z" fill="#7E8084"/>
<path d="M20 11H11V13H20V11Z" fill="#7E8084"/>
<path opacity="0.24" d="M7.17981 10.85C5.89981 10.33 4.99981 9.05001 4.99981 7.57001C4.99981 5.60001 6.56981 4.01001 8.49981 4.01001C9.21981 4.01001 9.89981 4.23001 10.4598 4.62001V19.38C9.89981 19.76 9.22981 19.99 8.49981 19.99C6.56981 19.99 4.99981 18.4 4.99981 16.44C4.99981 16.44 3.66981 15.59 3.30981 14.82C2.48981 13.04 3.24981 10.93 4.99981 10.09C5.25981 9.97001 5.52981 9.88001 5.79981 9.82001" fill="#7E8084"/>
<path d="M8.51997 21C6.22997 21 4.32997 19.25 4.04997 16.99C3.53997 16.61 2.74997 15.95 2.41997 15.24C1.39997 13.04 2.26997 10.43 4.34997 9.29C4.12997 8.76 4.01997 8.17 4.01997 7.57C4.01997 5.05 6.03997 3 8.51997 3C9.41997 3 10.29 3.27 11.04 3.78C11.32 3.97 11.48 4.28 11.48 4.62V19.38C11.48 19.72 11.32 20.03 11.04 20.22C10.29 20.73 9.41997 21 8.51997 21ZM5.51997 10.97C5.48997 10.99 5.45997 11 5.43997 11.01C4.18997 11.6 3.64997 13.12 4.23997 14.38C4.37997 14.68 5.02997 15.24 5.54997 15.57C5.83997 15.76 6.01997 16.08 6.01997 16.43C6.01997 17.83 7.13997 18.97 8.51997 18.97C8.84997 18.97 9.17997 18.9 9.47997 18.78V5.22C9.17997 5.09 8.84997 5.03 8.51997 5.03C7.13997 5.03 6.01997 6.17 6.01997 7.57C6.01997 8.61 6.62997 9.53 7.57997 9.92L6.81997 11.79C6.32997 11.59 5.89997 11.31 5.51997 10.97Z" fill="#7E8084"/>
</svg>
