<svg width="24" height="25" viewBox="0 0 24 25" fill="none" xmlns="http://www.w3.org/2000/svg">
<path d="M16.0002 6.51917C17.1048 6.51917 18.0002 5.62373 18.0002 4.51917C18.0002 3.4146 17.1048 2.51917 16.0002 2.51917C14.8957 2.51917 14.0002 3.4146 14.0002 4.51917C14.0002 5.62373 14.8957 6.51917 16.0002 6.51917Z" fill="#7E8084"/>
<path d="M16.0002 22.5192C17.1048 22.5192 18.0002 21.6237 18.0002 20.5192C18.0002 19.4146 17.1048 18.5192 16.0002 18.5192C14.8957 18.5192 14.0002 19.4146 14.0002 20.5192C14.0002 21.6237 14.8957 22.5192 16.0002 22.5192Z" fill="#7E8084"/>
<path d="M20.0002 14.5192C21.1048 14.5192 22.0002 13.6237 22.0002 12.5192C22.0002 11.4146 21.1048 10.5192 20.0002 10.5192C18.8957 10.5192 18.0002 11.4146 18.0002 12.5192C18.0002 13.6237 18.8957 14.5192 20.0002 14.5192Z" fill="#7E8084"/>
<path d="M1.00024 3.28917L2.28024 2.01917L22.0002 21.7492L20.7302 23.0192L1.00024 3.28917Z" fill="#7E8084"/>
<path opacity="0.24" fill-rule="evenodd" clip-rule="evenodd" d="M5.9303 5.67186C5.35316 6.30613 5.00005 7.15492 5.00005 8.08917C5.00005 8.94144 5.2985 9.72738 5.79609 10.3401C5.52741 10.4001 5.25878 10.4898 5.00005 10.6092C3.25005 11.4492 2.49005 13.5592 3.31005 15.3392C3.67005 16.1092 5.00005 16.9592 5.00005 16.9592C5.00005 18.9192 6.57005 20.5092 8.50005 20.5092C9.23005 20.5092 9.90005 20.2792 10.4601 19.8992V10.2016L5.9303 5.67186ZM10.4601 7.65523V5.13917C9.90005 4.74917 9.22005 4.52917 8.50005 4.52917C8.14792 4.52917 7.80777 4.5821 7.48695 4.68062L10.4601 7.65523Z" fill="#7E8084"/>
<path fill-rule="evenodd" clip-rule="evenodd" d="M5.23167 4.97323C4.48062 5.79014 4.02022 6.88609 4.02022 8.08917C4.02022 8.68917 4.13022 9.27917 4.35022 9.80917C2.27022 10.9492 1.40022 13.5592 2.42022 15.7592C2.75022 16.4692 3.54022 17.1292 4.05022 17.5092C4.33022 19.7692 6.23022 21.5192 8.52022 21.5192C9.42022 21.5192 10.2902 21.2492 11.0402 20.7392C11.3202 20.5492 11.4802 20.2392 11.4802 19.8992V16.5192H15.0002V19.5192H17.0002V16.7418L14.7776 14.5192H11.4802V13.5192H13.7776L11.7776 11.5192H11.4802V11.2218L9.48022 9.22178V19.2992C9.18022 19.4192 8.85022 19.4892 8.52022 19.4892C7.14022 19.4892 6.02022 18.3492 6.02022 16.9492C6.02022 16.5992 5.84022 16.2792 5.55022 16.0892C5.03022 15.7592 4.38022 15.1992 4.24022 14.8992C3.65022 13.6392 4.19022 12.1192 5.44022 11.5292C5.44627 11.5261 5.45325 11.5231 5.46086 11.5198L5.46087 11.5198C5.47839 11.5122 5.49931 11.5031 5.52022 11.4892C5.90022 11.8292 6.33022 12.1092 6.82022 12.3092L7.58022 10.4392C6.63022 10.0492 6.02022 9.12917 6.02022 8.08917C6.02022 7.44035 6.26077 6.84737 6.65627 6.39783L5.23167 4.97323ZM9.48022 6.67489V5.73917C9.18022 5.60917 8.85022 5.54917 8.52022 5.54917C8.46646 5.54917 8.41311 5.55089 8.36019 5.5543L6.71159 3.90486C7.26545 3.6569 7.87738 3.51917 8.52022 3.51917C9.42022 3.51917 10.2902 3.78917 11.0402 4.29917C11.3202 4.48917 11.4802 4.79916 11.4802 5.13916V8.51917H15.0002V5.51917H17.0002V9.51917L16.0002 10.5192H13.3225L9.48022 6.67489ZM14.322 11.5192L16.321 13.5192H20.0002V11.5192H14.322Z" fill="#7E8084"/>
</svg>
