<svg width="24" height="25" viewBox="0 0 24 25" fill="none" xmlns="http://www.w3.org/2000/svg">
<path d="M16.0005 6.51917C17.1051 6.51917 18.0005 5.62373 18.0005 4.51917C18.0005 3.4146 17.1051 2.51917 16.0005 2.51917C14.8959 2.51917 14.0005 3.4146 14.0005 4.51917C14.0005 5.62373 14.8959 6.51917 16.0005 6.51917Z" fill="#7E8084"/>
<path d="M16.0005 22.5192C17.1051 22.5192 18.0005 21.6237 18.0005 20.5192C18.0005 19.4146 17.1051 18.5192 16.0005 18.5192C14.8959 18.5192 14.0005 19.4146 14.0005 20.5192C14.0005 21.6237 14.8959 22.5192 16.0005 22.5192Z" fill="#7E8084"/>
<path d="M20.0005 14.5192C21.1051 14.5192 22.0005 13.6237 22.0005 12.5192C22.0005 11.4146 21.1051 10.5192 20.0005 10.5192C18.8959 10.5192 18.0005 11.4146 18.0005 12.5192C18.0005 13.6237 18.8959 14.5192 20.0005 14.5192Z" fill="#7E8084"/>
<path d="M1.00049 3.28917L2.28049 2.01917L22.0005 21.7492L20.7305 23.0192L1.00049 3.28917Z" fill="#7E8084"/>
<path opacity="0.24" fill-rule="evenodd" clip-rule="evenodd" d="M5.93054 5.67186C5.3534 6.30613 5.0003 7.15492 5.0003 8.08917C5.0003 8.94144 5.29874 9.72738 5.79634 10.3401C5.52766 10.4001 5.25903 10.4898 5.0003 10.6092C3.2503 11.4492 2.4903 13.5592 3.3103 15.3392C3.6703 16.1092 5.0003 16.9592 5.0003 16.9592C5.0003 18.9192 6.5703 20.5092 8.5003 20.5092C9.2303 20.5092 9.9003 20.2792 10.4603 19.8992V10.2016L5.93054 5.67186ZM10.4603 7.65523V5.13917C9.9003 4.74917 9.2203 4.52917 8.5003 4.52917C8.14816 4.52917 7.80801 4.5821 7.48719 4.68062L10.4603 7.65523Z" fill="#7E8084"/>
<path fill-rule="evenodd" clip-rule="evenodd" d="M5.23192 4.97323C4.48086 5.79014 4.02046 6.88609 4.02046 8.08917C4.02046 8.68917 4.13046 9.27917 4.35046 9.80917C2.27046 10.9492 1.40046 13.5592 2.42046 15.7592C2.75046 16.4692 3.54046 17.1292 4.05046 17.5092C4.33046 19.7692 6.23046 21.5192 8.52046 21.5192C9.42046 21.5192 10.2905 21.2492 11.0405 20.7392C11.3205 20.5492 11.4805 20.2392 11.4805 19.8992V16.5192H15.0005V19.5192H17.0005V16.7418L14.7779 14.5192H11.4805V13.5192H13.7779L11.7779 11.5192H11.4805V11.2218L9.48046 9.22178V19.2992C9.18046 19.4192 8.85046 19.4892 8.52046 19.4892C7.14046 19.4892 6.02046 18.3492 6.02046 16.9492C6.02046 16.5992 5.84046 16.2792 5.55046 16.0892C5.03046 15.7592 4.38046 15.1992 4.24046 14.8992C3.65046 13.6392 4.19046 12.1192 5.44046 11.5292C5.44652 11.5261 5.45349 11.5231 5.4611 11.5198L5.46111 11.5198C5.47864 11.5122 5.49955 11.5031 5.52046 11.4892C5.90046 11.8292 6.33046 12.1092 6.82046 12.3092L7.58046 10.4392C6.63046 10.0492 6.02046 9.12917 6.02046 8.08917C6.02046 7.44035 6.26101 6.84737 6.65652 6.39783L5.23192 4.97323ZM9.48046 6.67489V5.73917C9.18046 5.60917 8.85046 5.54917 8.52046 5.54917C8.46671 5.54917 8.41335 5.55089 8.36044 5.5543L6.71183 3.90486C7.26569 3.6569 7.87762 3.51917 8.52046 3.51917C9.42046 3.51917 10.2905 3.78917 11.0405 4.29917C11.3205 4.48917 11.4805 4.79916 11.4805 5.13916V8.51917H15.0005V5.51917H17.0005V9.51917L16.0005 10.5192H13.3228L9.48046 6.67489ZM14.3223 11.5192L16.3213 13.5192H20.0005V11.5192H14.3223Z" fill="#7E8084"/>
</svg>
