<svg width="24" height="25" viewBox="0 0 24 25" fill="none" xmlns="http://www.w3.org/2000/svg">
<g clip-path="url(#clip0)">
<path d="M16.0002 6.51917C17.1048 6.51917 18.0002 5.62373 18.0002 4.51917C18.0002 3.4146 17.1048 2.51917 16.0002 2.51917C14.8957 2.51917 14.0002 3.4146 14.0002 4.51917C14.0002 5.62373 14.8957 6.51917 16.0002 6.51917Z" fill="#7E8084"/>
<path d="M16.0002 10.5192H11.0002V8.51917H15.0002V5.51917H17.0002V9.51917L16.0002 10.5192Z" fill="#7E8084"/>
<path opacity="0.24" d="M7.1803 11.3692C5.9003 10.8492 5.0003 9.56917 5.0003 8.08917C5.0003 6.11917 6.5703 4.52917 8.5003 4.52917C9.2203 4.52917 9.9003 4.74917 10.4603 5.13917V19.8992C9.9003 20.2792 9.2303 20.5092 8.5003 20.5092C6.5703 20.5092 5.0003 18.9192 5.0003 16.9592C5.0003 16.9592 3.6703 16.1092 3.3103 15.3392C2.4903 13.5592 3.2503 11.4492 5.0003 10.6092C5.2603 10.4892 5.5303 10.3992 5.8003 10.3392" fill="#7E8084"/>
<path d="M8.52022 21.5192C6.23022 21.5192 4.33022 19.7692 4.05022 17.5092C3.54022 17.1292 2.75022 16.4692 2.42022 15.7592C1.40022 13.5592 2.27022 10.9492 4.35022 9.80917C4.13022 9.27917 4.02022 8.68917 4.02022 8.08917C4.02022 5.56917 6.04022 3.51917 8.52022 3.51917C9.42022 3.51917 10.2902 3.78917 11.0402 4.29917C11.3202 4.48917 11.4802 4.79916 11.4802 5.13916V19.8992C11.4802 20.2392 11.3202 20.5492 11.0402 20.7392C10.2902 21.2492 9.42022 21.5192 8.52022 21.5192ZM5.52022 11.4892C5.49022 11.5092 5.46022 11.5192 5.44022 11.5292C4.19022 12.1192 3.65022 13.6392 4.24022 14.8992C4.38022 15.1992 5.03022 15.7592 5.55022 16.0892C5.84022 16.2792 6.02022 16.5992 6.02022 16.9492C6.02022 18.3492 7.14022 19.4892 8.52022 19.4892C8.85022 19.4892 9.18022 19.4192 9.48022 19.2992V5.73917C9.18022 5.60917 8.85022 5.54917 8.52022 5.54917C7.14022 5.54917 6.02022 6.68917 6.02022 8.08917C6.02022 9.12917 6.63022 10.0492 7.58022 10.4392L6.82022 12.3092C6.33022 12.1092 5.90022 11.8292 5.52022 11.4892Z" fill="#7E8084"/>
</g>
<path d="M16.884 13.5192C16.754 13.5192 16.644 13.6092 16.624 13.7292L16.434 15.0492C16.134 15.1792 15.844 15.3392 15.584 15.5192L14.344 15.0192C14.234 15.0192 14.104 15.0192 14.034 15.1492L13.034 16.8792C12.974 16.9892 12.994 17.1192 13.094 17.1992L14.154 18.0192C14.134 18.1892 14.124 18.3492 14.124 18.5192C14.124 18.6892 14.134 18.8492 14.154 19.0192L13.094 19.8392C13.004 19.9192 12.974 20.0492 13.034 20.1592L14.034 21.8892C14.094 22.0192 14.224 22.0192 14.344 22.0192L15.584 21.5192C15.844 21.6992 16.124 21.8692 16.434 21.9892L16.624 23.3092C16.644 23.4292 16.744 23.5192 16.884 23.5192H18.884C18.994 23.5192 19.104 23.4292 19.124 23.3092L19.314 21.9892C19.614 21.8592 19.884 21.6992 20.154 21.5192L21.384 22.0192C21.514 22.0192 21.644 22.0192 21.714 21.8892L22.714 20.1592C22.774 20.0492 22.744 19.9192 22.654 19.8392L21.584 19.0192C21.604 18.8492 21.624 18.6892 21.624 18.5192C21.624 18.3492 21.614 18.1892 21.584 18.0192L22.644 17.1992C22.734 17.1192 22.764 16.9892 22.704 16.8792L21.704 15.1492C21.644 15.0192 21.514 15.0192 21.384 15.0192L20.154 15.5192C19.884 15.3392 19.614 15.1692 19.304 15.0492L19.114 13.7292C19.104 13.6092 18.994 13.5192 18.884 13.5192H16.884ZM17.884 17.0192C18.714 17.0192 19.384 17.6892 19.384 18.5192C19.384 19.3492 18.714 20.0192 17.884 20.0192C17.044 20.0192 16.384 19.3492 16.384 18.5192C16.384 17.6892 17.054 17.0192 17.884 17.0192Z" fill="#7E8084"/>
<path d="M15.0002 11.5192H11.0002V13.5192H15.0002V11.5192Z" fill="#7E8084"/>
<path d="M12.0002 14.5192H11.0002V16.5192H12.0002V14.5192Z" fill="#7E8084"/>
<defs>
<clipPath id="clip0">
<rect width="20" height="20" fill="white" transform="translate(2.00024 2.51917)"/>
</clipPath>
</defs>
</svg>
