<svg width="24" height="25" viewBox="0 0 24 25" fill="none" xmlns="http://www.w3.org/2000/svg">
<g clip-path="url(#clip0)">
<path d="M16.0005 6.51917C17.1051 6.51917 18.0005 5.62373 18.0005 4.51917C18.0005 3.4146 17.1051 2.51917 16.0005 2.51917C14.8959 2.51917 14.0005 3.4146 14.0005 4.51917C14.0005 5.62373 14.8959 6.51917 16.0005 6.51917Z" fill="#7E8084"/>
<path d="M16.0005 10.5192H11.0005V8.51917H15.0005V5.51917H17.0005V9.51917L16.0005 10.5192Z" fill="#7E8084"/>
<path opacity="0.24" d="M7.1803 11.3692C5.9003 10.8492 5.0003 9.56917 5.0003 8.08917C5.0003 6.11917 6.5703 4.52917 8.5003 4.52917C9.2203 4.52917 9.9003 4.74917 10.4603 5.13917V19.8992C9.9003 20.2792 9.2303 20.5092 8.5003 20.5092C6.5703 20.5092 5.0003 18.9192 5.0003 16.9592C5.0003 16.9592 3.6703 16.1092 3.3103 15.3392C2.4903 13.5592 3.2503 11.4492 5.0003 10.6092C5.2603 10.4892 5.5303 10.3992 5.8003 10.3392" fill="#7E8084"/>
<path d="M8.52046 21.5192C6.23046 21.5192 4.33046 19.7692 4.05046 17.5092C3.54046 17.1292 2.75046 16.4692 2.42046 15.7592C1.40046 13.5592 2.27046 10.9492 4.35046 9.80917C4.13046 9.27917 4.02046 8.68917 4.02046 8.08917C4.02046 5.56917 6.04046 3.51917 8.52046 3.51917C9.42046 3.51917 10.2905 3.78917 11.0405 4.29917C11.3205 4.48917 11.4805 4.79916 11.4805 5.13916V19.8992C11.4805 20.2392 11.3205 20.5492 11.0405 20.7392C10.2905 21.2492 9.42046 21.5192 8.52046 21.5192ZM5.52046 11.4892C5.49046 11.5092 5.46046 11.5192 5.44046 11.5292C4.19046 12.1192 3.65046 13.6392 4.24046 14.8992C4.38046 15.1992 5.03046 15.7592 5.55046 16.0892C5.84046 16.2792 6.02046 16.5992 6.02046 16.9492C6.02046 18.3492 7.14046 19.4892 8.52046 19.4892C8.85046 19.4892 9.18046 19.4192 9.48046 19.2992V5.73917C9.18046 5.60917 8.85046 5.54917 8.52046 5.54917C7.14046 5.54917 6.02046 6.68917 6.02046 8.08917C6.02046 9.12917 6.63046 10.0492 7.58046 10.4392L6.82046 12.3092C6.33046 12.1092 5.90046 11.8292 5.52046 11.4892Z" fill="#7E8084"/>
</g>
<path d="M16.8842 13.5192C16.7542 13.5192 16.6442 13.6092 16.6242 13.7292L16.4342 15.0492C16.1342 15.1792 15.8442 15.3392 15.5842 15.5192L14.3442 15.0192C14.2342 15.0192 14.1042 15.0192 14.0342 15.1492L13.0342 16.8792C12.9742 16.9892 12.9942 17.1192 13.0942 17.1992L14.1542 18.0192C14.1342 18.1892 14.1242 18.3492 14.1242 18.5192C14.1242 18.6892 14.1342 18.8492 14.1542 19.0192L13.0942 19.8392C13.0042 19.9192 12.9742 20.0492 13.0342 20.1592L14.0342 21.8892C14.0942 22.0192 14.2242 22.0192 14.3442 22.0192L15.5842 21.5192C15.8442 21.6992 16.1242 21.8692 16.4342 21.9892L16.6242 23.3092C16.6442 23.4292 16.7442 23.5192 16.8842 23.5192H18.8842C18.9942 23.5192 19.1042 23.4292 19.1242 23.3092L19.3142 21.9892C19.6142 21.8592 19.8842 21.6992 20.1542 21.5192L21.3842 22.0192C21.5142 22.0192 21.6442 22.0192 21.7142 21.8892L22.7142 20.1592C22.7742 20.0492 22.7442 19.9192 22.6542 19.8392L21.5842 19.0192C21.6042 18.8492 21.6242 18.6892 21.6242 18.5192C21.6242 18.3492 21.6142 18.1892 21.5842 18.0192L22.6442 17.1992C22.7342 17.1192 22.7642 16.9892 22.7042 16.8792L21.7042 15.1492C21.6442 15.0192 21.5142 15.0192 21.3842 15.0192L20.1542 15.5192C19.8842 15.3392 19.6142 15.1692 19.3042 15.0492L19.1142 13.7292C19.1042 13.6092 18.9942 13.5192 18.8842 13.5192H16.8842ZM17.8842 17.0192C18.7142 17.0192 19.3842 17.6892 19.3842 18.5192C19.3842 19.3492 18.7142 20.0192 17.8842 20.0192C17.0442 20.0192 16.3842 19.3492 16.3842 18.5192C16.3842 17.6892 17.0542 17.0192 17.8842 17.0192Z" fill="#7E8084"/>
<path d="M15.0005 11.5192H11.0005V13.5192H15.0005V11.5192Z" fill="#7E8084"/>
<path d="M12.0005 14.5192H11.0005V16.5192H12.0005V14.5192Z" fill="#7E8084"/>
<defs>
<clipPath id="clip0">
<rect width="20" height="20" fill="white" transform="translate(2.00049 2.51917)"/>
</clipPath>
</defs>
</svg>
