<svg width="24" height="24" viewBox="0 0 24 24" fill="none" xmlns="http://www.w3.org/2000/svg">
<g clip-path="url(#clip0)">
<path d="M16 6C17.1046 6 18 5.10457 18 4C18 2.89543 17.1046 2 16 2C14.8954 2 14 2.89543 14 4C14 5.10457 14.8954 6 16 6Z" fill="#7E8084"/>
<path d="M16 10H11V8H15V5H17V9L16 10Z" fill="#7E8084"/>
<path opacity="0.24" d="M7.18005 10.85C5.90005 10.33 5.00005 9.05001 5.00005 7.57001C5.00005 5.60001 6.57005 4.01001 8.50005 4.01001C9.22005 4.01001 9.90005 4.23001 10.4601 4.62001V19.38C9.90005 19.76 9.23005 19.99 8.50005 19.99C6.57005 19.99 5.00005 18.4 5.00005 16.44C5.00005 16.44 3.67005 15.59 3.31005 14.82C2.49005 13.04 3.25005 10.93 5.00005 10.09C5.26005 9.97001 5.53005 9.88001 5.80005 9.82001" fill="#7E8084"/>
<path d="M8.51997 21C6.22997 21 4.32997 19.25 4.04997 16.99C3.53997 16.61 2.74997 15.95 2.41997 15.24C1.39997 13.04 2.26997 10.43 4.34997 9.29C4.12997 8.76 4.01997 8.17 4.01997 7.57C4.01997 5.05 6.03997 3 8.51997 3C9.41997 3 10.29 3.27 11.04 3.78C11.32 3.97 11.48 4.28 11.48 4.62V19.38C11.48 19.72 11.32 20.03 11.04 20.22C10.29 20.73 9.41997 21 8.51997 21ZM5.51997 10.97C5.48997 10.99 5.45997 11 5.43997 11.01C4.18997 11.6 3.64997 13.12 4.23997 14.38C4.37997 14.68 5.02997 15.24 5.54997 15.57C5.83997 15.76 6.01997 16.08 6.01997 16.43C6.01997 17.83 7.13997 18.97 8.51997 18.97C8.84997 18.97 9.17997 18.9 9.47997 18.78V5.22C9.17997 5.09 8.84997 5.03 8.51997 5.03C7.13997 5.03 6.01997 6.17 6.01997 7.57C6.01997 8.61 6.62997 9.53 7.57997 9.92L6.81997 11.79C6.32997 11.59 5.89997 11.31 5.51997 10.97Z" fill="#7E8084"/>
</g>
<path d="M16.8838 13C16.7538 13 16.6437 13.09 16.6237 13.21L16.4337 14.53C16.1337 14.66 15.8438 14.82 15.5838 15L14.3438 14.5C14.2338 14.5 14.1037 14.5 14.0337 14.63L13.0337 16.36C12.9737 16.47 12.9938 16.6 13.0938 16.68L14.1538 17.5C14.1338 17.67 14.1237 17.83 14.1237 18C14.1237 18.17 14.1338 18.33 14.1538 18.5L13.0938 19.32C13.0038 19.4 12.9737 19.53 13.0337 19.64L14.0337 21.37C14.0937 21.5 14.2238 21.5 14.3438 21.5L15.5838 21C15.8438 21.18 16.1237 21.35 16.4337 21.47L16.6237 22.79C16.6437 22.91 16.7438 23 16.8838 23H18.8838C18.9938 23 19.1038 22.91 19.1238 22.79L19.3138 21.47C19.6138 21.34 19.8838 21.18 20.1538 21L21.3837 21.5C21.5138 21.5 21.6438 21.5 21.7137 21.37L22.7137 19.64C22.7738 19.53 22.7438 19.4 22.6538 19.32L21.5838 18.5C21.6038 18.33 21.6237 18.17 21.6237 18C21.6237 17.83 21.6138 17.67 21.5838 17.5L22.6438 16.68C22.7338 16.6 22.7638 16.47 22.7037 16.36L21.7037 14.63C21.6437 14.5 21.5138 14.5 21.3837 14.5L20.1538 15C19.8838 14.82 19.6138 14.65 19.3038 14.53L19.1137 13.21C19.1037 13.09 18.9938 13 18.8838 13H16.8838ZM17.8838 16.5C18.7138 16.5 19.3838 17.17 19.3838 18C19.3838 18.83 18.7138 19.5 17.8838 19.5C17.0438 19.5 16.3838 18.83 16.3838 18C16.3838 17.17 17.0538 16.5 17.8838 16.5Z" fill="#7E8084"/>
<path d="M15 11H11V13H15V11Z" fill="#7E8084"/>
<path d="M12 14H11V16H12V14Z" fill="#7E8084"/>
<defs>
<clipPath id="clip0">
<rect width="20" height="20" fill="white" transform="translate(2 2)"/>
</clipPath>
</defs>
</svg>
