<svg width="24" height="25" viewBox="0 0 24 25" fill="none" xmlns="http://www.w3.org/2000/svg">
<path opacity="0.24" d="M12.5002 10.0192L14.3002 12.0192C15.0002 11.4192 15.4002 10.5192 15.4002 9.51917C15.4002 7.61917 13.9002 6.11917 12.0002 6.11917C10.1002 6.11917 8.60022 7.51917 8.60022 9.41917C8.60022 10.4192 9.00022 11.3192 9.70022 11.9192L11.5002 9.91917" fill="#7E8084"/>
<path d="M12.0002 4.51917C14.8002 4.51917 17.0002 6.71916 17.0002 9.51917C17.0002 12.3192 14.8002 14.5192 12.0002 14.5192C9.20024 14.5192 7.00024 12.3192 7.00024 9.51917C7.00024 6.71916 9.20024 4.51917 12.0002 4.51917ZM12.0002 2.51917C8.10024 2.51917 5.00024 5.61916 5.00024 9.51917C5.00024 13.4192 8.10024 16.5192 12.0002 16.5192C15.9002 16.5192 19.0002 13.4192 19.0002 9.51917C19.0002 5.61916 15.9002 2.51917 12.0002 2.51917Z" fill="#7E8084"/>
<path d="M12.0002 10.4192C12.5525 10.4192 13.0002 9.97144 13.0002 9.41916C13.0002 8.86687 12.5525 8.41916 12.0002 8.41916C11.448 8.41916 11.0002 8.86687 11.0002 9.41916C11.0002 9.97144 11.448 10.4192 12.0002 10.4192Z" fill="#7E8084"/>
<path fill-rule="evenodd" clip-rule="evenodd" d="M11.0002 15.5192H13.0002V18.5192H16.0002V17.5192H18.0002V18.5192H19.0002V20.5192H18.0002V21.5192H16.0002V20.5192H8.00024V21.5192H6.00024V20.5192H5.00024V18.5192H6.00024V17.5192H8.00024V18.5192H11.0002V15.5192Z" fill="#7E8084"/>
<path d="M11.3002 11.3192C11.2002 11.3192 11.1002 11.3192 11.1002 11.2192C10.9002 11.1192 10.8002 10.8192 10.9002 10.5192L12.9002 6.61917C13.0002 6.41917 13.3002 6.31917 13.6002 6.41917C13.8002 6.51917 13.9002 6.81917 13.8002 7.11917L11.8002 11.0192C11.7002 11.2192 11.5002 11.3192 11.3002 11.3192Z" fill="#7E8084"/>
</svg>
