<svg width="24" height="24" viewBox="0 0 24 24" fill="none" xmlns="http://www.w3.org/2000/svg">
<path opacity="0.3" d="M12.5 9.50001L14.3 11.5C15 10.9 15.4 10 15.4 9.00001C15.4 7.10001 13.9 5.60001 12 5.60001C10.1 5.60001 8.59998 7.00001 8.59998 8.90001C8.59998 9.90001 8.99998 10.8 9.69998 11.4L11.5 9.40001" fill="#7E8085"/>
<path d="M12 4C14.8 4 17 6.2 17 9C17 11.8 14.8 14 12 14C9.2 14 7 11.8 7 9C7 6.2 9.2 4 12 4ZM12 2C8.1 2 5 5.1 5 9C5 12.9 8.1 16 12 16C15.9 16 19 12.9 19 9C19 5.1 15.9 2 12 2Z" fill="#7E8085"/>
<path d="M12 9.89999C12.5523 9.89999 13 9.45228 13 8.89999C13 8.34771 12.5523 7.89999 12 7.89999C11.4477 7.89999 11 8.34771 11 8.89999C11 9.45228 11.4477 9.89999 12 9.89999Z" fill="#7E8085"/>
<path fill-rule="evenodd" clip-rule="evenodd" d="M11 15H13V18H16V17H18V18H19V20H18V21H16V20H8V21H6V20H5V18H6V17H8V18H11V15Z" fill="#7E8085"/>
<path d="M11.3 10.8C11.2 10.8 11.1 10.8 11.1 10.7C10.9 10.6 10.8 10.3 10.9 9.99999L12.9 6.09999C13 5.89999 13.3 5.79999 13.6 5.89999C13.8 5.99999 13.9 6.29999 13.8 6.59999L11.8 10.5C11.7 10.7 11.5 10.8 11.3 10.8Z" fill="#7E8085"/>
</svg>
