<svg width="24" height="24" viewBox="0 0 24 24" fill="none" xmlns="http://www.w3.org/2000/svg">
<path opacity="0.24" d="M12.5001 9.5001L14.3001 11.5001C15.0001 10.9001 15.4001 10.0001 15.4001 9.0001C15.4001 7.1001 13.9001 5.6001 12.0001 5.6001C10.1001 5.6001 8.6001 7.0001 8.6001 8.9001C8.6001 9.9001 9.0001 10.8001 9.7001 11.4001L11.5001 9.4001" fill="#7E8084"/>
<path d="M12 4C14.8 4 17 6.2 17 9C17 11.8 14.8 14 12 14C9.2 14 7 11.8 7 9C7 6.2 9.2 4 12 4ZM12 2C8.1 2 5 5.1 5 9C5 12.9 8.1 16 12 16C15.9 16 19 12.9 19 9C19 5.1 15.9 2 12 2Z" fill="#7E8084"/>
<path d="M12 9.8999C12.5523 9.8999 13 9.45219 13 8.8999C13 8.34762 12.5523 7.8999 12 7.8999C11.4477 7.8999 11 8.34762 11 8.8999C11 9.45219 11.4477 9.8999 12 9.8999Z" fill="#7E8084"/>
<path fill-rule="evenodd" clip-rule="evenodd" d="M11 15H13V18H16V17H18V18H19V20H18V21H16V20H8V21H6V20H5V18H6V17H8V18H11V15Z" fill="#7E8084"/>
<path d="M11.3001 10.8001C11.2001 10.8001 11.1001 10.8001 11.1001 10.7001C10.9001 10.6001 10.8001 10.3001 10.9001 10.0001L12.9001 6.10007C13.0001 5.90007 13.3001 5.80007 13.6001 5.90007C13.8001 6.00007 13.9001 6.30007 13.8001 6.60007L11.8001 10.5001C11.7001 10.7001 11.5001 10.8001 11.3001 10.8001Z" fill="#7E8084"/>
</svg>
