<svg width="24" height="25" viewBox="0 0 24 25" fill="none" xmlns="http://www.w3.org/2000/svg">
<path opacity="0.24" d="M12.5006 10.0192L14.3006 12.0192C15.0006 11.4192 15.4006 10.5192 15.4006 9.51917C15.4006 7.61917 13.9006 6.11917 12.0006 6.11917C10.1006 6.11917 8.60059 7.51917 8.60059 9.41917C8.60059 10.4192 9.00059 11.3192 9.70059 11.9192L11.5006 9.91917" fill="#7E8084"/>
<path d="M12.0005 4.51917C14.8005 4.51917 17.0005 6.71916 17.0005 9.51917C17.0005 12.3192 14.8005 14.5192 12.0005 14.5192C9.20049 14.5192 7.00049 12.3192 7.00049 9.51917C7.00049 6.71916 9.20049 4.51917 12.0005 4.51917ZM12.0005 2.51917C8.10049 2.51917 5.00049 5.61916 5.00049 9.51917C5.00049 13.4192 8.10049 16.5192 12.0005 16.5192C15.9005 16.5192 19.0005 13.4192 19.0005 9.51917C19.0005 5.61916 15.9005 2.51917 12.0005 2.51917Z" fill="#7E8084"/>
<path d="M12.0005 10.4192C12.5528 10.4192 13.0005 9.97144 13.0005 9.41916C13.0005 8.86687 12.5528 8.41916 12.0005 8.41916C11.4482 8.41916 11.0005 8.86687 11.0005 9.41916C11.0005 9.97144 11.4482 10.4192 12.0005 10.4192Z" fill="#7E8084"/>
<path fill-rule="evenodd" clip-rule="evenodd" d="M11.0005 15.5192H13.0005V18.5192H16.0005V17.5192H18.0005V18.5192H19.0005V20.5192H18.0005V21.5192H16.0005V20.5192H8.00049V21.5192H6.00049V20.5192H5.00049V18.5192H6.00049V17.5192H8.00049V18.5192H11.0005V15.5192Z" fill="#7E8084"/>
<path d="M11.3006 11.3192C11.2006 11.3192 11.1006 11.3192 11.1006 11.2192C10.9006 11.1192 10.8006 10.8192 10.9006 10.5192L12.9006 6.61917C13.0006 6.41917 13.3006 6.31917 13.6006 6.41917C13.8006 6.51917 13.9006 6.81917 13.8006 7.11917L11.8006 11.0192C11.7006 11.2192 11.5006 11.3192 11.3006 11.3192Z" fill="#7E8084"/>
</svg>
