<svg width="24" height="24" viewBox="0 0 24 24" fill="none" xmlns="http://www.w3.org/2000/svg">
<path fill-rule="evenodd" clip-rule="evenodd" d="M11 11L7 7H10V2H12V7H15L11 11ZM19.7071 11.7071C19.5196 11.8946 19.2652 12 19 12H5C4.73478 12 4.48043 12.1054 4.29289 12.2929C4.10536 12.4804 4 12.7348 4 13C4 13.2652 4.10536 13.5196 4.29289 13.7071C4.48043 13.8946 4.73478 14 5 14H19C19.7956 14 20.5587 13.6839 21.1213 13.1213C21.6839 12.5587 22 11.7956 22 11C22 10.2044 21.6839 9.44129 21.1213 8.87868C20.5587 8.31607 19.7956 8 19 8C18.17 8 17.42 8.34 16.88 8.88C16.5 9.27 16.5 9.9 16.88 10.29C17.27 10.68 17.9 10.68 18.29 10.29C18.47 10.11 18.72 10 19 10C19.2652 10 19.5196 10.1054 19.7071 10.2929C19.8946 10.4804 20 10.7348 20 11C20 11.2652 19.8946 11.5196 19.7071 11.7071ZM3.29289 17.7071C3.48043 17.8946 3.73478 18 4 18H18C18.2652 18 18.5196 18.1054 18.7071 18.2929C18.8946 18.4804 19 18.7348 19 19C19 19.2652 18.8946 19.5196 18.7071 19.7071C18.5196 19.8946 18.2652 20 18 20C17.72 20 17.47 19.89 17.29 19.71C16.9 19.32 16.27 19.32 15.88 19.71C15.5 20.1 15.5 20.73 15.88 21.12C16.42 21.66 17.17 22 18 22C18.7956 22 19.5587 21.6839 20.1213 21.1213C20.6839 20.5587 21 19.7956 21 19C21 18.2044 20.6839 17.4413 20.1213 16.8787C19.5587 16.3161 18.7956 16 18 16H4C3.73478 16 3.48043 16.1054 3.29289 16.2929C3.10536 16.4804 3 16.7348 3 17C3 17.2652 3.10536 17.5196 3.29289 17.7071Z" fill="#7E8084"/>
</svg>
