<svg width="24" height="25" viewBox="0 0 24 25" fill="none" xmlns="http://www.w3.org/2000/svg">
<g clip-path="url(#clip0)">
<path opacity="0.24" d="M15.7002 10.0192L19.4002 3.61917H17.1002L15.0002 7.31916L11.1002 5.01917L8.50022 3.51917L7.00022 6.11916L3.10022 12.9192V16.9192L9.20022 6.21917L15.7002 10.0192Z" fill="#7E8084"/>
<path d="M19.1002 21.6192H21.1002V19.6192H19.1002V21.6192ZM19.1002 9.61917V17.6192H21.1002V9.61917H19.1002Z" fill="#7E8084"/>
<path d="M18.1002 8.61917H20.0002L22.1002 5.11917L20.3002 4.11917L16.1002 11.4192L9.60024 7.61917L2.00024 20.8192L3.70024 21.9192L10.3002 10.4192L16.8002 14.1192L18.1002 11.9192V8.61917Z" fill="#7E8084"/>
<path opacity="0.24" d="M17.8002 15.8192L10.7002 11.7192L5.00024 21.6192H7.30024L11.4002 14.5192L15.3002 16.7192L17.8002 18.1192V15.8192Z" fill="#7E8084"/>
</g>
<defs>
<clipPath id="clip0">
<rect width="20.1" height="18.4" fill="white" transform="translate(2.00024 3.51917)"/>
</clipPath>
</defs>
</svg>
