<svg width="24" height="25" viewBox="0 0 24 25" fill="none" xmlns="http://www.w3.org/2000/svg">
<path opacity="0.24" d="M4.00024 12.5192C4.00024 8.11916 7.60024 4.51917 12.0002 4.51917C15.0002 4.51917 17.5002 6.11916 18.9002 8.51917H21.1002C19.6002 5.01917 16.0002 2.51917 11.9002 2.51917C6.50024 2.51917 2.00024 7.01917 2.00024 12.5192C2.00024 15.7192 3.50024 18.6192 5.90024 20.4192L6.60024 18.4192C5.00024 17.0192 4.00024 14.9192 4.00024 12.5192Z" fill="#7E8084"/>
<path opacity="0.24" d="M16.6002 16.4192C17.5002 15.4192 18.0002 14.0192 18.0002 12.5192C18.0002 9.21917 15.3002 6.51917 12.0002 6.51917C8.70024 6.51917 6.00024 9.21917 6.00024 12.5192C6.00024 14.0192 6.50024 15.3192 7.40024 16.4192L8.30024 14.0192C8.10024 13.5192 8.00024 13.0192 8.00024 12.5192C8.00024 10.3192 9.80024 8.51917 12.0002 8.51917C14.2002 8.51917 16.0002 10.3192 16.0002 12.5192C16.0002 13.0192 15.9002 13.5192 15.7002 14.0192L16.6002 16.4192Z" fill="#7E8084"/>
<path d="M14.7003 22.5192H16.7003L13.5003 13.8192C13.8003 13.5192 14.0003 13.0192 14.0003 12.5192C14.0003 11.4192 13.1003 10.5192 12.0003 10.5192C10.9003 10.5192 10.0003 11.4192 10.0003 12.5192C10.0003 13.0192 10.2003 13.4192 10.5003 13.8192L7.30029 22.5192H9.20029H9.30029V22.4192L11.8003 20.7192L14.3003 22.4192V22.5192H14.7003ZM12.0003 18.3192L11.2003 17.7192L12.0003 15.4192L12.8003 17.7192L12.0003 18.3192Z" fill="#7E8084"/>
<path d="M20.0002 22.5192H22.0002V20.5192H20.0002V22.5192ZM20.0002 10.5192V18.5192H22.0002V10.5192H20.0002Z" fill="#7E8084"/>
</svg>
