<svg width="24" height="25" viewBox="0 0 24 25" fill="none" xmlns="http://www.w3.org/2000/svg">
<g clip-path="url(#clip0)">
<path d="M20.0005 21.5192H22.0005V19.5192H20.0005V21.5192ZM20.0005 9.51917V17.5192H22.0005V9.51917H20.0005Z" fill="#7E8084"/>
<path d="M19.1005 8.51917H21.0005L23.1005 5.01917L21.3005 4.01917L17.1005 11.3192L10.6005 7.51917L3.00049 20.7192L4.70049 21.8192L11.3005 10.3192L17.8005 14.0192L19.1005 11.8192V8.51917Z" fill="#7E8084"/>
<path opacity="0.24" d="M21.0005 5.51917H19.0005V3.51917H21.0005V5.51917ZM17.0005 5.51917H15.0005V3.51917H17.0005V5.51917ZM13.0005 5.51917H11.0005V3.51917H13.0005V5.51917ZM9.00049 5.51917H7.00049V3.51917H9.00049V5.51917ZM5.00049 5.51917H3.00049V3.51917H5.00049V5.51917Z" fill="#7E8084"/>
</g>
<defs>
<clipPath id="clip0">
<rect width="21.1" height="19" fill="white" transform="translate(2.00049 3.51917)"/>
</clipPath>
</defs>
</svg>
