<svg width="24" height="25" viewBox="0 0 24 25" fill="none" xmlns="http://www.w3.org/2000/svg">
<g clip-path="url(#clip0)">
<path opacity="0.24" d="M12.0002 6.01917C9.20024 6.01917 7.00024 8.21917 7.00024 11.0192V18.0192H17.0002V11.0192C17.0002 8.21917 14.8002 6.01917 12.0002 6.01917ZM13.0002 16.0192H11.0002V14.0192H13.0002V16.0192ZM13.0002 12.0192H11.0002V8.01917H13.0002V12.0192Z" fill="#7E8084"/>
<path d="M12.0002 23.0192C13.1002 23.0192 14.0002 22.1192 14.0002 21.0192H10.0002C10.0002 22.1192 10.9002 23.0192 12.0002 23.0192ZM19.0002 17.0192V11.0192C19.0002 7.71916 16.6002 4.81917 13.5002 4.21917V3.01917C13.5002 2.21917 12.8002 1.51917 12.0002 1.51917C11.2002 1.51917 10.5002 2.21917 10.5002 3.01917V4.21917C7.40024 4.81917 5.00024 7.71916 5.00024 11.0192V17.0192L3.00024 19.0192V20.0192H21.0002V19.0192L19.0002 17.0192ZM17.0002 18.0192H7.00024V11.0192C7.00024 8.21916 9.20024 6.01917 12.0002 6.01917C14.8002 6.01917 17.0002 8.21916 17.0002 11.0192V18.0192ZM11.0002 8.01917H13.0002V12.0192H11.0002V8.01917ZM11.0002 14.0192H13.0002V16.0192H11.0002V14.0192Z" fill="#7E8084"/>
</g>
<defs>
<clipPath id="clip0">
<rect width="18" height="21.5" fill="white" transform="translate(3.00024 1.51917)"/>
</clipPath>
</defs>
</svg>
