<svg width="24" height="24" viewBox="0 0 24 24" fill="none" xmlns="http://www.w3.org/2000/svg">
<path opacity="0.24" d="M4 12C4 7.6 7.6 4 12 4C15 4 17.5 5.6 18.9 8H21.1C19.6 4.5 16 2 11.9 2C6.5 2 2 6.5 2 12C2 15.2 3.5 18.1 5.9 19.9L6.6 17.9C5 16.5 4 14.4 4 12Z" fill="#7E8084"/>
<path opacity="0.24" d="M16.6 15.9C17.5 14.9 18 13.5 18 12C18 8.7 15.3 6 12 6C8.7 6 6 8.7 6 12C6 13.5 6.5 14.8 7.4 15.9L8.3 13.5C8.1 13 8 12.5 8 12C8 9.8 9.8 8 12 8C14.2 8 16 9.8 16 12C16 12.5 15.9 13 15.7 13.5L16.6 15.9Z" fill="#7E8084"/>
<path d="M14.6998 22H16.6998L13.4998 13.3C13.7998 13 13.9998 12.5 13.9998 12C13.9998 10.9 13.0998 10 11.9998 10C10.8998 10 9.9998 10.9 9.9998 12C9.9998 12.5 10.1998 12.9 10.4998 13.3L7.2998 22H9.1998H9.2998V21.9L11.7998 20.2L14.2998 21.9V22H14.6998ZM11.9998 17.8L11.1998 17.2L11.9998 14.9L12.7998 17.2L11.9998 17.8Z" fill="#7E8084"/>
<path d="M20 22H22V20H20V22ZM20 10V18H22V10H20Z" fill="#7E8084"/>
</svg>
