<svg width="24" height="25" viewBox="0 0 24 25" fill="none" xmlns="http://www.w3.org/2000/svg">
<g clip-path="url(#clip0)">
<path opacity="0.24" d="M12.0005 6.01917C9.20049 6.01917 7.00049 8.21917 7.00049 11.0192V18.0192H17.0005V11.0192C17.0005 8.21917 14.8005 6.01917 12.0005 6.01917ZM13.0005 16.0192H11.0005V14.0192H13.0005V16.0192ZM13.0005 12.0192H11.0005V8.01917H13.0005V12.0192Z" fill="#7E8084"/>
<path d="M12.0005 23.0192C13.1005 23.0192 14.0005 22.1192 14.0005 21.0192H10.0005C10.0005 22.1192 10.9005 23.0192 12.0005 23.0192ZM19.0005 17.0192V11.0192C19.0005 7.71916 16.6005 4.81917 13.5005 4.21917V3.01917C13.5005 2.21917 12.8005 1.51917 12.0005 1.51917C11.2005 1.51917 10.5005 2.21917 10.5005 3.01917V4.21917C7.40049 4.81917 5.00049 7.71916 5.00049 11.0192V17.0192L3.00049 19.0192V20.0192H21.0005V19.0192L19.0005 17.0192ZM17.0005 18.0192H7.00049V11.0192C7.00049 8.21916 9.20049 6.01917 12.0005 6.01917C14.8005 6.01917 17.0005 8.21916 17.0005 11.0192V18.0192ZM11.0005 8.01917H13.0005V12.0192H11.0005V8.01917ZM11.0005 14.0192H13.0005V16.0192H11.0005V14.0192Z" fill="#7E8084"/>
</g>
<defs>
<clipPath id="clip0">
<rect width="18" height="21.5" fill="white" transform="translate(3.00049 1.51917)"/>
</clipPath>
</defs>
</svg>
