<svg width="24" height="24" viewBox="0 0 24 24" fill="none" xmlns="http://www.w3.org/2000/svg">
<g clip-path="url(#clip0)">
<path opacity="0.24" d="M15.7001 9.5L19.4001 3.1H17.1001L15.0001 6.8L11.1001 4.5L8.5001 3L7.0001 5.6L3.1001 12.4V16.4L9.2001 5.7L15.7001 9.5Z" fill="#7E8084"/>
<path d="M19.1001 21.1H21.1001V19.1H19.1001V21.1ZM19.1001 9.10001V17.1H21.1001V9.10001H19.1001Z" fill="#7E8084"/>
<path d="M18.1 8.10001H20L22.1 4.60001L20.3 3.60001L16.1 10.9L9.6 7.10001L2 20.3L3.7 21.4L10.3 9.90001L16.8 13.6L18.1 11.4V8.10001Z" fill="#7E8084"/>
<path opacity="0.24" d="M17.8 15.3L10.7 11.2L5 21.1H7.3L11.4 14L15.3 16.2L17.8 17.6V15.3Z" fill="#7E8084"/>
</g>
<defs>
<clipPath id="clip0">
<rect width="20.1" height="18.4" fill="white" transform="translate(2 3)"/>
</clipPath>
</defs>
</svg>
