<svg width="24" height="25" viewBox="0 0 24 25" fill="none" xmlns="http://www.w3.org/2000/svg">
<g clip-path="url(#clip0)">
<path d="M20.0002 21.5192H22.0002V19.5192H20.0002V21.5192ZM20.0002 9.51917V17.5192H22.0002V9.51917H20.0002Z" fill="#7E8084"/>
<path d="M19.1002 8.51917H21.0002L23.1002 5.01917L21.3002 4.01917L17.1002 11.3192L10.6002 7.51917L3.00024 20.7192L4.70024 21.8192L11.3002 10.3192L17.8002 14.0192L19.1002 11.8192V8.51917Z" fill="#7E8084"/>
<path opacity="0.24" d="M21.0002 5.51917H19.0002V3.51917H21.0002V5.51917ZM17.0002 5.51917H15.0002V3.51917H17.0002V5.51917ZM13.0002 5.51917H11.0002V3.51917H13.0002V5.51917ZM9.00024 5.51917H7.00024V3.51917H9.00024V5.51917ZM5.00024 5.51917H3.00024V3.51917H5.00024V5.51917Z" fill="#7E8084"/>
</g>
<defs>
<clipPath id="clip0">
<rect width="21.1" height="19" fill="white" transform="translate(2.00024 3.51917)"/>
</clipPath>
</defs>
</svg>
