<svg width="24" height="24" viewBox="0 0 24 24" fill="none" xmlns="http://www.w3.org/2000/svg">
<g clip-path="url(#clip0)">
<path d="M20 21H22V19H20V21ZM20 9V17H22V9H20Z" fill="#7E8084"/>
<path d="M19.1 8H21L23.1 4.5L21.3 3.5L17.1 10.8L10.6 7L3 20.2L4.7 21.3L11.3 9.8L17.8 13.5L19.1 11.3V8Z" fill="#7E8084"/>
<path opacity="0.24" d="M21 5H19V3H21V5ZM17 5H15V3H17V5ZM13 5H11V3H13V5ZM9 5H7V3H9V5ZM5 5H3V3H5V5Z" fill="#7E8084"/>
</g>
<defs>
<clipPath id="clip0">
<rect width="21.1" height="19" fill="white" transform="translate(2 3)"/>
</clipPath>
</defs>
</svg>
