<svg width="24" height="25" viewBox="0 0 24 25" fill="none" xmlns="http://www.w3.org/2000/svg">
<g clip-path="url(#clip0)">
<path opacity="0.24" d="M15.7006 10.0192L19.4006 3.61917H17.1006L15.0006 7.31916L11.1006 5.01917L8.50059 3.51917L7.00059 6.11916L3.10059 12.9192V16.9192L9.20059 6.21917L15.7006 10.0192Z" fill="#7E8084"/>
<path d="M19.1006 21.6191H21.1006V19.6191H19.1006V21.6191ZM19.1006 9.61914V17.6191H21.1006V9.61914H19.1006Z" fill="#7E8084"/>
<path d="M18.1005 8.61914H20.0005L22.1005 5.11914L20.3005 4.11914L16.1005 11.4191L9.60049 7.61914L2.00049 20.8191L3.70049 21.9191L10.3005 10.4191L16.8005 14.1191L18.1005 11.9191V8.61914Z" fill="#7E8084"/>
<path opacity="0.24" d="M17.8005 15.8192L10.7005 11.7192L5.00049 21.6192H7.30049L11.4005 14.5192L15.3005 16.7192L17.8005 18.1192V15.8192Z" fill="#7E8084"/>
</g>
<defs>
<clipPath id="clip0">
<rect width="20.1" height="18.4" fill="white" transform="translate(2.00049 3.51917)"/>
</clipPath>
</defs>
</svg>
