<svg width="24" height="25" viewBox="0 0 24 25" fill="none" xmlns="http://www.w3.org/2000/svg">
<path opacity="0.24" d="M4.00049 12.5192C4.00049 8.11916 7.60049 4.51917 12.0005 4.51917C15.0005 4.51917 17.5005 6.11916 18.9005 8.51917H21.1005C19.6005 5.01917 16.0005 2.51917 11.9005 2.51917C6.50049 2.51917 2.00049 7.01917 2.00049 12.5192C2.00049 15.7192 3.50049 18.6192 5.90049 20.4192L6.60049 18.4192C5.00049 17.0192 4.00049 14.9192 4.00049 12.5192Z" fill="#7E8084"/>
<path opacity="0.24" d="M16.6005 16.4192C17.5005 15.4192 18.0005 14.0192 18.0005 12.5192C18.0005 9.21917 15.3005 6.51917 12.0005 6.51917C8.70049 6.51917 6.00049 9.21917 6.00049 12.5192C6.00049 14.0192 6.50049 15.3192 7.40049 16.4192L8.30049 14.0192C8.10049 13.5192 8.00049 13.0192 8.00049 12.5192C8.00049 10.3192 9.80049 8.51917 12.0005 8.51917C14.2005 8.51917 16.0005 10.3192 16.0005 12.5192C16.0005 13.0192 15.9005 13.5192 15.7005 14.0192L16.6005 16.4192Z" fill="#7E8084"/>
<path d="M14.7003 22.5192H16.7003L13.5003 13.8192C13.8003 13.5192 14.0003 13.0192 14.0003 12.5192C14.0003 11.4192 13.1003 10.5192 12.0003 10.5192C10.9003 10.5192 10.0003 11.4192 10.0003 12.5192C10.0003 13.0192 10.2003 13.4192 10.5003 13.8192L7.30029 22.5192H9.20029H9.30029V22.4192L11.8003 20.7192L14.3003 22.4192V22.5192H14.7003ZM12.0003 18.3192L11.2003 17.7192L12.0003 15.4192L12.8003 17.7192L12.0003 18.3192Z" fill="#7E8084"/>
<path d="M20.0005 22.5192H22.0005V20.5192H20.0005V22.5192ZM20.0005 10.5192V18.5192H22.0005V10.5192H20.0005Z" fill="#7E8084"/>
</svg>
