<svg width="24" height="25" viewBox="0 0 24 25" fill="none" xmlns="http://www.w3.org/2000/svg">
<path fill-rule="evenodd" clip-rule="evenodd" d="M9.37747 8.61903C8.57994 8.88235 8.00024 9.63634 8.00024 10.5192C8.00024 11.6192 8.90024 12.5192 10.0002 12.5192C10.8831 12.5192 11.6371 11.9395 11.9004 11.1419L9.37747 8.61903Z" fill="#7E8084"/>
<path d="M1.50024 3.28917L2.78024 2.01917L22.5002 21.7492L21.2302 23.0192L1.50024 3.28917Z" fill="#7E8084"/>
<path fill-rule="evenodd" clip-rule="evenodd" d="M15.3252 14.5668C15.2531 14.5422 15.1777 14.526 15.1002 14.5192C14.7502 14.4792 14.4202 14.6392 14.2102 14.9192L12.4702 17.2392L11.1802 12.1292L11.1202 12.0292C10.5602 11.1192 9.24024 11.0892 8.66024 11.9892L6.38024 16.6892H3.00024V18.6892H7.00024C7.38024 18.6892 7.73024 18.4692 7.90024 18.1292L9.70024 14.4292L11.0302 19.7592C11.1202 20.1392 11.4202 20.4192 11.8002 20.4992C11.8081 20.5003 11.8159 20.5015 11.8235 20.5026C11.8839 20.5113 11.9381 20.5192 12.0002 20.5192C12.3102 20.5192 12.6102 20.3692 12.8002 20.1192L14.8302 17.4092L15.1102 17.9592C15.2702 18.3092 15.6202 18.5192 16.0002 18.5192H19.2776L17.2776 16.5192H16.6202L15.9718 15.2134L15.3252 14.5668ZM19.8195 16.5192L21.8185 18.5192H22.0002V16.5192H19.8195Z" fill="#7E8084"/>
<path opacity="0.24" fill-rule="evenodd" clip-rule="evenodd" d="M6.44565 5.68721C4.96315 6.78038 4.00024 8.5388 4.00024 10.5192C4.00024 12.1492 4.65024 13.6192 5.70024 14.6992L7.01024 13.1692C6.38024 12.4692 6.00024 11.5392 6.00024 10.5192C6.00024 9.08686 6.75211 7.83097 7.88289 7.12445L6.44565 5.68721ZM13.9965 10.6932C13.999 10.6355 14.0002 10.5774 14.0002 10.5192C14.0002 8.30917 12.2102 6.51917 10.0002 6.51917C9.9426 6.51917 9.88524 6.52038 9.82819 6.52279L8.12508 4.81882C8.71521 4.62439 9.3456 4.51917 10.0002 4.51917C13.3102 4.51917 16.0002 7.20917 16.0002 10.5192C16.0002 11.1739 15.8962 11.8088 15.7019 12.3995L13.9965 10.6932Z" fill="#7E8084"/>
</svg>
