<svg width="24" height="25" viewBox="0 0 24 25" fill="none" xmlns="http://www.w3.org/2000/svg">
<path fill-rule="evenodd" clip-rule="evenodd" d="M9.37772 8.61902C8.58018 8.88234 8.00049 9.63634 8.00049 10.5192C8.00049 11.6192 8.90049 12.5192 10.0005 12.5192C10.8833 12.5192 11.6373 11.9395 11.9006 11.1419L9.37772 8.61902Z" fill="#7E8084"/>
<path d="M1.50049 3.28917L2.78049 2.01917L22.5005 21.7492L21.2305 23.0192L1.50049 3.28917Z" fill="#7E8084"/>
<path fill-rule="evenodd" clip-rule="evenodd" d="M15.3255 14.5668C15.2534 14.5422 15.178 14.526 15.1005 14.5192C14.7505 14.4792 14.4205 14.6392 14.2105 14.9192L12.4705 17.2392L11.1805 12.1292L11.1205 12.0292C10.5605 11.1192 9.24049 11.0892 8.66049 11.9892L6.38049 16.6892H3.00049V18.6892H7.00049C7.38049 18.6892 7.73049 18.4692 7.90049 18.1292L9.70049 14.4292L11.0305 19.7592C11.1205 20.1392 11.4205 20.4192 11.8005 20.4992C11.8084 20.5003 11.8161 20.5015 11.8238 20.5026C11.8841 20.5113 11.9384 20.5192 12.0005 20.5192C12.3105 20.5192 12.6105 20.3692 12.8005 20.1192L14.8305 17.4092L15.1105 17.9592C15.2705 18.3092 15.6205 18.5192 16.0005 18.5192H19.2779L17.2779 16.5192H16.6205L15.9721 15.2134L15.3255 14.5668ZM19.8198 16.5192L21.8188 18.5192H22.0005V16.5192H19.8198Z" fill="#7E8084"/>
<path opacity="0.24" fill-rule="evenodd" clip-rule="evenodd" d="M6.44589 5.68721C4.9634 6.78038 4.00049 8.5388 4.00049 10.5192C4.00049 12.1492 4.65049 13.6192 5.70049 14.6992L7.01049 13.1692C6.38049 12.4692 6.00049 11.5392 6.00049 10.5192C6.00049 9.08686 6.75235 7.83097 7.88313 7.12445L6.44589 5.68721ZM13.9967 10.6932C13.9992 10.6355 14.0005 10.5774 14.0005 10.5192C14.0005 8.30917 12.2105 6.51917 10.0005 6.51917C9.94284 6.51917 9.88549 6.52038 9.82844 6.52279L8.12532 4.81882C8.71545 4.62439 9.34584 4.51917 10.0005 4.51917C13.3105 4.51917 16.0005 7.20917 16.0005 10.5192C16.0005 11.1739 15.8964 11.8088 15.7022 12.3995L13.9967 10.6932Z" fill="#7E8084"/>
</svg>
