<svg width="24" height="24" viewBox="0 0 24 24" fill="none" xmlns="http://www.w3.org/2000/svg">
<path d="M15.9 14.55L16.62 16H21V18H16C15.62 18 15.27 17.79 15.11 17.44L14.83 16.89L12.8 19.6C12.61 19.85 12.31 20 12 20C11.93 20 11.87 19.99 11.8 19.98C11.42 19.9 11.12 19.62 11.03 19.24L9.7 13.91L7.9 17.61C7.73 17.95 7.38 18.17 7 18.17H3V16.17H6.38L8.66 11.47C9.24 10.57 10.56 10.6 11.12 11.51L11.18 11.61L12.47 16.72L14.21 14.4C14.42 14.12 14.75 13.96 15.1 14C15.44 14.03 15.74 14.24 15.9 14.55Z" fill="#7E8084"/>
<path d="M10 12C11.1 12 12 11.1 12 10C12 8.9 11.1 8 10 8C8.9 8 8 8.9 8 10C8 11.1 8.9 12 10 12Z" fill="#7E8084"/>
<path opacity="0.24" fill-rule="evenodd" clip-rule="evenodd" d="M15.41 12.6C15.79 11.82 16 10.93 16 10C16 6.69 13.31 4 10 4C6.69 4 4 6.69 4 10C4 11.63 4.65 13.1 5.7 14.18L7.01 12.65C6.38 11.95 6 11.02 6 10C6 7.79 7.79 6 10 6C12.21 6 14 7.79 14 10C14 10.52 13.9 11.02 13.72 11.48L15.41 12.6Z" fill="#7E8084"/>
</svg>
