<svg width="24" height="25" viewBox="0 0 24 25" fill="none" xmlns="http://www.w3.org/2000/svg">
<g clip-path="url(#clip0)">
<path d="M15.9005 15.0691L16.6205 16.5191H21.0005V18.5191H16.0005C15.6205 18.5191 15.2705 18.3091 15.1105 17.9591L14.8305 17.4091L12.8005 20.1191C12.6105 20.3691 12.3105 20.5191 12.0005 20.5191C11.9305 20.5191 11.8705 20.5091 11.8005 20.4991C11.4205 20.4191 11.1205 20.1391 11.0305 19.7591L9.70049 14.4291L7.90049 18.1291C7.73049 18.4691 7.38049 18.6891 7.00049 18.6891H3.00049V16.6891H6.38049L8.66049 11.9891C9.24049 11.0891 10.5605 11.1191 11.1205 12.0291L11.1805 12.1291L12.4705 17.2391L14.2105 14.9191C14.4205 14.6391 14.7505 14.4791 15.1005 14.5191C15.4405 14.5491 15.7405 14.7591 15.9005 15.0691Z" fill="#7E8084"/>
<path d="M10.0005 12.5192C11.1005 12.5192 12.0005 11.6192 12.0005 10.5192C12.0005 9.41917 11.1005 8.51917 10.0005 8.51917C8.90049 8.51917 8.00049 9.41917 8.00049 10.5192C8.00049 11.6192 8.90049 12.5192 10.0005 12.5192Z" fill="#7E8084"/>
<path opacity="0.24" fill-rule="evenodd" clip-rule="evenodd" d="M15.4105 13.1192C15.7905 12.3392 16.0005 11.4492 16.0005 10.5192C16.0005 7.20917 13.3105 4.51917 10.0005 4.51917C6.69049 4.51917 4.00049 7.20917 4.00049 10.5192C4.00049 12.1492 4.65049 13.6192 5.70049 14.6992L7.01049 13.1692C6.38049 12.4692 6.00049 11.5392 6.00049 10.5192C6.00049 8.30917 7.79049 6.51917 10.0005 6.51917C12.2105 6.51917 14.0005 8.30917 14.0005 10.5192C14.0005 11.0392 13.9005 11.5392 13.7205 11.9992L15.4105 13.1192Z" fill="#7E8084"/>
</g>
<defs>
<clipPath id="clip0">
<rect width="18" height="16" fill="white" transform="translate(3.00049 4.51917)"/>
</clipPath>
</defs>
</svg>
