<svg width="24" height="24" viewBox="0 0 24 24" fill="none" xmlns="http://www.w3.org/2000/svg">
<path fill-rule="evenodd" clip-rule="evenodd" d="M9.37723 8.09986C8.57969 8.36319 8 9.11718 8 10C8 11.1 8.9 12 10 12C10.8828 12 11.6368 11.4203 11.9001 10.6228L9.37723 8.09986Z" fill="#7E8084"/>
<path d="M1.5 2.77L2.78 1.5L22.5 21.23L21.23 22.5L1.5 2.77Z" fill="#7E8084"/>
<path fill-rule="evenodd" clip-rule="evenodd" d="M15.325 14.0476C15.2529 14.0231 15.1775 14.0069 15.1 14C14.75 13.96 14.42 14.12 14.21 14.4L12.47 16.72L11.18 11.61L11.12 11.51C10.56 10.6 9.24 10.57 8.66 11.47L6.38 16.17H3V18.17H7C7.38 18.17 7.73 17.95 7.9 17.61L9.7 13.91L11.03 19.24C11.12 19.62 11.42 19.9 11.8 19.98C11.8079 19.9812 11.8156 19.9823 11.8233 19.9834C11.8836 19.9922 11.9379 20 12 20C12.31 20 12.61 19.85 12.8 19.6L14.83 16.89L15.11 17.44C15.27 17.79 15.62 18 16 18H19.2774L17.2774 16H16.62L15.9716 14.6942L15.325 14.0476ZM19.8193 16L21.8183 18H22V16H19.8193Z" fill="#7E8084"/>
<path opacity="0.24" fill-rule="evenodd" clip-rule="evenodd" d="M6.4454 5.16804C4.96291 6.26121 4 8.01964 4 10C4 11.63 4.65 13.1 5.7 14.18L7.01 12.65C6.38 11.95 6 11.02 6 10C6 8.5677 6.75186 7.31181 7.88264 6.60528L6.4454 5.16804ZM13.9963 10.1741C13.9987 10.1163 14 10.0583 14 10C14 7.79 12.21 6 10 6C9.94236 6 9.885 6.00122 9.82795 6.00363L8.12484 4.29965C8.71496 4.10522 9.34536 4 10 4C13.31 4 16 6.69 16 10C16 10.6548 15.8959 11.2897 15.7017 11.8803L13.9963 10.1741Z" fill="#7E8084"/>
</svg>
