<svg width="24" height="25" viewBox="0 0 24 25" fill="none" xmlns="http://www.w3.org/2000/svg">
<g clip-path="url(#clip0)">
<path d="M15.9002 15.0692L16.6202 16.5192H21.0002V18.5192H16.0002C15.6202 18.5192 15.2702 18.3092 15.1102 17.9592L14.8302 17.4092L12.8002 20.1192C12.6102 20.3692 12.3102 20.5192 12.0002 20.5192C11.9302 20.5192 11.8702 20.5092 11.8002 20.4992C11.4202 20.4192 11.1202 20.1392 11.0302 19.7592L9.70024 14.4292L7.90024 18.1292C7.73024 18.4692 7.38024 18.6892 7.00024 18.6892H3.00024V16.6892H6.38024L8.66024 11.9892C9.24024 11.0892 10.5602 11.1192 11.1202 12.0292L11.1802 12.1292L12.4702 17.2392L14.2102 14.9192C14.4202 14.6392 14.7502 14.4792 15.1002 14.5192C15.4402 14.5492 15.7402 14.7592 15.9002 15.0692Z" fill="#7E8084"/>
<path d="M10.0002 12.5192C11.1002 12.5192 12.0002 11.6192 12.0002 10.5192C12.0002 9.41917 11.1002 8.51917 10.0002 8.51917C8.90024 8.51917 8.00024 9.41917 8.00024 10.5192C8.00024 11.6192 8.90024 12.5192 10.0002 12.5192Z" fill="#7E8084"/>
<path opacity="0.24" fill-rule="evenodd" clip-rule="evenodd" d="M15.4102 13.1192C15.7902 12.3392 16.0002 11.4492 16.0002 10.5192C16.0002 7.20917 13.3102 4.51917 10.0002 4.51917C6.69024 4.51917 4.00024 7.20917 4.00024 10.5192C4.00024 12.1492 4.65024 13.6192 5.70024 14.6992L7.01024 13.1692C6.38024 12.4692 6.00024 11.5392 6.00024 10.5192C6.00024 8.30917 7.79024 6.51917 10.0002 6.51917C12.2102 6.51917 14.0002 8.30917 14.0002 10.5192C14.0002 11.0392 13.9002 11.5392 13.7202 11.9992L15.4102 13.1192Z" fill="#7E8084"/>
</g>
<defs>
<clipPath id="clip0">
<rect width="18" height="16" fill="white" transform="translate(3.00024 4.51917)"/>
</clipPath>
</defs>
</svg>
