<svg width="24" height="25" viewBox="0 0 24 25" fill="none" xmlns="http://www.w3.org/2000/svg">
<g clip-path="url(#clip0)">
<path opacity="0.24" d="M11.0005 4.51917H4.00049V11.5192H11.0005V4.51917Z" fill="#7E8084"/>
<path opacity="0.24" d="M20.0005 4.51917H13.0005V11.5192H20.0005V4.51917Z" fill="#7E8084"/>
<path opacity="0.24" d="M11.0005 13.5192H4.00049V20.5192H11.0005V13.5192Z" fill="#7E8084"/>
<path d="M9.00049 6.51917V9.51917H6.00049V6.51917H9.00049ZM11.0005 4.51917H4.00049V11.5192H11.0005V4.51917Z" fill="#7E8084"/>
<path d="M18.0005 6.51917V9.51917H15.0005V6.51917H18.0005ZM20.0005 4.51917H13.0005V11.5192H20.0005V4.51917Z" fill="#7E8084"/>
<path d="M9.00049 15.5192V18.5192H6.00049V15.5192H9.00049ZM11.0005 13.5192H4.00049V20.5192H11.0005V13.5192Z" fill="#7E8084"/>
</g>
<path d="M16.8842 13.5192C16.7542 13.5192 16.6442 13.6092 16.6242 13.7292L16.4342 15.0492C16.1342 15.1792 15.8442 15.3392 15.5842 15.5192L14.3442 15.0192C14.2342 15.0192 14.1042 15.0192 14.0342 15.1492L13.0342 16.8792C12.9742 16.9892 12.9942 17.1192 13.0942 17.1992L14.1542 18.0192C14.1342 18.1892 14.1242 18.3492 14.1242 18.5192C14.1242 18.6892 14.1342 18.8492 14.1542 19.0192L13.0942 19.8392C13.0042 19.9192 12.9742 20.0492 13.0342 20.1592L14.0342 21.8892C14.0942 22.0192 14.2242 22.0192 14.3442 22.0192L15.5842 21.5192C15.8442 21.6992 16.1242 21.8692 16.4342 21.9892L16.6242 23.3092C16.6442 23.4292 16.7442 23.5192 16.8842 23.5192H18.8842C18.9942 23.5192 19.1042 23.4292 19.1242 23.3092L19.3142 21.9892C19.6142 21.8592 19.8842 21.6992 20.1542 21.5192L21.3842 22.0192C21.5142 22.0192 21.6442 22.0192 21.7142 21.8892L22.7142 20.1592C22.7742 20.0492 22.7442 19.9192 22.6542 19.8392L21.5842 19.0192C21.6042 18.8492 21.6242 18.6892 21.6242 18.5192C21.6242 18.3492 21.6142 18.1892 21.5842 18.0192L22.6442 17.1992C22.7342 17.1192 22.7642 16.9892 22.7042 16.8792L21.7042 15.1492C21.6442 15.0192 21.5142 15.0192 21.3842 15.0192L20.1542 15.5192C19.8842 15.3392 19.6142 15.1692 19.3042 15.0492L19.1142 13.7292C19.1042 13.6092 18.9942 13.5192 18.8842 13.5192H16.8842ZM17.8842 17.0192C18.7142 17.0192 19.3842 17.6892 19.3842 18.5192C19.3842 19.3492 18.7142 20.0192 17.8842 20.0192C17.0442 20.0192 16.3842 19.3492 16.3842 18.5192C16.3842 17.6892 17.0542 17.0192 17.8842 17.0192Z" fill="#7E8084"/>
<defs>
<clipPath id="clip0">
<rect width="17" height="17" fill="white" transform="translate(4.00049 4.51917)"/>
</clipPath>
</defs>
</svg>
