<svg width="24" height="24" viewBox="0 0 24 24" fill="none" xmlns="http://www.w3.org/2000/svg">
<path opacity="0.24" d="M11 4H4V11H11V4Z" fill="#7E8084"/>
<path opacity="0.24" d="M20 4H13V11H20V4Z" fill="#7E8084"/>
<path opacity="0.24" d="M11 13H4V20H11V13Z" fill="#7E8084"/>
<path d="M9 6V9H6V6H9ZM11 4H4V11H11V4Z" fill="#7E8084"/>
<path d="M18 6V9H15V6H18ZM20 4H13V11H20V4Z" fill="#7E8084"/>
<path d="M9 15V18H6V15H9ZM11 13H4V20H11V13Z" fill="#7E8084"/>
<path d="M16.8838 13C16.7538 13 16.6437 13.09 16.6237 13.21L16.4337 14.53C16.1337 14.66 15.8438 14.82 15.5838 15L14.3438 14.5C14.2338 14.5 14.1037 14.5 14.0337 14.63L13.0337 16.36C12.9737 16.47 12.9938 16.6 13.0938 16.68L14.1538 17.5C14.1338 17.67 14.1237 17.83 14.1237 18C14.1237 18.17 14.1338 18.33 14.1538 18.5L13.0938 19.32C13.0038 19.4 12.9737 19.53 13.0337 19.64L14.0337 21.37C14.0937 21.5 14.2238 21.5 14.3438 21.5L15.5838 21C15.8438 21.18 16.1237 21.35 16.4337 21.47L16.6237 22.79C16.6437 22.91 16.7438 23 16.8838 23H18.8838C18.9938 23 19.1038 22.91 19.1238 22.79L19.3138 21.47C19.6138 21.34 19.8838 21.18 20.1538 21L21.3837 21.5C21.5138 21.5 21.6438 21.5 21.7137 21.37L22.7137 19.64C22.7738 19.53 22.7438 19.4 22.6538 19.32L21.5838 18.5C21.6038 18.33 21.6237 18.17 21.6237 18C21.6237 17.83 21.6138 17.67 21.5838 17.5L22.6438 16.68C22.7338 16.6 22.7638 16.47 22.7037 16.36L21.7037 14.63C21.6437 14.5 21.5138 14.5 21.3837 14.5L20.1538 15C19.8838 14.82 19.6138 14.65 19.3038 14.53L19.1137 13.21C19.1037 13.09 18.9938 13 18.8838 13H16.8838ZM17.8838 16.5C18.7138 16.5 19.3838 17.17 19.3838 18C19.3838 18.83 18.7138 19.5 17.8838 19.5C17.0438 19.5 16.3838 18.83 16.3838 18C16.3838 17.17 17.0538 16.5 17.8838 16.5Z" fill="#7E8084"/>
</svg>
