<svg width="24" height="25" viewBox="0 0 24 25" fill="none" xmlns="http://www.w3.org/2000/svg">
<g clip-path="url(#clip0)">
<path opacity="0.24" d="M11.0002 4.51917H4.00024V11.5192H11.0002V4.51917Z" fill="#7E8084"/>
<path opacity="0.24" d="M20.0002 4.51917H13.0002V11.5192H20.0002V4.51917Z" fill="#7E8084"/>
<path opacity="0.24" d="M11.0002 13.5192H4.00024V20.5192H11.0002V13.5192Z" fill="#7E8084"/>
<path d="M9.00024 6.51917V9.51917H6.00024V6.51917H9.00024ZM11.0002 4.51917H4.00024V11.5192H11.0002V4.51917Z" fill="#7E8084"/>
<path d="M18.0002 6.51917V9.51917H15.0002V6.51917H18.0002ZM20.0002 4.51917H13.0002V11.5192H20.0002V4.51917Z" fill="#7E8084"/>
<path d="M9.00024 15.5192V18.5192H6.00024V15.5192H9.00024ZM11.0002 13.5192H4.00024V20.5192H11.0002V13.5192Z" fill="#7E8084"/>
</g>
<path d="M16.884 13.5192C16.754 13.5192 16.644 13.6092 16.624 13.7292L16.434 15.0492C16.134 15.1792 15.844 15.3392 15.584 15.5192L14.344 15.0192C14.234 15.0192 14.104 15.0192 14.034 15.1492L13.034 16.8792C12.974 16.9892 12.994 17.1192 13.094 17.1992L14.154 18.0192C14.134 18.1892 14.124 18.3492 14.124 18.5192C14.124 18.6892 14.134 18.8492 14.154 19.0192L13.094 19.8392C13.004 19.9192 12.974 20.0492 13.034 20.1592L14.034 21.8892C14.094 22.0192 14.224 22.0192 14.344 22.0192L15.584 21.5192C15.844 21.6992 16.124 21.8692 16.434 21.9892L16.624 23.3092C16.644 23.4292 16.744 23.5192 16.884 23.5192H18.884C18.994 23.5192 19.104 23.4292 19.124 23.3092L19.314 21.9892C19.614 21.8592 19.884 21.6992 20.154 21.5192L21.384 22.0192C21.514 22.0192 21.644 22.0192 21.714 21.8892L22.714 20.1592C22.774 20.0492 22.744 19.9192 22.654 19.8392L21.584 19.0192C21.604 18.8492 21.624 18.6892 21.624 18.5192C21.624 18.3492 21.614 18.1892 21.584 18.0192L22.644 17.1992C22.734 17.1192 22.764 16.9892 22.704 16.8792L21.704 15.1492C21.644 15.0192 21.514 15.0192 21.384 15.0192L20.154 15.5192C19.884 15.3392 19.614 15.1692 19.304 15.0492L19.114 13.7292C19.104 13.6092 18.994 13.5192 18.884 13.5192H16.884ZM17.884 17.0192C18.714 17.0192 19.384 17.6892 19.384 18.5192C19.384 19.3492 18.714 20.0192 17.884 20.0192C17.044 20.0192 16.384 19.3492 16.384 18.5192C16.384 17.6892 17.054 17.0192 17.884 17.0192Z" fill="#7E8084"/>
<defs>
<clipPath id="clip0">
<rect width="17" height="17" fill="white" transform="translate(4.00024 4.51917)"/>
</clipPath>
</defs>
</svg>
