<svg width="24" height="25" viewBox="0 0 24 25" fill="none" xmlns="http://www.w3.org/2000/svg">
<g clip-path="url(#clip0)">
<path opacity="0.24" d="M11.0002 4.51917H4.00024V11.5192H11.0002V4.51917Z" fill="#7E8084"/>
<path opacity="0.24" d="M20.0002 4.51917H13.0002V11.5192H20.0002V4.51917Z" fill="#7E8084"/>
<path opacity="0.24" d="M11.0002 13.5192H4.00024V20.5192H11.0002V13.5192Z" fill="#7E8084"/>
<path d="M9.00024 6.51917V9.51917H6.00024V6.51917H9.00024ZM11.0002 4.51917H4.00024V11.5192H11.0002V4.51917Z" fill="#7E8084"/>
<path d="M18.0002 6.51917V9.51917H15.0002V6.51917H18.0002ZM20.0002 4.51917H13.0002V11.5192H20.0002V4.51917Z" fill="#7E8084"/>
<path d="M9.00024 15.5192V18.5192H6.00024V15.5192H9.00024ZM11.0002 13.5192H4.00024V20.5192H11.0002V13.5192Z" fill="#7E8084"/>
<path d="M18.0002 13.5192H16.0002V21.5192H18.0002V13.5192Z" fill="#7E8084"/>
<path d="M13.0002 16.5192V18.5192H21.0002V16.5192H13.0002Z" fill="#7E8084"/>
</g>
<defs>
<clipPath id="clip0">
<rect width="17" height="17" fill="white" transform="translate(4.00024 4.51917)"/>
</clipPath>
</defs>
</svg>
