<svg width="24" height="24" viewBox="0 0 24 24" fill="none" xmlns="http://www.w3.org/2000/svg">
<path opacity="0.24" d="M11 4H4V11H11V4Z" fill="#7E8084"/>
<path opacity="0.24" d="M20 4H13V11H20V4Z" fill="#7E8084"/>
<path opacity="0.24" d="M11 13H4V20H11V13Z" fill="#7E8084"/>
<path d="M9 6V9H6V6H9ZM11 4H4V11H11V4Z" fill="#7E8084"/>
<path d="M18 6V9H15V6H18ZM20 4H13V11H20V4Z" fill="#7E8084"/>
<path d="M9 15V18H6V15H9ZM11 13H4V20H11V13Z" fill="#7E8084"/>
<path d="M18 13H16V21H18V13Z" fill="#7E8084"/>
<path d="M13 16V18H21V16H13Z" fill="#7E8084"/>
</svg>
