<svg width="24" height="25" viewBox="0 0 24 25" fill="none" xmlns="http://www.w3.org/2000/svg">
<g clip-path="url(#clip0)">
<path d="M19.0005 1.51917L17.7405 4.26917L15.0005 5.51917L17.7405 6.77917L19.0005 9.51917L20.2505 6.77917L23.0005 5.51917L20.2505 4.26917L19.0005 1.51917ZM19.0005 15.5192L17.7405 18.2592L15.0005 19.5192L17.7405 20.7692L19.0005 23.5192L20.2505 20.7692L23.0005 19.5192L20.2505 18.2592" fill="#7E8084"/>
<path opacity="0.24" d="M9.68057 10.8392L9.00057 9.34918L8.31057 10.8492L8.00057 11.5292L7.32057 11.8392L5.83057 12.5192L7.33057 13.2092L8.01057 13.5192L8.32057 14.1992L9.00057 15.6892L9.69057 14.1892L10.0006 13.5092L10.6806 13.1992L12.1706 12.5192L10.6706 11.8292L9.99057 11.5192L9.68057 10.8392Z" fill="#7E8084"/>
<path d="M9.00049 9.34916L9.68049 10.8392L9.99049 11.5192L10.6705 11.8292L12.1705 12.5192L10.6805 13.1992L10.0005 13.5092L9.69049 14.1892L9.00049 15.6892L8.32049 14.1992L8.01049 13.5192L7.33049 13.2092L5.83049 12.5192L7.32049 11.8392L8.00049 11.5292L8.31049 10.8492L9.00049 9.34916ZM9.00049 4.51917L6.50049 10.0192L1.00049 12.5192L6.50049 15.0192L9.00049 20.5192L11.5005 15.0192L17.0005 12.5192L11.5005 10.0192L9.00049 4.51917Z" fill="#7E8084"/>
</g>
<defs>
<clipPath id="clip0">
<rect width="22" height="22" fill="white" transform="translate(1.00049 1.51917)"/>
</clipPath>
</defs>
</svg>
