<svg width="24" height="24" viewBox="0 0 24 24" fill="none" xmlns="http://www.w3.org/2000/svg">
<path d="M19 1L17.74 3.75L15 5L17.74 6.26L19 9L20.25 6.26L23 5L20.25 3.75L19 1ZM19 15L17.74 17.74L15 19L17.74 20.25L19 23L20.25 20.25L23 19L20.25 17.74" fill="#7E8084"/>
<path opacity="0.24" d="M9.68008 10.32L9.00008 8.83L8.31008 10.33L8.00008 11.01L7.32008 11.32L5.83008 12L7.33008 12.69L8.01008 13L8.32008 13.68L9.00008 15.17L9.69008 13.67L10.0001 12.99L10.6801 12.68L12.1701 12L10.6701 11.31L9.99008 11L9.68008 10.32Z" fill="#7E8084"/>
<path d="M9 8.83L9.68 10.32L9.99 11L10.67 11.31L12.17 12L10.68 12.68L10 12.99L9.69 13.67L9 15.17L8.32 13.68L8.01 13L7.33 12.69L5.83 12L7.32 11.32L8 11.01L8.31 10.33L9 8.83ZM9 4L6.5 9.5L1 12L6.5 14.5L9 20L11.5 14.5L17 12L11.5 9.5L9 4Z" fill="#7E8084"/>
</svg>
