<svg width="24" height="25" viewBox="0 0 24 25" fill="none" xmlns="http://www.w3.org/2000/svg">
<g clip-path="url(#clip0)">
<path d="M19.0002 1.51917L17.7402 4.26917L15.0002 5.51917L17.7402 6.77917L19.0002 9.51917L20.2502 6.77917L23.0002 5.51917L20.2502 4.26917L19.0002 1.51917ZM19.0002 15.5192L17.7402 18.2592L15.0002 19.5192L17.7402 20.7692L19.0002 23.5192L20.2502 20.7692L23.0002 19.5192L20.2502 18.2592" fill="#7E8084"/>
<path opacity="0.24" d="M9.6802 10.8392L9.0002 9.34917L8.3102 10.8492L8.0002 11.5292L7.3202 11.8392L5.8302 12.5192L7.3302 13.2092L8.0102 13.5192L8.3202 14.1992L9.0002 15.6892L9.6902 14.1892L10.0002 13.5092L10.6802 13.1992L12.1702 12.5192L10.6702 11.8292L9.9902 11.5192L9.6802 10.8392Z" fill="#7E8084"/>
<path d="M9.00024 9.34916L9.68024 10.8392L9.99024 11.5192L10.6702 11.8292L12.1702 12.5192L10.6802 13.1992L10.0002 13.5092L9.69024 14.1892L9.00024 15.6892L8.32024 14.1992L8.01024 13.5192L7.33024 13.2092L5.83024 12.5192L7.32024 11.8392L8.00024 11.5292L8.31024 10.8492L9.00024 9.34916ZM9.00024 4.51917L6.50024 10.0192L1.00024 12.5192L6.50024 15.0192L9.00024 20.5192L11.5002 15.0192L17.0002 12.5192L11.5002 10.0192L9.00024 4.51917Z" fill="#7E8084"/>
</g>
<defs>
<clipPath id="clip0">
<rect width="22" height="22" fill="white" transform="translate(1.00024 1.51917)"/>
</clipPath>
</defs>
</svg>
