<svg width="24" height="25" viewBox="0 0 24 25" fill="none" xmlns="http://www.w3.org/2000/svg">
<g clip-path="url(#clip0)">
<path d="M22.0005 5.51917H2.00049V7.51917H22.0005V5.51917Z" fill="#7E8084"/>
<path d="M2.00065 16.5192C1.90065 16.5192 1.70065 16.5192 1.60065 16.4192C1.10065 16.2192 0.800651 15.6192 1.10065 15.1192L4.90065 6.11918C5.00065 5.61918 5.60065 5.41918 6.10065 5.61918C6.60065 5.81918 6.90065 6.41918 6.60065 6.91918L2.80065 15.9192C2.80065 16.3192 2.40065 16.5192 2.00065 16.5192Z" fill="#7E8084"/>
<path d="M10.0009 16.5192C9.60086 16.5192 9.30086 16.3192 9.10086 15.9192L4.90086 6.91918C4.70086 6.41918 4.90086 5.81918 5.40086 5.61918C5.90086 5.41918 6.50086 5.61918 6.70086 6.11918L10.9009 15.1192C11.1009 15.6192 10.9009 16.2192 10.4009 16.4192C10.3009 16.5192 10.1009 16.5192 10.0009 16.5192Z" fill="#7E8084"/>
<path d="M8.80049 16.6192C8.30049 17.7192 7.30049 18.5192 6.00049 18.5192C4.70049 18.5192 3.70049 17.7192 3.20049 16.6192H8.80049ZM10.0005 15.0192H2.00049L1.00049 15.5192C1.00049 18.3192 3.20049 20.5192 6.00049 20.5192C8.80049 20.5192 11.0005 18.3192 11.0005 15.5192L10.0005 15.0192Z" fill="#7E8084"/>
<path d="M14.0007 16.5191C13.9007 16.5191 13.7007 16.5191 13.6007 16.4191C13.1007 16.2191 12.8007 15.6191 13.1007 15.1191L16.9007 6.11914C17.1006 5.61914 17.7007 5.31914 18.2007 5.61914C18.7007 5.81914 19.0007 6.41914 18.7007 6.91914L14.9007 15.9191C14.8007 16.3191 14.4007 16.5191 14.0007 16.5191Z" fill="#7E8084"/>
<path d="M22.0004 16.5191C21.6004 16.5191 21.3004 16.3191 21.1004 15.9191L16.9004 6.91912C16.7004 6.41912 16.9004 5.81912 17.4004 5.61912C17.9004 5.41912 18.5004 5.61912 18.7004 6.11912L22.9004 15.1191C23.1004 15.6191 22.9004 16.2191 22.4004 16.4191C22.3004 16.5191 22.1004 16.5191 22.0004 16.5191Z" fill="#7E8084"/>
<path d="M20.8005 16.6192C20.3005 17.7192 19.3005 18.5192 18.0005 18.5192C16.7005 18.5192 15.7005 17.7192 15.2005 16.6192H20.8005ZM22.0005 15.0192H14.0005L13.0005 15.5192C13.0005 18.3192 15.2005 20.5192 18.0005 20.5192C20.8005 20.5192 23.0005 18.3192 23.0005 15.5192L22.0005 15.0192Z" fill="#7E8084"/>
<path opacity="0.24" d="M10.0005 15.0192H2.00049L1.00049 15.5192C1.00049 18.3192 3.20049 20.5192 6.00049 20.5192C8.80049 20.5192 11.0005 18.3192 11.0005 15.5192L10.0005 15.0192Z" fill="#7E8084"/>
<path opacity="0.24" d="M22.0005 15.0192H14.0005L13.0005 15.5192C13.0005 18.3192 15.2005 20.5192 18.0005 20.5192C20.8005 20.5192 23.0005 18.3192 23.0005 15.5192L22.0005 15.0192Z" fill="#7E8084"/>
<path d="M12.0005 4.51917C10.9005 4.51917 10.0005 5.41917 10.0005 6.51917C10.0005 7.61916 10.9005 8.51917 12.0005 8.51917C13.1005 8.51917 14.0005 7.61916 14.0005 6.51917C14.0005 5.41917 13.1005 4.51917 12.0005 4.51917Z" fill="#7E8084"/>
</g>
<defs>
<clipPath id="clip0">
<rect width="22" height="16" fill="white" transform="translate(1.00049 4.51917)"/>
</clipPath>
</defs>
</svg>
