<svg width="24" height="24" viewBox="0 0 24 24" fill="none" xmlns="http://www.w3.org/2000/svg">
<g clip-path="url(#clip0)">
<path d="M22 5H2V7H22V5Z" fill="#7E8084"/>
<path d="M2.00016 16.0001C1.90016 16.0001 1.70016 16.0001 1.60016 15.9001C1.10016 15.7001 0.800163 15.1001 1.10016 14.6001L4.90016 5.60008C5.00016 5.10008 5.60016 4.90008 6.10016 5.10008C6.60016 5.30008 6.90016 5.90008 6.60016 6.40008L2.80016 15.4001C2.80016 15.8001 2.40016 16.0001 2.00016 16.0001Z" fill="#7E8084"/>
<path d="M10.0004 16.0001C9.60037 16.0001 9.30037 15.8001 9.10037 15.4001L4.90037 6.40008C4.70037 5.90008 4.90037 5.30008 5.40037 5.10008C5.90037 4.90008 6.50037 5.10008 6.70037 5.60008L10.9004 14.6001C11.1004 15.1001 10.9004 15.7001 10.4004 15.9001C10.3004 16.0001 10.1004 16.0001 10.0004 16.0001Z" fill="#7E8084"/>
<path d="M8.8 16.1C8.3 17.2 7.3 18 6 18C4.7 18 3.7 17.2 3.2 16.1H8.8ZM10 14.5H2L1 15C1 17.8 3.2 20 6 20C8.8 20 11 17.8 11 15L10 14.5Z" fill="#7E8084"/>
<path d="M14.0002 15.9999C13.9002 15.9999 13.7002 15.9999 13.6002 15.8999C13.1002 15.6999 12.8002 15.0999 13.1002 14.5999L16.9002 5.59992C17.1002 5.09992 17.7002 4.79992 18.2002 5.09992C18.7002 5.29992 19.0002 5.89992 18.7002 6.39992L14.9002 15.3999C14.8002 15.7999 14.4002 15.9999 14.0002 15.9999Z" fill="#7E8084"/>
<path d="M21.9999 15.9998C21.5999 15.9998 21.2999 15.7998 21.0999 15.3998L16.8999 6.39983C16.6999 5.89983 16.8999 5.29983 17.3999 5.09983C17.8999 4.89983 18.4999 5.09983 18.6999 5.59983L22.8999 14.5998C23.0999 15.0998 22.8999 15.6998 22.3999 15.8998C22.2999 15.9998 22.0999 15.9998 21.9999 15.9998Z" fill="#7E8084"/>
<path d="M20.8 16.1C20.3 17.2 19.3 18 18 18C16.7 18 15.7 17.2 15.2 16.1H20.8ZM22 14.5H14L13 15C13 17.8 15.2 20 18 20C20.8 20 23 17.8 23 15L22 14.5Z" fill="#7E8084"/>
<path opacity="0.24" d="M10 14.5H2L1 15C1 17.8 3.2 20 6 20C8.8 20 11 17.8 11 15L10 14.5Z" fill="#7E8084"/>
<path opacity="0.24" d="M22 14.5H14L13 15C13 17.8 15.2 20 18 20C20.8 20 23 17.8 23 15L22 14.5Z" fill="#7E8084"/>
<path d="M12 4C10.9 4 10 4.9 10 6C10 7.1 10.9 8 12 8C13.1 8 14 7.1 14 6C14 4.9 13.1 4 12 4Z" fill="#7E8084"/>
</g>
<defs>
<clipPath id="clip0">
<rect width="22" height="16" fill="white" transform="translate(1 4)"/>
</clipPath>
</defs>
</svg>
