<svg width="24" height="25" viewBox="0 0 24 25" fill="none" xmlns="http://www.w3.org/2000/svg">
<g clip-path="url(#clip0)">
<path d="M22.0002 5.51917H2.00024V7.51917H22.0002V5.51917Z" fill="#7E8084"/>
<path d="M2.00028 16.5192C1.90028 16.5192 1.70028 16.5192 1.60028 16.4192C1.10028 16.2192 0.800285 15.6192 1.10028 15.1192L4.90028 6.11917C5.00028 5.61917 5.60028 5.41917 6.10028 5.61917C6.60028 5.81917 6.90028 6.41917 6.60028 6.91917L2.80028 15.9192C2.80028 16.3192 2.40028 16.5192 2.00028 16.5192Z" fill="#7E8084"/>
<path d="M10.0002 16.5192C9.60025 16.5192 9.30025 16.3192 9.10025 15.9192L4.90025 6.91917C4.70025 6.41917 4.90025 5.81917 5.40025 5.61917C5.90025 5.41917 6.50025 5.61917 6.70025 6.11917L10.9002 15.1192C11.1002 15.6192 10.9002 16.2192 10.4002 16.4192C10.3002 16.5192 10.1002 16.5192 10.0002 16.5192Z" fill="#7E8084"/>
<path d="M8.80024 16.6192C8.30024 17.7192 7.30024 18.5192 6.00024 18.5192C4.70024 18.5192 3.70024 17.7192 3.20024 16.6192H8.80024ZM10.0002 15.0192H2.00024L1.00024 15.5192C1.00024 18.3192 3.20024 20.5192 6.00024 20.5192C8.80024 20.5192 11.0002 18.3192 11.0002 15.5192L10.0002 15.0192Z" fill="#7E8084"/>
<path d="M14.0003 16.5192C13.9003 16.5192 13.7003 16.5192 13.6003 16.4192C13.1003 16.2192 12.8003 15.6192 13.1003 15.1192L16.9003 6.11916C17.1003 5.61916 17.7003 5.31916 18.2003 5.61916C18.7003 5.81916 19.0003 6.41916 18.7003 6.91916L14.9003 15.9192C14.8003 16.3192 14.4003 16.5192 14.0003 16.5192Z" fill="#7E8084"/>
<path d="M22.0002 16.5192C21.6002 16.5192 21.3002 16.3192 21.1002 15.9192L16.9002 6.91917C16.7002 6.41917 16.9002 5.81917 17.4002 5.61917C17.9002 5.41917 18.5003 5.61917 18.7003 6.11917L22.9002 15.1192C23.1002 15.6192 22.9002 16.2192 22.4002 16.4192C22.3002 16.5192 22.1002 16.5192 22.0002 16.5192Z" fill="#7E8084"/>
<path d="M20.8002 16.6192C20.3002 17.7192 19.3002 18.5192 18.0002 18.5192C16.7002 18.5192 15.7002 17.7192 15.2002 16.6192H20.8002ZM22.0002 15.0192H14.0002L13.0002 15.5192C13.0002 18.3192 15.2002 20.5192 18.0002 20.5192C20.8002 20.5192 23.0002 18.3192 23.0002 15.5192L22.0002 15.0192Z" fill="#7E8084"/>
<path opacity="0.24" d="M10.0002 15.0192H2.00024L1.00024 15.5192C1.00024 18.3192 3.20024 20.5192 6.00024 20.5192C8.80024 20.5192 11.0002 18.3192 11.0002 15.5192L10.0002 15.0192Z" fill="#7E8084"/>
<path opacity="0.24" d="M22.0002 15.0192H14.0002L13.0002 15.5192C13.0002 18.3192 15.2002 20.5192 18.0002 20.5192C20.8002 20.5192 23.0002 18.3192 23.0002 15.5192L22.0002 15.0192Z" fill="#7E8084"/>
<path d="M12.0002 4.51917C10.9002 4.51917 10.0002 5.41917 10.0002 6.51917C10.0002 7.61916 10.9002 8.51917 12.0002 8.51917C13.1002 8.51917 14.0002 7.61916 14.0002 6.51917C14.0002 5.41917 13.1002 4.51917 12.0002 4.51917Z" fill="#7E8084"/>
</g>
<defs>
<clipPath id="clip0">
<rect width="22" height="16" fill="white" transform="translate(1.00024 4.51917)"/>
</clipPath>
</defs>
</svg>
