<svg width="24" height="24" viewBox="0 0 24 24" fill="none" xmlns="http://www.w3.org/2000/svg">
<g clip-path="url(#clip0)">
<path d="M22 5H2V7H22V5Z" fill="#7E8084"/>
<path d="M1.99992 16C1.89992 16 1.69992 16 1.59992 15.9C1.09992 15.7 0.799918 15.1 1.09992 14.6L4.89992 5.59999C4.99992 5.09999 5.59992 4.89999 6.09992 5.09999C6.59992 5.29999 6.89992 5.89999 6.59992 6.39999L2.79992 15.4C2.79992 15.8 2.39992 16 1.99992 16Z" fill="#7E8084"/>
<path d="M9.99988 16C9.59988 16 9.29988 15.8 9.09988 15.4L4.89988 6.39999C4.69988 5.89999 4.89988 5.29999 5.39988 5.09999C5.89988 4.89999 6.49988 5.09999 6.69988 5.59999L10.8999 14.6C11.0999 15.1 10.8999 15.7 10.3999 15.9C10.2999 16 10.0999 16 9.99988 16Z" fill="#7E8084"/>
<path d="M8.8 16.1C8.3 17.2 7.3 18 6 18C4.7 18 3.7 17.2 3.2 16.1H8.8ZM10 14.5H2L1 15C1 17.8 3.2 20 6 20C8.8 20 11 17.8 11 15L10 14.5Z" fill="#7E8084"/>
<path d="M13.9999 16C13.8999 16 13.6999 16 13.5999 15.9C13.0999 15.7 12.7999 15.1 13.0999 14.6L16.8999 5.60001C17.0999 5.10001 17.6999 4.80001 18.1999 5.10001C18.6999 5.30001 18.9999 5.90001 18.6999 6.40001L14.8999 15.4C14.7999 15.8 14.3999 16 13.9999 16Z" fill="#7E8084"/>
<path d="M21.9999 16C21.5999 16 21.2999 15.8 21.0999 15.4L16.8999 6.40002C16.6999 5.90002 16.8999 5.30002 17.3999 5.10002C17.8999 4.90002 18.4999 5.10002 18.6999 5.60002L22.8999 14.6C23.0999 15.1 22.8999 15.7 22.3999 15.9C22.2999 16 22.0999 16 21.9999 16Z" fill="#7E8084"/>
<path d="M20.8 16.1C20.3 17.2 19.3 18 18 18C16.7 18 15.7 17.2 15.2 16.1H20.8ZM22 14.5H14L13 15C13 17.8 15.2 20 18 20C20.8 20 23 17.8 23 15L22 14.5Z" fill="#7E8084"/>
<path opacity="0.24" d="M10 14.5H2L1 15C1 17.8 3.2 20 6 20C8.8 20 11 17.8 11 15L10 14.5Z" fill="#7E8084"/>
<path opacity="0.24" d="M22 14.5H14L13 15C13 17.8 15.2 20 18 20C20.8 20 23 17.8 23 15L22 14.5Z" fill="#7E8084"/>
<path d="M12 4C10.9 4 10 4.9 10 6C10 7.1 10.9 8 12 8C13.1 8 14 7.1 14 6C14 4.9 13.1 4 12 4Z" fill="#7E8084"/>
</g>
<defs>
<clipPath id="clip0">
<rect width="22" height="16" fill="white" transform="translate(1 4)"/>
</clipPath>
</defs>
</svg>
