<svg width="24" height="24" viewBox="0 0 24 24" fill="none" xmlns="http://www.w3.org/2000/svg">
<g clip-path="url(#clip0)">
<path d="M22 5H2V7H22V5Z" fill="#7E8085"/>
<path d="M1.99998 16C1.89998 16 1.69998 16 1.59998 15.9C1.09998 15.7 0.799979 15.1 1.09998 14.6L4.89998 5.6C4.99998 5.1 5.59998 4.9 6.09998 5.1C6.59998 5.3 6.89998 5.9 6.59998 6.4L2.79998 15.4C2.79998 15.8 2.39998 16 1.99998 16Z" fill="#7E8085"/>
<path d="M10 16C9.6 16 9.30001 15.8 9.10001 15.4L4.9 6.4C4.7 5.9 4.9 5.3 5.4 5.1C5.9 4.9 6.5 5.1 6.7 5.6L10.9 14.6C11.1 15.1 10.9 15.7 10.4 15.9C10.3 16 10.1 16 10 16Z" fill="#7E8085"/>
<path d="M8.8 16.1C8.3 17.2 7.3 18 6 18C4.7 18 3.7 17.2 3.2 16.1H8.8ZM10 14.5H2L1 15C1 17.8 3.2 20 6 20C8.8 20 11 17.8 11 15L10 14.5Z" fill="#7E8085"/>
<path d="M14 16C13.9 16 13.7 16 13.6 15.9C13.1 15.7 12.8 15.1 13.1 14.6L16.9 5.6C17.1 5.1 17.7 4.8 18.2 5.1C18.7 5.3 19 5.9 18.7 6.4L14.9 15.4C14.8 15.8 14.4 16 14 16Z" fill="#7E8085"/>
<path d="M22 16C21.6 16 21.3 15.8 21.1 15.4L16.9 6.4C16.7 5.9 16.9 5.3 17.4 5.1C17.9 4.9 18.5 5.1 18.7 5.6L22.9 14.6C23.1 15.1 22.9 15.7 22.4 15.9C22.3 16 22.1 16 22 16Z" fill="#7E8085"/>
<path d="M20.8 16.1C20.3 17.2 19.3 18 18 18C16.7 18 15.7 17.2 15.2 16.1H20.8ZM22 14.5H14L13 15C13 17.8 15.2 20 18 20C20.8 20 23 17.8 23 15L22 14.5Z" fill="#7E8085"/>
<path opacity="0.3" d="M10 14.5H2L1 15C1 17.8 3.2 20 6 20C8.8 20 11 17.8 11 15L10 14.5Z" fill="#7E8085"/>
<path opacity="0.3" d="M22 14.5H14L13 15C13 17.8 15.2 20 18 20C20.8 20 23 17.8 23 15L22 14.5Z" fill="#7E8085"/>
<path d="M12 4C10.9 4 10 4.9 10 6C10 7.1 10.9 8 12 8C13.1 8 14 7.1 14 6C14 4.9 13.1 4 12 4Z" fill="#7E8085"/>
</g>
<defs>
<clipPath id="clip0">
<rect width="22" height="16" fill="white" transform="translate(1 4)"/>
</clipPath>
</defs>
</svg>
