<svg width="24" height="25" viewBox="0 0 24 25" fill="none" xmlns="http://www.w3.org/2000/svg">
<g clip-path="url(#clip0)">
<path opacity="0.24" d="M19.0002 18.5192V16.5192H21.0002C21.6002 16.5192 22.0002 16.1192 22.0002 15.5192V9.51917C22.0002 8.91917 21.6002 8.51917 21.0002 8.51917H19.0002V6.51917C19.0002 5.91917 18.6002 5.51917 18.0002 5.51917H4.00024C2.90024 5.51917 2.00024 6.41917 2.00024 7.51917V17.5192C2.00024 18.6192 2.90024 19.5192 4.00024 19.5192H18.0002C18.6002 19.5192 19.0002 19.1192 19.0002 18.5192Z" fill="#7E8084"/>
<path d="M19.0002 18.5192V16.5192H21.0002C21.6002 16.5192 22.0002 16.1192 22.0002 15.5192V9.51917C22.0002 8.91917 21.6002 8.51917 21.0002 8.51917H19.0002V6.51917C19.0002 5.91917 18.6002 5.51917 18.0002 5.51917H4.00024C2.90024 5.51917 2.00024 6.41917 2.00024 7.51917V17.5192C2.00024 18.6192 2.90024 19.5192 4.00024 19.5192H18.0002C18.6002 19.5192 19.0002 19.1192 19.0002 18.5192ZM4.00024 7.51917H17.0002V9.51917C17.0002 10.1192 17.4002 10.5192 18.0002 10.5192H20.0002V14.5192H18.0002C17.4002 14.5192 17.0002 14.9192 17.0002 15.5192V17.5192H4.00024V7.51917Z" fill="#7E8084"/>
<path d="M16.0002 13.5192L10.0002 8.51917V11.5192H6.00024L12.0002 16.5192V13.5192H16.0002Z" fill="#7E8084"/>
<path opacity="0.24" d="M19.0002 18.5192V16.5192H21.0002C21.6002 16.5192 22.0002 16.1192 22.0002 15.5192V9.51917C22.0002 8.91917 21.6002 8.51917 21.0002 8.51917H19.0002V6.51917C19.0002 5.91917 18.6002 5.51917 18.0002 5.51917H4.00024C2.90024 5.51917 2.00024 6.41917 2.00024 7.51917V17.5192C2.00024 18.6192 2.90024 19.5192 4.00024 19.5192H18.0002C18.6002 19.5192 19.0002 19.1192 19.0002 18.5192ZM4.00024 7.51917H17.0002V9.51917C17.0002 10.1192 17.4002 10.5192 18.0002 10.5192H20.0002V14.5192H18.0002C17.4002 14.5192 17.0002 14.9192 17.0002 15.5192V17.5192H4.00024V7.51917Z" fill="#7E8084"/>
</g>
<defs>
<clipPath id="clip0">
<rect width="20" height="14" fill="white" transform="translate(2.00024 5.51917)"/>
</clipPath>
</defs>
</svg>
