<svg width="24" height="25" viewBox="0 0 24 25" fill="none" xmlns="http://www.w3.org/2000/svg">
<g clip-path="url(#clip0)">
<path opacity="0.24" d="M19.0005 18.5192V16.5192H21.0005C21.6005 16.5192 22.0005 16.1192 22.0005 15.5192V9.51917C22.0005 8.91917 21.6005 8.51917 21.0005 8.51917H19.0005V6.51917C19.0005 5.91917 18.6005 5.51917 18.0005 5.51917H4.00049C2.90049 5.51917 2.00049 6.41917 2.00049 7.51917V17.5192C2.00049 18.6192 2.90049 19.5192 4.00049 19.5192H18.0005C18.6005 19.5192 19.0005 19.1192 19.0005 18.5192Z" fill="#7E8084"/>
<path d="M19.0005 18.5192V16.5192H21.0005C21.6005 16.5192 22.0005 16.1192 22.0005 15.5192V9.51917C22.0005 8.91917 21.6005 8.51917 21.0005 8.51917H19.0005V6.51917C19.0005 5.91917 18.6005 5.51917 18.0005 5.51917H4.00049C2.90049 5.51917 2.00049 6.41917 2.00049 7.51917V17.5192C2.00049 18.6192 2.90049 19.5192 4.00049 19.5192H18.0005C18.6005 19.5192 19.0005 19.1192 19.0005 18.5192ZM4.00049 7.51917H17.0005V9.51917C17.0005 10.1192 17.4005 10.5192 18.0005 10.5192H20.0005V14.5192H18.0005C17.4005 14.5192 17.0005 14.9192 17.0005 15.5192V17.5192H4.00049V7.51917Z" fill="#7E8084"/>
<path d="M16.0005 13.5192L10.0005 8.51917V11.5192H6.00049L12.0005 16.5192V13.5192H16.0005Z" fill="#7E8084"/>
<path opacity="0.24" d="M19.0005 18.5192V16.5192H21.0005C21.6005 16.5192 22.0005 16.1192 22.0005 15.5192V9.51917C22.0005 8.91917 21.6005 8.51917 21.0005 8.51917H19.0005V6.51917C19.0005 5.91917 18.6005 5.51917 18.0005 5.51917H4.00049C2.90049 5.51917 2.00049 6.41917 2.00049 7.51917V17.5192C2.00049 18.6192 2.90049 19.5192 4.00049 19.5192H18.0005C18.6005 19.5192 19.0005 19.1192 19.0005 18.5192ZM4.00049 7.51917H17.0005V9.51917C17.0005 10.1192 17.4005 10.5192 18.0005 10.5192H20.0005V14.5192H18.0005C17.4005 14.5192 17.0005 14.9192 17.0005 15.5192V17.5192H4.00049V7.51917Z" fill="#7E8084"/>
</g>
<defs>
<clipPath id="clip0">
<rect width="20" height="14" fill="white" transform="translate(2.00049 5.51917)"/>
</clipPath>
</defs>
</svg>
