<svg width="24" height="24" viewBox="0 0 24 24" fill="none" xmlns="http://www.w3.org/2000/svg">
<path opacity="0.3" d="M19 18V16H21C21.6 16 22 15.6 22 15V9C22 8.4 21.6 8 21 8H19V6C19 5.4 18.6 5 18 5H4C2.9 5 2 5.9 2 7V17C2 18.1 2.9 19 4 19H18C18.6 19 19 18.6 19 18Z" fill="#7E8085"/>
<path d="M19 18V16H21C21.6 16 22 15.6 22 15V9C22 8.4 21.6 8 21 8H19V6C19 5.4 18.6 5 18 5H4C2.9 5 2 5.9 2 7V17C2 18.1 2.9 19 4 19H18C18.6 19 19 18.6 19 18ZM4 7H17V9C17 9.6 17.4 10 18 10H20V14H18C17.4 14 17 14.4 17 15V17H4V7Z" fill="#7E8085"/>
<path d="M16 13L10 8V11H6L12 16V13H16Z" fill="#7E8085"/>
<path opacity="0.3" d="M19 18V16H21C21.6 16 22 15.6 22 15V9C22 8.4 21.6 8 21 8H19V6C19 5.4 18.6 5 18 5H4C2.9 5 2 5.9 2 7V17C2 18.1 2.9 19 4 19H18C18.6 19 19 18.6 19 18ZM4 7H17V9C17 9.6 17.4 10 18 10H20V14H18C17.4 14 17 14.4 17 15V17H4V7Z" fill="#7E8085"/>
</svg>
