<svg width="24" height="24" viewBox="0 0 24 24" fill="none" xmlns="http://www.w3.org/2000/svg">
<rect opacity="0.24" x="7" y="14" width="10.1683" height="5.19553" fill="#7E8084"/>
<path d="M3 3H21V5C20.4696 5 19.9609 5.21071 19.5858 5.58579C19.2107 5.96086 19 6.46957 19 7V19C19 19.5304 18.7893 20.0391 18.4142 20.4142C18.0391 20.7893 17.5304 21 17 21H7C6.46957 21 5.96086 20.7893 5.58579 20.4142C5.21071 20.0391 5 19.5304 5 19V7C5 6.46957 4.78929 5.96086 4.41421 5.58579C4.03914 5.21071 3.53043 5 3 5V3ZM7 5V7H12V8H7V9H10V10H7V11H10V12H7V13H12V14H7V15H10V16H7V19H17V5H7Z" fill="#7E8084"/>
</svg>
