<svg width="24" height="24" viewBox="0 0 24 24" fill="none" xmlns="http://www.w3.org/2000/svg">
<path d="M15.8 18.5L21.8 20.1L21.4 22L12 19.5L2.6 22L2.1 20.1L8.1 18.5L2 16.9L2.5 15L7.2 16.2L11.9 17.4L16.6 16.2L21.3 15L21.8 16.9L15.8 18.5Z" fill="#7E8084"/>
<path d="M15.9997 7.9C15.7997 7.7 15.5997 7.5 15.3997 7.3C14.9997 6.9 14.3997 6.6 13.9997 6.1C12.8997 5 12.6997 3.3 13.3997 2C12.7997 2.2 12.0997 2.5 11.5997 3C9.69971 4.5 8.99971 7.1 9.89971 9.4C9.89971 9.5 9.89971 9.5 9.89971 9.6C9.89971 9.8 9.79971 9.9 9.69971 10C9.49971 10.1 9.39971 10 9.19971 9.9C9.09971 9.9 9.09971 9.8 9.09971 9.8C8.29971 8.8 8.19971 7.3 8.69971 6.1C7.59971 7.1 6.89971 8.7 6.99971 10.3C6.99971 10.6 7.09971 11 7.19971 11.4C7.29971 11.8 7.49971 12.3 7.69971 12.6C8.39971 13.8 9.79971 14.8 11.1997 14.9C12.6997 15.1 14.2997 14.8 15.4997 13.8C16.7997 12.6 17.2997 10.7 16.5997 9L16.4997 8.8C16.3997 8.5 16.1997 8.2 15.9997 7.9ZM13.6997 12.5C13.4997 12.7 13.1997 12.9 12.8997 12.9C12.0997 13.2 11.2997 12.8 10.7997 12.3C11.5997 12.1 12.0997 11.5 12.2997 10.8C12.3997 10.2 12.1997 9.7 12.0997 9.2C11.9997 8.7 11.9997 8.2 12.1997 7.7C12.2997 8 12.4997 8.2 12.5997 8.5C13.0997 9.2 13.9997 9.5 14.1997 10.5C14.1997 10.6 14.1997 10.7 14.1997 10.8C14.3997 11.4 14.1997 12.1 13.6997 12.5Z" fill="#7E8084"/>
</svg>
