<svg width="24" height="25" viewBox="0 0 24 25" fill="none" xmlns="http://www.w3.org/2000/svg">
<path opacity="0.24" d="M15.8005 19.0192L21.8005 20.6192L21.4005 22.5192L12.0005 20.0192L2.60049 22.5192L2.10049 20.6192L8.10049 19.0192L2.00049 17.4192L2.50049 15.5192L7.20049 16.7192L11.9005 17.9192L16.6005 16.7192L21.3005 15.5192L21.8005 17.4192L15.8005 19.0192Z" fill="#7E8084"/>
<path d="M16.0002 8.41917C15.8002 8.21917 15.6002 8.01917 15.4002 7.81917C15.0002 7.41917 14.4002 7.11916 14.0002 6.61916C12.9002 5.51917 12.7002 3.81916 13.4002 2.51917C12.8002 2.71917 12.1002 3.01917 11.6002 3.51917C9.7002 5.01917 9.0002 7.61917 9.9002 9.91917C9.9002 10.0192 9.9002 10.0192 9.9002 10.1192C9.9002 10.3192 9.8002 10.4192 9.7002 10.5192C9.5002 10.6192 9.4002 10.5192 9.2002 10.4192C9.1002 10.4192 9.1002 10.3192 9.1002 10.3192C8.3002 9.31917 8.2002 7.81917 8.7002 6.61916C7.6002 7.61916 6.9002 9.21917 7.0002 10.8192C7.0002 11.1192 7.1002 11.5192 7.2002 11.9192C7.3002 12.3192 7.5002 12.8192 7.7002 13.1192C8.4002 14.3192 9.8002 15.3192 11.2002 15.4192C12.7002 15.6192 14.3002 15.3192 15.5002 14.3192C16.8002 13.1192 17.3002 11.2192 16.6002 9.51917L16.5002 9.31917C16.4002 9.01917 16.2002 8.71917 16.0002 8.41917ZM13.7002 13.0192C13.5002 13.2192 13.2002 13.4192 12.9002 13.4192C12.1002 13.7192 11.3002 13.3192 10.8002 12.8192C11.6002 12.6192 12.1002 12.0192 12.3002 11.3192C12.4002 10.7192 12.2002 10.2192 12.1002 9.71916C12.0002 9.21916 12.0002 8.71916 12.2002 8.21916C12.3002 8.51917 12.5002 8.71916 12.6002 9.01917C13.1002 9.71916 14.0002 10.0192 14.2002 11.0192C14.2002 11.1192 14.2002 11.2192 14.2002 11.3192C14.4002 11.9192 14.2002 12.6192 13.7002 13.0192Z" fill="#7E8084"/>
</svg>
