<svg width="24" height="25" viewBox="0 0 24 25" fill="none" xmlns="http://www.w3.org/2000/svg">
<path opacity="0.24" d="M15.8002 19.0192L21.8002 20.6192L21.4002 22.5192L12.0002 20.0192L2.60024 22.5192L2.10024 20.6192L8.10024 19.0192L2.00024 17.4192L2.50024 15.5192L7.20024 16.7192L11.9002 17.9192L16.6002 16.7192L21.3002 15.5192L21.8002 17.4192L15.8002 19.0192Z" fill="#7E8084"/>
<path d="M16 8.41917C15.8 8.21917 15.6 8.01917 15.4 7.81917C15 7.41917 14.4 7.11916 14 6.61916C12.9 5.51917 12.7 3.81916 13.4 2.51917C12.8 2.71917 12.1 3.01917 11.6 3.51917C9.69995 5.01917 8.99995 7.61917 9.89995 9.91917C9.89995 10.0192 9.89995 10.0192 9.89995 10.1192C9.89995 10.3192 9.79995 10.4192 9.69995 10.5192C9.49995 10.6192 9.39995 10.5192 9.19995 10.4192C9.09995 10.4192 9.09995 10.3192 9.09995 10.3192C8.29995 9.31917 8.19995 7.81917 8.69995 6.61916C7.59995 7.61916 6.89995 9.21917 6.99995 10.8192C6.99995 11.1192 7.09995 11.5192 7.19995 11.9192C7.29995 12.3192 7.49995 12.8192 7.69995 13.1192C8.39995 14.3192 9.79995 15.3192 11.2 15.4192C12.7 15.6192 14.3 15.3192 15.5 14.3192C16.8 13.1192 17.3 11.2192 16.6 9.51917L16.5 9.31917C16.4 9.01917 16.2 8.71917 16 8.41917ZM13.7 13.0192C13.5 13.2192 13.2 13.4192 12.9 13.4192C12.1 13.7192 11.3 13.3192 10.8 12.8192C11.6 12.6192 12.1 12.0192 12.3 11.3192C12.4 10.7192 12.2 10.2192 12.1 9.71916C12 9.21916 12 8.71916 12.2 8.21916C12.3 8.51917 12.5 8.71916 12.6 9.01917C13.1 9.71916 14 10.0192 14.2 11.0192C14.2 11.1192 14.2 11.2192 14.2 11.3192C14.4 11.9192 14.2 12.6192 13.7 13.0192Z" fill="#7E8084"/>
</svg>
