<svg width="24" height="25" viewBox="0 0 24 25" fill="none" xmlns="http://www.w3.org/2000/svg">
<path fill-rule="evenodd" clip-rule="evenodd" d="M12.0002 2.51917C6.48024 2.51917 2.00024 6.99917 2.00024 12.5192C2.00024 18.0392 6.48024 22.5192 12.0002 22.5192C17.5202 22.5192 22.0002 18.0392 22.0002 12.5192C22.0002 6.99917 17.5202 2.51917 12.0002 2.51917ZM4.00024 12.5192C4.00024 8.09916 7.58024 4.51917 12.0002 4.51917C13.8502 4.51917 15.5502 5.14917 16.9002 6.20917L5.69024 17.4192C4.63024 16.0692 4.00024 14.3692 4.00024 12.5192ZM7.10024 18.8292C8.45024 19.8892 10.1502 20.5192 12.0002 20.5192C16.4202 20.5192 20.0002 16.9392 20.0002 12.5192C20.0002 10.6692 19.3702 8.96916 18.3102 7.61916L7.10024 18.8292Z" fill="#7E8084"/>
</svg>
