<svg width="24" height="25" viewBox="0 0 24 25" fill="none" xmlns="http://www.w3.org/2000/svg">
<path fill-rule="evenodd" clip-rule="evenodd" d="M12.0005 2.51917C6.48049 2.51917 2.00049 6.99917 2.00049 12.5192C2.00049 18.0392 6.48049 22.5192 12.0005 22.5192C17.5205 22.5192 22.0005 18.0392 22.0005 12.5192C22.0005 6.99917 17.5205 2.51917 12.0005 2.51917ZM4.00049 12.5192C4.00049 8.09916 7.58049 4.51917 12.0005 4.51917C13.8505 4.51917 15.5505 5.14917 16.9005 6.20917L5.69049 17.4192C4.63049 16.0692 4.00049 14.3692 4.00049 12.5192ZM7.10049 18.8292C8.45049 19.8892 10.1505 20.5192 12.0005 20.5192C16.4205 20.5192 20.0005 16.9392 20.0005 12.5192C20.0005 10.6692 19.3705 8.96916 18.3105 7.61916L7.10049 18.8292Z" fill="#7E8084"/>
</svg>
