<svg width="24" height="24" viewBox="0 0 24 24" fill="none" xmlns="http://www.w3.org/2000/svg">
<path opacity="0.24" d="M14 4C14 4.3638 13.9033 4.70585 13.7337 5C13.5584 5.30418 13.305 5.55715 13 5.73V7H18C19.6569 7 21 8.34315 21 10V14H22C22.55 14 23 14.45 23 15V18C23 18.55 22.55 19 22 19H21V20C21 21.11 20.11 22 19 22H5C3.9 22 3 21.11 3 20V19H2C1.45 19 1 18.55 1 18V15C1 14.45 1.45 14 2 14H3V10C3 8.34315 4.34315 7 6 7H11V5.73C10.695 5.55715 10.4416 5.30418 10.2663 5C10.0967 4.70585 10 4.3638 10 4C10 2.9 10.9 2 12 2C13.1 2 14 2.9 14 4Z" fill="#7E8084"/>
<path fill-rule="evenodd" clip-rule="evenodd" d="M19 17H21V16H19V10C19 9.44772 18.5523 9 18 9H6C5.44772 9 5 9.44772 5 10V16H3V17H5V20H19V17ZM13.7337 5C13.9033 4.70585 14 4.3638 14 4C14 2.9 13.1 2 12 2C10.9 2 10 2.9 10 4C10 4.3638 10.0967 4.70585 10.2663 5C10.4416 5.30418 10.695 5.55715 11 5.73V7H6C4.34315 7 3 8.34315 3 10V14H2C1.45 14 1 14.45 1 15V18C1 18.55 1.45 19 2 19H3V20C3 21.11 3.9 22 5 22H19C20.11 22 21 21.11 21 20V19H22C22.55 19 23 18.55 23 18V15C23 14.45 22.55 14 22 14H21V10C21 8.34315 19.6569 7 18 7H13V5.73C13.305 5.55715 13.5584 5.30418 13.7337 5Z" fill="#7E8084"/>
<path d="M12.0001 10.4827C13.7618 10.4827 15.1901 9.05444 15.1901 7.29265V7.07235H17.1901V7.29265C17.1901 10.159 14.8664 12.4827 12.0001 12.4827C9.1337 12.4827 6.81006 10.159 6.81006 7.29265V7.07235H8.81006V7.29265C8.81006 9.05444 10.2383 10.4827 12.0001 10.4827Z" fill="#7E8084"/>
<path d="M10.2239 17C10.4039 16.7 10.5039 16.37 10.5039 16C10.5039 14.9 9.60391 14 8.50391 14C7.40391 14 6.50391 14.9 6.50391 16C6.50391 16.37 6.61391 16.7 6.78391 17C7.12391 16.41 7.76391 16 8.50391 16C9.24391 16 9.88391 16.41 10.2239 17Z" fill="#7E8084"/>
<path d="M13.5039 16C13.5039 14.9 14.4039 14 15.5039 14C16.6139 14 17.5039 14.9 17.5039 16C17.5039 16.37 17.4039 16.7 17.2239 17C16.8839 16.41 16.2439 16 15.5039 16C14.7639 16 14.1239 16.41 13.7839 17C13.6139 16.7 13.5039 16.37 13.5039 16Z" fill="#7E8084"/>
</svg>
