<svg width="24" height="25" viewBox="0 0 24 25" fill="none" xmlns="http://www.w3.org/2000/svg">
<path opacity="0.24" d="M14.0005 4.51917C14.0005 4.88296 13.9038 5.22501 13.7342 5.51917C13.5589 5.82335 13.3055 6.07632 13.0005 6.24917V7.51917H18.0005C19.6573 7.51917 21.0005 8.86231 21.0005 10.5192V14.5192H22.0005C22.5505 14.5192 23.0005 14.9692 23.0005 15.5192V18.5192C23.0005 19.0692 22.5505 19.5192 22.0005 19.5192H21.0005V20.5192C21.0005 21.6292 20.1105 22.5192 19.0005 22.5192H5.00049C3.90049 22.5192 3.00049 21.6292 3.00049 20.5192V19.5192H2.00049C1.45049 19.5192 1.00049 19.0692 1.00049 18.5192V15.5192C1.00049 14.9692 1.45049 14.5192 2.00049 14.5192H3.00049V10.5192C3.00049 8.86231 4.34363 7.51917 6.00049 7.51917H11.0005V6.24917C10.6955 6.07632 10.4421 5.82335 10.2668 5.51917C10.0972 5.22501 10.0005 4.88296 10.0005 4.51917C10.0005 3.41917 10.9005 2.51917 12.0005 2.51917C13.1005 2.51917 14.0005 3.41917 14.0005 4.51917Z" fill="#7E8084"/>
<path fill-rule="evenodd" clip-rule="evenodd" d="M19.0005 17.5192H21.0005V16.5192H19.0005V10.5192C19.0005 9.96688 18.5528 9.51917 18.0005 9.51917H6.00049C5.4482 9.51917 5.00049 9.96688 5.00049 10.5192V16.5192H3.00049V17.5192H5.00049V20.5192H19.0005V17.5192ZM13.7342 5.51917C13.9038 5.22501 14.0005 4.88296 14.0005 4.51917C14.0005 3.41917 13.1005 2.51917 12.0005 2.51917C10.9005 2.51917 10.0005 3.41917 10.0005 4.51917C10.0005 4.88296 10.0972 5.22501 10.2668 5.51917C10.4421 5.82335 10.6955 6.07632 11.0005 6.24917V7.51917H6.00049C4.34363 7.51917 3.00049 8.86231 3.00049 10.5192V14.5192H2.00049C1.45049 14.5192 1.00049 14.9692 1.00049 15.5192V18.5192C1.00049 19.0692 1.45049 19.5192 2.00049 19.5192H3.00049V20.5192C3.00049 21.6292 3.90049 22.5192 5.00049 22.5192H19.0005C20.1105 22.5192 21.0005 21.6292 21.0005 20.5192V19.5192H22.0005C22.5505 19.5192 23.0005 19.0692 23.0005 18.5192V15.5192C23.0005 14.9692 22.5505 14.5192 22.0005 14.5192H21.0005V10.5192C21.0005 8.86231 19.6573 7.51917 18.0005 7.51917H13.0005V6.24917C13.3055 6.07632 13.5589 5.82335 13.7342 5.51917Z" fill="#7E8084"/>
<path d="M12.0005 11.0018C13.7623 11.0018 15.1905 9.57361 15.1905 7.81182V7.59152H17.1905V7.81182C17.1905 10.6782 14.8669 13.0018 12.0005 13.0018C9.13419 13.0018 6.81055 10.6782 6.81055 7.81182V7.59152H8.81055V7.81182C8.81055 9.57361 10.2388 11.0018 12.0005 11.0018Z" fill="#7E8084"/>
<path d="M14.0734 18.5192L15.5005 17.0949L16.9276 18.5192L18.0005 17.4485L16.5734 16.0141L18.0005 14.5899L16.9276 13.5192L15.5005 14.9434L14.0734 13.5192L13.0005 14.5899L14.4276 16.0141L13.0005 17.4485L14.0734 18.5192Z" fill="#7E8084"/>
<path d="M7.07336 18.5192L8.50049 17.0949L9.92761 18.5192L11.0005 17.4485L9.57336 16.0141L11.0005 14.5899L9.92761 13.5192L8.50049 14.9434L7.07336 13.5192L6.00049 14.5899L7.42761 16.0141L6.00049 17.4485L7.07336 18.5192Z" fill="#7E8084"/>
</svg>
