<svg width="24" height="25" viewBox="0 0 24 25" fill="none" xmlns="http://www.w3.org/2000/svg">
<path opacity="0.24" d="M14.0002 4.51917C14.0002 4.88296 13.9036 5.22501 13.734 5.51917C13.5586 5.82335 13.3053 6.07632 13.0002 6.24917V7.51917H18.0002C19.6571 7.51917 21.0002 8.86231 21.0002 10.5192V14.5192H22.0002C22.5502 14.5192 23.0002 14.9692 23.0002 15.5192V18.5192C23.0002 19.0692 22.5502 19.5192 22.0002 19.5192H21.0002V20.5192C21.0002 21.6292 20.1102 22.5192 19.0002 22.5192H5.00024C3.90024 22.5192 3.00024 21.6292 3.00024 20.5192V19.5192H2.00024C1.45024 19.5192 1.00024 19.0692 1.00024 18.5192V15.5192C1.00024 14.9692 1.45024 14.5192 2.00024 14.5192H3.00024V10.5192C3.00024 8.86231 4.34339 7.51917 6.00024 7.51917H11.0002V6.24917C10.6952 6.07632 10.4419 5.82335 10.2665 5.51917C10.0969 5.22501 10.0002 4.88296 10.0002 4.51917C10.0002 3.41917 10.9002 2.51917 12.0002 2.51917C13.1002 2.51917 14.0002 3.41917 14.0002 4.51917Z" fill="#7E8084"/>
<path fill-rule="evenodd" clip-rule="evenodd" d="M19.0002 17.5192H21.0002V16.5192H19.0002V10.5192C19.0002 9.96688 18.5525 9.51917 18.0002 9.51917H16.903C16.197 11.5468 14.2686 13.0019 12.0003 13.0019C9.73204 13.0019 7.80364 11.5468 7.09763 9.51917H6.00024C5.44796 9.51917 5.00024 9.96688 5.00024 10.5192V16.5192H3.00024V17.5192H5.00024V20.5192H19.0002V17.5192ZM12.0003 11.0019C10.8665 11.0019 9.87084 10.4104 9.30511 9.51917H14.6955C14.1298 10.4104 13.1341 11.0019 12.0003 11.0019ZM13.734 5.51917C13.9036 5.22501 14.0002 4.88296 14.0002 4.51917C14.0002 3.41917 13.1002 2.51917 12.0002 2.51917C10.9002 2.51917 10.0002 3.41917 10.0002 4.51917C10.0002 4.88296 10.0969 5.22501 10.2665 5.51917C10.4419 5.82335 10.6952 6.07632 11.0002 6.24917V7.51917H6.00024C4.34339 7.51917 3.00024 8.86231 3.00024 10.5192V14.5192H2.00024C1.45024 14.5192 1.00024 14.9692 1.00024 15.5192V18.5192C1.00024 19.0692 1.45024 19.5192 2.00024 19.5192H3.00024V20.5192C3.00024 21.6292 3.90024 22.5192 5.00024 22.5192H19.0002C20.1102 22.5192 21.0002 21.6292 21.0002 20.5192V19.5192H22.0002C22.5502 19.5192 23.0002 19.0692 23.0002 18.5192V15.5192C23.0002 14.9692 22.5502 14.5192 22.0002 14.5192H21.0002V10.5192C21.0002 8.86231 19.6571 7.51917 18.0002 7.51917H13.0002V6.24917C13.3053 6.07632 13.5586 5.82335 13.734 5.51917ZM10.5042 16.5192C10.5042 16.8892 10.4042 17.2192 10.2242 17.5192C9.88415 16.9292 9.24415 16.5192 8.50415 16.5192C7.76415 16.5192 7.12415 16.9292 6.78415 17.5192C6.61415 17.2192 6.50415 16.8892 6.50415 16.5192C6.50415 15.4192 7.40415 14.5192 8.50415 14.5192C9.60415 14.5192 10.5042 15.4192 10.5042 16.5192ZM15.5042 14.5192C14.4042 14.5192 13.5042 15.4192 13.5042 16.5192C13.5042 16.8892 13.6142 17.2192 13.7842 17.5192C14.1242 16.9292 14.7642 16.5192 15.5042 16.5192C16.2442 16.5192 16.8841 16.9292 17.2241 17.5192C17.4042 17.2192 17.5042 16.8892 17.5042 16.5192C17.5042 15.4192 16.6142 14.5192 15.5042 14.5192Z" fill="#7E8084"/>
</svg>
