<svg width="24" height="24" viewBox="0 0 24 24" fill="none" xmlns="http://www.w3.org/2000/svg">
<path opacity="0.24" fill-rule="evenodd" clip-rule="evenodd" d="M22.1695 18.9855C22.6395 18.9044 23 18.4923 23 18V15C23 14.45 22.55 14 22 14H21V10C21 8.34315 19.6569 7 18 7H13V5.73C13.305 5.55715 13.5584 5.30418 13.7337 5C13.9033 4.70585 14 4.3638 14 4C14 2.9 13.1 2 12 2C10.9 2 10 2.9 10 4C10 4.3638 10.0967 4.70585 10.2663 5C10.4416 5.30418 10.695 5.55715 11 5.73V7H10.19L18.7521 15.5665L19.2975 16.1121L22.1695 18.9855ZM7.64333 7L20.9733 20.33C20.8174 21.2812 19.9975 22 19 22H5C3.9 22 3 21.11 3 20V19H2C1.45 19 1 18.55 1 18V15C1 14.45 1.45 14 2 14H3V10C3 8.34315 4.34315 7 6 7H7.64333Z" fill="#7E8084"/>
<path d="M20.8401 22.73L22.1101 21.46L2.39011 1.72998L1.11011 2.99998L20.8401 22.73Z" fill="#7E8084"/>
<path fill-rule="evenodd" clip-rule="evenodd" d="M22.1695 18.9855C22.6395 18.9044 23 18.4923 23 18V15C23 14.45 22.55 14 22 14H21V10C21 8.34315 19.6569 7 18 7H13V5.73C13.305 5.55715 13.5584 5.30418 13.7337 5C13.9033 4.70585 14 4.3638 14 4C14 2.9 13.1 2 12 2C10.9 2 10 2.9 10 4C10 4.3638 10.0967 4.70585 10.2663 5C10.4416 5.30418 10.695 5.55715 11 5.73V7H10.19L12.189 9H14.6953C14.3732 9.5073 13.912 9.91748 13.3652 10.1768L14.8311 11.6434C15.7851 11.0213 16.5218 10.094 16.9027 9H18C18.5523 9 19 9.44772 19 10V15.829L19.0171 15.8471L19.1789 16H21V17H20.185L22.1695 18.9855ZM19 18.3567L20.9733 20.33C20.8174 21.2812 19.9975 22 19 22H5C3.9 22 3 21.11 3 20V19H2C1.45 19 1 18.55 1 18V15C1 14.45 1.45 14 2 14H3V10C3 8.34315 4.34315 7 6 7H7.64333L9.64333 9H9.30486C9.68682 9.60174 10.2647 10.0668 10.9488 10.3055L13.0249 12.3816C12.6936 12.448 12.3509 12.4828 12.0001 12.4828C9.7318 12.4828 7.8034 11.0277 7.09739 9H6C5.44772 9 5 9.44772 5 10V16H3V17H5V20H19V18.3567ZM14.793 14.1496L17.3725 16.7292C17.0884 17.4864 16.3603 18.021 15.5 18.021C14.39 18.021 13.5 17.131 13.5 16.021C13.5 15.1618 14.0392 14.4345 14.793 14.1496ZM8.5 14.021C7.4 14.021 6.5 14.921 6.5 16.021C6.5 17.121 7.4 18.021 8.5 18.021C9.6 18.021 10.5 17.131 10.5 16.021C10.5 14.911 9.61 14.021 8.5 14.021Z" fill="#7E8084"/>
</svg>
