<svg width="24" height="25" viewBox="0 0 24 25" fill="none" xmlns="http://www.w3.org/2000/svg">
<path opacity="0.24" d="M14.0002 4.51917C14.0002 4.88296 13.9036 5.22501 13.734 5.51917C13.5586 5.82335 13.3053 6.07632 13.0002 6.24917V7.51917H18.0002C19.6571 7.51917 21.0002 8.86231 21.0002 10.5192V14.5192H22.0002C22.5502 14.5192 23.0002 14.9692 23.0002 15.5192V18.5192C23.0002 19.0692 22.5502 19.5192 22.0002 19.5192H21.0002V20.5192C21.0002 21.6292 20.1102 22.5192 19.0002 22.5192H5.00024C3.90024 22.5192 3.00024 21.6292 3.00024 20.5192V19.5192H2.00024C1.45024 19.5192 1.00024 19.0692 1.00024 18.5192V15.5192C1.00024 14.9692 1.45024 14.5192 2.00024 14.5192H3.00024V10.5192C3.00024 8.86231 4.34339 7.51917 6.00024 7.51917H11.0002V6.24917C10.6952 6.07632 10.4419 5.82335 10.2665 5.51917C10.0969 5.22501 10.0002 4.88296 10.0002 4.51917C10.0002 3.41917 10.9002 2.51917 12.0002 2.51917C13.1002 2.51917 14.0002 3.41917 14.0002 4.51917Z" fill="#7E8084"/>
<path fill-rule="evenodd" clip-rule="evenodd" d="M19.0002 17.5192H21.0002V16.5192H19.0002V10.5192C19.0002 9.96688 18.5525 9.51917 18.0002 9.51917H6.00024C5.44796 9.51917 5.00024 9.96688 5.00024 10.5192V16.5192H3.00024V17.5192H5.00024V20.5192H19.0002V17.5192ZM13.734 5.51917C13.9036 5.22501 14.0002 4.88296 14.0002 4.51917C14.0002 3.41917 13.1002 2.51917 12.0002 2.51917C10.9002 2.51917 10.0002 3.41917 10.0002 4.51917C10.0002 4.88296 10.0969 5.22501 10.2665 5.51917C10.4419 5.82335 10.6952 6.07632 11.0002 6.24917V7.51917H6.00024C4.34339 7.51917 3.00024 8.86231 3.00024 10.5192V14.5192H2.00024C1.45024 14.5192 1.00024 14.9692 1.00024 15.5192V18.5192C1.00024 19.0692 1.45024 19.5192 2.00024 19.5192H3.00024V20.5192C3.00024 21.6292 3.90024 22.5192 5.00024 22.5192H19.0002C20.1102 22.5192 21.0002 21.6292 21.0002 20.5192V19.5192H22.0002C22.5502 19.5192 23.0002 19.0692 23.0002 18.5192V15.5192C23.0002 14.9692 22.5502 14.5192 22.0002 14.5192H21.0002V10.5192C21.0002 8.86231 19.6571 7.51917 18.0002 7.51917H13.0002V6.24917C13.3053 6.07632 13.5586 5.82335 13.734 5.51917Z" fill="#7E8084"/>
<path d="M12.0003 11.0018C13.7621 11.0018 15.1903 9.57364 15.1903 7.81185V7.59155H17.1903V7.81185C17.1903 10.6782 14.8667 13.0018 12.0003 13.0018C9.13395 13.0018 6.8103 10.6782 6.8103 7.81185V7.59155H8.8103V7.81185C8.8103 9.57364 10.2385 11.0018 12.0003 11.0018Z" fill="#7E8084"/>
<path d="M14.0731 18.5192L15.5002 17.0949L16.9274 18.5192L18.0002 17.4485L16.5731 16.0141L18.0002 14.5899L16.9274 13.5192L15.5002 14.9434L14.0731 13.5192L13.0002 14.5899L14.4274 16.0141L13.0002 17.4485L14.0731 18.5192Z" fill="#7E8084"/>
<path d="M7.07312 18.5192L8.50024 17.0949L9.92737 18.5192L11.0002 17.4485L9.57312 16.0141L11.0002 14.5899L9.92737 13.5192L8.50024 14.9434L7.07312 13.5192L6.00024 14.5899L7.42737 16.0141L6.00024 17.4485L7.07312 18.5192Z" fill="#7E8084"/>
</svg>
