<svg width="24" height="25" viewBox="0 0 24 25" fill="none" xmlns="http://www.w3.org/2000/svg">
<path opacity="0.24" fill-rule="evenodd" clip-rule="evenodd" d="M22.17 19.5047C22.64 19.4236 23.0005 19.0114 23.0005 18.5192V15.5192C23.0005 14.9692 22.5505 14.5192 22.0005 14.5192H21.0005V10.5192C21.0005 8.86231 19.6573 7.51917 18.0005 7.51917H13.0005V6.24917C13.3055 6.07632 13.5589 5.82335 13.7342 5.51917C13.9038 5.22501 14.0005 4.88296 14.0005 4.51917C14.0005 3.41917 13.1005 2.51917 12.0005 2.51917C10.9005 2.51917 10.0005 3.41917 10.0005 4.51917C10.0005 4.88296 10.0972 5.22501 10.2668 5.51917C10.4421 5.82335 10.6955 6.07632 11.0005 6.24917V7.51917H10.1905L18.7526 16.0856L19.298 16.6313L22.17 19.5047ZM7.64382 7.51917L20.9738 20.8491C20.8179 21.8004 19.998 22.5192 19.0005 22.5192H5.00049C3.90049 22.5192 3.00049 21.6292 3.00049 20.5192V19.5192H2.00049C1.45049 19.5192 1.00049 19.0692 1.00049 18.5192V15.5192C1.00049 14.9692 1.45049 14.5192 2.00049 14.5192H3.00049V10.5192C3.00049 8.86231 4.34363 7.51917 6.00049 7.51917H7.64382Z" fill="#7E8084"/>
<path d="M20.8404 23.2491L22.1104 21.9791L2.39035 2.24915L1.11035 3.51915L20.8404 23.2491Z" fill="#7E8084"/>
<path fill-rule="evenodd" clip-rule="evenodd" d="M22.17 19.5047C22.64 19.4236 23.0005 19.0114 23.0005 18.5192V15.5192C23.0005 14.9692 22.5505 14.5192 22.0005 14.5192H21.0005V10.5192C21.0005 8.86231 19.6573 7.51917 18.0005 7.51917H13.0005V6.24917C13.3055 6.07632 13.5589 5.82335 13.7342 5.51917C13.9038 5.22501 14.0005 4.88296 14.0005 4.51917C14.0005 3.41917 13.1005 2.51917 12.0005 2.51917C10.9005 2.51917 10.0005 3.41917 10.0005 4.51917C10.0005 4.88296 10.0972 5.22501 10.2668 5.51917C10.4421 5.82335 10.6955 6.07632 11.0005 6.24917V7.51917H10.1905L12.1895 9.51917H14.6957C14.3737 10.0265 13.9124 10.4366 13.3657 10.6959L14.8316 12.1625C15.7855 11.5405 16.5223 10.6132 16.9032 9.51917H18.0005C18.5528 9.51917 19.0005 9.96688 19.0005 10.5192V16.3482L19.0176 16.3663L19.1794 16.5192H21.0005V17.5192H20.1855L22.17 19.5047ZM19.0005 18.8758L20.9738 20.8491C20.8179 21.8004 19.998 22.5192 19.0005 22.5192H5.00049C3.90049 22.5192 3.00049 21.6292 3.00049 20.5192V19.5192H2.00049C1.45049 19.5192 1.00049 19.0692 1.00049 18.5192V15.5192C1.00049 14.9692 1.45049 14.5192 2.00049 14.5192H3.00049V10.5192C3.00049 8.86231 4.34363 7.51917 6.00049 7.51917H7.64382L9.64382 9.51917H9.30535C9.68731 10.1209 10.2652 10.586 10.9493 10.8247L13.0254 12.9008C12.6941 12.9671 12.3514 13.0019 12.0005 13.0019C9.73229 13.0019 7.80388 11.5468 7.09788 9.51917H6.00049C5.4482 9.51917 5.00049 9.96688 5.00049 10.5192V16.5192H3.00049V17.5192H5.00049V20.5192H19.0005V18.8758ZM14.7934 14.6688L17.373 17.2483C17.0889 18.0056 16.3608 18.5402 15.5005 18.5402C14.3905 18.5402 13.5005 17.6502 13.5005 16.5402C13.5005 15.681 14.0397 14.9537 14.7934 14.6688ZM8.50049 14.5402C7.40049 14.5402 6.50049 15.4402 6.50049 16.5402C6.50049 17.6402 7.40049 18.5402 8.50049 18.5402C9.60049 18.5402 10.5005 17.6502 10.5005 16.5402C10.5005 15.4302 9.61049 14.5402 8.50049 14.5402Z" fill="#7E8084"/>
</svg>
