<svg width="24" height="25" viewBox="0 0 24 25" fill="none" xmlns="http://www.w3.org/2000/svg">
<path opacity="0.24" fill-rule="evenodd" clip-rule="evenodd" d="M22.1697 19.5047C22.6398 19.4236 23.0002 19.0114 23.0002 18.5192V15.5192C23.0002 14.9692 22.5502 14.5192 22.0002 14.5192H21.0002V10.5192C21.0002 8.86231 19.6571 7.51917 18.0002 7.51917H13.0002V6.24917C13.3053 6.07632 13.5586 5.82335 13.734 5.51917C13.9036 5.22501 14.0002 4.88296 14.0002 4.51917C14.0002 3.41917 13.1002 2.51917 12.0002 2.51917C10.9002 2.51917 10.0002 3.41917 10.0002 4.51917C10.0002 4.88296 10.0969 5.22501 10.2665 5.51917C10.4419 5.82335 10.6952 6.07632 11.0002 6.24917V7.51917H10.1903L18.7524 16.0856L19.2978 16.6313L22.1697 19.5047ZM7.64357 7.51917L20.9735 20.8491C20.8176 21.8004 19.9978 22.5192 19.0002 22.5192H5.00024C3.90024 22.5192 3.00024 21.6292 3.00024 20.5192V19.5192H2.00024C1.45024 19.5192 1.00024 19.0692 1.00024 18.5192V15.5192C1.00024 14.9692 1.45024 14.5192 2.00024 14.5192H3.00024V10.5192C3.00024 8.86231 4.34339 7.51917 6.00024 7.51917H7.64357Z" fill="#7E8084"/>
<path d="M20.8402 23.2491L22.1102 21.9791L2.39023 2.24915L1.11023 3.51915L20.8402 23.2491Z" fill="#7E8084"/>
<path fill-rule="evenodd" clip-rule="evenodd" d="M22.1697 19.5047C22.6398 19.4236 23.0002 19.0114 23.0002 18.5192V15.5192C23.0002 14.9692 22.5502 14.5192 22.0002 14.5192H21.0002V10.5192C21.0002 8.86231 19.6571 7.51917 18.0002 7.51917H13.0002V6.24917C13.3053 6.07632 13.5586 5.82335 13.734 5.51917C13.9036 5.22501 14.0002 4.88296 14.0002 4.51917C14.0002 3.41917 13.1002 2.51917 12.0002 2.51917C10.9002 2.51917 10.0002 3.41917 10.0002 4.51917C10.0002 4.88296 10.0969 5.22501 10.2665 5.51917C10.4419 5.82335 10.6952 6.07632 11.0002 6.24917V7.51917H10.1903L12.1893 9.51917H14.6955C14.3735 10.0265 13.9122 10.4366 13.3654 10.6959L14.8313 12.1625C15.7853 11.5405 16.5221 10.6132 16.903 9.51917H18.0002C18.5525 9.51917 19.0002 9.96688 19.0002 10.5192V16.3482L19.0173 16.3663L19.1791 16.5192H21.0002V17.5192H20.1852L22.1697 19.5047ZM19.0002 18.8758L20.9735 20.8491C20.8176 21.8004 19.9978 22.5192 19.0002 22.5192H5.00024C3.90024 22.5192 3.00024 21.6292 3.00024 20.5192V19.5192H2.00024C1.45024 19.5192 1.00024 19.0692 1.00024 18.5192V15.5192C1.00024 14.9692 1.45024 14.5192 2.00024 14.5192H3.00024V10.5192C3.00024 8.86231 4.34339 7.51917 6.00024 7.51917H7.64357L9.64357 9.51917H9.30511C9.68706 10.1209 10.265 10.586 10.9491 10.8247L13.0252 12.9008C12.6939 12.9671 12.3511 13.0019 12.0003 13.0019C9.73204 13.0019 7.80364 11.5468 7.09763 9.51917H6.00024C5.44796 9.51917 5.00024 9.96688 5.00024 10.5192V16.5192H3.00024V17.5192H5.00024V20.5192H19.0002V18.8758ZM14.7932 14.6688L17.3727 17.2483C17.0886 18.0056 16.3605 18.5402 15.5002 18.5402C14.3902 18.5402 13.5002 17.6502 13.5002 16.5402C13.5002 15.681 14.0394 14.9537 14.7932 14.6688ZM8.50024 14.5402C7.40024 14.5402 6.50024 15.4402 6.50024 16.5402C6.50024 17.6402 7.40024 18.5402 8.50024 18.5402C9.60024 18.5402 10.5002 17.6502 10.5002 16.5402C10.5002 15.4302 9.61024 14.5402 8.50024 14.5402Z" fill="#7E8084"/>
</svg>
