<svg width="24" height="25" viewBox="0 0 24 25" fill="none" xmlns="http://www.w3.org/2000/svg">
<path opacity="0.24" fill-rule="evenodd" clip-rule="evenodd" d="M15.8302 10.1692L15.4602 9.51917C15.1602 8.98917 14.7502 8.55917 14.2502 8.20917L13.6402 7.78917L12.9602 7.62917C12.6302 7.55917 12.3202 7.51917 12.0002 7.51917C11.6902 7.51917 11.3702 7.55917 11.0602 7.62917L10.3202 7.80917L9.75024 8.20917C9.26024 8.54917 8.84024 8.99917 8.54024 9.51917L8.17024 10.1692L8.07024 10.8192C8.03024 11.0492 8.00024 11.2992 8.00024 11.5192V12.5192V14.5192V15.5192C8.00024 15.7392 8.03024 15.9892 8.07024 16.2192L8.17024 16.8692L8.54024 17.5192C9.26024 18.7592 10.5802 19.5192 12.0002 19.5192C13.4202 19.5192 14.7402 18.7492 15.4602 17.5192L15.8302 16.8792L15.9302 16.2292C15.9702 15.9892 16.0002 15.7392 16.0002 15.5192V14.5192V12.5192V11.5192C16.0002 11.2992 15.9702 11.0492 15.9302 10.8192L15.8302 10.1692ZM14.0002 16.5192H10.0002V14.5192H14.0002V16.5192ZM10.0002 12.5192H14.0002V10.5192H10.0002V12.5192Z" fill="#7E8084"/>
<path fill-rule="evenodd" clip-rule="evenodd" d="M17.1902 8.51917H20.0002V10.5192H17.9102C17.9602 10.8492 18.0002 11.1792 18.0002 11.5192V12.5192H20.0002V14.5192H18.0002V15.5192C18.0002 15.8592 17.9602 16.1892 17.9102 16.5192H20.0002V18.5192H17.1902C16.1502 20.3092 14.2202 21.5192 12.0002 21.5192C9.78024 21.5192 7.85024 20.3092 6.81024 18.5192H4.00024V16.5192H6.09024C6.04024 16.1892 6.00024 15.8592 6.00024 15.5192V14.5192H4.00024V12.5192H6.00024V11.5192C6.00024 11.1792 6.04024 10.8492 6.09024 10.5192H4.00024V8.51917H6.81024C7.26024 7.73917 7.88024 7.06916 8.62024 6.55917L7.00024 4.92917L8.41024 3.51917L10.5902 5.68917C11.0402 5.57917 11.5102 5.51917 12.0002 5.51917C12.4902 5.51917 12.9602 5.57917 13.4202 5.68917L15.5902 3.51917L17.0002 4.92917L15.3702 6.55917C16.1202 7.06916 16.7402 7.73917 17.1902 8.51917ZM16.0002 14.5192V12.5192V11.5192C16.0002 11.2992 15.9702 11.0492 15.9302 10.8292L15.8302 10.1792L15.4502 9.52917C15.1502 8.99917 14.7402 8.55917 14.2402 8.21916L13.6302 7.79917L12.9502 7.63916C12.6302 7.55917 12.3202 7.51917 12.0002 7.51917C11.6902 7.51917 11.3702 7.55917 11.0602 7.63916L10.3202 7.81917L9.75024 8.20917C9.26024 8.54917 8.84024 8.99917 8.54024 9.51917L8.17024 10.1692L8.07024 10.8192C8.03024 11.0492 8.00024 11.2992 8.00024 11.5192V12.5192V14.5192V15.5192C8.00024 15.7392 8.03024 15.9892 8.07024 16.2292L8.17024 16.8792L8.54024 17.5192C9.26024 18.7492 10.5802 19.5192 12.0002 19.5192C13.4202 19.5192 14.7402 18.7592 15.4602 17.5192L15.8302 16.8692L15.9302 16.2192C15.9702 15.9892 16.0002 15.7392 16.0002 15.5192V14.5192Z" fill="#7E8084"/>
<path d="M10.0002 14.5192H14.0002V16.5192H10.0002V14.5192Z" fill="#7E8084"/>
<path d="M10.0002 10.5192H14.0002V12.5192H10.0002V10.5192Z" fill="#7E8084"/>
</svg>
