<svg width="24" height="25" viewBox="0 0 24 25" fill="none" xmlns="http://www.w3.org/2000/svg">
<path opacity="0.24" fill-rule="evenodd" clip-rule="evenodd" d="M15.8305 10.1692L15.4605 9.51917C15.1605 8.98917 14.7505 8.55917 14.2505 8.20917L13.6405 7.78917L12.9605 7.62917C12.6305 7.55917 12.3205 7.51917 12.0005 7.51917C11.6905 7.51917 11.3705 7.55917 11.0605 7.62917L10.3205 7.80917L9.75049 8.20917C9.26049 8.54917 8.84049 8.99917 8.54049 9.51917L8.17049 10.1692L8.07049 10.8192C8.03049 11.0492 8.00049 11.2992 8.00049 11.5192V12.5192V14.5192V15.5192C8.00049 15.7392 8.03049 15.9892 8.07049 16.2192L8.17049 16.8692L8.54049 17.5192C9.26049 18.7592 10.5805 19.5192 12.0005 19.5192C13.4205 19.5192 14.7405 18.7492 15.4605 17.5192L15.8305 16.8792L15.9305 16.2292C15.9705 15.9892 16.0005 15.7392 16.0005 15.5192V14.5192V12.5192V11.5192C16.0005 11.2992 15.9705 11.0492 15.9305 10.8192L15.8305 10.1692ZM14.0005 16.5192H10.0005V14.5192H14.0005V16.5192ZM10.0005 12.5192H14.0005V10.5192H10.0005V12.5192Z" fill="#7E8084"/>
<path fill-rule="evenodd" clip-rule="evenodd" d="M17.1905 8.51917H20.0005V10.5192H17.9105C17.9605 10.8492 18.0005 11.1792 18.0005 11.5192V12.5192H20.0005V14.5192H18.0005V15.5192C18.0005 15.8592 17.9605 16.1892 17.9105 16.5192H20.0005V18.5192H17.1905C16.1505 20.3092 14.2205 21.5192 12.0005 21.5192C9.78049 21.5192 7.85049 20.3092 6.81049 18.5192H4.00049V16.5192H6.09049C6.04049 16.1892 6.00049 15.8592 6.00049 15.5192V14.5192H4.00049V12.5192H6.00049V11.5192C6.00049 11.1792 6.04049 10.8492 6.09049 10.5192H4.00049V8.51917H6.81049C7.26049 7.73917 7.88049 7.06916 8.62049 6.55917L7.00049 4.92917L8.41049 3.51917L10.5905 5.68917C11.0405 5.57917 11.5105 5.51917 12.0005 5.51917C12.4905 5.51917 12.9605 5.57917 13.4205 5.68917L15.5905 3.51917L17.0005 4.92917L15.3705 6.55917C16.1205 7.06916 16.7405 7.73917 17.1905 8.51917ZM16.0005 14.5192V12.5192V11.5192C16.0005 11.2992 15.9705 11.0492 15.9305 10.8292L15.8305 10.1792L15.4505 9.52917C15.1505 8.99917 14.7405 8.55917 14.2405 8.21916L13.6305 7.79917L12.9505 7.63916C12.6305 7.55917 12.3205 7.51917 12.0005 7.51917C11.6905 7.51917 11.3705 7.55917 11.0605 7.63916L10.3205 7.81917L9.75049 8.20917C9.26049 8.54917 8.84049 8.99917 8.54049 9.51917L8.17049 10.1692L8.07049 10.8192C8.03049 11.0492 8.00049 11.2992 8.00049 11.5192V12.5192V14.5192V15.5192C8.00049 15.7392 8.03049 15.9892 8.07049 16.2292L8.17049 16.8792L8.54049 17.5192C9.26049 18.7492 10.5805 19.5192 12.0005 19.5192C13.4205 19.5192 14.7405 18.7592 15.4605 17.5192L15.8305 16.8692L15.9305 16.2192C15.9705 15.9892 16.0005 15.7392 16.0005 15.5192V14.5192Z" fill="#7E8084"/>
<path d="M10.0005 14.5192H14.0005V16.5192H10.0005V14.5192Z" fill="#7E8084"/>
<path d="M10.0005 10.5192H14.0005V12.5192H10.0005V10.5192Z" fill="#7E8084"/>
</svg>
