<svg width="24" height="25" viewBox="0 0 24 25" fill="none" xmlns="http://www.w3.org/2000/svg">
<path opacity="0.2" d="M5.00049 19.5192H19.0005V5.51917H5.00049V19.5192ZM13.0305 7.57916L14.0905 6.51917L15.5005 7.92916L16.9105 6.51917L17.9705 7.57916L16.5605 8.98917L17.9705 10.3992L16.9105 11.4592L15.5005 10.0592L14.0905 11.4692L13.0305 10.4092L14.4405 8.99916L13.0305 7.57916ZM13.0005 13.7692H18.0005V15.2692H13.0005V13.7692ZM13.0005 16.2692H18.0005V17.7692H13.0005V16.2692ZM6.25049 8.23916H11.2505V9.73917H6.25049V8.23916ZM6.00049 15.0192H8.00049V13.0192H9.50049V15.0192H11.5005V16.5192H9.50049V18.5192H8.00049V16.5192H6.00049V15.0192Z" fill="#7E8084"/>
<path d="M19.0005 3.51917H5.00049C3.90049 3.51917 3.00049 4.41917 3.00049 5.51917V19.5192C3.00049 20.6192 3.90049 21.5192 5.00049 21.5192H19.0005C20.1005 21.5192 21.0005 20.6192 21.0005 19.5192V5.51917C21.0005 4.41917 20.1005 3.51917 19.0005 3.51917ZM19.0005 19.5192H5.00049V5.51917H19.0005V19.5192Z" fill="#7E8084"/>
<path d="M11.2505 8.23917H6.25049V9.73917H11.2505V8.23917Z" fill="#7E8084"/>
<path d="M18.0005 16.2692H13.0005V17.7692H18.0005V16.2692Z" fill="#7E8084"/>
<path d="M18.0005 13.7692H13.0005V15.2692H18.0005V13.7692Z" fill="#7E8084"/>
<path d="M8.00049 18.5192H9.50049V16.5192H11.5005V15.0192H9.50049V13.0192H8.00049V15.0192H6.00049V16.5192H8.00049V18.5192Z" fill="#7E8084"/>
<path d="M14.0903 11.4692L15.5003 10.0592L16.9103 11.4692L17.9703 10.4092L16.5603 8.98917L17.9703 7.57916L16.9103 6.51917L15.5003 7.92916L14.0903 6.51917L13.0303 7.57916L14.4403 8.98917L13.0303 10.4092L14.0903 11.4692Z" fill="#7E8084"/>
</svg>
