<svg width="24" height="25" viewBox="0 0 24 25" fill="none" xmlns="http://www.w3.org/2000/svg">
<path opacity="0.24" d="M5.00031 19.5192H19.0003V5.51917H5.00031V19.5192ZM13.0303 7.57916L14.0903 6.51917L15.5003 7.92916L16.9103 6.51917L17.9703 7.57916L16.5603 8.98917L17.9703 10.3992L16.9103 11.4592L15.5003 10.0592L14.0903 11.4692L13.0303 10.4092L14.4403 8.99916L13.0303 7.57916ZM13.0003 13.7692H18.0003V15.2692H13.0003V13.7692ZM13.0003 16.2692H18.0003V17.7692H13.0003V16.2692ZM6.25031 8.23916H11.2503V9.73917H6.25031V8.23916ZM6.00031 15.0192H8.00031V13.0192H9.50031V15.0192H11.5003V16.5192H9.50031V18.5192H8.00031V16.5192H6.00031V15.0192Z" fill="#7E8084"/>
<path fill-rule="evenodd" clip-rule="evenodd" d="M5.00031 3.51917H19.0003C20.1003 3.51917 21.0003 4.41917 21.0003 5.51917V19.5192C21.0003 20.6192 20.1003 21.5192 19.0003 21.5192H5.00031C3.90031 21.5192 3.00031 20.6192 3.00031 19.5192V5.51917C3.00031 4.41917 3.90031 3.51917 5.00031 3.51917ZM5.00031 19.5192H19.0003V5.51917H5.00031V19.5192ZM6.25031 8.23914H11.2503V9.73914H6.25031V8.23914ZM18.0003 16.2692H13.0003V17.7692H18.0003V16.2692ZM13.0003 13.7692H18.0003V15.2692H13.0003V13.7692ZM8.00031 18.5192H9.50031V16.5192H11.5003V15.0192H9.50031V13.0192H8.00031V15.0192H6.00031V16.5192H8.00031V18.5192ZM15.5001 10.0592L14.0901 11.4692L13.0301 10.4092L14.4401 8.98917L13.0301 7.57916L14.0901 6.51917L15.5001 7.92916L16.9101 6.51917L17.9701 7.57916L16.5601 8.98917L17.9701 10.4092L16.9101 11.4692L15.5001 10.0592Z" fill="#7E8084"/>
</svg>
