<svg width="24" height="25" viewBox="0 0 24 25" fill="none" xmlns="http://www.w3.org/2000/svg">
<path opacity="0.24" d="M5.00031 8.51917H19.0003V6.51917H5.00031V8.51917Z" fill="#7E8084"/>
<path d="M7.00031 12.5192H9.00031V14.5192H7.00031V12.5192ZM19.0003 4.51917H18.0003V2.51917H16.0003V4.51917H8.00031V2.51917H6.00031V4.51917H5.00031C3.90031 4.51917 3.00031 5.41917 3.00031 6.51917V20.5192C3.00031 21.6192 3.90031 22.5192 5.00031 22.5192H19.0003C20.1003 22.5192 21.0003 21.6192 21.0003 20.5192V6.51917C21.0003 5.41917 20.1003 4.51917 19.0003 4.51917ZM19.0003 20.5192H5.00031V10.5192H19.0003V20.5192ZM19.0003 8.51917H5.00031V6.51917H19.0003V8.51917ZM15.0003 12.5192H17.0003V14.5192H15.0003V12.5192ZM11.0003 12.5192H13.0003V14.5192H11.0003V12.5192Z" fill="#7E8084"/>
<path d="M9.00031 16.5192H7.00031V18.5192H9.00031V16.5192Z" fill="#7E8084"/>
<path d="M17.0003 16.5192H15.0003V18.5192H17.0003V16.5192Z" fill="#7E8084"/>
<path d="M13.0003 16.5192H11.0003V18.5192H13.0003V16.5192Z" fill="#7E8084"/>
</svg>
