<svg width="24" height="24" viewBox="0 0 24 24" fill="none" xmlns="http://www.w3.org/2000/svg">
<path opacity="0.3" d="M5 8H19V6H5V8Z" fill="#7E8085"/>
<path d="M7 12H9V14H7V12ZM19 4H18V2H16V4H8V2H6V4H5C3.9 4 3 4.9 3 6V20C3 21.1 3.9 22 5 22H19C20.1 22 21 21.1 21 20V6C21 4.9 20.1 4 19 4ZM19 20H5V10H19V20ZM19 8H5V6H19V8ZM15 12H17V14H15V12ZM11 12H13V14H11V12Z" fill="#7E8085"/>
<path d="M9 16H7V18H9V16Z" fill="#7E8085"/>
<path d="M17 16H15V18H17V16Z" fill="#7E8085"/>
<path d="M13 16H11V18H13V16Z" fill="#7E8085"/>
</svg>
