<svg width="24" height="24" viewBox="0 0 24 24" fill="none" xmlns="http://www.w3.org/2000/svg">
<path opacity="0.3" d="M5 17H19V12H5V17ZM16.5 13C17.33 13 18 13.67 18 14.5C18 15.33 17.33 16 16.5 16C15.67 16 15 15.33 15 14.5C15 13.67 15.67 13 16.5 13ZM7.5 13C8.33 13 9 13.67 9 14.5C9 15.33 8.33 16 7.5 16C6.67 16 6 15.33 6 14.5C6 13.67 6.67 13 7.5 13Z" fill="#7E8084"/>
<path d="M18.92 6.01C18.72 5.42 18.16 5 17.5 5H6.5C5.84 5 5.29 5.42 5.08 6.01L3 12V20C3 20.55 3.45 21 4 21H5C5.55 21 6 20.55 6 20V19H18V20C18 20.55 18.45 21 19 21H20C20.55 21 21 20.55 21 20V12L18.92 6.01ZM6.85 7H17.14L18.22 10.11H5.77L6.85 7ZM19 17H5V12H19V17Z" fill="#7E8084"/>
<path d="M7.5 16C8.32843 16 9 15.3284 9 14.5C9 13.6716 8.32843 13 7.5 13C6.67157 13 6 13.6716 6 14.5C6 15.3284 6.67157 16 7.5 16Z" fill="#7E8084"/>
<path d="M16.5 16C17.3284 16 18 15.3284 18 14.5C18 13.6716 17.3284 13 16.5 13C15.6716 13 15 13.6716 15 14.5C15 15.3284 15.6716 16 16.5 16Z" fill="#7E8084"/>
</svg>
