<svg width="24" height="25" viewBox="0 0 24 25" fill="none" xmlns="http://www.w3.org/2000/svg">
<g clip-path="url(#clip0)">
<path d="M5.00031 2.51917C3.90031 2.51917 3.00031 3.41917 3.00031 4.51917V20.5192C3.00031 21.6192 3.90031 22.5192 5.00031 22.5192H20.0003C20.6003 22.5192 21.0003 22.1192 21.0003 21.5192V3.51917C21.0003 2.91917 20.6003 2.51917 20.0003 2.51917H5.00031ZM5.00031 4.51917H7.00031V20.5192H5.00031V4.51917ZM19.0003 4.51917V20.5192H9.00031V4.51917H19.0003Z" fill="#7E8084"/>
<path opacity="0.24" d="M7.00031 4.51917H5.00031V20.5192H7.00031V4.51917Z" fill="#7E8084"/>
<path d="M12.4403 16.4117H11.0003V14.9717L14.9303 11.0517L16.3603 12.4817L12.4403 16.4117Z" fill="#7E8084"/>
<path d="M17.7809 11.0717L17.0809 11.7717L15.6409 10.3317L16.3409 9.63167C16.4909 9.48167 16.7309 9.48167 16.8809 9.63167L17.7809 10.5317C17.9309 10.6817 17.9309 10.9217 17.7809 11.0717Z" fill="#7E8084"/>
</g>
<defs>
<clipPath id="clip0">
<rect width="18" height="20" fill="white" transform="translate(3.00031 2.51917)"/>
</clipPath>
</defs>
</svg>
