<svg width="24" height="24" viewBox="0 0 24 24" fill="none" xmlns="http://www.w3.org/2000/svg">
<path d="M5 2C3.9 2 3 2.9 3 4V20C3 21.1 3.9 22 5 22H20C20.6 22 21 21.6 21 21V3C21 2.4 20.6 2 20 2H5ZM5 4H7V20H5V4ZM19 4V20H9V4H19Z" fill="#7E8084"/>
<path opacity="0.24" d="M7 4H5V20H7V4Z" fill="#7E8084"/>
<path d="M12.44 15.8925H11V14.4525L14.93 10.5325L16.36 11.9625L12.44 15.8925Z" fill="#7E8084"/>
<path d="M17.7806 10.5525L17.0806 11.2525L15.6406 9.8125L16.3406 9.1125C16.4906 8.9625 16.7306 8.9625 16.8806 9.1125L17.7806 10.0125C17.9306 10.1625 17.9306 10.4025 17.7806 10.5525Z" fill="#7E8084"/>
</svg>
