<svg width="24" height="25" viewBox="0 0 24 25" fill="none" xmlns="http://www.w3.org/2000/svg">
<g clip-path="url(#clip0)">
<path d="M5.00049 2.51917C3.89592 2.51917 3.00049 3.4146 3.00049 4.51917V20.5192C3.00049 21.6237 3.89592 22.5192 5.00049 22.5192H20.0005C20.6005 22.5192 21.0005 22.1192 21.0005 21.5192V3.51917C21.0005 2.91917 20.6005 2.51917 20.0005 2.51917H5.00049ZM5.00049 4.51917H7.00049V20.5192H5.00049V4.51917ZM19.0005 20.5192H9.00049V4.51917H12.0005V13.5192L14.5005 10.5192L17.0005 13.5192V4.51917H19.0005V20.5192Z" fill="#7E8084"/>
<path opacity="0.24" d="M7.00049 4.51917H5.00049V20.5192H7.00049V4.51917Z" fill="#7E8084"/>
</g>
<defs>
<clipPath id="clip0">
<rect width="18" height="20" fill="white" transform="translate(3.00049 2.51917)"/>
</clipPath>
</defs>
</svg>
