<svg width="24" height="25" viewBox="0 0 24 25" fill="none" xmlns="http://www.w3.org/2000/svg">
<g clip-path="url(#clip0)">
<path d="M5.00031 2.51917C3.89574 2.51917 3.00031 3.4146 3.00031 4.51917V20.5192C3.00031 21.6237 3.89574 22.5192 5.00031 22.5192H20.0003C20.6003 22.5192 21.0003 22.1192 21.0003 21.5192V3.51917C21.0003 2.91917 20.6003 2.51917 20.0003 2.51917H5.00031ZM5.00031 4.51917H7.00031V20.5192H5.00031V4.51917ZM19.0003 20.5192H9.00031V4.51917H12.0003V13.5192L14.5003 10.5192L17.0003 13.5192V4.51917H19.0003V20.5192Z" fill="#7E8084"/>
<path opacity="0.24" d="M7.00031 4.51917H5.00031V20.5192H7.00031V4.51917Z" fill="#7E8084"/>
</g>
<defs>
<clipPath id="clip0">
<rect width="18" height="20" fill="white" transform="translate(3.00031 2.51917)"/>
</clipPath>
</defs>
</svg>
