<svg width="24" height="25" viewBox="0 0 24 25" fill="none" xmlns="http://www.w3.org/2000/svg">
<g clip-path="url(#clip0)">
<path d="M5.00049 2.51917C3.90049 2.51917 3.00049 3.41917 3.00049 4.51917V20.5192C3.00049 21.6192 3.90049 22.5192 5.00049 22.5192H20.0005C20.6005 22.5192 21.0005 22.1192 21.0005 21.5192V3.51917C21.0005 2.91917 20.6005 2.51917 20.0005 2.51917H5.00049ZM5.00049 4.51917H7.00049V20.5192H5.00049V4.51917ZM19.0005 4.51917V20.5192H9.00049V4.51917H19.0005Z" fill="#7E8084"/>
<path opacity="0.24" d="M7.00049 4.51917H5.00049V20.5192H7.00049V4.51917Z" fill="#7E8084"/>
<path d="M12.4405 16.4117H11.0005V14.9717L14.9305 11.0517L16.3605 12.4817L12.4405 16.4117Z" fill="#7E8084"/>
<path d="M17.7811 11.0717L17.0811 11.7717L15.6411 10.3317L16.3411 9.63167C16.4911 9.48167 16.7311 9.48167 16.8811 9.63167L17.7811 10.5317C17.9311 10.6817 17.9311 10.9217 17.7811 11.0717Z" fill="#7E8084"/>
</g>
<defs>
<clipPath id="clip0">
<rect width="18" height="20" fill="white" transform="translate(3.00049 2.51917)"/>
</clipPath>
</defs>
</svg>
