<svg width="24" height="25" viewBox="0 0 24 25" fill="none" xmlns="http://www.w3.org/2000/svg">
<path opacity="0.24" fill-rule="evenodd" clip-rule="evenodd" d="M5.00031 5.51917H19.0003V19.5192H5.00031V5.51917ZM7.00031 17.5192H9.00031V10.5192H7.00031V17.5192ZM13.0003 17.5192H11.0003V7.51917H13.0003V17.5192ZM15.0003 17.5192H17.0003V13.5192H15.0003V17.5192Z" fill="#7E8084"/>
<path fill-rule="evenodd" clip-rule="evenodd" d="M3.00031 19.5192V5.51917C3.00031 4.41917 3.90031 3.51917 5.00031 3.51917H19.0003C20.1003 3.51917 21.0003 4.41917 21.0003 5.51917V19.5192C21.0003 20.6192 20.1003 21.5192 19.0003 21.5192H5.00031C3.90031 21.5192 3.00031 20.6192 3.00031 19.5192ZM19.0003 5.51917H5.00031V19.5192H19.0003V5.51917Z" fill="#7E8084"/>
<path d="M7.00031 10.5192H9.00031V17.5192H7.00031V10.5192Z" fill="#7E8084"/>
<path d="M11.0003 7.51917H13.0003V17.5192H11.0003V7.51917Z" fill="#7E8084"/>
<path d="M15.0003 13.5192H17.0003V17.5192H15.0003V13.5192Z" fill="#7E8084"/>
</svg>
