<svg width="24" height="25" viewBox="0 0 24 25" fill="none" xmlns="http://www.w3.org/2000/svg">
<g clip-path="url(#clip0)">
<path d="M2.00031 3.71916H4.00031V19.7192H22.0003V21.7192H2.00031V3.71916Z" fill="#7E8084"/>
<path d="M7.00029 15.9192C7.66303 15.9192 8.20029 15.3819 8.20029 14.7192C8.20029 14.0564 7.66303 13.5192 7.00029 13.5192C6.33755 13.5192 5.80029 14.0564 5.80029 14.7192C5.80029 15.3819 6.33755 15.9192 7.00029 15.9192Z" fill="#7E8084"/>
<path d="M13.0003 15.9192C13.663 15.9192 14.2003 15.3819 14.2003 14.7192C14.2003 14.0564 13.663 13.5192 13.0003 13.5192C12.3376 13.5192 11.8003 14.0564 11.8003 14.7192C11.8003 15.3819 12.3376 15.9192 13.0003 15.9192Z" fill="#7E8084"/>
<path d="M10.0003 18.9192C10.663 18.9192 11.2003 18.3819 11.2003 17.7192C11.2003 17.0564 10.663 16.5192 10.0003 16.5192C9.33755 16.5192 8.80029 17.0564 8.80029 17.7192C8.80029 18.3819 9.33755 18.9192 10.0003 18.9192Z" fill="#7E8084"/>
<path d="M10.0003 12.9192C10.663 12.9192 11.2003 12.3819 11.2003 11.7192C11.2003 11.0564 10.663 10.5192 10.0003 10.5192C9.33755 10.5192 8.80029 11.0564 8.80029 11.7192C8.80029 12.3819 9.33755 12.9192 10.0003 12.9192Z" fill="#7E8084"/>
<path d="M18.0003 13.9192C18.663 13.9192 19.2003 13.3819 19.2003 12.7192C19.2003 12.0564 18.663 11.5192 18.0003 11.5192C17.3376 11.5192 16.8003 12.0564 16.8003 12.7192C16.8003 13.3819 17.3376 13.9192 18.0003 13.9192Z" fill="#7E8084"/>
<path d="M15.0003 10.9192C15.663 10.9192 16.2003 10.3819 16.2003 9.71916C16.2003 9.05642 15.663 8.51917 15.0003 8.51917C14.3376 8.51917 13.8003 9.05642 13.8003 9.71916C13.8003 10.3819 14.3376 10.9192 15.0003 10.9192Z" fill="#7E8084"/>
<path d="M16.0003 5.91917C16.663 5.91917 17.2003 5.38191 17.2003 4.71917C17.2003 4.05642 16.663 3.51917 16.0003 3.51917C15.3376 3.51917 14.8003 4.05642 14.8003 4.71917C14.8003 5.38191 15.3376 5.91917 16.0003 5.91917Z" fill="#7E8084"/>
<path d="M20.0003 8.91917C20.663 8.91917 21.2003 8.38191 21.2003 7.71916C21.2003 7.05642 20.663 6.51917 20.0003 6.51917C19.3376 6.51917 18.8003 7.05642 18.8003 7.71916C18.8003 8.38191 19.3376 8.91917 20.0003 8.91917Z" fill="#7E8084"/>
</g>
<defs>
<clipPath id="clip0">
<rect width="20" height="18.2" fill="white" transform="translate(2.00031 3.51917)"/>
</clipPath>
</defs>
</svg>
