<svg width="24" height="24" viewBox="0 0 24 24" fill="none" xmlns="http://www.w3.org/2000/svg">
<g clip-path="url(#clip0_1944_8857)">
<path d="M2 3.2H4V19.2H22V21.2H2V3.2Z" fill="#7E8084"/>
<path d="M7.00005 15.4C7.66279 15.4 8.20005 14.8627 8.20005 14.2C8.20005 13.5373 7.66279 13 7.00005 13C6.33731 13 5.80005 13.5373 5.80005 14.2C5.80005 14.8627 6.33731 15.4 7.00005 15.4Z" fill="#7E8084"/>
<path d="M13 15.4C13.6628 15.4 14.2 14.8627 14.2 14.2C14.2 13.5373 13.6628 13 13 13C12.3373 13 11.8 13.5373 11.8 14.2C11.8 14.8627 12.3373 15.4 13 15.4Z" fill="#7E8084"/>
<path d="M10 18.4C10.6628 18.4 11.2 17.8627 11.2 17.2C11.2 16.5373 10.6628 16 10 16C9.33731 16 8.80005 16.5373 8.80005 17.2C8.80005 17.8627 9.33731 18.4 10 18.4Z" fill="#7E8084"/>
<path d="M10 12.4C10.6628 12.4 11.2 11.8627 11.2 11.2C11.2 10.5373 10.6628 10 10 10C9.33731 10 8.80005 10.5373 8.80005 11.2C8.80005 11.8627 9.33731 12.4 10 12.4Z" fill="#7E8084"/>
<path d="M18 13.4C18.6628 13.4 19.2 12.8627 19.2 12.2C19.2 11.5373 18.6628 11 18 11C17.3373 11 16.8 11.5373 16.8 12.2C16.8 12.8627 17.3373 13.4 18 13.4Z" fill="#7E8084"/>
<path d="M15 10.4C15.6628 10.4 16.2 9.86274 16.2 9.2C16.2 8.53726 15.6628 8 15 8C14.3373 8 13.8 8.53726 13.8 9.2C13.8 9.86274 14.3373 10.4 15 10.4Z" fill="#7E8084"/>
<path d="M16 5.4C16.6628 5.4 17.2 4.86274 17.2 4.2C17.2 3.53726 16.6628 3 16 3C15.3373 3 14.8 3.53726 14.8 4.2C14.8 4.86274 15.3373 5.4 16 5.4Z" fill="#7E8084"/>
<path d="M20 8.4C20.6628 8.4 21.2001 7.86274 21.2001 7.2C21.2001 6.53726 20.6628 6 20 6C19.3373 6 18.8 6.53726 18.8 7.2C18.8 7.86274 19.3373 8.4 20 8.4Z" fill="#7E8084"/>
</g>
<defs>
<clipPath id="clip0_1944_8857">
<rect width="20" height="18.2" fill="white" transform="translate(2 3)"/>
</clipPath>
</defs>
</svg>
