<svg width="24" height="24" viewBox="0 0 24 24" fill="none" xmlns="http://www.w3.org/2000/svg">
<path opacity="0.24" d="M16.5 12C18.43 12 20 10.43 20 8.5C20 6.57 18.43 5 16.5 5C14.57 5 13 6.57 13 8.5C13 10.43 14.57 12 16.5 12Z" fill="#7E8084"/>
<path opacity="0.24" d="M15.0098 19C15.5621 19 16.0098 18.5523 16.0098 18C16.0098 17.4477 15.5621 17 15.0098 17C14.4575 17 14.0098 17.4477 14.0098 18C14.0098 18.5523 14.4575 19 15.0098 19Z" fill="#7E8084"/>
<path opacity="0.24" d="M7 16C8.10457 16 9 15.1046 9 14C9 12.8954 8.10457 12 7 12C5.89543 12 5 12.8954 5 14C5 15.1046 5.89543 16 7 16Z" fill="#7E8084"/>
<path fill-rule="evenodd" clip-rule="evenodd" d="M11 14C11 16.21 9.21 18 7 18C4.79 18 3 16.21 3 14C3 11.79 4.79 10 7 10C9.21 10 11 11.79 11 14ZM9 14C9 12.9 8.1 12 7 12C5.9 12 5 12.9 5 14C5 15.1 5.9 16 7 16C8.1 16 9 15.1 9 14Z" fill="#7E8084"/>
<path fill-rule="evenodd" clip-rule="evenodd" d="M15.0098 15C16.6598 15 18.0098 16.35 18.0098 18C18.0098 19.65 16.6598 21 15.0098 21C13.3598 21 12.0098 19.65 12.0098 18C12.0098 16.35 13.3598 15 15.0098 15ZM15.0098 17C14.4598 17 14.0098 17.45 14.0098 18C14.0098 18.55 14.4598 19 15.0098 19C15.5598 19 16.0098 18.55 16.0098 18C16.0098 17.45 15.5598 17 15.0098 17Z" fill="#7E8084"/>
<path fill-rule="evenodd" clip-rule="evenodd" d="M22 8.5C22 11.53 19.53 14 16.5 14C13.47 14 11 11.53 11 8.5C11 5.47 13.47 3 16.5 3C19.53 3 22 5.47 22 8.5ZM20 8.5C20 6.57 18.43 5 16.5 5C14.57 5 13 6.57 13 8.5C13 10.43 14.57 12 16.5 12C18.43 12 20 10.43 20 8.5Z" fill="#7E8084"/>
</svg>
