<svg width="24" height="24" viewBox="0 0 24 24" fill="none" xmlns="http://www.w3.org/2000/svg">
<path opacity="0.24" d="M5 5H20V8H5V5Z" fill="#7E8084"/>
<path opacity="0.24" d="M17 10H20V19H17V10Z" fill="#7E8084"/>
<path opacity="0.24" d="M10 10H15V19H10V10Z" fill="#7E8084"/>
<path opacity="0.24" d="M5 10H8V19H5V10Z" fill="#7E8084"/>
<path fill-rule="evenodd" clip-rule="evenodd" d="M20 3H5C3.9 3 3 3.9 3 5V19C3 20.1 3.9 21 5 21H20C21.1 21 22 20.1 22 19V5C22 3.9 21.1 3 20 3ZM8 19H5V10H8V19ZM10 19H15V10H10V19ZM20 19H17V10H20V19ZM5 8H20V5H5V8Z" fill="#7E8084"/>
</svg>
