<svg width="24" height="25" viewBox="0 0 24 25" fill="none" xmlns="http://www.w3.org/2000/svg">
<path opacity="0.24" d="M5.00049 5.51917H20.0005V8.51917H5.00049V5.51917Z" fill="#7E8084"/>
<path opacity="0.24" d="M17.0005 10.5192H20.0005V19.5192H17.0005V10.5192Z" fill="#7E8084"/>
<path opacity="0.24" d="M10.0005 10.5192H15.0005V19.5192H10.0005V10.5192Z" fill="#7E8084"/>
<path opacity="0.24" d="M5.00049 10.5192H8.00049V19.5192H5.00049V10.5192Z" fill="#7E8084"/>
<path fill-rule="evenodd" clip-rule="evenodd" d="M20.0005 3.51917H5.00049C3.90049 3.51917 3.00049 4.41917 3.00049 5.51917V19.5192C3.00049 20.6192 3.90049 21.5192 5.00049 21.5192H20.0005C21.1005 21.5192 22.0005 20.6192 22.0005 19.5192V5.51917C22.0005 4.41917 21.1005 3.51917 20.0005 3.51917ZM8.00049 19.5192H5.00049V10.5192H8.00049V19.5192ZM10.0005 19.5192H15.0005V10.5192H10.0005V19.5192ZM20.0005 19.5192H17.0005V10.5192H20.0005V19.5192ZM5.00049 8.51917H20.0005V5.51917H5.00049V8.51917Z" fill="#7E8084"/>
</svg>
