<svg width="24" height="24" viewBox="0 0 24 24" fill="none" xmlns="http://www.w3.org/2000/svg">
<g clip-path="url(#clip0)">
<path d="M2 3.19995H4V19.2H22V21.2H2V3.19995Z" fill="#7E8084"/>
<path d="M6.9998 15.4C7.66255 15.4 8.1998 14.8627 8.1998 14.2C8.1998 13.5373 7.66255 13 6.9998 13C6.33706 13 5.7998 13.5373 5.7998 14.2C5.7998 14.8627 6.33706 15.4 6.9998 15.4Z" fill="#7E8084"/>
<path d="M12.9998 15.4C13.6625 15.4 14.1998 14.8627 14.1998 14.2C14.1998 13.5373 13.6625 13 12.9998 13C12.3371 13 11.7998 13.5373 11.7998 14.2C11.7998 14.8627 12.3371 15.4 12.9998 15.4Z" fill="#7E8084"/>
<path d="M9.9998 18.4C10.6625 18.4 11.1998 17.8627 11.1998 17.2C11.1998 16.5373 10.6625 16 9.9998 16C9.33706 16 8.7998 16.5373 8.7998 17.2C8.7998 17.8627 9.33706 18.4 9.9998 18.4Z" fill="#7E8084"/>
<path d="M9.9998 12.4C10.6625 12.4 11.1998 11.8627 11.1998 11.2C11.1998 10.5373 10.6625 10 9.9998 10C9.33706 10 8.7998 10.5373 8.7998 11.2C8.7998 11.8627 9.33706 12.4 9.9998 12.4Z" fill="#7E8084"/>
<path d="M17.9998 13.4C18.6625 13.4 19.1998 12.8627 19.1998 12.2C19.1998 11.5373 18.6625 11 17.9998 11C17.3371 11 16.7998 11.5373 16.7998 12.2C16.7998 12.8627 17.3371 13.4 17.9998 13.4Z" fill="#7E8084"/>
<path d="M14.9998 10.4C15.6625 10.4 16.1998 9.86274 16.1998 9.2C16.1998 8.53726 15.6625 8 14.9998 8C14.3371 8 13.7998 8.53726 13.7998 9.2C13.7998 9.86274 14.3371 10.4 14.9998 10.4Z" fill="#7E8084"/>
<path d="M15.9998 5.4C16.6625 5.4 17.1998 4.86274 17.1998 4.2C17.1998 3.53726 16.6625 3 15.9998 3C15.3371 3 14.7998 3.53726 14.7998 4.2C14.7998 4.86274 15.3371 5.4 15.9998 5.4Z" fill="#7E8084"/>
<path d="M19.9998 8.4C20.6625 8.4 21.1998 7.86274 21.1998 7.2C21.1998 6.53726 20.6625 6 19.9998 6C19.3371 6 18.7998 6.53726 18.7998 7.2C18.7998 7.86274 19.3371 8.4 19.9998 8.4Z" fill="#7E8084"/>
</g>
<defs>
<clipPath id="clip0">
<rect width="20" height="18.2" fill="white" transform="translate(2 3)"/>
</clipPath>
</defs>
</svg>
