<svg width="24" height="24" viewBox="0 0 24 24" fill="none" xmlns="http://www.w3.org/2000/svg">
<path opacity="0.24" d="M4 12.0001C4 16.0701 7.06 19.4401 11 19.9301V4.07007C7.06 4.56007 4 7.93007 4 12.0001Z" fill="#7E8084"/>
<path opacity="0.24" d="M13 19.93C16.61 19.48 19.48 16.61 19.93 13H13V19.93Z" fill="#7E8084"/>
<path opacity="0.24" d="M13 4.07007V11.0001H19.93C19.48 7.39007 16.61 4.52007 13 4.07007Z" fill="#7E8084"/>
<path fill-rule="evenodd" clip-rule="evenodd" d="M2 12C2 6.48 6.48 2 12 2C17.52 2 22 6.48 22 12C22 17.52 17.52 22 12 22C6.48 22 2 17.52 2 12ZM4 12C4 16.07 7.06 19.44 11 19.93V4.07C7.06 4.56 4 7.93 4 12ZM13 19.93V13H19.93C19.48 16.61 16.61 19.48 13 19.93ZM13 4.07V11H19.93C19.48 7.39 16.61 4.52 13 4.07Z" fill="#7E8084"/>
</svg>
