<svg width="24" height="25" viewBox="0 0 24 25" fill="none" xmlns="http://www.w3.org/2000/svg">
<path opacity="0.24" fill-rule="evenodd" clip-rule="evenodd" d="M5.00049 5.51917H19.0005V19.5192H5.00049V5.51917ZM7.00049 17.5192H9.00049V10.5192H7.00049V17.5192ZM13.0005 17.5192H11.0005V7.51917H13.0005V17.5192ZM15.0005 17.5192H17.0005V13.5192H15.0005V17.5192Z" fill="#7E8084"/>
<path fill-rule="evenodd" clip-rule="evenodd" d="M3.00049 19.5192V5.51917C3.00049 4.41917 3.90049 3.51917 5.00049 3.51917H19.0005C20.1005 3.51917 21.0005 4.41917 21.0005 5.51917V19.5192C21.0005 20.6192 20.1005 21.5192 19.0005 21.5192H5.00049C3.90049 21.5192 3.00049 20.6192 3.00049 19.5192ZM19.0005 5.51917H5.00049V19.5192H19.0005V5.51917Z" fill="#7E8084"/>
<path d="M7.00049 10.5192H9.00049V17.5192H7.00049V10.5192Z" fill="#7E8084"/>
<path d="M11.0005 7.51917H13.0005V17.5192H11.0005V7.51917Z" fill="#7E8084"/>
<path d="M15.0005 13.5192H17.0005V17.5192H15.0005V13.5192Z" fill="#7E8084"/>
</svg>
