<svg width="24" height="25" viewBox="0 0 24 25" fill="none" xmlns="http://www.w3.org/2000/svg">
<path opacity="0.24" d="M16.5005 12.5192C18.4305 12.5192 20.0005 10.9492 20.0005 9.01917C20.0005 7.08917 18.4305 5.51917 16.5005 5.51917C14.5705 5.51917 13.0005 7.08917 13.0005 9.01917C13.0005 10.9492 14.5705 12.5192 16.5005 12.5192Z" fill="#7E8084"/>
<path opacity="0.24" d="M15.0103 19.5192C15.5625 19.5192 16.0103 19.0714 16.0103 18.5192C16.0103 17.9669 15.5625 17.5192 15.0103 17.5192C14.458 17.5192 14.0103 17.9669 14.0103 18.5192C14.0103 19.0714 14.458 19.5192 15.0103 19.5192Z" fill="#7E8084"/>
<path opacity="0.24" d="M7.00049 16.5192C8.10506 16.5192 9.00049 15.6237 9.00049 14.5192C9.00049 13.4146 8.10506 12.5192 7.00049 12.5192C5.89592 12.5192 5.00049 13.4146 5.00049 14.5192C5.00049 15.6237 5.89592 16.5192 7.00049 16.5192Z" fill="#7E8084"/>
<path fill-rule="evenodd" clip-rule="evenodd" d="M11.0005 14.5192C11.0005 16.7292 9.21049 18.5192 7.00049 18.5192C4.79049 18.5192 3.00049 16.7292 3.00049 14.5192C3.00049 12.3092 4.79049 10.5192 7.00049 10.5192C9.21049 10.5192 11.0005 12.3092 11.0005 14.5192ZM9.00049 14.5192C9.00049 13.4192 8.10049 12.5192 7.00049 12.5192C5.90049 12.5192 5.00049 13.4192 5.00049 14.5192C5.00049 15.6192 5.90049 16.5192 7.00049 16.5192C8.10049 16.5192 9.00049 15.6192 9.00049 14.5192Z" fill="#7E8084"/>
<path fill-rule="evenodd" clip-rule="evenodd" d="M15.0103 15.5192C16.6603 15.5192 18.0103 16.8692 18.0103 18.5192C18.0103 20.1692 16.6603 21.5192 15.0103 21.5192C13.3603 21.5192 12.0103 20.1692 12.0103 18.5192C12.0103 16.8692 13.3603 15.5192 15.0103 15.5192ZM15.0103 17.5192C14.4603 17.5192 14.0103 17.9692 14.0103 18.5192C14.0103 19.0692 14.4603 19.5192 15.0103 19.5192C15.5603 19.5192 16.0103 19.0692 16.0103 18.5192C16.0103 17.9692 15.5603 17.5192 15.0103 17.5192Z" fill="#7E8084"/>
<path fill-rule="evenodd" clip-rule="evenodd" d="M22.0005 9.01917C22.0005 12.0492 19.5305 14.5192 16.5005 14.5192C13.4705 14.5192 11.0005 12.0492 11.0005 9.01917C11.0005 5.98917 13.4705 3.51917 16.5005 3.51917C19.5305 3.51917 22.0005 5.98917 22.0005 9.01917ZM20.0005 9.01917C20.0005 7.08917 18.4305 5.51917 16.5005 5.51917C14.5705 5.51917 13.0005 7.08917 13.0005 9.01917C13.0005 10.9492 14.5705 12.5192 16.5005 12.5192C18.4305 12.5192 20.0005 10.9492 20.0005 9.01917Z" fill="#7E8084"/>
</svg>
