<svg width="24" height="25" viewBox="0 0 24 25" fill="none" xmlns="http://www.w3.org/2000/svg">
<path opacity="0.24" d="M4.00049 12.5192C4.00049 16.5892 7.06049 19.9592 11.0005 20.4492V4.58917C7.06049 5.07917 4.00049 8.44917 4.00049 12.5192Z" fill="#7E8084"/>
<path opacity="0.24" d="M13.0005 20.4492C16.6105 19.9992 19.4805 17.1292 19.9305 13.5192H13.0005V20.4492Z" fill="#7E8084"/>
<path opacity="0.24" d="M13.0005 4.58917V11.5192H19.9305C19.4805 7.90917 16.6105 5.03917 13.0005 4.58917Z" fill="#7E8084"/>
<path fill-rule="evenodd" clip-rule="evenodd" d="M2.00049 12.5192C2.00049 6.99917 6.48049 2.51917 12.0005 2.51917C17.5205 2.51917 22.0005 6.99917 22.0005 12.5192C22.0005 18.0392 17.5205 22.5192 12.0005 22.5192C6.48049 22.5192 2.00049 18.0392 2.00049 12.5192ZM4.00049 12.5192C4.00049 16.5892 7.06049 19.9592 11.0005 20.4492V4.58916C7.06049 5.07916 4.00049 8.44916 4.00049 12.5192ZM13.0005 20.4492V13.5192H19.9305C19.4805 17.1292 16.6105 19.9992 13.0005 20.4492ZM13.0005 4.58916V11.5192H19.9305C19.4805 7.90916 16.6105 5.03917 13.0005 4.58916Z" fill="#7E8084"/>
</svg>
