<svg width="24" height="25" viewBox="0 0 24 25" fill="none" xmlns="http://www.w3.org/2000/svg">
<g clip-path="url(#clip0)">
<path d="M22.0003 20.0192V22.0192H2.00031V4.01917H4.00031V16.5192L9.50031 7.01917L16.0003 10.8192L20.2003 3.51917L22.0003 4.51917L16.8003 13.6192L10.2003 9.81917L4.30031 20.0192H6.60031" fill="#7E8084"/>
<path opacity="0.24" d="M18.0003 15.0192H22.0003V21.1192H18.0003V15.0192ZM16.0003 21.0192H12.0003V11.0192H16.0003V21.0192ZM10.0003 21.0192H6.00031V13.9192H10.0003V21.0192Z" fill="#7E8084"/>
<path d="M17.0003 18.8192L2.50031 11.2192L3.50031 9.51917L16.5003 16.3192L20.3003 12.1192L21.7003 13.4192L17.0003 18.8192Z" fill="#7E8084"/>
</g>
<defs>
<clipPath id="clip0">
<rect width="20" height="18.5" fill="white" transform="translate(2.00031 3.51917)"/>
</clipPath>
</defs>
</svg>
