<svg width="24" height="25" viewBox="0 0 24 25" fill="none" xmlns="http://www.w3.org/2000/svg">
<path opacity="0.24" d="M4.00031 12.5192C4.00031 16.5892 7.06031 19.9592 11.0003 20.4492V4.58917C7.06031 5.07917 4.00031 8.44917 4.00031 12.5192Z" fill="#7E8084"/>
<path opacity="0.24" d="M13.0003 20.4492C16.6103 19.9992 19.4803 17.1292 19.9303 13.5192H13.0003V20.4492Z" fill="#7E8084"/>
<path opacity="0.24" d="M13.0003 4.58917V11.5192H19.9303C19.4803 7.90917 16.6103 5.03917 13.0003 4.58917Z" fill="#7E8084"/>
<path fill-rule="evenodd" clip-rule="evenodd" d="M2.00031 12.5192C2.00031 6.99917 6.48031 2.51917 12.0003 2.51917C17.5203 2.51917 22.0003 6.99917 22.0003 12.5192C22.0003 18.0392 17.5203 22.5192 12.0003 22.5192C6.48031 22.5192 2.00031 18.0392 2.00031 12.5192ZM4.00031 12.5192C4.00031 16.5892 7.06031 19.9592 11.0003 20.4492V4.58916C7.06031 5.07916 4.00031 8.44916 4.00031 12.5192ZM13.0003 20.4492V13.5192H19.9303C19.4803 17.1292 16.6103 19.9992 13.0003 20.4492ZM13.0003 4.58916V11.5192H19.9303C19.4803 7.90916 16.6103 5.03917 13.0003 4.58916Z" fill="#7E8084"/>
</svg>
