<svg width="24" height="25" viewBox="0 0 24 25" fill="none" xmlns="http://www.w3.org/2000/svg">
<path opacity="0.24" d="M16.5003 12.5192C18.4303 12.5192 20.0003 10.9492 20.0003 9.01917C20.0003 7.08917 18.4303 5.51917 16.5003 5.51917C14.5703 5.51917 13.0003 7.08917 13.0003 9.01917C13.0003 10.9492 14.5703 12.5192 16.5003 12.5192Z" fill="#7E8084"/>
<path opacity="0.24" d="M15.0103 19.5192C15.5626 19.5192 16.0103 19.0714 16.0103 18.5192C16.0103 17.9669 15.5626 17.5192 15.0103 17.5192C14.458 17.5192 14.0103 17.9669 14.0103 18.5192C14.0103 19.0714 14.458 19.5192 15.0103 19.5192Z" fill="#7E8084"/>
<path opacity="0.24" d="M7.00031 16.5192C8.10487 16.5192 9.00031 15.6237 9.00031 14.5192C9.00031 13.4146 8.10487 12.5192 7.00031 12.5192C5.89574 12.5192 5.00031 13.4146 5.00031 14.5192C5.00031 15.6237 5.89574 16.5192 7.00031 16.5192Z" fill="#7E8084"/>
<path fill-rule="evenodd" clip-rule="evenodd" d="M11.0003 14.5192C11.0003 16.7292 9.21031 18.5192 7.00031 18.5192C4.79031 18.5192 3.00031 16.7292 3.00031 14.5192C3.00031 12.3092 4.79031 10.5192 7.00031 10.5192C9.21031 10.5192 11.0003 12.3092 11.0003 14.5192ZM9.00031 14.5192C9.00031 13.4192 8.10031 12.5192 7.00031 12.5192C5.90031 12.5192 5.00031 13.4192 5.00031 14.5192C5.00031 15.6192 5.90031 16.5192 7.00031 16.5192C8.10031 16.5192 9.00031 15.6192 9.00031 14.5192Z" fill="#7E8084"/>
<path fill-rule="evenodd" clip-rule="evenodd" d="M15.0103 15.5192C16.6603 15.5192 18.0103 16.8692 18.0103 18.5192C18.0103 20.1692 16.6603 21.5192 15.0103 21.5192C13.3603 21.5192 12.0103 20.1692 12.0103 18.5192C12.0103 16.8692 13.3603 15.5192 15.0103 15.5192ZM15.0103 17.5192C14.4603 17.5192 14.0103 17.9692 14.0103 18.5192C14.0103 19.0692 14.4603 19.5192 15.0103 19.5192C15.5603 19.5192 16.0103 19.0692 16.0103 18.5192C16.0103 17.9692 15.5603 17.5192 15.0103 17.5192Z" fill="#7E8084"/>
<path fill-rule="evenodd" clip-rule="evenodd" d="M22.0003 9.01917C22.0003 12.0492 19.5303 14.5192 16.5003 14.5192C13.4703 14.5192 11.0003 12.0492 11.0003 9.01917C11.0003 5.98917 13.4703 3.51917 16.5003 3.51917C19.5303 3.51917 22.0003 5.98917 22.0003 9.01917ZM20.0003 9.01917C20.0003 7.08917 18.4303 5.51917 16.5003 5.51917C14.5703 5.51917 13.0003 7.08917 13.0003 9.01917C13.0003 10.9492 14.5703 12.5192 16.5003 12.5192C18.4303 12.5192 20.0003 10.9492 20.0003 9.01917Z" fill="#7E8084"/>
</svg>
