<svg width="24" height="24" viewBox="0 0 24 24" fill="none" xmlns="http://www.w3.org/2000/svg">
<g clip-path="url(#clip0)">
<path d="M2 3.2H4V19.2H22V21.2H2V3.2Z" fill="#7E8085"/>
<path d="M6.99999 15.4C7.66273 15.4 8.19999 14.8627 8.19999 14.2C8.19999 13.5373 7.66273 13 6.99999 13C6.33725 13 5.79999 13.5373 5.79999 14.2C5.79999 14.8627 6.33725 15.4 6.99999 15.4Z" fill="#7E8085"/>
<path d="M13 15.4C13.6627 15.4 14.2 14.8627 14.2 14.2C14.2 13.5373 13.6627 13 13 13C12.3372 13 11.8 13.5373 11.8 14.2C11.8 14.8627 12.3372 15.4 13 15.4Z" fill="#7E8085"/>
<path d="M9.99999 18.4C10.6627 18.4 11.2 17.8627 11.2 17.2C11.2 16.5373 10.6627 16 9.99999 16C9.33725 16 8.79999 16.5373 8.79999 17.2C8.79999 17.8627 9.33725 18.4 9.99999 18.4Z" fill="#7E8085"/>
<path d="M9.99999 12.4C10.6627 12.4 11.2 11.8627 11.2 11.2C11.2 10.5373 10.6627 10 9.99999 10C9.33725 10 8.79999 10.5373 8.79999 11.2C8.79999 11.8627 9.33725 12.4 9.99999 12.4Z" fill="#7E8085"/>
<path d="M18 13.4C18.6627 13.4 19.2 12.8627 19.2 12.2C19.2 11.5373 18.6627 11 18 11C17.3372 11 16.8 11.5373 16.8 12.2C16.8 12.8627 17.3372 13.4 18 13.4Z" fill="#7E8085"/>
<path d="M15 10.4C15.6627 10.4 16.2 9.86274 16.2 9.2C16.2 8.53726 15.6627 8 15 8C14.3372 8 13.8 8.53726 13.8 9.2C13.8 9.86274 14.3372 10.4 15 10.4Z" fill="#7E8085"/>
<path d="M16 5.4C16.6627 5.4 17.2 4.86274 17.2 4.2C17.2 3.53726 16.6627 3 16 3C15.3372 3 14.8 3.53726 14.8 4.2C14.8 4.86274 15.3372 5.4 16 5.4Z" fill="#7E8085"/>
<path d="M20 8.4C20.6627 8.4 21.2 7.86274 21.2 7.2C21.2 6.53726 20.6627 6 20 6C19.3372 6 18.8 6.53726 18.8 7.2C18.8 7.86274 19.3372 8.4 20 8.4Z" fill="#7E8085"/>
</g>
<defs>
<clipPath id="clip0">
<rect width="20" height="18.2" fill="white" transform="translate(2 3)"/>
</clipPath>
</defs>
</svg>
