<svg width="24" height="25" viewBox="0 0 24 25" fill="none" xmlns="http://www.w3.org/2000/svg">
<path opacity="0.24" d="M5.00031 5.51917H20.0003V8.51917H5.00031V5.51917Z" fill="#7E8084"/>
<path opacity="0.24" d="M17.0003 10.5192H20.0003V19.5192H17.0003V10.5192Z" fill="#7E8084"/>
<path opacity="0.24" d="M10.0003 10.5192H15.0003V19.5192H10.0003V10.5192Z" fill="#7E8084"/>
<path opacity="0.24" d="M5.00031 10.5192H8.00031V19.5192H5.00031V10.5192Z" fill="#7E8084"/>
<path fill-rule="evenodd" clip-rule="evenodd" d="M20.0003 3.51917H5.00031C3.90031 3.51917 3.00031 4.41917 3.00031 5.51917V19.5192C3.00031 20.6192 3.90031 21.5192 5.00031 21.5192H20.0003C21.1003 21.5192 22.0003 20.6192 22.0003 19.5192V5.51917C22.0003 4.41917 21.1003 3.51917 20.0003 3.51917ZM8.00031 19.5192H5.00031V10.5192H8.00031V19.5192ZM10.0003 19.5192H15.0003V10.5192H10.0003V19.5192ZM20.0003 19.5192H17.0003V10.5192H20.0003V19.5192ZM5.00031 8.51917H20.0003V5.51917H5.00031V8.51917Z" fill="#7E8084"/>
</svg>
