<svg width="24" height="24" viewBox="0 0 24 24" fill="none" xmlns="http://www.w3.org/2000/svg">
<path opacity="0.24" fill-rule="evenodd" clip-rule="evenodd" d="M4 12C4 7.59 7.59 4 12 4C16.41 4 20 7.59 20 12C20 16.41 16.41 20 12 20C7.59 20 4 16.41 4 12ZM6 13L10 17L18 9L16.59 7.58L10 14.17L7.41 11.59L6 13Z" fill="#7E8084"/>
<path fill-rule="evenodd" clip-rule="evenodd" d="M2 12C2 6.48 6.48 2 12 2C17.52 2 22 6.48 22 12C22 17.52 17.52 22 12 22C6.48 22 2 17.52 2 12ZM4 12C4 16.41 7.59 20 12 20C16.41 20 20 16.41 20 12C20 7.59 16.41 4 12 4C7.59 4 4 7.59 4 12Z" fill="#7E8084"/>
<path d="M16.59 7.58008L10 14.1701L7.41 11.5901L6 13.0001L10 17.0001L18 9.00008L16.59 7.58008Z" fill="#7E8084"/>
</svg>
