<svg width="24" height="25" viewBox="0 0 24 25" fill="none" xmlns="http://www.w3.org/2000/svg">
<path opacity="0.24" fill-rule="evenodd" clip-rule="evenodd" d="M4.02051 12.5192C4.02051 8.11918 7.60051 4.53918 12.0005 4.53918C16.4005 4.53918 19.9805 8.11918 19.9805 12.5192C19.9805 16.9192 16.4005 20.4992 12.0005 20.4992C7.60051 20.4992 4.02051 16.9192 4.02051 12.5192ZM11.3905 14.0192V19.5192L15.7505 11.0192H12.7505V5.51918L8.25051 14.0192H11.3905Z" fill="#7E8084"/>
<path fill-rule="evenodd" clip-rule="evenodd" d="M12.0005 2.53918C6.49051 2.53918 2.02051 7.00918 2.02051 12.5192C2.02051 18.0292 6.49051 22.4992 12.0005 22.4992C17.5105 22.4992 21.9805 18.0292 21.9805 12.5192C21.9805 7.00918 17.5105 2.53918 12.0005 2.53918ZM12.0005 20.4992C7.60051 20.4992 4.02051 16.9192 4.02051 12.5192C4.02051 8.11918 7.60051 4.53918 12.0005 4.53918C16.4005 4.53918 19.9805 8.11918 19.9805 12.5192C19.9805 16.9192 16.4005 20.4992 12.0005 20.4992ZM8.25051 14.0192L12.7505 5.51918V11.0192H15.7505L11.3905 19.5192V14.0192H8.25051Z" fill="#7E8084"/>
</svg>
