<svg width="24" height="25" viewBox="0 0 24 25" fill="none" xmlns="http://www.w3.org/2000/svg">
<path fill-rule="evenodd" clip-rule="evenodd" d="M2.00031 12.5192C2.00031 6.99917 6.48031 2.51917 12.0003 2.51917C17.5203 2.51917 22.0003 6.99917 22.0003 12.5192C22.0003 18.0392 17.5203 22.5192 12.0003 22.5192C6.48031 22.5192 2.00031 18.0392 2.00031 12.5192ZM4.00031 12.5192C4.00031 16.9292 7.59031 20.5192 12.0003 20.5192C16.4103 20.5192 20.0003 16.9292 20.0003 12.5192C20.0003 8.10917 16.4103 4.51917 12.0003 4.51917C7.59031 4.51917 4.00031 8.10917 4.00031 12.5192Z" fill="#7E8084"/>
<path d="M16.5903 8.09918L10.0003 14.6892L7.41031 12.1092L6.00031 13.5192L10.0003 17.5192L18.0003 9.51918L16.5903 8.09918Z" fill="#7E8084"/>
</svg>
