<svg width="24" height="25" viewBox="0 0 24 25" fill="none" xmlns="http://www.w3.org/2000/svg">
<g clip-path="url(#clip0)">
<path d="M12 20.5192C7.6 20.5192 4 16.9192 4 12.5192C4 8.11916 7.6 4.51917 12 4.51917C16.4 4.51917 20 8.11916 20 12.5192C20 16.9192 16.4 20.5192 12 20.5192ZM12 2.51917C6.5 2.51917 2 7.01917 2 12.5192C2 18.0192 6.5 22.5192 12 22.5192C17.5 22.5192 22 18.0192 22 12.5192C22 7.01917 17.5 2.51917 12 2.51917ZM14.6 8.51917L12 11.1192L9.4 8.51917L8 9.91917L10.6 12.5192L8 15.1192L9.4 16.5192L12 13.9192L14.6 16.5192L16 15.1192L13.4 12.5192L16 9.91917L14.6 8.51917Z" fill="#7E8084"/>
</g>
<defs>
<clipPath id="clip0">
<rect width="20" height="20" fill="white" transform="translate(2 2.51917)"/>
</clipPath>
</defs>
</svg>
