<svg width="24" height="24" viewBox="0 0 24 24" fill="none" xmlns="http://www.w3.org/2000/svg">
<path opacity="0.3" fill-rule="evenodd" clip-rule="evenodd" d="M4.01999 12C4.01999 7.60002 7.59999 4.02002 12 4.02002C16.4 4.02002 19.98 7.60002 19.98 12C19.98 16.4 16.4 19.98 12 19.98C7.59999 19.98 4.01999 16.4 4.01999 12ZM11.39 13.5V19L15.75 10.5H12.75V5.00002L8.24999 13.5H11.39Z" fill="#7E8085"/>
<path fill-rule="evenodd" clip-rule="evenodd" d="M12 2.02002C6.48999 2.02002 2.01999 6.49002 2.01999 12C2.01999 17.51 6.48999 21.98 12 21.98C17.51 21.98 21.98 17.51 21.98 12C21.98 6.49002 17.51 2.02002 12 2.02002ZM12 19.98C7.59999 19.98 4.01999 16.4 4.01999 12C4.01999 7.60002 7.59999 4.02002 12 4.02002C16.4 4.02002 19.98 7.60002 19.98 12C19.98 16.4 16.4 19.98 12 19.98ZM8.24999 13.5L12.75 5.00002V10.5H15.75L11.39 19V13.5H8.24999Z" fill="#7E8085"/>
</svg>
