<svg width="24" height="25" viewBox="0 0 24 25" fill="none" xmlns="http://www.w3.org/2000/svg">
<path opacity="0.24" fill-rule="evenodd" clip-rule="evenodd" d="M4 12.5192C4 8.10917 7.59 4.51917 12 4.51917C16.41 4.51917 20 8.10917 20 12.5192C20 16.9292 16.41 20.5192 12 20.5192C7.59 20.5192 4 16.9292 4 12.5192ZM15.59 17.5192L17 16.1092L13.41 12.5192L17 8.92916L15.59 7.51917L12 11.1092L8.41 7.51917L7 8.92916L10.59 12.5192L7 16.1092L8.41 17.5192L12 13.9292L15.59 17.5192Z" fill="#7E8084"/>
<path fill-rule="evenodd" clip-rule="evenodd" d="M2 12.5192C2 6.98916 6.47 2.51917 12 2.51917C17.53 2.51917 22 6.98916 22 12.5192C22 18.0492 17.53 22.5192 12 22.5192C6.47 22.5192 2 18.0492 2 12.5192ZM4 12.5192C4 16.9292 7.59 20.5192 12 20.5192C16.41 20.5192 20 16.9292 20 12.5192C20 8.10917 16.41 4.51917 12 4.51917C7.59 4.51917 4 8.10917 4 12.5192Z" fill="#7E8084"/>
<path d="M15.59 7.51917L12 11.1092L8.41 7.51917L7 8.92917L10.59 12.5192L7 16.1092L8.41 17.5192L12 13.9292L15.59 17.5192L17 16.1092L13.41 12.5192L17 8.92917L15.59 7.51917Z" fill="#7E8084"/>
</svg>
