<svg width="24" height="25" viewBox="0 0 24 25" fill="none" xmlns="http://www.w3.org/2000/svg">
<g clip-path="url(#clip0)">
<path d="M12.0001 20.5192C7.60006 20.5192 4.00006 16.9192 4.00006 12.5192C4.00006 8.11916 7.60006 4.51917 12.0001 4.51917C16.4001 4.51917 20.0001 8.11916 20.0001 12.5192C20.0001 16.9192 16.4001 20.5192 12.0001 20.5192ZM12.0001 2.51917C6.50006 2.51917 2.00006 7.01917 2.00006 12.5192C2.00006 18.0192 6.50006 22.5192 12.0001 22.5192C17.5001 22.5192 22.0001 18.0192 22.0001 12.5192C22.0001 7.01917 17.5001 2.51917 12.0001 2.51917ZM14.6001 8.51917L12.0001 11.1192L9.40006 8.51917L8.00006 9.91917L10.6001 12.5192L8.00006 15.1192L9.40006 16.5192L12.0001 13.9192L14.6001 16.5192L16.0001 15.1192L13.4001 12.5192L16.0001 9.91917L14.6001 8.51917Z" fill="#7E8084"/>
</g>
<defs>
<clipPath id="clip0">
<rect width="20" height="20" fill="white" transform="translate(2.00006 2.51917)"/>
</clipPath>
</defs>
</svg>
