<svg width="24" height="25" viewBox="0 0 24 25" fill="none" xmlns="http://www.w3.org/2000/svg">
<path fill-rule="evenodd" clip-rule="evenodd" d="M2 12.5192C2 6.99917 6.48 2.51917 12 2.51917C17.52 2.51917 22 6.99917 22 12.5192C22 18.0392 17.52 22.5192 12 22.5192C6.48 22.5192 2 18.0392 2 12.5192ZM13 11.5192V17.5192H11V11.5192H13ZM12 20.5192C7.59 20.5192 4 16.9292 4 12.5192C4 8.10917 7.59 4.51917 12 4.51917C16.41 4.51917 20 8.10917 20 12.5192C20 16.9292 16.41 20.5192 12 20.5192ZM13 7.51917V9.51917H11V7.51917H13Z" fill="#7E8084"/>
</svg>
