<svg width="24" height="25" viewBox="0 0 24 25" fill="none" xmlns="http://www.w3.org/2000/svg">
<path opacity="0.24" fill-rule="evenodd" clip-rule="evenodd" d="M4 12.5192C4 8.10917 7.59 4.51917 12 4.51917C16.41 4.51917 20 8.10917 20 12.5192C20 16.9292 16.41 20.5192 12 20.5192C7.59 20.5192 4 16.9292 4 12.5192ZM7 13.5192H17V11.5192H7V13.5192Z" fill="#7E8084"/>
<path d="M7 11.5192H17V13.5192H7V11.5192Z" fill="#7E8084"/>
<path fill-rule="evenodd" clip-rule="evenodd" d="M2 12.5192C2 6.99917 6.48 2.51917 12 2.51917C17.52 2.51917 22 6.99917 22 12.5192C22 18.0392 17.52 22.5192 12 22.5192C6.48 22.5192 2 18.0392 2 12.5192ZM4 12.5192C4 16.9292 7.59 20.5192 12 20.5192C16.41 20.5192 20 16.9292 20 12.5192C20 8.10917 16.41 4.51917 12 4.51917C7.59 4.51917 4 8.10917 4 12.5192Z" fill="#7E8084"/>
</svg>
