<svg width="24" height="25" viewBox="0 0 24 25" fill="none" xmlns="http://www.w3.org/2000/svg">
<path opacity="0.24" d="M12.0005 4.51917C7.60049 4.51917 4.00049 8.11916 4.00049 12.5192C4.00049 16.9192 7.60049 20.5192 12.0005 20.5192C16.4005 20.5192 20.0005 16.9192 20.0005 12.5192C20.0005 8.11916 16.4005 4.51917 12.0005 4.51917ZM17.0005 13.5192H13.0005V17.5192H11.0005V13.5192H7.00049V11.5192H11.0005V7.51917H13.0005V11.5192H17.0005V13.5192Z" fill="#7E8084"/>
<path d="M13.0005 7.51917H11.0005V11.5192H7.00049V13.5192H11.0005V17.5192H13.0005V13.5192H17.0005V11.5192H13.0005V7.51917ZM12.0005 2.51917C6.50049 2.51917 2.00049 7.01917 2.00049 12.5192C2.00049 18.0192 6.50049 22.5192 12.0005 22.5192C17.5005 22.5192 22.0005 18.0192 22.0005 12.5192C22.0005 7.01917 17.5005 2.51917 12.0005 2.51917ZM12.0005 20.5192C7.60049 20.5192 4.00049 16.9192 4.00049 12.5192C4.00049 8.11916 7.60049 4.51917 12.0005 4.51917C16.4005 4.51917 20.0005 8.11916 20.0005 12.5192C20.0005 16.9192 16.4005 20.5192 12.0005 20.5192Z" fill="#7E8084"/>
</svg>
