<svg width="24" height="25" viewBox="0 0 24 25" fill="none" xmlns="http://www.w3.org/2000/svg">
<path opacity="0.24" fill-rule="evenodd" clip-rule="evenodd" d="M4.02032 12.5192C4.02032 8.11915 7.60032 4.53915 12.0003 4.53915C16.4003 4.53915 19.9803 8.11915 19.9803 12.5192C19.9803 16.9192 16.4003 20.4992 12.0003 20.4992C7.60032 20.4992 4.02032 16.9192 4.02032 12.5192ZM11.3903 14.0192V19.5192L15.7503 11.0192H12.7503V5.51915L8.25032 14.0192H11.3903Z" fill="#7E8084"/>
<path fill-rule="evenodd" clip-rule="evenodd" d="M12.0003 2.53915C6.49032 2.53915 2.02032 7.00915 2.02032 12.5192C2.02032 18.0292 6.49032 22.4992 12.0003 22.4992C17.5103 22.4992 21.9803 18.0292 21.9803 12.5192C21.9803 7.00915 17.5103 2.53915 12.0003 2.53915ZM12.0003 20.4992C7.60032 20.4992 4.02032 16.9192 4.02032 12.5192C4.02032 8.11915 7.60032 4.53915 12.0003 4.53915C16.4003 4.53915 19.9803 8.11915 19.9803 12.5192C19.9803 16.9192 16.4003 20.4992 12.0003 20.4992ZM8.25032 14.0192L12.7503 5.51915V11.0192H15.7503L11.3903 19.5192V14.0192H8.25032Z" fill="#7E8084"/>
</svg>
