<svg width="24" height="25" viewBox="0 0 24 25" fill="none" xmlns="http://www.w3.org/2000/svg">
<path opacity="0.24" d="M12.0003 4.51917C7.60031 4.51917 4.00031 8.11916 4.00031 12.5192C4.00031 16.9192 7.60031 20.5192 12.0003 20.5192C16.4003 20.5192 20.0003 16.9192 20.0003 12.5192C20.0003 8.11916 16.4003 4.51917 12.0003 4.51917ZM17.0003 13.5192H13.0003V17.5192H11.0003V13.5192H7.00031V11.5192H11.0003V7.51917H13.0003V11.5192H17.0003V13.5192Z" fill="#7E8084"/>
<path d="M13.0003 7.51917H11.0003V11.5192H7.00031V13.5192H11.0003V17.5192H13.0003V13.5192H17.0003V11.5192H13.0003V7.51917ZM12.0003 2.51917C6.50031 2.51917 2.00031 7.01917 2.00031 12.5192C2.00031 18.0192 6.50031 22.5192 12.0003 22.5192C17.5003 22.5192 22.0003 18.0192 22.0003 12.5192C22.0003 7.01917 17.5003 2.51917 12.0003 2.51917ZM12.0003 20.5192C7.60031 20.5192 4.00031 16.9192 4.00031 12.5192C4.00031 8.11916 7.60031 4.51917 12.0003 4.51917C16.4003 4.51917 20.0003 8.11916 20.0003 12.5192C20.0003 16.9192 16.4003 20.5192 12.0003 20.5192Z" fill="#7E8084"/>
</svg>
