<svg width="24" height="25" viewBox="0 0 24 25" fill="none" xmlns="http://www.w3.org/2000/svg">
<path opacity="0.24" d="M12.0001 4.51917C7.60006 4.51917 4.00006 8.11916 4.00006 12.5192C4.00006 16.9192 7.60006 20.5192 12.0001 20.5192C16.4001 20.5192 20.0001 16.9192 20.0001 12.5192C20.0001 8.11916 16.4001 4.51917 12.0001 4.51917ZM13.0001 17.5192H11.0001V11.5192H13.0001V17.5192ZM13.0001 9.51917H11.0001V7.51917H13.0001V9.51917Z" fill="#7E8084"/>
<path d="M11.0001 7.51917H13.0001V9.51917H11.0001V7.51917ZM11.0001 11.5192H13.0001V17.5192H11.0001V11.5192ZM12.0001 2.51917C6.50006 2.51917 2.00006 7.01917 2.00006 12.5192C2.00006 18.0192 6.50006 22.5192 12.0001 22.5192C17.5001 22.5192 22.0001 18.0192 22.0001 12.5192C22.0001 7.01917 17.5001 2.51917 12.0001 2.51917ZM12.0001 20.5192C7.60006 20.5192 4.00006 16.9192 4.00006 12.5192C4.00006 8.11916 7.60006 4.51917 12.0001 4.51917C16.4001 4.51917 20.0001 8.11916 20.0001 12.5192C20.0001 16.9192 16.4001 20.5192 12.0001 20.5192Z" fill="#7E8084"/>
</svg>
