<svg width="24" height="25" viewBox="0 0 24 25" fill="none" xmlns="http://www.w3.org/2000/svg">
<path fill-rule="evenodd" clip-rule="evenodd" d="M2.00049 12.5192C2.00049 6.99917 6.48049 2.51917 12.0005 2.51917C17.5205 2.51917 22.0005 6.99917 22.0005 12.5192C22.0005 18.0392 17.5205 22.5192 12.0005 22.5192C6.48049 22.5192 2.00049 18.0392 2.00049 12.5192ZM4.00049 12.5192C4.00049 16.9292 7.59049 20.5192 12.0005 20.5192C16.4105 20.5192 20.0005 16.9292 20.0005 12.5192C20.0005 8.10917 16.4105 4.51917 12.0005 4.51917C7.59049 4.51917 4.00049 8.10917 4.00049 12.5192Z" fill="#7E8084"/>
<path d="M16.5905 8.09912L10.0005 14.6891L7.41049 12.1091L6.00049 13.5191L10.0005 17.5191L18.0005 9.51912L16.5905 8.09912Z" fill="#7E8084"/>
</svg>
