<svg width="24" height="25" viewBox="0 0 24 25" fill="none" xmlns="http://www.w3.org/2000/svg">
<path fill-rule="evenodd" clip-rule="evenodd" d="M2.00006 12.5192C2.00006 6.99917 6.48006 2.51917 12.0001 2.51917C17.5201 2.51917 22.0001 6.99917 22.0001 12.5192C22.0001 18.0392 17.5201 22.5192 12.0001 22.5192C6.48006 22.5192 2.00006 18.0392 2.00006 12.5192ZM13.0001 11.5192V17.5192H11.0001V11.5192H13.0001ZM12.0001 20.5192C7.59006 20.5192 4.00006 16.9292 4.00006 12.5192C4.00006 8.10917 7.59006 4.51917 12.0001 4.51917C16.4101 4.51917 20.0001 8.10917 20.0001 12.5192C20.0001 16.9292 16.4101 20.5192 12.0001 20.5192ZM13.0001 7.51917V9.51917H11.0001V7.51917H13.0001Z" fill="#7E8084"/>
</svg>
