<svg width="24" height="25" viewBox="0 0 24 25" fill="none" xmlns="http://www.w3.org/2000/svg">
<path opacity="0.24" d="M19.2 12.5192L17.7 12.4192L17.4 10.9192C16.9 8.41916 14.6 6.51917 12 6.51917C9.9 6.51917 8.1 7.61917 7.1 9.51917L6.6 10.4192L5.5 10.5192C3.5 10.7192 2 12.4192 2 14.5192C2 16.7192 3.8 18.5192 6 18.5192H19C20.6 18.5192 22 17.1192 22 15.5192C22 13.9192 20.8 12.6192 19.2 12.5192ZM12 17.5192L8 13.5192H10.6V10.5192H13.5V13.5192H16L12 17.5192Z" fill="#7E8084"/>
<path d="M19.4 10.5192C18.7 7.11916 15.7 4.51917 12 4.51917C9.1 4.51917 6.6 6.11916 5.3 8.51917C2.3 8.91917 0 11.4192 0 14.5192C0 17.8192 2.7 20.5192 6 20.5192H19C21.8 20.5192 24 18.3192 24 15.5192C24 12.9192 22 10.7192 19.4 10.5192ZM19 18.5192H6C3.8 18.5192 2 16.7192 2 14.5192C2 12.4192 3.5 10.7192 5.6 10.5192L6.7 10.4192L7.1 9.51917C8.1 7.61916 9.9 6.51917 12 6.51917C14.6 6.51917 16.9 8.41916 17.4 10.9192L17.7 12.4192L19.2 12.5192C20.8 12.6192 22 13.9192 22 15.5192C22 17.1192 20.6 18.5192 19 18.5192ZM13.4 10.5192H10.5V13.5192H8L12 17.5192L16 13.5192H13.4V10.5192Z" fill="#7E8084"/>
</svg>
