<svg width="24" height="24" viewBox="0 0 24 24" fill="none" xmlns="http://www.w3.org/2000/svg">
<path opacity="0.3" fill-rule="evenodd" clip-rule="evenodd" d="M17.68 11.93L19.21 12.04C20.78 12.14 22 13.45 22 15C22 16.65 20.65 18 19 18H6C3.79 18 2 16.21 2 14C2 11.95 3.53 10.24 5.55 10.02L6.62 9.91L7.12 8.96C8.08 7.14 9.94 6 12 6C14.62 6 16.88 7.86 17.38 10.43L17.68 11.93ZM13.45 16V13H16L12 9L8 13H10.54V16H13.45Z" fill="#7E8085"/>
<path fill-rule="evenodd" clip-rule="evenodd" d="M12 4C15.64 4 18.67 6.59 19.35 10.04C21.95 10.22 24 12.36 24 15C24 17.76 21.76 20 19 20H6C2.69 20 0 17.31 0 14C0 10.91 2.34 8.36 5.35 8.04C6.6 5.64 9.11 4 12 4ZM6 18H19C20.65 18 22 16.65 22 15C22 13.45 20.78 12.14 19.22 12.04L17.69 11.93L17.39 10.43C16.88 7.86 14.62 6 12 6C9.94 6 8.08 7.14 7.13 8.97L6.63 9.92L5.56 10.03C3.53 10.24 2 11.95 2 14C2 16.21 3.79 18 6 18Z" fill="#7E8085"/>
<path d="M8 13H10.55V16H13.45V13H16L12 9L8 13Z" fill="#7E8085"/>
</svg>
