<svg width="24" height="24" viewBox="0 0 24 24" fill="none" xmlns="http://www.w3.org/2000/svg">
<path opacity="0.24" d="M19.2 12L17.7 11.9L17.4 10.4C16.9 7.9 14.6 6 12 6C9.9 6 8.1 7.1 7.1 9L6.6 9.9L5.5 10C3.5 10.2 2 11.9 2 14C2 16.2 3.8 18 6 18H19C20.6 18 22 16.6 22 15C22 13.4 20.8 12.1 19.2 12ZM12 17L8 13H10.6V10H13.5V13H16L12 17Z" fill="#7E8084"/>
<path d="M19.4 10C18.7 6.6 15.7 4 12 4C9.1 4 6.6 5.6 5.3 8C2.3 8.4 0 10.9 0 14C0 17.3 2.7 20 6 20H19C21.8 20 24 17.8 24 15C24 12.4 22 10.2 19.4 10ZM19 18H6C3.8 18 2 16.2 2 14C2 11.9 3.5 10.2 5.6 10L6.7 9.9L7.1 9C8.1 7.1 9.9 6 12 6C14.6 6 16.9 7.9 17.4 10.4L17.7 11.9L19.2 12C20.8 12.1 22 13.4 22 15C22 16.6 20.6 18 19 18ZM13.4 10H10.5V13H8L12 17L16 13H13.4V10Z" fill="#7E8084"/>
</svg>
