<svg width="24" height="25" viewBox="0 0 24 25" fill="none" xmlns="http://www.w3.org/2000/svg">
<path opacity="0.24" fill-rule="evenodd" clip-rule="evenodd" d="M17.68 12.4492L19.21 12.5592C20.78 12.6592 22 13.9692 22 15.5192C22 17.1692 20.65 18.5192 19 18.5192H6C3.79 18.5192 2 16.7292 2 14.5192C2 12.4692 3.53 10.7592 5.55 10.5392L6.62 10.4292L7.12 9.47917C8.08 7.65917 9.94 6.51917 12 6.51917C14.62 6.51917 16.88 8.37916 17.38 10.9492L17.68 12.4492ZM13.45 16.5192V13.5192H16L12 9.51917L8 13.5192H10.54V16.5192H13.45Z" fill="#7E8084"/>
<path fill-rule="evenodd" clip-rule="evenodd" d="M12 4.51917C15.64 4.51917 18.67 7.10916 19.35 10.5592C21.95 10.7392 24 12.8792 24 15.5192C24 18.2792 21.76 20.5192 19 20.5192H6C2.69 20.5192 0 17.8292 0 14.5192C0 11.4292 2.34 8.87917 5.35 8.55917C6.6 6.15916 9.11 4.51917 12 4.51917ZM6 18.5192H19C20.65 18.5192 22 17.1692 22 15.5192C22 13.9692 20.78 12.6592 19.22 12.5592L17.69 12.4492L17.39 10.9492C16.88 8.37916 14.62 6.51917 12 6.51917C9.94 6.51917 8.08 7.65916 7.13 9.48917L6.63 10.4392L5.56 10.5492C3.53 10.7592 2 12.4692 2 14.5192C2 16.7292 3.79 18.5192 6 18.5192Z" fill="#7E8084"/>
<path d="M8 13.5192H10.55V16.5192H13.45V13.5192H16L12 9.51917L8 13.5192Z" fill="#7E8084"/>
</svg>
