<svg width="24" height="25" viewBox="0 0 24 25" fill="none" xmlns="http://www.w3.org/2000/svg">
<path opacity="0.24" fill-rule="evenodd" clip-rule="evenodd" d="M17.6801 12.4492L19.2101 12.5592C20.7801 12.6592 22.0001 13.9692 22.0001 15.5192C22.0001 17.1692 20.6501 18.5192 19.0001 18.5192H6.00006C3.79006 18.5192 2.00006 16.7292 2.00006 14.5192C2.00006 12.4692 3.53006 10.7592 5.55006 10.5392L6.62006 10.4292L7.12006 9.47917C8.08006 7.65917 9.94006 6.51917 12.0001 6.51917C14.6201 6.51917 16.8801 8.37916 17.3801 10.9492L17.6801 12.4492ZM13.4501 16.5192V13.5192H16.0001L12.0001 9.51917L8.00006 13.5192H10.5401V16.5192H13.4501Z" fill="#7E8084"/>
<path fill-rule="evenodd" clip-rule="evenodd" d="M12.0001 4.51917C15.6401 4.51917 18.6701 7.10916 19.3501 10.5592C21.9501 10.7392 24.0001 12.8792 24.0001 15.5192C24.0001 18.2792 21.7601 20.5192 19.0001 20.5192H6.00006C2.69006 20.5192 6.10352e-05 17.8292 6.10352e-05 14.5192C6.10352e-05 11.4292 2.34006 8.87917 5.35006 8.55917C6.60006 6.15916 9.11006 4.51917 12.0001 4.51917ZM6.00006 18.5192H19.0001C20.6501 18.5192 22.0001 17.1692 22.0001 15.5192C22.0001 13.9692 20.7801 12.6592 19.2201 12.5592L17.6901 12.4492L17.3901 10.9492C16.8801 8.37916 14.6201 6.51917 12.0001 6.51917C9.94006 6.51917 8.08006 7.65916 7.13006 9.48917L6.63006 10.4392L5.56006 10.5492C3.53006 10.7592 2.00006 12.4692 2.00006 14.5192C2.00006 16.7292 3.79006 18.5192 6.00006 18.5192Z" fill="#7E8084"/>
<path d="M8.00006 13.5192H10.5501V16.5192H13.4501V13.5192H16.0001L12.0001 9.51917L8.00006 13.5192Z" fill="#7E8084"/>
</svg>
