<svg width="24" height="25" viewBox="0 0 24 25" fill="none" xmlns="http://www.w3.org/2000/svg">
<g clip-path="url(#clip0)">
<path opacity="0.24" d="M19.2001 12.5192L17.7001 12.4192L17.4001 10.9192C16.9001 8.41916 14.6001 6.51917 12.0001 6.51917C9.90006 6.51917 8.10006 7.61917 7.10006 9.51917L6.60006 10.4192L5.50006 10.5192C3.50006 10.7192 2.00006 12.4192 2.00006 14.5192C2.00006 16.7192 3.80006 18.5192 6.00006 18.5192H19.0001C20.6001 18.5192 22.0001 17.1192 22.0001 15.5192C22.0001 13.9192 20.8001 12.6192 19.2001 12.5192Z" fill="#7E8084"/>
<path d="M19.4001 10.5192C18.7001 7.11916 15.7001 4.51917 12.0001 4.51917C9.10006 4.51917 6.60006 6.11916 5.30006 8.51917C2.30006 8.91917 6.10352e-05 11.4192 6.10352e-05 14.5192C6.10352e-05 17.8192 2.70006 20.5192 6.00006 20.5192H19.0001C21.8001 20.5192 24.0001 18.3192 24.0001 15.5192C24.0001 12.9192 22.0001 10.7192 19.4001 10.5192ZM19.0001 18.5192H6.00006C3.80006 18.5192 2.00006 16.7192 2.00006 14.5192C2.00006 12.4192 3.50006 10.7192 5.60006 10.5192L6.70006 10.4192L7.10006 9.51917C8.10006 7.61916 9.90006 6.51917 12.0001 6.51917C14.6001 6.51917 16.9001 8.41916 17.4001 10.9192L17.7001 12.4192L19.2001 12.5192C20.8001 12.6192 22.0001 13.9192 22.0001 15.5192C22.0001 17.1192 20.6001 18.5192 19.0001 18.5192Z" fill="#7E8084"/>
</g>
<defs>
<clipPath id="clip0">
<rect width="24" height="24" fill="white" transform="translate(6.10352e-05 0.519165)"/>
</clipPath>
</defs>
</svg>
