<svg width="24" height="24" viewBox="0 0 24 24" fill="none" xmlns="http://www.w3.org/2000/svg">
<path opacity="0.24" d="M19.21 13.04L17.68 12.93L17.38 11.43C16.88 8.86 14.62 7 12 7C9.94 7 8.08 8.14 7.12 9.96L6.62 10.91L5.55 11.02C3.53 11.24 2 12.95 2 15C2 17.21 3.79 19 6 19H19C20.65 19 22 17.65 22 16C22 14.45 20.78 13.14 19.21 13.04Z" fill="#7E8084"/>
<path fill-rule="evenodd" clip-rule="evenodd" d="M12 5C15.64 5 18.67 7.59 19.35 11.04C21.95 11.22 24 13.36 24 16C24 18.76 21.76 21 19 21H6C2.69 21 0 18.31 0 15C0 11.91 2.34 9.36 5.35 9.04C6.6 6.64 9.11 5 12 5ZM6 19H19C20.65 19 22 17.65 22 16C22 14.45 20.78 13.14 19.22 13.04L17.69 12.93L17.39 11.43C16.88 8.86 14.62 7 12 7C9.94 7 8.08 8.14 7.13 9.97L6.63 10.92L5.56 11.03C3.53 11.24 2 12.95 2 15C2 17.21 3.79 19 6 19Z" fill="#7E8084"/>
<path fill-rule="evenodd" clip-rule="evenodd" d="M6 5C6 6.65 4.65 8 3 8C1.35 8 0 6.65 0 5C0 3.35 1.35 2 3 2C4.65 2 6 3.35 6 5ZM4 5C4 4.45 3.55 4 3 4C2.45 4 2 4.45 2 5C2 5.55 2.45 6 3 6C3.55 6 4 5.55 4 5Z" fill="#7E8084"/>
<path d="M8.14286 11.5C7.83975 11.5 7.54906 11.6149 7.33474 11.8195C7.12041 12.0241 7 12.3016 7 12.5909V15.8636C7 16.153 7.12041 16.4304 7.33474 16.635C7.54906 16.8396 7.83975 16.9545 8.14286 16.9545H9.85714V15.8636H8.14286V12.5909H9.85714V11.5H8.14286ZM11.5714 11.5C11.2683 11.5 10.9776 11.6149 10.7633 11.8195C10.549 12.0241 10.4286 12.3016 10.4286 12.5909V15.8636C10.4286 16.153 10.549 16.4304 10.7633 16.635C10.9776 16.8396 11.2683 16.9545 11.5714 16.9545H12.7143C13.0174 16.9545 13.3081 16.8396 13.5224 16.635C13.7367 16.4304 13.8571 16.153 13.8571 15.8636V12.5909C13.8571 12.3016 13.7367 12.0241 13.5224 11.8195C13.3081 11.6149 13.0174 11.5 12.7143 11.5H11.5714ZM11.5714 12.5909H12.7143V15.8636H11.5714V12.5909ZM14.4286 13.4091V14.2273H16.1429V15.0455H15.2857C15.0584 15.0455 14.8404 15.1317 14.6796 15.2851C14.5189 15.4385 14.4286 15.6466 14.4286 15.8636V17.5H17V16.6818H15.2857V15.8636H16.1429C16.3702 15.8636 16.5882 15.7774 16.7489 15.624C16.9097 15.4706 17 15.2625 17 15.0455V14.2273C17 14.0103 16.9097 13.8022 16.7489 13.6487C16.5882 13.4953 16.3702 13.4091 16.1429 13.4091H14.4286Z" fill="#7E8084"/>
</svg>
