<svg width="24" height="25" viewBox="0 0 24 25" fill="none" xmlns="http://www.w3.org/2000/svg">
<path opacity="0.24" d="M19.21 13.5592L17.68 13.4492L17.38 11.9492C16.88 9.37916 14.62 7.51917 12 7.51917C9.94 7.51917 8.08 8.65917 7.12 10.4792L6.62 11.4292L5.55 11.5392C3.53 11.7592 2 13.4692 2 15.5192C2 17.7292 3.79 19.5192 6 19.5192H19C20.65 19.5192 22 18.1692 22 16.5192C22 14.9692 20.78 13.6592 19.21 13.5592Z" fill="#7E8084"/>
<path fill-rule="evenodd" clip-rule="evenodd" d="M12 5.51917C15.64 5.51917 18.67 8.10916 19.35 11.5592C21.95 11.7392 24 13.8792 24 16.5192C24 19.2792 21.76 21.5192 19 21.5192H6C2.69 21.5192 0 18.8292 0 15.5192C0 12.4292 2.34 9.87917 5.35 9.55917C6.6 7.15916 9.11 5.51917 12 5.51917ZM6 19.5192H19C20.65 19.5192 22 18.1692 22 16.5192C22 14.9692 20.78 13.6592 19.22 13.5592L17.69 13.4492L17.39 11.9492C16.88 9.37916 14.62 7.51917 12 7.51917C9.94 7.51917 8.08 8.65916 7.13 10.4892L6.63 11.4392L5.56 11.5492C3.53 11.7592 2 13.4692 2 15.5192C2 17.7292 3.79 19.5192 6 19.5192Z" fill="#7E8084"/>
<path fill-rule="evenodd" clip-rule="evenodd" d="M6 5.51917C6 7.16917 4.65 8.51917 3 8.51917C1.35 8.51917 0 7.16917 0 5.51917C0 3.86917 1.35 2.51917 3 2.51917C4.65 2.51917 6 3.86917 6 5.51917ZM4 5.51917C4 4.96917 3.55 4.51917 3 4.51917C2.45 4.51917 2 4.96917 2 5.51917C2 6.06916 2.45 6.51917 3 6.51917C3.55 6.51917 4 6.06916 4 5.51917Z" fill="#7E8084"/>
<path d="M8.14286 12.0192C7.83975 12.0192 7.54906 12.1341 7.33474 12.3387C7.12041 12.5433 7 12.8207 7 13.1101V16.3828C7 16.6721 7.12041 16.9496 7.33474 17.1542C7.54906 17.3588 7.83975 17.4737 8.14286 17.4737H9.85714V16.3828H8.14286V13.1101H9.85714V12.0192H8.14286ZM11.5714 12.0192C11.2683 12.0192 10.9776 12.1341 10.7633 12.3387C10.549 12.5433 10.4286 12.8207 10.4286 13.1101V16.3828C10.4286 16.6721 10.549 16.9496 10.7633 17.1542C10.9776 17.3588 11.2683 17.4737 11.5714 17.4737H12.7143C13.0174 17.4737 13.3081 17.3588 13.5224 17.1542C13.7367 16.9496 13.8571 16.6721 13.8571 16.3828V13.1101C13.8571 12.8207 13.7367 12.5433 13.5224 12.3387C13.3081 12.1341 13.0174 12.0192 12.7143 12.0192H11.5714ZM11.5714 13.1101H12.7143V16.3828H11.5714V13.1101ZM14.4286 13.9283V14.7464H16.1429V15.5646H15.2857C15.0584 15.5646 14.8404 15.6508 14.6796 15.8043C14.5189 15.9577 14.4286 16.1658 14.4286 16.3828V18.0192H17V17.201H15.2857V16.3828H16.1429C16.3702 16.3828 16.5882 16.2966 16.7489 16.1432C16.9097 15.9897 17 15.7816 17 15.5646V14.7464C17 14.5294 16.9097 14.3213 16.7489 14.1679C16.5882 14.0145 16.3702 13.9283 16.1429 13.9283H14.4286Z" fill="#7E8084"/>
</svg>
