<svg width="24" height="25" viewBox="0 0 24 25" fill="none" xmlns="http://www.w3.org/2000/svg">
<path opacity="0.24" d="M19.2101 13.5592L17.6801 13.4492L17.3801 11.9492C16.8801 9.37916 14.6201 7.51917 12.0001 7.51917C9.94006 7.51917 8.08006 8.65917 7.12006 10.4792L6.62006 11.4292L5.55006 11.5392C3.53006 11.7592 2.00006 13.4692 2.00006 15.5192C2.00006 17.7292 3.79006 19.5192 6.00006 19.5192H19.0001C20.6501 19.5192 22.0001 18.1692 22.0001 16.5192C22.0001 14.9692 20.7801 13.6592 19.2101 13.5592Z" fill="#7E8084"/>
<path fill-rule="evenodd" clip-rule="evenodd" d="M12.0001 5.51917C15.6401 5.51917 18.6701 8.10916 19.3501 11.5592C21.9501 11.7392 24.0001 13.8792 24.0001 16.5192C24.0001 19.2792 21.7601 21.5192 19.0001 21.5192H6.00006C2.69006 21.5192 6.10352e-05 18.8292 6.10352e-05 15.5192C6.10352e-05 12.4292 2.34006 9.87917 5.35006 9.55917C6.60006 7.15916 9.11006 5.51917 12.0001 5.51917ZM6.00006 19.5192H19.0001C20.6501 19.5192 22.0001 18.1692 22.0001 16.5192C22.0001 14.9692 20.7801 13.6592 19.2201 13.5592L17.6901 13.4492L17.3901 11.9492C16.8801 9.37916 14.6201 7.51917 12.0001 7.51917C9.94006 7.51917 8.08006 8.65916 7.13006 10.4892L6.63006 11.4392L5.56006 11.5492C3.53006 11.7592 2.00006 13.4692 2.00006 15.5192C2.00006 17.7292 3.79006 19.5192 6.00006 19.5192Z" fill="#7E8084"/>
<path fill-rule="evenodd" clip-rule="evenodd" d="M6.00006 5.51917C6.00006 7.16917 4.65006 8.51917 3.00006 8.51917C1.35006 8.51917 6.10352e-05 7.16917 6.10352e-05 5.51917C6.10352e-05 3.86917 1.35006 2.51917 3.00006 2.51917C4.65006 2.51917 6.00006 3.86917 6.00006 5.51917ZM4.00006 5.51917C4.00006 4.96917 3.55006 4.51917 3.00006 4.51917C2.45006 4.51917 2.00006 4.96917 2.00006 5.51917C2.00006 6.06916 2.45006 6.51917 3.00006 6.51917C3.55006 6.51917 4.00006 6.06916 4.00006 5.51917Z" fill="#7E8084"/>
<path d="M8.14292 12.0192C7.83981 12.0192 7.54912 12.1341 7.3348 12.3387C7.12047 12.5433 7.00006 12.8207 7.00006 13.1101V16.3828C7.00006 16.6721 7.12047 16.9496 7.3348 17.1542C7.54912 17.3588 7.83981 17.4737 8.14292 17.4737H9.8572V16.3828H8.14292V13.1101H9.8572V12.0192H8.14292ZM11.5715 12.0192C11.2684 12.0192 10.9777 12.1341 10.7634 12.3387C10.549 12.5433 10.4286 12.8207 10.4286 13.1101V16.3828C10.4286 16.6721 10.549 16.9496 10.7634 17.1542C10.9777 17.3588 11.2684 17.4737 11.5715 17.4737H12.7143C13.0175 17.4737 13.3081 17.3588 13.5225 17.1542C13.7368 16.9496 13.8572 16.6721 13.8572 16.3828V13.1101C13.8572 12.8207 13.7368 12.5433 13.5225 12.3387C13.3081 12.1341 13.0175 12.0192 12.7143 12.0192H11.5715ZM11.5715 13.1101H12.7143V16.3828H11.5715V13.1101ZM14.4286 13.9283V14.7464H16.1429V15.5646H15.2858C15.0584 15.5646 14.8404 15.6508 14.6797 15.8043C14.5189 15.9577 14.4286 16.1658 14.4286 16.3828V18.0192H17.0001V17.201H15.2858V16.3828H16.1429C16.3702 16.3828 16.5883 16.2966 16.749 16.1432C16.9098 15.9897 17.0001 15.7816 17.0001 15.5646V14.7464C17.0001 14.5294 16.9098 14.3213 16.749 14.1679C16.5883 14.0145 16.3702 13.9283 16.1429 13.9283H14.4286Z" fill="#7E8084"/>
</svg>
