<svg width="24" height="25" viewBox="0 0 24 25" fill="none" xmlns="http://www.w3.org/2000/svg">
<path d="M5 7.51917C4.46957 7.51917 3.96086 7.72988 3.58579 8.10495C3.21071 8.48002 3 8.98873 3 9.51917V15.5192C3 16.0496 3.21071 16.5583 3.58579 16.9334C3.96086 17.3085 4.46957 17.5192 5 17.5192H8V15.5192H5V9.51917H8V7.51917H5ZM11 7.51917C10.4696 7.51917 9.96086 7.72988 9.58579 8.10495C9.21071 8.48002 9 8.98873 9 9.51917V15.5192C9 16.0496 9.21071 16.5583 9.58579 16.9334C9.96086 17.3085 10.4696 17.5192 11 17.5192H13C13.5304 17.5192 14.0391 17.3085 14.4142 16.9334C14.7893 16.5583 15 16.0496 15 15.5192V9.51917C15 8.98873 14.7893 8.48002 14.4142 8.10495C14.0391 7.72988 13.5304 7.51917 13 7.51917H11ZM11 9.51917H13V15.5192H11V9.51917ZM16 11.0192V12.5192H19V14.0192H17.5C17.1022 14.0192 16.7206 14.1772 16.4393 14.4585C16.158 14.7398 16 15.1213 16 15.5192V18.5192H20.5V17.0192H17.5V15.5192H19C19.3978 15.5192 19.7794 15.3611 20.0607 15.0798C20.342 14.7985 20.5 14.417 20.5 14.0192V12.5192C20.5 12.1213 20.342 11.7398 20.0607 11.4585C19.7794 11.1772 19.3978 11.0192 19 11.0192H16Z" fill="#7E8084"/>
</svg>
