<svg width="24" height="24" viewBox="0 0 24 24" fill="none" xmlns="http://www.w3.org/2000/svg">
<path d="M5 7C4.46957 7 3.96086 7.21071 3.58579 7.58579C3.21071 7.96086 3 8.46957 3 9V15C3 15.5304 3.21071 16.0391 3.58579 16.4142C3.96086 16.7893 4.46957 17 5 17H8V15H5V9H8V7H5ZM11 7C10.4696 7 9.96086 7.21071 9.58579 7.58579C9.21071 7.96086 9 8.46957 9 9V15C9 15.5304 9.21071 16.0391 9.58579 16.4142C9.96086 16.7893 10.4696 17 11 17H13C13.5304 17 14.0391 16.7893 14.4142 16.4142C14.7893 16.0391 15 15.5304 15 15V9C15 8.46957 14.7893 7.96086 14.4142 7.58579C14.0391 7.21071 13.5304 7 13 7H11ZM11 9H13V15H11V9ZM16 10.5V12H19V13.5H17.5C17.1022 13.5 16.7206 13.658 16.4393 13.9393C16.158 14.2206 16 14.6022 16 15V18H20.5V16.5H17.5V15H19C19.3978 15 19.7794 14.842 20.0607 14.5607C20.342 14.2794 20.5 13.8978 20.5 13.5V12C20.5 11.6022 20.342 11.2206 20.0607 10.9393C19.7794 10.658 19.3978 10.5 19 10.5H16Z" fill="#7E8084"/>
</svg>
