<svg width="24" height="25" viewBox="0 0 24 25" fill="none" xmlns="http://www.w3.org/2000/svg">
<path d="M5.00006 7.51917C4.46963 7.51917 3.96092 7.72988 3.58585 8.10495C3.21077 8.48002 3.00006 8.98873 3.00006 9.51917V15.5192C3.00006 16.0496 3.21077 16.5583 3.58585 16.9334C3.96092 17.3085 4.46963 17.5192 5.00006 17.5192H8.00006V15.5192H5.00006V9.51917H8.00006V7.51917H5.00006ZM11.0001 7.51917C10.4696 7.51917 9.96092 7.72988 9.58585 8.10495C9.21077 8.48002 9.00006 8.98873 9.00006 9.51917V15.5192C9.00006 16.0496 9.21077 16.5583 9.58585 16.9334C9.96092 17.3085 10.4696 17.5192 11.0001 17.5192H13.0001C13.5305 17.5192 14.0392 17.3085 14.4143 16.9334C14.7893 16.5583 15.0001 16.0496 15.0001 15.5192V9.51917C15.0001 8.98873 14.7893 8.48002 14.4143 8.10495C14.0392 7.72988 13.5305 7.51917 13.0001 7.51917H11.0001ZM11.0001 9.51917H13.0001V15.5192H11.0001V9.51917ZM16.0001 11.0192V12.5192H19.0001V14.0192H17.5001C17.1022 14.0192 16.7207 14.1772 16.4394 14.4585C16.1581 14.7398 16.0001 15.1213 16.0001 15.5192V18.5192H20.5001V17.0192H17.5001V15.5192H19.0001C19.3979 15.5192 19.7794 15.3611 20.0607 15.0798C20.342 14.7985 20.5001 14.417 20.5001 14.0192V12.5192C20.5001 12.1213 20.342 11.7398 20.0607 11.4585C19.7794 11.1772 19.3979 11.0192 19.0001 11.0192H16.0001Z" fill="#7E8084"/>
</svg>
