<svg width="24" height="25" viewBox="0 0 24 25" fill="none" xmlns="http://www.w3.org/2000/svg">
<g clip-path="url(#clip0)">
<path d="M6.8 2.51917C6.8 2.51917 3 6.71916 3 9.21916C3 11.3192 4.7 13.0192 6.8 13.0192C8.9 13.0192 10.6 11.3192 10.6 9.21916C10.5 6.71916 6.8 2.51917 6.8 2.51917Z" fill="#7E8084"/>
<path d="M15 2.51917H21.5L19.2 7.11916H21.5L16.9 15.5192V10.3192H15V2.51917Z" fill="#7E8084"/>
<path d="M12.7999 12.7192C12.2999 12.8192 11.7999 13.1192 11.3999 13.4192C9.99992 14.5192 9.49992 16.6192 10.0999 18.2192C10.0999 18.3192 10.1999 18.3192 10.1999 18.4192C10.1999 18.5192 10.0999 18.6192 9.99992 18.7192C9.89992 18.7192 9.89992 18.7192 9.89992 18.7192C9.79992 18.7192 9.69992 18.6192 9.69992 18.6192C9.59992 18.6192 9.59992 18.5192 9.59992 18.5192C8.89992 17.8192 8.89992 16.7192 9.29992 15.8192C8.39992 16.6192 7.89992 17.8192 7.99992 19.0192C7.99992 19.3192 8.09992 19.5192 8.19992 19.8192C8.29992 20.1192 8.39992 20.5192 8.59992 20.7192C9.09992 21.6192 10.1999 22.3192 11.1999 22.4192C11.3999 22.5192 11.6999 22.5192 11.8999 22.5192C12.7999 22.5192 13.7999 22.2192 14.4999 21.6192C15.4999 20.7192 15.8999 19.3192 15.2999 18.0192C15.2999 18.0192 15.0999 17.3192 14.3999 16.7192C13.9999 16.4192 13.5999 16.2192 13.2999 15.8192C12.4999 15.0192 12.2999 13.7192 12.7999 12.7192Z" fill="#7E8084"/>
</g>
<defs>
<clipPath id="clip0">
<rect width="18.5" height="20" fill="white" transform="translate(3 2.51917)"/>
</clipPath>
</defs>
</svg>
