<svg width="24" height="24" viewBox="0 0 24 24" fill="none" xmlns="http://www.w3.org/2000/svg">
<g clip-path="url(#clip0)">
<path d="M6.8 2C6.8 2 3 6.2 3 8.7C3 10.8 4.7 12.5 6.8 12.5C8.9 12.5 10.6 10.8 10.6 8.7C10.5 6.2 6.8 2 6.8 2Z" fill="#7E8085"/>
<path d="M15 2H21.5L19.2 6.6H21.5L16.9 15V9.8H15V2Z" fill="#7E8085"/>
<path d="M12.8 12.2C12.3 12.3 11.8 12.6 11.4 12.9C9.99998 14 9.49998 16.1 10.1 17.7C10.1 17.8 10.2 17.8 10.2 17.9C10.2 18 10.1 18.1 9.99998 18.2C9.89998 18.2 9.89998 18.2 9.89998 18.2C9.79998 18.2 9.69998 18.1 9.69998 18.1C9.59998 18.1 9.59998 18 9.59998 18C8.89998 17.3 8.89998 16.2 9.29998 15.3C8.39998 16.1 7.89998 17.3 7.99998 18.5C7.99998 18.8 8.09998 19 8.19998 19.3C8.29998 19.6 8.39998 20 8.59998 20.2C9.09998 21.1 10.2 21.8 11.2 21.9C11.4 22 11.7 22 11.9 22C12.8 22 13.8 21.7 14.5 21.1C15.5 20.2 15.9 18.8 15.3 17.5C15.3 17.5 15.1 16.8 14.4 16.2C14 15.9 13.6 15.7 13.3 15.3C12.5 14.5 12.3 13.2 12.8 12.2Z" fill="#7E8085"/>
</g>
<defs>
<clipPath id="clip0">
<rect width="18.5" height="20" fill="white" transform="translate(3 2)"/>
</clipPath>
</defs>
</svg>
