<svg width="24" height="25" viewBox="0 0 24 25" fill="none" xmlns="http://www.w3.org/2000/svg">
<g clip-path="url(#clip0)">
<path d="M6.80006 2.51917C6.80006 2.51917 3.00006 6.71916 3.00006 9.21916C3.00006 11.3192 4.70006 13.0192 6.80006 13.0192C8.90006 13.0192 10.6001 11.3192 10.6001 9.21916C10.5001 6.71916 6.80006 2.51917 6.80006 2.51917Z" fill="#7E8084"/>
<path d="M15.0001 2.51917H21.5001L19.2001 7.11916H21.5001L16.9001 15.5192V10.3192H15.0001V2.51917Z" fill="#7E8084"/>
<path d="M12.8001 12.7192C12.3001 12.8192 11.8001 13.1192 11.4001 13.4192C10.0001 14.5192 9.50008 16.6192 10.1001 18.2192C10.1001 18.3192 10.2001 18.3192 10.2001 18.4192C10.2001 18.5192 10.1001 18.6192 10.0001 18.7192C9.90008 18.7192 9.90008 18.7192 9.90008 18.7192C9.80008 18.7192 9.70008 18.6192 9.70008 18.6192C9.60008 18.6192 9.60008 18.5192 9.60008 18.5192C8.90008 17.8192 8.90008 16.7192 9.30008 15.8192C8.40008 16.6192 7.90008 17.8192 8.00008 19.0192C8.00008 19.3192 8.10008 19.5192 8.20008 19.8192C8.30008 20.1192 8.40008 20.5192 8.60008 20.7192C9.10008 21.6192 10.2001 22.3192 11.2001 22.4192C11.4001 22.5192 11.7001 22.5192 11.9001 22.5192C12.8001 22.5192 13.8001 22.2192 14.5001 21.6192C15.5001 20.7192 15.9001 19.3192 15.3001 18.0192C15.3001 18.0192 15.1001 17.3192 14.4001 16.7192C14.0001 16.4192 13.6001 16.2192 13.3001 15.8192C12.5001 15.0192 12.3001 13.7192 12.8001 12.7192Z" fill="#7E8084"/>
</g>
<defs>
<clipPath id="clip0">
<rect width="18.5" height="20" fill="white" transform="translate(3.00006 2.51917)"/>
</clipPath>
</defs>
</svg>
