<svg width="26" height="27" viewBox="0 0 26 27" fill="none" xmlns="http://www.w3.org/2000/svg">
<path opacity="0.25" fill-rule="evenodd" clip-rule="evenodd" d="M19.75 11.5619C18.6048 10.7572 17.2091 10.2848 15.7031 10.2848C11.8112 10.2848 8.65625 13.4398 8.65625 17.3317C8.65625 18.6586 9.02299 19.8998 9.66065 20.9596H4.34375V4.78479H19.75V11.5619Z" fill="#7E8084"/>
<path d="M15.7084 12.4359C18.4167 12.4359 20.5834 14.6025 20.5834 17.3109C20.5834 18.2642 20.3126 19.1634 19.8359 19.9109L23.1726 23.2692L21.6667 24.775L18.2867 21.4492C17.5392 21.915 16.6509 22.1859 15.7084 22.1859C13.0001 22.1859 10.8334 20.0192 10.8334 17.3109C10.8334 14.6025 13.0001 12.4359 15.7084 12.4359ZM15.7084 14.6025C14.9901 14.6025 14.3012 14.8879 13.7933 15.3958C13.2854 15.9037 13.0001 16.5926 13.0001 17.3109C13.0001 18.0291 13.2854 18.718 13.7933 19.2259C14.3012 19.7338 14.9901 20.0192 15.7084 20.0192C16.4267 20.0192 17.1156 19.7338 17.6235 19.2259C18.1314 18.718 18.4167 18.0291 18.4167 17.3109C18.4167 16.5926 18.1314 15.9037 17.6235 15.3958C17.1156 14.8879 16.4267 14.6025 15.7084 14.6025ZM4.33341 2.68585H19.5001C20.7026 2.68585 21.6667 3.65002 21.6667 4.85252V13.5517C21.1251 12.685 20.3776 11.9375 19.5001 11.3525V4.85252H4.33341V20.0192H9.20842C9.54425 20.8317 10.0317 21.5575 10.6276 22.1859H4.33341C3.13091 22.1859 2.16675 21.2217 2.16675 20.0192V4.85252C2.16675 3.65002 3.13091 2.68585 4.33341 2.68585Z" fill="#7E8084"/>
<path fill-rule="evenodd" clip-rule="evenodd" d="M10.7925 12.2775C11.4181 11.6696 12.1563 11.1767 12.9727 10.8333V7.01917H10.7925V12.2775ZM17.4347 10.4991V8.10242H15.2681V10.298C15.412 10.2892 15.557 10.2848 15.7031 10.2848C16.3006 10.2848 16.8807 10.3591 17.4347 10.4991ZM8.5988 9.9906H6.43213V17.2829H8.5988V9.9906Z" fill="#7E8084"/>
</svg>
