<svg width="26" height="26" viewBox="0 0 26 26" fill="none" xmlns="http://www.w3.org/2000/svg">
<path opacity="0.25" fill-rule="evenodd" clip-rule="evenodd" d="M19.75 11.0428C18.6048 10.238 17.2091 9.76562 15.7031 9.76562C11.8112 9.76562 8.65625 12.9206 8.65625 16.8125C8.65625 18.1394 9.02299 19.3807 9.66065 20.4404H4.34375V4.26562H19.75V11.0428Z" fill="#7E8084"/>
<path d="M15.7084 11.9167C18.4167 11.9167 20.5834 14.0833 20.5834 16.7917C20.5834 17.745 20.3126 18.6442 19.8359 19.3917L23.1726 22.75L21.6667 24.2558L18.2867 20.93C17.5392 21.3958 16.6509 21.6667 15.7084 21.6667C13.0001 21.6667 10.8334 19.5 10.8334 16.7917C10.8334 14.0833 13.0001 11.9167 15.7084 11.9167ZM15.7084 14.0833C14.9901 14.0833 14.3012 14.3687 13.7933 14.8766C13.2854 15.3845 13.0001 16.0734 13.0001 16.7917C13.0001 17.51 13.2854 18.1988 13.7933 18.7068C14.3012 19.2147 14.9901 19.5 15.7084 19.5C16.4267 19.5 17.1156 19.2147 17.6235 18.7068C18.1314 18.1988 18.4167 17.51 18.4167 16.7917C18.4167 16.0734 18.1314 15.3845 17.6235 14.8766C17.1156 14.3687 16.4267 14.0833 15.7084 14.0833ZM4.33341 2.16667H19.5001C20.7026 2.16667 21.6667 3.13084 21.6667 4.33334V13.0325C21.1251 12.1658 20.3776 11.4183 19.5001 10.8333V4.33334H4.33341V19.5H9.20842C9.54425 20.3125 10.0317 21.0383 10.6276 21.6667H4.33341C3.13091 21.6667 2.16675 20.7025 2.16675 19.5V4.33334C2.16675 3.13084 3.13091 2.16667 4.33341 2.16667Z" fill="#7E8084"/>
<path fill-rule="evenodd" clip-rule="evenodd" d="M10.7925 11.7584C11.4181 11.1504 12.1563 10.6576 12.9727 10.3141V6.5H10.7925V11.7584ZM17.4347 9.97995V7.58325H15.2681V9.77884C15.412 9.77007 15.557 9.76562 15.7031 9.76562C16.3006 9.76562 16.8807 9.83998 17.4347 9.97995ZM8.5988 9.47144H6.43213V16.7637H8.5988V9.47144Z" fill="#7E8084"/>
</svg>
