<svg width="26" height="27" viewBox="0 0 26 27" fill="none" xmlns="http://www.w3.org/2000/svg">
<path opacity="0.25" fill-rule="evenodd" clip-rule="evenodd" d="M19.7501 11.5619C18.6049 10.7572 17.2092 10.2848 15.7032 10.2848C11.8113 10.2848 8.65631 13.4398 8.65631 17.3317C8.65631 18.6586 9.02306 19.8998 9.66071 20.9596H4.34381V4.78479H19.7501V11.5619Z" fill="#7E8084"/>
<path d="M15.7084 12.4358C18.4167 12.4358 20.5834 14.6025 20.5834 17.3108C20.5834 18.2642 20.3126 19.1633 19.8359 19.9108L23.1726 23.2692L21.6667 24.775L18.2867 21.4492C17.5392 21.915 16.6509 22.1858 15.7084 22.1858C13.0001 22.1858 10.8334 20.0192 10.8334 17.3108C10.8334 14.6025 13.0001 12.4358 15.7084 12.4358ZM15.7084 14.6025C14.9901 14.6025 14.3012 14.8878 13.7933 15.3958C13.2854 15.9037 13.0001 16.5925 13.0001 17.3108C13.0001 18.0291 13.2854 18.718 13.7933 19.2259C14.3012 19.7338 14.9901 20.0192 15.7084 20.0192C16.4267 20.0192 17.1156 19.7338 17.6235 19.2259C18.1314 18.718 18.4167 18.0291 18.4167 17.3108C18.4167 16.5925 18.1314 15.9037 17.6235 15.3958C17.1156 14.8878 16.4267 14.6025 15.7084 14.6025ZM4.33338 2.68584H19.5001C20.7026 2.68584 21.6667 3.65 21.6667 4.8525V13.5517C21.1251 12.685 20.3776 11.9375 19.5001 11.3525V4.8525H4.33338V20.0192H9.20838C9.54422 20.8317 10.0317 21.5575 10.6276 22.1858H4.33338C3.13088 22.1858 2.16672 21.2217 2.16672 20.0192V4.8525C2.16672 3.65 3.13088 2.68584 4.33338 2.68584Z" fill="#7E8084"/>
<path fill-rule="evenodd" clip-rule="evenodd" d="M10.7925 12.2775C11.4182 11.6696 12.1563 11.1767 12.9727 10.8333V7.01917H10.7925V12.2775ZM17.4348 10.4991V8.10242H15.2681V10.298C15.412 10.2892 15.5571 10.2848 15.7032 10.2848C16.3007 10.2848 16.8808 10.3591 17.4348 10.4991ZM8.59886 9.9906H6.43219V17.2829H8.59886V9.9906Z" fill="#7E8084"/>
</svg>
