<svg width="24" height="25" viewBox="0 0 24 25" fill="none" xmlns="http://www.w3.org/2000/svg">
<g clip-path="url(#clip0)">
<path d="M22.0001 11.5192H17.8001L21.0001 8.31917L19.6001 6.91917L15.0001 11.5192H13.0001V9.51917L17.7001 4.81916L16.3001 3.41917L13.0001 6.71916V2.51917H11.0001V6.71916L7.80006 3.41917L6.30006 4.81916L11.0001 9.51917V11.5192H9.00006L4.30006 6.81917L2.90006 8.31917L6.20006 11.5192H2.00006V13.5192H6.20006L3.00006 16.7192L4.40006 18.1192L9.00006 13.5192H11.0001V15.5192L6.30006 20.2192L7.70006 21.6192L11.0001 18.3192V22.5192H13.0001V18.3192L16.2001 21.5192L17.6001 20.1192L13.0001 15.5192V13.5192H15.0001L19.7001 18.2192L21.1001 16.8192L17.8001 13.5192H22.0001V11.5192Z" fill="#7E8084"/>
</g>
<defs>
<clipPath id="clip0">
<rect width="20" height="20" fill="white" transform="translate(2.00006 2.51917)"/>
</clipPath>
</defs>
</svg>
