<svg width="24" height="25" viewBox="0 0 24 25" fill="none" xmlns="http://www.w3.org/2000/svg">
<g clip-path="url(#clip0)">
<path d="M22 11.5192H17.8L21 8.31917L19.6 6.91917L15 11.5192H13V9.51917L17.7 4.81916L16.3 3.41917L13 6.71916V2.51917H11V6.71916L7.8 3.41917L6.3 4.81916L11 9.51917V11.5192H9L4.3 6.81917L2.9 8.31917L6.2 11.5192H2V13.5192H6.2L3 16.7192L4.4 18.1192L9 13.5192H11V15.5192L6.3 20.2192L7.7 21.6192L11 18.3192V22.5192H13V18.3192L16.2 21.5192L17.6 20.1192L13 15.5192V13.5192H15L19.7 18.2192L21.1 16.8192L17.8 13.5192H22V11.5192Z" fill="#7E8084"/>
</g>
<defs>
<clipPath id="clip0">
<rect width="20" height="20" fill="white" transform="translate(2 2.51917)"/>
</clipPath>
</defs>
</svg>
