<svg width="24" height="24" viewBox="0 0 24 24" fill="none" xmlns="http://www.w3.org/2000/svg">
<path d="M5 8H19V7H5V8Z" fill="#7E8084"/>
<path opacity="0.2" d="M5 7H19V6H5V7Z" fill="#7E8084"/>
<path d="M17 5H18H19C19.5477 5 20 5.45228 20 6V20C20 20.5477 19.5477 21 19 21H5C4.45228 21 4 20.5477 4 20V6C4 5.45228 4.45228 5 5 5H6H7H8H16H17Z" stroke="#7E8084" stroke-width="2"/>
<path d="M7.01916 15.3617C6.91916 14.8617 7.21916 14.2617 7.71916 14.1617L10.0192 13.4617L8.31916 11.8617C7.91916 11.4617 7.91916 10.8617 8.31916 10.3617C8.71916 9.9617 9.41916 9.9617 9.81916 10.3617L11.5192 12.0617L12.0192 9.7617C12.1192 9.1617 12.7192 8.8617 13.2192 9.0617C13.8192 9.1617 14.1192 9.7617 13.9192 10.3617L13.3192 12.5617L15.5192 11.9617C16.1192 11.7617 16.6192 12.0617 16.8192 12.6617C16.9192 13.1617 16.6192 13.7617 16.1192 13.8617L13.9192 14.4617L15.6192 16.1617C16.0192 16.5617 16.0192 17.2617 15.6192 17.6617C15.2192 18.0617 14.5192 18.0617 14.1192 17.6617L12.5192 15.9617L11.9192 18.2617C11.8192 18.8617 11.2192 19.1617 10.6192 18.9617C10.0192 18.8617 9.71916 18.2617 9.91916 17.6617L10.5192 15.4617L8.31916 16.0617C7.71916 16.1617 7.11916 15.8617 7.01916 15.3617Z" fill="#7E8084"/>
</svg>
