<svg width="24" height="25" viewBox="0 0 24 25" fill="none" xmlns="http://www.w3.org/2000/svg">
<g clip-path="url(#clip0)">
<path opacity="0.24" d="M6 4.51917H22V16.5192H6V4.51917Z" fill="#7E8084"/>
<path d="M6 4.51917H22V16.5192H6V4.51917ZM14 7.51917C15.7 7.51917 17 8.81917 17 10.5192C17 12.2192 15.7 13.5192 14 13.5192C12.3 13.5192 11 12.2192 11 10.5192C11 8.81917 12.3 7.51917 14 7.51917ZM10 6.51917C10 7.61916 9.1 8.51917 8 8.51917V12.5192C9.1 12.5192 10 13.4192 10 14.5192H18C18 13.4192 18.9 12.5192 20 12.5192V8.51917C18.9 8.51917 18 7.61916 18 6.51917H10ZM2 8.51917H4V18.5192H18V20.5192H2V8.51917Z" fill="#7E8084"/>
</g>
<defs>
<clipPath id="clip0">
<rect width="20" height="16" fill="white" transform="translate(2 4.51917)"/>
</clipPath>
</defs>
</svg>
