<svg width="24" height="25" viewBox="0 0 24 25" fill="none" xmlns="http://www.w3.org/2000/svg">
<g clip-path="url(#clip0)">
<path opacity="0.24" d="M6.00006 4.51917H22.0001V16.5192H6.00006V4.51917Z" fill="#7E8084"/>
<path d="M6.00006 4.51917H22.0001V16.5192H6.00006V4.51917ZM14.0001 7.51917C15.7001 7.51917 17.0001 8.81917 17.0001 10.5192C17.0001 12.2192 15.7001 13.5192 14.0001 13.5192C12.3001 13.5192 11.0001 12.2192 11.0001 10.5192C11.0001 8.81917 12.3001 7.51917 14.0001 7.51917ZM10.0001 6.51917C10.0001 7.61916 9.10006 8.51917 8.00006 8.51917V12.5192C9.10006 12.5192 10.0001 13.4192 10.0001 14.5192H18.0001C18.0001 13.4192 18.9001 12.5192 20.0001 12.5192V8.51917C18.9001 8.51917 18.0001 7.61916 18.0001 6.51917H10.0001ZM2.00006 8.51917H4.00006V18.5192H18.0001V20.5192H2.00006V8.51917Z" fill="#7E8084"/>
</g>
<defs>
<clipPath id="clip0">
<rect width="20" height="16" fill="white" transform="translate(2.00006 4.51917)"/>
</clipPath>
</defs>
</svg>
