<svg width="24" height="25" viewBox="0 0 24 25" fill="none" xmlns="http://www.w3.org/2000/svg">
<path opacity="0.24" d="M5.00006 5.51917H9.00006V11.5192H5.00006V5.51917ZM15.0001 13.5192H19.0001V19.5192H15.0001V13.5192ZM5.00006 17.5192H9.00006V19.5192H5.00006V17.5192ZM15.0001 5.51917H19.0001V7.51917H15.0001V5.51917Z" fill="#7E8084"/>
<path d="M3.00006 13.5192H11.0001V3.51917H3.00006V13.5192ZM5.00006 5.51917H9.00006V11.5192H5.00006V5.51917ZM13.0001 21.5192H21.0001V11.5192H13.0001V21.5192ZM15.0001 13.5192H19.0001V19.5192H15.0001V13.5192ZM13.0001 3.51917V9.51917H21.0001V3.51917H13.0001ZM19.0001 7.51917H15.0001V5.51917H19.0001V7.51917ZM3.00006 21.5192H11.0001V15.5192H3.00006V21.5192ZM5.00006 17.5192H9.00006V19.5192H5.00006V17.5192Z" fill="#7E8084"/>
</svg>
