<svg width="24" height="25" viewBox="0 0 24 25" fill="none" xmlns="http://www.w3.org/2000/svg">
<path opacity="0.24" d="M5 5.51917H9V11.5192H5V5.51917ZM15 13.5192H19V19.5192H15V13.5192ZM5 17.5192H9V19.5192H5V17.5192ZM15 5.51917H19V7.51917H15V5.51917Z" fill="#7E8084"/>
<path d="M3 13.5192H11V3.51917H3V13.5192ZM5 5.51917H9V11.5192H5V5.51917ZM13 21.5192H21V11.5192H13V21.5192ZM15 13.5192H19V19.5192H15V13.5192ZM13 3.51917V9.51917H21V3.51917H13ZM19 7.51917H15V5.51917H19V7.51917ZM3 21.5192H11V15.5192H3V21.5192ZM5 17.5192H9V19.5192H5V17.5192Z" fill="#7E8084"/>
</svg>
