<svg width="24" height="25" viewBox="0 0 24 25" fill="none" xmlns="http://www.w3.org/2000/svg">
<g clip-path="url(#clip0)">
<path d="M23.0001 6.81917L18.7001 2.51917V4.91917C14.4001 5.61917 12.6001 8.61916 12.0001 11.7192C13.5001 9.51917 15.7001 8.51917 18.7001 8.51917V11.0192L23.0001 6.81917Z" fill="#7E8084"/>
<path opacity="0.24" d="M16.7001 3.31917H13.0001V5.51917C14.0001 4.51917 15.3001 3.81917 16.7001 3.31917Z" fill="#7E8084"/>
<path opacity="0.24" d="M17.7001 13.3192V10.9192C15.0001 10.9192 13.0001 13.3192 13.0001 13.3192V21.3192H21.0001V11.6192L17.7001 13.3192Z" fill="#7E8084"/>
<path d="M23.0001 6.81917L18.7001 2.51917V4.91917C14.4001 5.61917 12.6001 8.61916 12.0001 11.7192C13.5001 9.51917 15.7001 8.51917 18.7001 8.51917V11.0192L23.0001 6.81917Z" fill="#7E8084"/>
<path opacity="0.24" d="M3.00006 13.3192H11.0001V3.31917H3.00006V13.3192ZM3.00006 21.3192H11.0001V15.3192H3.00006V21.3192Z" fill="#7E8084"/>
</g>
<defs>
<clipPath id="clip0">
<rect width="20" height="18.8" fill="white" transform="translate(3.00006 2.51917)"/>
</clipPath>
</defs>
</svg>
