<svg width="24" height="25" viewBox="0 0 24 25" fill="none" xmlns="http://www.w3.org/2000/svg">
<path d="M10.84 12.5192L5.92 17.4392L4.5 16.0192L7 13.5192H2V11.5192H7L4.5 9.01917L5.92 7.59916L10.84 12.5192ZM14 3.51917C10.59 3.51917 7.68 4.58917 6.53 6.08917L7 6.51917L8.03 7.58917C8 7.56917 8 7.51917 8 7.51917C8 7.01917 10.13 5.51917 14 5.51917C17.87 5.51917 20 7.01917 20 7.51917C20 8.01917 17.87 9.51917 14 9.51917C11.38 9.51917 9.58 8.82916 8.68 8.23916L11.8 11.3592C12.5 11.4592 13.24 11.5192 14 11.5192C16.39 11.5192 18.53 10.9892 20 10.1592V12.9692C18.7 13.9192 16.42 14.5192 14 14.5192C13.04 14.5192 12.1 14.4192 11.24 14.2492L9.59 15.8892C10.91 16.2892 12.41 16.5192 14 16.5192C16.28 16.5192 18.39 16.0692 20 15.2892V17.5192C20 18.0192 17.87 19.5192 14 19.5192C10.13 19.5192 8 18.0192 8 17.5192V17.4792L7 18.5192L6.54 18.9492C7.69 20.4492 10.6 21.5192 14 21.5192C18.41 21.5192 22 19.7292 22 17.5192V7.51917C22 5.30917 18.42 3.51917 14 3.51917Z" fill="#7E8084"/>
<path opacity="0.24" d="M8.03 7.58917C8 7.56917 8 7.51917 8 7.51917C8 7.01917 10.13 5.51917 14 5.51917C17.87 5.51917 20 7.01917 20 7.51917C20 8.01917 17.87 9.51917 14 9.51917C11.38 9.51917 9.58 8.82916 8.68 8.23916L11.8 11.3592L11.8466 11.3658C12.5328 11.4618 13.2568 11.5192 14 11.5192C16.39 11.5192 18.53 10.9892 20 10.1592V12.9692C18.7 13.9192 16.42 14.5192 14 14.5192C13.04 14.5192 12.1 14.4192 11.24 14.2492L9.59 15.8892C10.91 16.2892 12.41 16.5192 14 16.5192C16.28 16.5192 18.39 16.0692 20 15.2892V17.5192C20 18.0192 17.87 19.5192 14 19.5192C10.13 19.5192 8 18.0192 8 17.5192L9.59 15.8892L11.24 14.2492L12.985 12.5042L11.8466 11.3658L11.8 11.3592L8.68 8.23916L8.03 7.58917Z" fill="#7E8084"/>
</svg>
