<svg width="24" height="25" viewBox="0 0 24 25" fill="none" xmlns="http://www.w3.org/2000/svg">
<path d="M2.39011 2.24915L1.11011 3.51915L4.21011 6.61915C4.08011 6.90915 4.00011 7.20915 4.00011 7.51915V17.5191C4.00011 19.7291 7.59011 21.5191 12.0001 21.5191C14.3001 21.5191 16.3801 21.0191 17.8401 20.2491L20.8401 23.2491L22.1101 21.9791L2.39011 2.24915ZM6.00011 10.1591C6.76011 10.5891 7.70011 10.9391 8.76011 11.1691L12.1101 14.5191C12.0701 14.5191 12.0401 14.5191 12.0001 14.5191C9.58011 14.5191 7.30011 13.9191 6.00011 12.9691V10.1591ZM12.0001 19.5191C8.13011 19.5191 6.00011 18.0191 6.00011 17.5191V15.2891C7.61011 16.0691 9.72011 16.5191 12.0001 16.5191C12.6801 16.5191 13.3401 16.4691 14.0001 16.3891L16.3401 18.7491C15.3301 19.1691 13.8701 19.5191 12.0001 19.5191ZM8.64011 5.95915L7.06011 4.37915C8.42011 3.84915 10.1301 3.51915 12.0001 3.51915C16.4201 3.51915 20.0001 5.30915 20.0001 7.51915V17.3191L18.0001 15.3191V15.2891V15.2991L16.4501 13.7691C17.0501 13.5491 17.5801 13.2791 18.0001 12.9691V10.1591C16.9701 10.7391 15.6101 11.1691 14.0601 11.3791L12.1901 9.51915C15.9401 9.45915 18.0001 8.01915 18.0001 7.51915C18.0001 7.01915 15.8701 5.51915 12.0001 5.51915C10.6601 5.51915 9.54011 5.69915 8.64011 5.95915Z" fill="#7E8084"/>
<g opacity="0.24">
<path d="M19.5617 16.8289C19.8457 16.4186 20 15.9779 20 15.5192V12.5192C20 13.554 19.2151 14.4967 17.9265 15.2067L19.5617 16.8289Z" fill="#7E8084"/>
<path d="M16.5267 13.8182C18.6248 13.0973 20 11.8889 20 10.5192V7.51917C20 5.30917 16.42 3.51917 12 3.51917C10.117 3.51917 8.38642 3.84404 7.02017 4.38786L16.5267 13.8182Z" fill="#7E8084"/>
<path d="M5.38281 5.26982L14.4205 14.333C13.657 14.4539 12.8438 14.5192 12 14.5192C7.58 14.5192 4 12.7292 4 10.5192V7.51917C4 6.68499 4.51005 5.91065 5.38281 5.26982Z" fill="#7E8084"/>
<path d="M16.0522 15.9692L18.1533 18.0763C16.6861 18.958 14.4747 19.5192 12 19.5192C7.58 19.5192 4 17.7292 4 15.5192V12.5192C4 14.7292 7.58 16.5192 12 16.5192C13.479 16.5192 14.8639 16.3187 16.0522 15.9692Z" fill="#7E8084"/>
</g>
</svg>
