<svg width="24" height="24" viewBox="0 0 24 24" fill="none" xmlns="http://www.w3.org/2000/svg">
<path d="M10.84 12L5.92 16.92L4.5 15.5L7 13H2V11H7L4.5 8.5L5.92 7.08L10.84 12ZM14 3C10.59 3 7.68 4.07 6.53 5.57L7 6L8.03 7.07C8 7.05 8 7 8 7C8 6.5 10.13 5 14 5C17.87 5 20 6.5 20 7C20 7.5 17.87 9 14 9C11.38 9 9.58 8.31 8.68 7.72L11.8 10.84C12.5 10.94 13.24 11 14 11C16.39 11 18.53 10.47 20 9.64V12.45C18.7 13.4 16.42 14 14 14C13.04 14 12.1 13.9 11.24 13.73L9.59 15.37C10.91 15.77 12.41 16 14 16C16.28 16 18.39 15.55 20 14.77V17C20 17.5 17.87 19 14 19C10.13 19 8 17.5 8 17V16.96L7 18L6.54 18.43C7.69 19.93 10.6 21 14 21C18.41 21 22 19.21 22 17V7C22 4.79 18.42 3 14 3Z" fill="#7E8084"/>
<path opacity="0.24" d="M8.03 7.07C8 7.05 8 7 8 7C8 6.5 10.13 5 14 5C17.87 5 20 6.5 20 7C20 7.5 17.87 9 14 9C11.38 9 9.58 8.31 8.68 7.72L11.8 10.84L11.8466 10.8466C12.5328 10.9426 13.2568 11 14 11C16.39 11 18.53 10.47 20 9.64V12.45C18.7 13.4 16.42 14 14 14C13.04 14 12.1 13.9 11.24 13.73L9.59 15.37C10.91 15.77 12.41 16 14 16C16.28 16 18.39 15.55 20 14.77V17C20 17.5 17.87 19 14 19C10.13 19 8 17.5 8 17L9.59 15.37L11.24 13.73L12.985 11.985L11.8466 10.8466L11.8 10.84L8.68 7.72L8.03 7.07Z" fill="#7E8084"/>
</svg>
