<svg width="24" height="24" viewBox="0 0 24 24" fill="none" xmlns="http://www.w3.org/2000/svg">
<path d="M5.9 7.1001L4.5 8.5001L7 11.0001H2V13.0001H7L4.5 15.5001L5.9 16.9001L10.8 12.0001" fill="#7E8084"/>
<path d="M13 2C9.9 2 6.7 2.7 5.1 4L6.5 5.4C7.5 4.8 9.7 4 13 4C17.5 4 20 5.4 20 6C20 6.6 17.5 8 13 8C11.2 8 9.7 7.8 8.6 7.5L10.9 9.8L11 9.9C11.7 10 12.4 10 13 10C15.6 10 18.3 9.5 20 8.6V10C20 10.6 17.5 12 13 12L11.1 13.9C11.7 14 12.4 14 13 14C15.6 14 18.3 13.5 20 12.6V14C20 14.6 17.5 16 13 16C11.6 16 10.3 15.9 9.3 15.6L7.7 17.2C9.2 17.8 11.1 18 13 18C15.6 18 18.3 17.5 20 16.6V18C20 18.6 17.5 20 13 20C9.5 20 7.3 19.2 6.4 18.5L5.9 19L5 19.9C6.6 21.3 9.8 22 13 22C17.5 22 22 20.6 22 18V6C22 3.4 17.5 2 13 2Z" fill="#7E8084"/>
<path opacity="0.24" d="M12.9999 18.0001C11.0999 18.0001 9.1999 17.8001 7.6999 17.3001L6.3999 18.6001C7.2999 19.2001 9.4999 20.0001 12.9999 20.0001C17.4999 20.0001 19.9999 18.6001 19.9999 18.0001V16.6001C18.2999 17.5001 15.5999 18.0001 12.9999 18.0001Z" fill="#7E8084"/>
<path opacity="0.24" d="M12.9999 14.0001C12.3999 14.0001 11.6999 14.0001 11.0999 13.9001L10.9999 14.0001L9.3999 15.6001C10.3999 15.8001 11.5999 16.0001 13.0999 16.0001C17.5999 16.0001 20.0999 14.6001 20.0999 14.0001V12.6001C18.2999 13.5001 15.5999 14.0001 12.9999 14.0001Z" fill="#7E8084"/>
<path opacity="0.24" d="M12.9999 10.0001C12.3999 10.0001 11.6999 10.0001 11.0999 9.9001L13.0999 11.9001L12.9999 12.0001C17.4999 12.0001 19.9999 10.6001 19.9999 10.0001V8.6001C18.2999 9.5001 15.5999 10.0001 12.9999 10.0001Z" fill="#7E8084"/>
</svg>
