<svg width="24" height="25" viewBox="0 0 24 25" fill="none" xmlns="http://www.w3.org/2000/svg">
<path d="M2.39005 2.24917L1.11005 3.51917L4.21005 6.61917C4.08005 6.90917 4.00005 7.20917 4.00005 7.51917V17.5192C4.00005 19.7292 7.59005 21.5192 12 21.5192C14.3 21.5192 16.38 21.0192 17.84 20.2492L20.84 23.2492L22.11 21.9792L2.39005 2.24917ZM6.00005 10.1592C6.76005 10.5892 7.70005 10.9392 8.76005 11.1692L12.11 14.5192C12.07 14.5192 12.04 14.5192 12 14.5192C9.58005 14.5192 7.30005 13.9192 6.00005 12.9692V10.1592ZM12 19.5192C8.13005 19.5192 6.00005 18.0192 6.00005 17.5192V15.2892C7.61005 16.0692 9.72005 16.5192 12 16.5192C12.68 16.5192 13.34 16.4692 14 16.3892L16.34 18.7492C15.33 19.1692 13.87 19.5192 12 19.5192ZM8.64005 5.95917L7.06005 4.37917C8.42005 3.84917 10.13 3.51917 12 3.51917C16.42 3.51917 20 5.30917 20 7.51917V17.3192L18 15.3192V15.2892V15.2992L16.45 13.7692C17.05 13.5492 17.58 13.2792 18 12.9692V10.1592C16.97 10.7392 15.61 11.1692 14.06 11.3792L12.19 9.51917C15.94 9.45917 18 8.01917 18 7.51917C18 7.01917 15.87 5.51917 12 5.51917C10.66 5.51917 9.54005 5.69917 8.64005 5.95917Z" fill="#7E8084"/>
<g opacity="0.24">
<path d="M19.5618 16.8289C19.8458 16.4186 20.0001 15.9779 20.0001 15.5192V12.5192C20.0001 13.554 19.2151 14.4967 17.9266 15.2067L19.5618 16.8289Z" fill="#7E8084"/>
<path d="M16.5268 13.8182C18.6249 13.0973 20.0001 11.8889 20.0001 10.5192V7.51917C20.0001 5.30917 16.4201 3.51917 12.0001 3.51917C10.117 3.51917 8.38648 3.84404 7.02023 4.38786L16.5268 13.8182Z" fill="#7E8084"/>
<path d="M5.38287 5.26982L14.4206 14.333C13.6571 14.4539 12.8439 14.5192 12.0001 14.5192C7.58006 14.5192 4.00006 12.7292 4.00006 10.5192V7.51917C4.00006 6.68499 4.51011 5.91065 5.38287 5.26982Z" fill="#7E8084"/>
<path d="M16.0522 15.9692L18.1533 18.0763C16.6861 18.958 14.4748 19.5192 12.0001 19.5192C7.58006 19.5192 4.00006 17.7292 4.00006 15.5192V12.5192C4.00006 14.7292 7.58006 16.5192 12.0001 16.5192C13.479 16.5192 14.864 16.3187 16.0522 15.9692Z" fill="#7E8084"/>
</g>
</svg>
