<svg width="24" height="24" viewBox="0 0 24 24" fill="none" xmlns="http://www.w3.org/2000/svg">
<path d="M2.39011 1.73001L1.11011 3.00001L4.21011 6.10001C4.08011 6.39001 4.00011 6.69001 4.00011 7.00001V17C4.00011 19.21 7.59011 21 12.0001 21C14.3001 21 16.3801 20.5 17.8401 19.73L20.8401 22.73L22.1101 21.46L2.39011 1.73001ZM6.00011 9.64001C6.76011 10.07 7.70011 10.42 8.76011 10.65L12.1101 14C12.0701 14 12.0401 14 12.0001 14C9.58011 14 7.30011 13.4 6.00011 12.45V9.64001ZM12.0001 19C8.13011 19 6.00011 17.5 6.00011 17V14.77C7.61011 15.55 9.72011 16 12.0001 16C12.6801 16 13.3401 15.95 14.0001 15.87L16.3401 18.23C15.3301 18.65 13.8701 19 12.0001 19ZM8.64011 5.44001L7.06011 3.86001C8.42011 3.33001 10.1301 3.00001 12.0001 3.00001C16.4201 3.00001 20.0001 4.79001 20.0001 7.00001V16.8L18.0001 14.8V14.77V14.78L16.4501 13.25C17.0501 13.03 17.5801 12.76 18.0001 12.45V9.64001C16.9701 10.22 15.6101 10.65 14.0601 10.86L12.1901 9.00001C15.9401 8.94001 18.0001 7.50001 18.0001 7.00001C18.0001 6.50001 15.8701 5.00001 12.0001 5.00001C10.6601 5.00001 9.54011 5.18001 8.64011 5.44001Z" fill="#7E8084"/>
<g opacity="0.24">
<path d="M19.5617 16.3097C19.8457 15.8994 20 15.4587 20 15V12C20 13.0348 19.2151 13.9776 17.9265 14.6876L19.5617 16.3097Z" fill="#7E8084"/>
<path d="M16.5267 13.299C18.6248 12.5781 20 11.3697 20 10V7C20 4.79 16.42 3 12 3C10.117 3 8.38642 3.32488 7.02017 3.8687L16.5267 13.299Z" fill="#7E8084"/>
<path d="M5.38281 4.75066L14.4205 13.8138C13.657 13.9348 12.8438 14 12 14C7.58 14 4 12.21 4 10V7C4 6.16582 4.51005 5.39148 5.38281 4.75066Z" fill="#7E8084"/>
<path d="M16.0522 15.4501L18.1533 17.5571C16.6861 18.4389 14.4747 19 12 19C7.58 19 4 17.21 4 15V12C4 14.21 7.58 16 12 16C13.479 16 14.8639 15.7996 16.0522 15.4501Z" fill="#7E8084"/>
</g>
</svg>
