<svg width="24" height="25" viewBox="0 0 24 25" fill="none" xmlns="http://www.w3.org/2000/svg">
<path d="M10.8401 12.5192L5.92006 17.4392L4.50006 16.0192L7.00006 13.5192H2.00006V11.5192H7.00006L4.50006 9.01917L5.92006 7.59916L10.8401 12.5192ZM14.0001 3.51917C10.5901 3.51917 7.68006 4.58917 6.53006 6.08917L7.00006 6.51917L8.03006 7.58917C8.00006 7.56917 8.00006 7.51917 8.00006 7.51917C8.00006 7.01917 10.1301 5.51917 14.0001 5.51917C17.8701 5.51917 20.0001 7.01917 20.0001 7.51917C20.0001 8.01917 17.8701 9.51917 14.0001 9.51917C11.3801 9.51917 9.58006 8.82916 8.68006 8.23916L11.8001 11.3592C12.5001 11.4592 13.2401 11.5192 14.0001 11.5192C16.3901 11.5192 18.5301 10.9892 20.0001 10.1592V12.9692C18.7001 13.9192 16.4201 14.5192 14.0001 14.5192C13.0401 14.5192 12.1001 14.4192 11.2401 14.2492L9.59006 15.8892C10.9101 16.2892 12.4101 16.5192 14.0001 16.5192C16.2801 16.5192 18.3901 16.0692 20.0001 15.2892V17.5192C20.0001 18.0192 17.8701 19.5192 14.0001 19.5192C10.1301 19.5192 8.00006 18.0192 8.00006 17.5192V17.4792L7.00006 18.5192L6.54006 18.9492C7.69006 20.4492 10.6001 21.5192 14.0001 21.5192C18.4101 21.5192 22.0001 19.7292 22.0001 17.5192V7.51917C22.0001 5.30917 18.4201 3.51917 14.0001 3.51917Z" fill="#7E8084"/>
<path opacity="0.24" d="M8.03006 7.58917C8.00006 7.56917 8.00006 7.51917 8.00006 7.51917C8.00006 7.01917 10.1301 5.51917 14.0001 5.51917C17.8701 5.51917 20.0001 7.01917 20.0001 7.51917C20.0001 8.01917 17.8701 9.51917 14.0001 9.51917C11.3801 9.51917 9.58006 8.82916 8.68006 8.23916L11.8001 11.3592L11.8466 11.3658C12.5329 11.4618 13.2569 11.5192 14.0001 11.5192C16.3901 11.5192 18.5301 10.9892 20.0001 10.1592V12.9692C18.7001 13.9192 16.4201 14.5192 14.0001 14.5192C13.0401 14.5192 12.1001 14.4192 11.2401 14.2492L9.59006 15.8892C10.9101 16.2892 12.4101 16.5192 14.0001 16.5192C16.2801 16.5192 18.3901 16.0692 20.0001 15.2892V17.5192C20.0001 18.0192 17.8701 19.5192 14.0001 19.5192C10.1301 19.5192 8.00006 18.0192 8.00006 17.5192L9.59006 15.8892L11.2401 14.2492L12.9851 12.5042L11.8466 11.3658L11.8001 11.3592L8.68006 8.23916L8.03006 7.58917Z" fill="#7E8084"/>
</svg>
