<svg width="24" height="24" viewBox="0 0 24 24" fill="none" xmlns="http://www.w3.org/2000/svg">
<path d="M4.93 4.92999C3.12 6.73999 2 9.23999 2 12C2 14.76 3.12 17.26 4.93 19.07L6.34 17.66C4.89 16.22 4 14.22 4 12C4 9.78999 4.89 7.77999 6.34 6.33999L4.93 4.92999ZM19.07 4.92999L17.66 6.33999C19.11 7.77999 20 9.78999 20 12C20 14.22 19.11 16.22 17.66 17.66L19.07 19.07C20.88 17.26 22 14.76 22 12C22 9.23999 20.88 6.73999 19.07 4.92999ZM7.76 7.75999C6.67 8.84999 6 10.35 6 12C6 13.65 6.67 15.15 7.76 16.24L9.17 14.83C8.45 14.11 8 13.11 8 12C8 10.89 8.45 9.88999 9.17 9.16999L7.76 7.75999ZM16.24 7.75999L14.83 9.16999C15.55 9.88999 16 10.89 16 12C16 13.11 15.55 14.11 14.83 14.83L16.24 16.24C17.33 15.15 18 13.65 18 12C18 10.35 17.33 8.84999 16.24 7.75999ZM12 9.99999C11.4696 9.99999 10.9609 10.2107 10.5858 10.5858C10.2107 10.9609 10 11.4696 10 12C10 12.5304 10.2107 13.0391 10.5858 13.4142C10.9609 13.7893 11.4696 14 12 14C12.5304 14 13.0391 13.7893 13.4142 13.4142C13.7893 13.0391 14 12.5304 14 12C14 11.4696 13.7893 10.9609 13.4142 10.5858C13.0391 10.2107 12.5304 9.99999 12 9.99999Z" fill="#7E8084"/>
</svg>
