<svg width="24" height="24" viewBox="0 0 24 24" fill="none" xmlns="http://www.w3.org/2000/svg">
<path d="M5.9 7.09998L4.5 8.49998L7 11H2V13H7L4.5 15.5L5.9 16.9L10.8 12" fill="#7E8085"/>
<path d="M13 2C9.9 2 6.7 2.7 5.1 4L6.5 5.4C7.5 4.8 9.7 4 13 4C17.5 4 20 5.4 20 6C20 6.6 17.5 8 13 8C11.2 8 9.7 7.8 8.6 7.5L10.9 9.8L11 9.9C11.7 10 12.4 10 13 10C15.6 10 18.3 9.5 20 8.6V10C20 10.6 17.5 12 13 12L11.1 13.9C11.7 14 12.4 14 13 14C15.6 14 18.3 13.5 20 12.6V14C20 14.6 17.5 16 13 16C11.6 16 10.3 15.9 9.3 15.6L7.7 17.2C9.2 17.8 11.1 18 13 18C15.6 18 18.3 17.5 20 16.6V18C20 18.6 17.5 20 13 20C9.5 20 7.3 19.2 6.4 18.5L5.9 19L5 19.9C6.6 21.3 9.8 22 13 22C17.5 22 22 20.6 22 18V6C22 3.4 17.5 2 13 2Z" fill="#7E8085"/>
<path opacity="0.3" d="M13 18C11.1 18 9.20002 17.8 7.70002 17.3L6.40002 18.6C7.30002 19.2 9.50002 20 13 20C17.5 20 20 18.6 20 18V16.6C18.3 17.5 15.6 18 13 18Z" fill="#7E8085"/>
<path opacity="0.3" d="M13 14C12.4 14 11.7 14 11.1 13.9L11 14L9.40002 15.6C10.4 15.8 11.6 16 13.1 16C17.6 16 20.1 14.6 20.1 14V12.6C18.3 13.5 15.6 14 13 14Z" fill="#7E8085"/>
<path opacity="0.3" d="M13 9.99998C12.4 9.99998 11.7 9.99998 11.1 9.89998L13.1 11.9L13 12C17.5 12 20 10.6 20 9.99998V8.59998C18.3 9.49998 15.6 9.99998 13 9.99998Z" fill="#7E8085"/>
</svg>
