<svg width="24" height="24" viewBox="0 0 24 24" fill="none" xmlns="http://www.w3.org/2000/svg">
<g opacity="0.24">
<path d="M18 14.8061V14.77C17.9919 14.7739 17.9838 14.7779 17.9756 14.7818L18 14.8061Z" fill="#7E8084"/>
<path d="M16.4487 13.2575C17.0503 13.0312 17.577 12.7591 18 12.45V9.64C16.9667 10.2234 15.6023 10.6586 14.0527 10.8657L16.4487 13.2575Z" fill="#7E8084"/>
<path d="M11.537 10.9933L14.3645 13.8055C13.6136 13.932 12.8147 14 12 14C9.58 14 7.3 13.4 6 12.45V9.64C7.3744 10.416 9.33449 10.9298 11.537 10.9933Z" fill="#7E8084"/>
<path d="M12.1826 8.99888C15.9369 8.95273 18 7.49208 18 7C18 6.5 15.87 5 12 5C10.6566 5 9.5229 5.18075 8.61517 5.43767L12.1826 8.99888Z" fill="#7E8084"/>
<path d="M6.74527 6.22764L9.25209 8.72085C7.13457 8.2625 6 7.36492 6 7C6 6.82742 6.25377 6.53569 6.74527 6.22764Z" fill="#7E8084"/>
<path d="M16.0543 15.4861L17.8596 17.2816C17.3271 17.9134 15.2938 19 12 19C8.13 19 6 17.5 6 17V14.77C7.61 15.55 9.72 16 12 16C13.4482 16 14.8278 15.8184 16.0543 15.4861Z" fill="#7E8084"/>
</g>
<path d="M2.39011 1.73001L1.11011 3.00001L4.21011 6.10001C4.08011 6.39001 4.00011 6.69001 4.00011 7.00001V17C4.00011 19.21 7.59011 21 12.0001 21C14.3001 21 16.3801 20.5 17.8401 19.73L20.8401 22.73L22.1101 21.46L2.39011 1.73001ZM6.00011 9.64001C6.76011 10.07 7.70011 10.42 8.76011 10.65L12.1101 14C12.0701 14 12.0401 14 12.0001 14C9.58011 14 7.30011 13.4 6.00011 12.45V9.64001ZM12.0001 19C8.13011 19 6.00011 17.5 6.00011 17V14.77C7.61011 15.55 9.72011 16 12.0001 16C12.6801 16 13.3401 15.95 14.0001 15.87L16.3401 18.23C15.3301 18.65 13.8701 19 12.0001 19ZM8.64011 5.44001L7.06011 3.86001C8.42011 3.33001 10.1301 3.00001 12.0001 3.00001C16.4201 3.00001 20.0001 4.79001 20.0001 7.00001V16.8L16.4501 13.25C17.0501 13.03 17.5801 12.76 18.0001 12.45V9.64001C16.9701 10.22 15.6101 10.65 14.0601 10.86L12.1901 9.00001C15.9401 8.94001 18.0001 7.50001 18.0001 7.00001C18.0001 6.50001 15.8701 5.00001 12.0001 5.00001C10.6601 5.00001 9.54011 5.18001 8.64011 5.44001Z" fill="#7E8084"/>
</svg>
