<svg width="24" height="25" viewBox="0 0 24 25" fill="none" xmlns="http://www.w3.org/2000/svg">
<path d="M5.00006 8.51917H19.0001V7.51917H5.00006V8.51917Z" fill="#7E8084"/>
<path opacity="0.2" d="M5.00006 7.51917H19.0001V6.51917H5.00006V7.51917Z" fill="#7E8084"/>
<path d="M17.0001 5.51917H18.0001H19.0001C19.5478 5.51917 20.0001 5.97145 20.0001 6.51917V20.5192C20.0001 21.0669 19.5478 21.5192 19.0001 21.5192H5.00006C4.45235 21.5192 4.00006 21.0669 4.00006 20.5192V6.51917C4.00006 5.97145 4.45235 5.51917 5.00006 5.51917H6.00006H7.00006H8.00006H16.0001H17.0001Z" stroke="#7E8084" stroke-width="2"/>
<path d="M7.01922 15.8809C6.91922 15.3809 7.21922 14.7809 7.71922 14.6809L10.0192 13.9809L8.31922 12.3809C7.91922 11.9809 7.91922 11.3809 8.31922 10.8809C8.71922 10.4809 9.41922 10.4809 9.81922 10.8809L11.5192 12.5809L12.0192 10.2809C12.1192 9.68087 12.7192 9.38087 13.2192 9.58087C13.8192 9.68087 14.1192 10.2809 13.9192 10.8809L13.3192 13.0809L15.5192 12.4809C16.1192 12.2809 16.6192 12.5809 16.8192 13.1809C16.9192 13.6809 16.6192 14.2809 16.1192 14.3809L13.9192 14.9809L15.6192 16.6809C16.0192 17.0809 16.0192 17.7809 15.6192 18.1809C15.2192 18.5809 14.5192 18.5809 14.1192 18.1809L12.5192 16.4809L11.9192 18.7809C11.8192 19.3809 11.2192 19.6809 10.6192 19.4809C10.0192 19.3809 9.71922 18.7809 9.91922 18.1809L10.5192 15.9809L8.31922 16.5809C7.71922 16.6809 7.11922 16.3809 7.01922 15.8809Z" fill="#7E8084"/>
</svg>
