<svg width="24" height="24" viewBox="0 0 24 24" fill="none" xmlns="http://www.w3.org/2000/svg">
<path opacity="0.24" d="M5 7H19V6H5V7Z" fill="#7E8084"/>
<path fill-rule="evenodd" clip-rule="evenodd" d="M16 6H18H19V7H5V6H6H8H16ZM5 8V20H19V8H5ZM18 4H19C20.1 4 21 4.9 21 6V20C21 21.1 20.1 22 19 22H5C3.9 22 3 21.1 3 20V6C3 4.9 3.9 4 5 4H6V2H8V4H10H14H16V2H18V4ZM10.6435 14.2C11.6435 13.2 12.1435 11.8 11.9435 10.5L11.8435 10H9.94346L10.0435 10.6C10.1435 11.4 9.94346 12.2 9.34346 12.8V12.9C8.34346 13.9 7.84346 15.3 8.04346 16.6V17H9.94346L9.84346 16.4C9.74346 15.6 9.94346 14.8 10.6435 14.2ZM15.9435 10.5C16.1435 11.8 15.6435 13.2 14.6435 14.2C13.9435 14.8 13.7435 15.6 13.8435 16.4L13.9435 17H12.0435V16.6C11.8435 15.3 12.3435 13.9 13.3435 12.9V12.8C13.9435 12.2 14.1435 11.4 14.0435 10.6L13.9435 10H15.8435L15.9435 10.5Z" fill="#7E8084"/>
</svg>
