<svg width="24" height="25" viewBox="0 0 24 25" fill="none" xmlns="http://www.w3.org/2000/svg">
<path d="M5 8.51917H19V7.51917H5V8.51917Z" fill="#7E8084"/>
<path opacity="0.2" d="M5 7.51917H19V6.51917H5V7.51917Z" fill="#7E8084"/>
<path d="M17 5.51917H18H19C19.5477 5.51917 20 5.97145 20 6.51917V20.5192C20 21.0669 19.5477 21.5192 19 21.5192H5C4.45228 21.5192 4 21.0669 4 20.5192V6.51917C4 5.97145 4.45228 5.51917 5 5.51917H6H7H8H16H17Z" stroke="#7E8084" stroke-width="2"/>
<path fill-rule="evenodd" clip-rule="evenodd" d="M11.9435 11.0192C12.1435 12.3192 11.6435 13.7192 10.6435 14.7192C9.94346 15.3192 9.74346 16.1192 9.84346 16.9192L9.94346 17.5192H8.04346V17.1192C7.84346 15.8192 8.34346 14.4192 9.34346 13.4192V13.3192C9.94346 12.7192 10.1435 11.9192 10.0435 11.1192L9.94346 10.5192H11.8435L11.9435 11.0192ZM15.9435 11.0192C16.1435 12.3192 15.6435 13.7192 14.6435 14.7192C13.9435 15.3192 13.7435 16.1192 13.8435 16.9192L13.9435 17.5192H12.0435V17.1192C11.8435 15.8192 12.3435 14.4192 13.3435 13.4192V13.3192C13.9435 12.7192 14.1435 11.9192 14.0435 11.1192L13.9435 10.5192H15.8435L15.9435 11.0192Z" fill="#7E8084"/>
</svg>
