<svg width="24" height="25" viewBox="0 0 24 25" fill="none" xmlns="http://www.w3.org/2000/svg">
<path d="M5.00006 8.51917H19.0001V7.51917H5.00006V8.51917Z" fill="#7E8084"/>
<path opacity="0.2" d="M5.00006 7.51917H19.0001V6.51917H5.00006V7.51917Z" fill="#7E8084"/>
<path d="M17.0001 5.51917H18.0001H19.0001C19.5478 5.51917 20.0001 5.97145 20.0001 6.51917V20.5192C20.0001 21.0669 19.5478 21.5192 19.0001 21.5192H5.00006C4.45235 21.5192 4.00006 21.0669 4.00006 20.5192V6.51917C4.00006 5.97145 4.45235 5.51917 5.00006 5.51917H6.00006H7.00006H8.00006H16.0001H17.0001Z" stroke="#7E8084" stroke-width="2"/>
<path d="M10.6435 14.7192C11.6435 13.7192 12.1435 12.3192 11.9435 11.0192L11.8435 10.5192H9.94352L10.0435 11.1192C10.1435 11.9192 9.94352 12.7192 9.34352 13.3192V13.4192C8.34352 14.4192 7.84352 15.8192 8.04352 17.1192V17.5192H9.94352L9.84352 16.9192C9.74352 16.1192 9.94352 15.3192 10.6435 14.7192Z" fill="#7E8084"/>
<path d="M14.6435 14.7192C15.6435 13.7192 16.1435 12.3192 15.9435 11.0192L15.8435 10.5192H13.9435L14.0435 11.1192C14.1435 11.9192 13.9435 12.7192 13.3435 13.3192V13.4192C12.3435 14.4192 11.8435 15.8192 12.0435 17.1192V17.5192H13.9435L13.8435 16.9192C13.7435 16.1192 13.9435 15.3192 14.6435 14.7192Z" fill="#7E8084"/>
</svg>
