<svg width="24" height="25" viewBox="0 0 24 25" fill="none" xmlns="http://www.w3.org/2000/svg">
<g clip-path="url(#clip0)">
<path opacity="0.24" d="M12 19.5192H4C2.9 19.5192 2 18.6192 2 17.5192V7.51917C2 6.41917 2.9 5.51917 4 5.51917H12V19.5192Z" fill="#7E8084"/>
<path fill-rule="evenodd" clip-rule="evenodd" d="M20 5.51917H12V19.5192H20C21.1 19.5192 22 18.6192 22 17.5192V7.51917C22 6.41917 21.1 5.51917 20 5.51917ZM18.4 12.5192C18.4 11.7192 17.8 11.1192 17 11.1192C16.2 11.1192 15.6 11.7192 15.6 12.5192C15.6 13.3192 16.2 13.9192 17 13.9192C17.8 13.9192 18.4 13.3192 18.4 12.5192ZM14 12.5192C14 10.9192 15.3 9.51917 17 9.51917C18.6 9.51917 20 10.9192 20 12.5192C20 14.1192 18.7 15.5192 17 15.5192C15.4 15.5192 14 14.1192 14 12.5192Z" fill="#7E8084"/>
<path d="M8 9.51917H6V15.5192H8V9.51917Z" fill="#7E8084"/>
</g>
<defs>
<clipPath id="clip0">
<rect width="20" height="14" fill="white" transform="translate(2 5.51917)"/>
</clipPath>
</defs>
</svg>
