<svg width="24" height="25" viewBox="0 0 24 25" fill="none" xmlns="http://www.w3.org/2000/svg">
<g clip-path="url(#clip0)">
<path opacity="0.24" fill-rule="evenodd" clip-rule="evenodd" d="M4.48437 6.04752C9.11467 0.96262 17.5138 1.37771 21.6057 7.18903C23.9747 10.7173 23.867 15.4909 21.3903 19.0192C19.2367 21.9249 15.8986 23.3777 12.5605 23.3777V21.3022C15.2525 21.3022 18.0522 20.057 19.7751 17.5664C21.7134 14.7645 21.7134 11.0287 19.7751 8.33054C16.5447 3.86828 10.1915 3.45319 6.42264 6.98149C3.40756 9.99092 3.08452 14.7645 5.66887 18.0853L7.17641 19.5381L5.66887 20.9909L5.13046 20.472C1.03857 16.5287 0.715527 10.1985 4.48437 6.04752ZM16.2218 10.7171C14.7142 8.43407 11.4838 8.12275 9.54552 9.99068C8.03799 11.3397 7.9303 13.4152 8.89944 14.9718L10.2993 16.5284L8.68407 18.085L7.3919 16.4246C6.96117 15.802 6.63813 15.1794 6.42277 14.5567C5.669 12.1699 6.53045 9.47181 8.79176 7.81143C11.0531 6.15106 14.2835 6.25483 16.5448 7.91521C19.5599 10.302 19.7753 14.6605 17.0832 17.2548C15.8987 18.5001 14.1758 19.1228 12.5606 19.1228V17.0473C14.0681 17.0473 15.468 16.3209 16.3295 14.868C17.0832 13.6228 17.0832 11.9624 16.2218 10.7171Z" fill="#7E8084"/>
<path d="M4.91499 20.2644L5.66876 20.9909L14.2833 12.689L12.7757 11.2361L4.16122 19.538" fill="#7E8084"/>
<path d="M14.0679 10.6135C15.2573 10.6135 16.2215 9.68428 16.2215 8.53803C16.2215 7.39178 15.2573 6.46255 14.0679 6.46255C12.8785 6.46255 11.9143 7.39178 11.9143 8.53803C11.9143 9.68428 12.8785 10.6135 14.0679 10.6135Z" fill="#7E8084"/>
<path d="M13.3141 20.0569C14.5036 20.0569 15.4678 19.1277 15.4678 17.9814C15.4678 16.8352 14.5036 15.9059 13.3141 15.9059C12.1247 15.9059 11.1605 16.8352 11.1605 17.9814C11.1605 19.1277 12.1247 20.0569 13.3141 20.0569Z" fill="#7E8084"/>
<path d="M2.65369 15.6984C3.8431 15.6984 4.80732 14.7692 4.80732 13.6229C4.80732 12.4767 3.8431 11.5475 2.65369 11.5475C1.46427 11.5475 0.500061 12.4767 0.500061 13.6229C0.500061 14.7692 1.46427 15.6984 2.65369 15.6984Z" fill="#7E8084"/>
</g>
<defs>
<clipPath id="clip0">
<rect width="22.8284" height="20.7547" fill="white" transform="translate(0.500061 2.51917)"/>
</clipPath>
</defs>
</svg>
