<svg width="24" height="25" viewBox="0 0 24 25" fill="none" xmlns="http://www.w3.org/2000/svg">
<g clip-path="url(#clip0)">
<g clip-path="url(#clip1)">
<path opacity="0.24" d="M20.7 16.2192L19.3 14.8192C17.9 13.4192 16.8 12.6192 15.9 12.5192C15.8 12.5192 15.8 12.5192 15.7 12.5192C15.1 12.5192 14.3 13.0192 13.4 13.9192C11.6 15.6192 9.8 16.5192 7.8 16.5192C7.6 16.5192 7.5 16.5192 7.3 16.5192C5.8 16.3192 4.4 15.7192 3 14.6192V16.4192V21.4192H21V17.5192V16.6192L20.7 16.2192Z" fill="#7E8084"/>
<path d="M7.8 14.5192C7.7 14.5192 7.6 14.5192 7.5 14.5192C5.6 14.3192 3.8 13.0192 2 10.5192L3.6 9.31922C5 11.3192 6.4 12.3192 7.6 12.4192C8.5 12.5192 9.5 12.1192 10.5 11.1192C12.5 9.11922 14.5 8.31922 16.5 8.61922C18.2 8.91922 20 10.0192 22.1 12.0192L20.7 13.4192C18.9 11.6192 17.5 10.7192 16.2 10.5192C14.8 10.3192 13.5 10.9192 11.9 12.5192C10.6 13.8192 9.2 14.5192 7.8 14.5192Z" fill="#7E8084"/>
</g>
</g>
<defs>
<clipPath id="clip0">
<rect width="20" height="17" fill="white" transform="translate(2 4.51917)"/>
</clipPath>
<clipPath id="clip1">
<rect width="20.1" height="12.8" fill="white" transform="translate(2 8.51917)"/>
</clipPath>
</defs>
</svg>
