<svg width="24" height="24" viewBox="0 0 24 24" fill="none" xmlns="http://www.w3.org/2000/svg">
<path opacity="0.24" d="M12 19H4C2.9 19 2 18.1 2 17V7C2 5.9 2.9 5 4 5H12V19Z" fill="#7E8084"/>
<path fill-rule="evenodd" clip-rule="evenodd" d="M20 5H12V19H20C21.1 19 22 18.1 22 17V7C22 5.9 21.1 5 20 5ZM18.4 12C18.4 11.2 17.8 10.6 17 10.6C16.2 10.6 15.6 11.2 15.6 12C15.6 12.8 16.2 13.4 17 13.4C17.8 13.4 18.4 12.8 18.4 12ZM14 12C14 10.4 15.3 9 17 9C18.6 9 20 10.4 20 12C20 13.6 18.7 15 17 15C15.4 15 14 13.6 14 12Z" fill="#7E8084"/>
<path d="M8 9H6V15H8V9Z" fill="#7E8084"/>
</svg>
