<svg width="24" height="25" viewBox="0 0 24 25" fill="none" xmlns="http://www.w3.org/2000/svg">
<g clip-path="url(#clip0)">
<path opacity="0.24" d="M12.0001 19.5192H4.00006C2.90006 19.5192 2.00006 18.6192 2.00006 17.5192V7.51917C2.00006 6.41917 2.90006 5.51917 4.00006 5.51917H12.0001V19.5192Z" fill="#7E8084"/>
<path fill-rule="evenodd" clip-rule="evenodd" d="M20.0001 5.51917H12.0001V19.5192H20.0001C21.1001 19.5192 22.0001 18.6192 22.0001 17.5192V7.51917C22.0001 6.41917 21.1001 5.51917 20.0001 5.51917ZM18.4001 12.5192C18.4001 11.7192 17.8001 11.1192 17.0001 11.1192C16.2001 11.1192 15.6001 11.7192 15.6001 12.5192C15.6001 13.3192 16.2001 13.9192 17.0001 13.9192C17.8001 13.9192 18.4001 13.3192 18.4001 12.5192ZM14.0001 12.5192C14.0001 10.9192 15.3001 9.51917 17.0001 9.51917C18.6001 9.51917 20.0001 10.9192 20.0001 12.5192C20.0001 14.1192 18.7001 15.5192 17.0001 15.5192C15.4001 15.5192 14.0001 14.1192 14.0001 12.5192Z" fill="#7E8084"/>
<path d="M8.00006 9.51917H6.00006V15.5192H8.00006V9.51917Z" fill="#7E8084"/>
</g>
<defs>
<clipPath id="clip0">
<rect width="20" height="14" fill="white" transform="translate(2.00006 5.51917)"/>
</clipPath>
</defs>
</svg>
