<svg width="24" height="24" viewBox="0 0 24 24" fill="none" xmlns="http://www.w3.org/2000/svg">
<g clip-path="url(#clip0_2393_1740)">
<g clip-path="url(#clip1_2393_1740)">
<path opacity="0.24" d="M20.7 15.7L19.3 14.3C17.9 12.9 16.8 12.1 15.9 12C15.8 12 15.8 12 15.7 12C15.1 12 14.3 12.5 13.4 13.4C11.6 15.1 9.8 16 7.8 16C7.6 16 7.5 16 7.3 16C5.8 15.8 4.4 15.2 3 14.1V15.9V20.9H21V17V16.1L20.7 15.7Z" fill="#7E8084"/>
<path d="M7.8 14C7.7 14 7.6 14 7.5 14C5.6 13.8 3.8 12.5 2 10L3.6 8.8C5 10.8 6.4 11.8 7.6 11.9C8.5 12 9.5 11.6 10.5 10.6C12.5 8.6 14.5 7.8 16.5 8.1C18.2 8.4 20 9.5 22.1 11.5L20.7 12.9C18.9 11.1 17.5 10.2 16.2 10C14.8 9.8 13.5 10.4 11.9 12C10.6 13.3 9.2 14 7.8 14Z" fill="#7E8084"/>
</g>
</g>
<defs>
<clipPath id="clip0_2393_1740">
<rect width="20" height="17" fill="white" transform="translate(2 4)"/>
</clipPath>
<clipPath id="clip1_2393_1740">
<rect width="20.1" height="12.8" fill="white" transform="translate(2 8)"/>
</clipPath>
</defs>
</svg>
