<svg width="24" height="24" viewBox="0 0 24 24" fill="none" xmlns="http://www.w3.org/2000/svg">
<g clip-path="url(#clip0)">
<g clip-path="url(#clip1)">
<path opacity="0.24" d="M20.7 15.7L19.3 14.3C17.9 12.9 16.8 12.1 15.9 12C15.8 12 15.8 12 15.7 12C15.1 12 14.3 12.5 13.4 13.4C11.6 15.1 9.8 16 7.8 16C7.6 16 7.5 16 7.3 16C5.8 15.8 4.4 15.2 3 14.1V15.9V20.9H21V17V16.1L20.7 15.7Z" fill="#7E8084"/>
<path d="M7.8 13.9999C7.7 13.9999 7.6 13.9999 7.5 13.9999C5.6 13.7999 3.8 12.4999 2 9.99993L3.6 8.79993C5 10.7999 6.4 11.7999 7.6 11.8999C8.5 11.9999 9.5 11.5999 10.5 10.5999C12.5 8.59993 14.5 7.79993 16.5 8.09993C18.2 8.39993 20 9.49993 22.1 11.4999L20.7 12.8999C18.9 11.0999 17.5 10.1999 16.2 9.99993C14.8 9.79993 13.5 10.3999 11.9 11.9999C10.6 13.2999 9.2 13.9999 7.8 13.9999Z" fill="#7E8084"/>
</g>
</g>
<defs>
<clipPath id="clip0">
<rect width="20" height="17" fill="white" transform="translate(2 4)"/>
</clipPath>
<clipPath id="clip1">
<rect width="20.1" height="12.8" fill="white" transform="translate(2 8)"/>
</clipPath>
</defs>
</svg>
