<svg width="24" height="25" viewBox="0 0 24 25" fill="none" xmlns="http://www.w3.org/2000/svg">
<g clip-path="url(#clip0)">
<path opacity="0.24" fill-rule="evenodd" clip-rule="evenodd" d="M4.48431 6.04752C9.11461 0.96262 17.5138 1.37771 21.6056 7.18903C23.9746 10.7173 23.867 15.4909 21.3903 19.0192C19.2367 21.9249 15.8985 23.3777 12.5604 23.3777V21.3022C15.2524 21.3022 18.0522 20.057 19.7751 17.5664C21.7133 14.7645 21.7133 11.0287 19.7751 8.33054C16.5446 3.86828 10.1914 3.45319 6.42258 6.98149C3.4075 9.99092 3.08446 14.7645 5.66881 18.0853L7.17635 19.5381L5.66881 20.9909L5.1304 20.472C1.03851 16.5287 0.715466 10.1985 4.48431 6.04752ZM16.2217 10.7171C14.7142 8.43407 11.4837 8.12275 9.54546 9.99068C8.03792 11.3397 7.93024 13.4152 8.89938 14.9718L10.2992 16.5284L8.68401 18.085L7.39184 16.4246C6.96111 15.802 6.63807 15.1794 6.4227 14.5567C5.66893 12.1699 6.53039 9.47181 8.79169 7.81143C11.053 6.15106 14.2834 6.25483 16.5448 7.91521C19.5598 10.302 19.7752 14.6605 17.0832 17.2548C15.8987 18.5001 14.1758 19.1228 12.5605 19.1228V17.0473C14.0681 17.0473 15.4679 16.3209 16.3294 14.868C17.0832 13.6228 17.0832 11.9624 16.2217 10.7171Z" fill="#7E8084"/>
<path d="M4.9149 20.2644L5.66867 20.9908L14.2832 12.6889L12.7756 11.2361L4.16113 19.538" fill="#7E8084"/>
<path d="M14.0679 10.6135C15.2573 10.6135 16.2216 9.68425 16.2216 8.538C16.2216 7.39174 15.2573 6.46252 14.0679 6.46252C12.8785 6.46252 11.9143 7.39174 11.9143 8.538C11.9143 9.68425 12.8785 10.6135 14.0679 10.6135Z" fill="#7E8084"/>
<path d="M13.314 20.0569C14.5034 20.0569 15.4677 19.1277 15.4677 17.9815C15.4677 16.8352 14.5034 15.906 13.314 15.906C12.1246 15.906 11.1604 16.8352 11.1604 17.9815C11.1604 19.1277 12.1246 20.0569 13.314 20.0569Z" fill="#7E8084"/>
<path d="M2.65363 15.6984C3.84304 15.6984 4.80725 14.7692 4.80725 13.623C4.80725 12.4767 3.84304 11.5475 2.65363 11.5475C1.46421 11.5475 0.5 12.4767 0.5 13.623C0.5 14.7692 1.46421 15.6984 2.65363 15.6984Z" fill="#7E8084"/>
</g>
<defs>
<clipPath id="clip0">
<rect width="22.8284" height="20.7547" fill="white" transform="translate(0.5 2.51917)"/>
</clipPath>
</defs>
</svg>
