<svg width="24" height="25" viewBox="0 0 24 25" fill="none" xmlns="http://www.w3.org/2000/svg">
<g clip-path="url(#clip0)">
<g clip-path="url(#clip1)">
<path opacity="0.24" d="M20.7001 16.2192L19.3001 14.8192C17.9001 13.4192 16.8001 12.6192 15.9001 12.5192C15.8001 12.5192 15.8001 12.5192 15.7001 12.5192C15.1001 12.5192 14.3001 13.0192 13.4001 13.9192C11.6001 15.6192 9.80006 16.5192 7.80006 16.5192C7.60006 16.5192 7.50006 16.5192 7.30006 16.5192C5.80006 16.3192 4.40006 15.7192 3.00006 14.6192V16.4192V21.4192H21.0001V17.5192V16.6192L20.7001 16.2192Z" fill="#7E8084"/>
<path d="M7.80006 14.5192C7.70006 14.5192 7.60006 14.5192 7.50006 14.5192C5.60006 14.3192 3.80006 13.0192 2.00006 10.5192L3.60006 9.31916C5.00006 11.3192 6.40006 12.3192 7.60006 12.4192C8.50006 12.5192 9.50006 12.1192 10.5001 11.1192C12.5001 9.11916 14.5001 8.31916 16.5001 8.61916C18.2001 8.91916 20.0001 10.0192 22.1001 12.0192L20.7001 13.4192C18.9001 11.6192 17.5001 10.7192 16.2001 10.5192C14.8001 10.3192 13.5001 10.9192 11.9001 12.5192C10.6001 13.8192 9.20006 14.5192 7.80006 14.5192Z" fill="#7E8084"/>
</g>
</g>
<defs>
<clipPath id="clip0">
<rect width="20" height="17" fill="white" transform="translate(2.00006 4.51917)"/>
</clipPath>
<clipPath id="clip1">
<rect width="20.1" height="12.8" fill="white" transform="translate(2.00006 8.51917)"/>
</clipPath>
</defs>
</svg>
