<svg width="24" height="25" viewBox="0 0 24 25" fill="none" xmlns="http://www.w3.org/2000/svg">
<path d="M21 5.51917C19.89 5.16917 18.67 5.01917 17.5 5.01917C15.55 5.01917 13.45 5.41917 12 6.51917C10.55 5.41917 8.45 5.01917 6.5 5.01917C4.55 5.01917 2.45 5.41917 1 6.51917V21.1692C1 21.4192 1.25 21.6692 1.5 21.6692C1.6 21.6692 1.65 21.6192 1.75 21.6192C3.1 20.9692 5.05 20.5192 6.5 20.5192C8.45 20.5192 10.55 20.9192 12 22.0192C13.35 21.1692 15.8 20.5192 17.5 20.5192C19.15 20.5192 20.85 20.8192 22.25 21.5692C22.35 21.6192 22.4 21.6192 22.5 21.6192C22.75 21.6192 23 21.3692 23 21.1192V6.51917C22.4 6.06916 21.75 5.76917 21 5.51917ZM3 19.0192V7.51917C4.1 7.16917 5.3 7.01917 6.5 7.01917C7.84 7.01917 9.63 7.42916 11 8.00916V19.5092C9.63 18.9292 7.84 18.5192 6.5 18.5192C5.3 18.5192 4.1 18.6692 3 19.0192ZM21 19.0192C19.9 18.6692 18.7 18.5192 17.5 18.5192C16.16 18.5192 14.37 18.9292 13 19.5092V8.00916C14.37 7.41916 16.16 7.01917 17.5 7.01917C18.7 7.01917 19.9 7.16917 21 7.51917V19.0192Z" fill="#7E8084"/>
<path opacity="0.24" d="M11 8.00916C9.63 7.42916 7.84 7.01917 6.5 7.01917C5.3 7.01917 4.1 7.16917 3 7.51917V19.0192C4.1 18.6692 5.3 18.5192 6.5 18.5192C7.84 18.5192 9.63 18.9292 11 19.5092V8.00916Z" fill="#7E8084"/>
<path d="M17.5 11.0192C18.38 11.0192 19.23 11.1092 20 11.2792V9.75916C19.21 9.60916 18.36 9.51917 17.5 9.51917C16.22 9.51917 15.04 9.67917 14 9.98917V11.5592C14.99 11.2092 16.18 11.0192 17.5 11.0192Z" fill="#7E8084"/>
<path d="M17.5 13.6792C18.38 13.6792 19.23 13.7692 20 13.9392V12.4192C19.21 12.2692 18.36 12.1792 17.5 12.1792C16.22 12.1792 15.04 12.3392 14 12.6492V14.2192C14.99 13.8792 16.18 13.6792 17.5 13.6792Z" fill="#7E8084"/>
<path d="M17.5 16.3491C18.38 16.3491 19.23 16.4391 20 16.6091V15.0891C19.21 14.9391 18.36 14.8491 17.5 14.8491C16.22 14.8491 15.04 15.0091 14 15.3191V16.8891C14.99 16.5391 16.18 16.3491 17.5 16.3491Z" fill="#7E8084"/>
</svg>
