<svg width="24" height="24" viewBox="0 0 24 24" fill="none" xmlns="http://www.w3.org/2000/svg">
<path d="M21 5C19.89 4.65 18.67 4.5 17.5 4.5C15.55 4.5 13.45 4.9 12 6C10.55 4.9 8.45 4.5 6.5 4.5C4.55 4.5 2.45 4.9 1 6V20.65C1 20.9 1.25 21.15 1.5 21.15C1.6 21.15 1.65 21.1 1.75 21.1C3.1 20.45 5.05 20 6.5 20C8.45 20 10.55 20.4 12 21.5C13.35 20.65 15.8 20 17.5 20C19.15 20 20.85 20.3 22.25 21.05C22.35 21.1 22.4 21.1 22.5 21.1C22.75 21.1 23 20.85 23 20.6V6C22.4 5.55 21.75 5.25 21 5ZM3 18.5V7C4.1 6.65 5.3 6.5 6.5 6.5C7.84 6.5 9.63 6.91 11 7.49V18.99C9.63 18.41 7.84 18 6.5 18C5.3 18 4.1 18.15 3 18.5ZM21 18.5C19.9 18.15 18.7 18 17.5 18C16.16 18 14.37 18.41 13 18.99V7.49C14.37 6.9 16.16 6.5 17.5 6.5C18.7 6.5 19.9 6.65 21 7V18.5Z" fill="#7E8084"/>
<path opacity="0.24" d="M11 7.49C9.63 6.91 7.84 6.5 6.5 6.5C5.3 6.5 4.1 6.65 3 7V18.5C4.1 18.15 5.3 18 6.5 18C7.84 18 9.63 18.41 11 18.99V7.49Z" fill="#7E8084"/>
<path d="M17.5 10.5C18.38 10.5 19.23 10.59 20 10.76V9.24C19.21 9.09 18.36 9 17.5 9C16.22 9 15.04 9.16 14 9.47V11.04C14.99 10.69 16.18 10.5 17.5 10.5Z" fill="#7E8084"/>
<path d="M17.5 13.16C18.38 13.16 19.23 13.25 20 13.42V11.9C19.21 11.75 18.36 11.66 17.5 11.66C16.22 11.66 15.04 11.82 14 12.13V13.7C14.99 13.36 16.18 13.16 17.5 13.16Z" fill="#7E8084"/>
<path d="M17.5 15.83C18.38 15.83 19.23 15.92 20 16.09V14.57C19.21 14.42 18.36 14.33 17.5 14.33C16.22 14.33 15.04 14.49 14 14.8V16.37C14.99 16.02 16.18 15.83 17.5 15.83Z" fill="#7E8084"/>
</svg>
