<svg width="24" height="25" viewBox="0 0 24 25" fill="none" xmlns="http://www.w3.org/2000/svg">
<path d="M21.0001 5.51917C19.8901 5.16917 18.6701 5.01917 17.5001 5.01917C15.5501 5.01917 13.4501 5.41917 12.0001 6.51917C10.5501 5.41917 8.45006 5.01917 6.50006 5.01917C4.55006 5.01917 2.45006 5.41917 1.00006 6.51917V21.1692C1.00006 21.4192 1.25006 21.6692 1.50006 21.6692C1.60006 21.6692 1.65006 21.6192 1.75006 21.6192C3.10006 20.9692 5.05006 20.5192 6.50006 20.5192C8.45006 20.5192 10.5501 20.9192 12.0001 22.0192C13.3501 21.1692 15.8001 20.5192 17.5001 20.5192C19.1501 20.5192 20.8501 20.8192 22.2501 21.5692C22.3501 21.6192 22.4001 21.6192 22.5001 21.6192C22.7501 21.6192 23.0001 21.3692 23.0001 21.1192V6.51917C22.4001 6.06916 21.7501 5.76917 21.0001 5.51917ZM3.00006 19.0192V7.51917C4.10006 7.16917 5.30006 7.01917 6.50006 7.01917C7.84006 7.01917 9.63006 7.42916 11.0001 8.00916V19.5092C9.63006 18.9292 7.84006 18.5192 6.50006 18.5192C5.30006 18.5192 4.10006 18.6692 3.00006 19.0192ZM21.0001 19.0192C19.9001 18.6692 18.7001 18.5192 17.5001 18.5192C16.1601 18.5192 14.3701 18.9292 13.0001 19.5092V8.00916C14.3701 7.41916 16.1601 7.01917 17.5001 7.01917C18.7001 7.01917 19.9001 7.16917 21.0001 7.51917V19.0192Z" fill="#7E8084"/>
<path opacity="0.24" d="M11.0001 8.00916C9.63006 7.42916 7.84006 7.01917 6.50006 7.01917C5.30006 7.01917 4.10006 7.16917 3.00006 7.51917V19.0192C4.10006 18.6692 5.30006 18.5192 6.50006 18.5192C7.84006 18.5192 9.63006 18.9292 11.0001 19.5092V8.00916Z" fill="#7E8084"/>
<path d="M17.5001 11.0192C18.3801 11.0192 19.2301 11.1092 20.0001 11.2792V9.75916C19.2101 9.60916 18.3601 9.51917 17.5001 9.51917C16.2201 9.51917 15.0401 9.67917 14.0001 9.98917V11.5592C14.9901 11.2092 16.1801 11.0192 17.5001 11.0192Z" fill="#7E8084"/>
<path d="M17.5001 13.6792C18.3801 13.6792 19.2301 13.7692 20.0001 13.9392V12.4192C19.2101 12.2692 18.3601 12.1792 17.5001 12.1792C16.2201 12.1792 15.0401 12.3392 14.0001 12.6492V14.2192C14.9901 13.8792 16.1801 13.6792 17.5001 13.6792Z" fill="#7E8084"/>
<path d="M17.5001 16.3492C18.3801 16.3492 19.2301 16.4392 20.0001 16.6092V15.0892C19.2101 14.9392 18.3601 14.8492 17.5001 14.8492C16.2201 14.8492 15.0401 15.0092 14.0001 15.3192V16.8892C14.9901 16.5392 16.1801 16.3492 17.5001 16.3492Z" fill="#7E8084"/>
</svg>
