<svg width="24" height="25" viewBox="0 0 24 25" fill="none" xmlns="http://www.w3.org/2000/svg">
<g clip-path="url(#clip0)">
<path d="M12 17.5192H5C3.9 17.5192 3 16.6192 3 15.5192V3.51917C3 2.41917 3.9 1.51917 5 1.51917H17V3.51917H5V15.5192H12V13.5192L16 16.5192L12 19.5192V17.5192ZM20 21.5192V7.51917H9V13.5192H7V7.51917C7 6.41917 7.9 5.51917 9 5.51917H20C21.1 5.51917 22 6.41917 22 7.51917V21.5192C22 22.6192 21.1 23.5192 20 23.5192H9C7.9 23.5192 7 22.6192 7 21.5192V19.5192H9V21.5192H20Z" fill="#7E8084"/>
<path opacity="0.24" d="M11 10.5192L18.7 16.5192L12.3 21.5192H20V7.51917H9V13.5192H11V10.5192Z" fill="#7E8084"/>
<path opacity="0.24" d="M11 19.5192H9V21.5192H11V19.5192Z" fill="#7E8084"/>
</g>
<defs>
<clipPath id="clip0">
<rect width="19" height="22" fill="white" transform="translate(3 1.51917)"/>
</clipPath>
</defs>
</svg>
