<svg width="24" height="25" viewBox="0 0 24 25" fill="none" xmlns="http://www.w3.org/2000/svg">
<g clip-path="url(#clip0)">
<path d="M12.0001 17.5192H5.00006C3.90006 17.5192 3.00006 16.6192 3.00006 15.5192V3.51917C3.00006 2.41917 3.90006 1.51917 5.00006 1.51917H17.0001V3.51917H5.00006V15.5192H12.0001V13.5192L16.0001 16.5192L12.0001 19.5192V17.5192ZM20.0001 21.5192V7.51917H9.00006V13.5192H7.00006V7.51917C7.00006 6.41917 7.90006 5.51917 9.00006 5.51917H20.0001C21.1001 5.51917 22.0001 6.41917 22.0001 7.51917V21.5192C22.0001 22.6192 21.1001 23.5192 20.0001 23.5192H9.00006C7.90006 23.5192 7.00006 22.6192 7.00006 21.5192V19.5192H9.00006V21.5192H20.0001Z" fill="#7E8084"/>
<path opacity="0.24" d="M11.0001 10.5192L18.7001 16.5192L12.3001 21.5192H20.0001V7.51917H9.00006V13.5192H11.0001V10.5192Z" fill="#7E8084"/>
<path opacity="0.24" d="M11.0001 19.5192H9.00006V21.5192H11.0001V19.5192Z" fill="#7E8084"/>
</g>
<defs>
<clipPath id="clip0">
<rect width="19" height="22" fill="white" transform="translate(3.00006 1.51917)"/>
</clipPath>
</defs>
</svg>
