<svg width="24" height="25" viewBox="0 0 24 25" fill="none" xmlns="http://www.w3.org/2000/svg">
<path opacity="0.24" d="M5 18.6192V19.5192H5.9L15 10.4192L14.1 9.51917L5 18.6192Z" fill="#7E8084"/>
<path d="M20.7 7.51917C21.1 7.11916 21.1 6.51917 20.7 6.11916L18.4 3.81916C18.2 3.61916 17.9 3.51917 17.7 3.51917C17.5 3.51917 17.1 3.61916 17 3.81916L15.2 5.61916L19 9.41916C18.9 9.41916 20.7 7.51917 20.7 7.51917ZM3 17.7192V21.5192H6.8L17.8 10.4192L14 6.61916L3 17.7192ZM5.9 19.5192H5V18.6192L14.1 9.51917L15 10.4192L5.9 19.5192Z" fill="#7E8084"/>
</svg>
