<svg width="24" height="24" viewBox="0 0 24 24" fill="none" xmlns="http://www.w3.org/2000/svg">
<path d="M13.4002 11.7L16.3002 14.6C17.7002 13.2 16.3002 11.8 16.3002 11.8L14.8002 10.3C15.0002 9.90003 15.1002 9.50003 15.1002 9.10003C15.1002 8.00003 14.6002 7.10003 13.7002 6.60003L15.1002 2.20003C13.1002 1.50003 12.5002 3.40003 12.5002 3.40003L11.7002 6.00003C10.5002 6.20003 9.5002 7.00003 9.2002 8.20003L4.7002 9.60003C5.3002 11.5 7.2002 10.9 7.2002 10.9L9.3002 10.2C9.6002 10.9 10.3002 11.5 11.0002 11.8V19C11.0002 19 9.00024 19 9.00024 21C9.00024 21.5 9.00024 21.8 9.00024 22H15.0002V21C15.0002 21 15.0002 19 13.0002 19V11.8C13.1002 11.8 13.3002 11.7 13.4002 11.7ZM10.5002 9.00003C10.5002 8.20003 11.2002 7.50003 12.0002 7.50003C12.8002 7.50003 13.5002 8.20003 13.5002 9.00003C13.5002 9.80003 12.9002 10.5 12.0002 10.5C11.1002 10.5 10.5002 9.80003 10.5002 9.00003Z" fill="#7E8084"/>
</svg>
