<svg width="24" height="24" viewBox="0 0 24 24" fill="none" xmlns="http://www.w3.org/2000/svg">
<path d="M13.4 11.7L16.3 14.6C17.7 13.2 16.3 11.8 16.3 11.8L14.8 10.3C15 9.90003 15.1 9.50003 15.1 9.10003C15.1 8.00003 14.6 7.10003 13.7 6.60003L15.1 2.20003C13.1 1.50003 12.5 3.40003 12.5 3.40003L11.7 6.00003C10.5 6.20003 9.49995 7.00003 9.19995 8.20003L4.69995 9.60003C5.29995 11.5 7.19995 10.9 7.19995 10.9L9.29995 10.2C9.59995 10.9 10.3 11.5 11 11.8V19C11 19 9 19 9 21C9 21.5 9 21.8 9 22H15V21C15 21 15 19 13 19V11.8C13.1 11.8 13.3 11.7 13.4 11.7ZM10.5 9.00003C10.5 8.20003 11.2 7.50003 12 7.50003C12.8 7.50003 13.5 8.20003 13.5 9.00003C13.5 9.80003 12.9 10.5 12 10.5C11.1 10.5 10.5 9.80003 10.5 9.00003Z" fill="#7E8085"/>
</svg>
