<svg width="24" height="25" viewBox="0 0 24 25" fill="none" xmlns="http://www.w3.org/2000/svg">
<path d="M13.4 12.2192L16.3 15.1192C17.7 13.7192 16.3 12.3192 16.3 12.3192L14.8 10.8192C15 10.4192 15.1 10.0192 15.1 9.61919C15.1 8.5192 14.6 7.61919 13.7 7.11919L15.1 2.7192C13.1 2.0192 12.5 3.9192 12.5 3.9192L11.7 6.5192C10.5 6.7192 9.49995 7.51919 9.19995 8.71919L4.69995 10.1192C5.29995 12.0192 7.19995 11.4192 7.19995 11.4192L9.29995 10.7192C9.59995 11.4192 10.3 12.0192 11 12.3192V19.5192C11 19.5192 9 19.5192 9 21.5192C9 22.0192 9 22.3192 9 22.5192H15V21.5192C15 21.5192 15 19.5192 13 19.5192V12.3192C13.1 12.3192 13.3 12.2192 13.4 12.2192ZM10.5 9.5192C10.5 8.71919 11.2 8.0192 12 8.0192C12.8 8.0192 13.5 8.71919 13.5 9.5192C13.5 10.3192 12.9 11.0192 12 11.0192C11.1 11.0192 10.5 10.3192 10.5 9.5192Z" fill="#7E8084"/>
</svg>
