<svg width="24" height="25" viewBox="0 0 24 25" fill="none" xmlns="http://www.w3.org/2000/svg">
<path opacity="0.24" d="M8 14.0192H6V19.5192H12V11.5192L8 18.5192V14.0192ZM6 14.0192L10 6.51917V11.5192H12V5.51917H6V14.0192Z" fill="#7E8084"/>
<path d="M12 3.51917H6C4.9 3.51917 4 4.41917 4 5.51917V21.5192H14V14.0192H15.5V19.0192C15.5 20.3992 16.62 21.5192 18 21.5192C19.38 21.5192 20.5 20.3992 20.5 19.0192V9.51917C20.5 8.82916 20.22 8.19916 19.77 7.74917L19.78 7.73916L16.06 4.01917L15 5.07916L17.11 7.18917C16.17 7.54917 15.5 8.44916 15.5 9.51917C15.5 10.8992 16.62 12.0192 18 12.0192C18.36 12.0192 18.69 11.9392 19 11.8092V19.0192C19 19.5692 18.55 20.0192 18 20.0192C17.45 20.0192 17 19.5692 17 19.0192V14.5192C17 13.4192 16.1 12.5192 15 12.5192H14V5.51917C14 4.41917 13.1 3.51917 12 3.51917ZM12 11.5192V19.5192H6V5.51917H12V11.5192ZM18 10.5192C17.45 10.5192 17 10.0692 17 9.51917C17 8.96916 17.45 8.51917 18 8.51917C18.55 8.51917 19 8.96916 19 9.51917C19 10.0692 18.55 10.5192 18 10.5192ZM10 6.51917L6 14.0192H8V18.5192L12 11.5192H10V6.51917Z" fill="#7E8084"/>
</svg>
