<svg width="24" height="25" viewBox="0 0 24 25" fill="none" xmlns="http://www.w3.org/2000/svg">
<path d="M12 11.5192C11.7348 11.5192 11.4804 11.6245 11.2929 11.8121C11.1054 11.9996 11 12.2539 11 12.5192C11 12.7844 11.1054 13.0387 11.2929 13.2263C11.4804 13.4138 11.7348 13.5192 12 13.5192C12.2652 13.5192 12.5196 13.4138 12.7071 13.2263C12.8946 13.0387 13 12.7844 13 12.5192C13 12.2539 12.8946 11.9996 12.7071 11.8121C12.5196 11.6245 12.2652 11.5192 12 11.5192ZM12.5 2.51917C17 2.51917 17.11 6.08917 14.75 7.26917C13.76 7.75916 13.32 8.80917 13.13 9.73917C13.61 9.93917 14.03 10.2492 14.35 10.6492C18.05 8.64917 22.03 9.43917 22.03 13.0192C22.03 17.5192 18.46 17.6192 17.28 15.2492C16.78 14.2592 15.72 13.8192 14.79 13.6292C14.59 14.1092 14.28 14.5192 13.88 14.8592C15.87 18.5492 15.08 22.5192 11.5 22.5192C7 22.5192 6.91 18.9392 9.27 17.7592C10.25 17.2692 10.69 16.2292 10.89 15.3092C10.4 15.1092 9.97 14.7892 9.65 14.3892C5.96 16.3692 2 15.5892 2 12.0192C2 7.51917 5.56 7.40917 6.74 9.77917C7.24 10.7692 8.29 11.1992 9.22 11.3892C9.41 10.9092 9.73 10.4892 10.14 10.1692C8.15 6.47916 8.94 2.51917 12.5 2.51917Z" fill="#7E8084"/>
</svg>
