<svg width="24" height="25" viewBox="0 0 24 25" fill="none" xmlns="http://www.w3.org/2000/svg">
<g clip-path="url(#clip0)">
<path d="M15.2 12.0192H16.7V16.2192L19.6 17.9192L18.8 19.1192L15.2 16.9192V12.0192Z" fill="#7E8084"/>
<path d="M16.2 11.0192C19 11.0192 21.2 13.2192 21.2 16.0192C21.2 18.8192 19 21.0192 16.2 21.0192C13.4 21.0192 11.2 18.8192 11.2 16.0192C11.2 13.2192 13.5 11.0192 16.2 11.0192ZM16.2 9.01917C12.3 9.01917 9.19995 12.1192 9.19995 16.0192C9.19995 19.9192 12.3 23.0192 16.2 23.0192C20.1 23.0192 23.2 19.9192 23.2 16.0192C23.2 12.1192 20.1 9.01917 16.2 9.01917Z" fill="#7E8084"/>
<path d="M7.2999 13.8192C7.2999 14.2192 7.2999 14.2192 7.0999 14.4192C6.7999 14.7192 6.4999 14.7192 6.1999 14.4192L3.4999 11.6192C3.3999 11.5192 3.1999 11.3192 3.1999 11.1192V7.71916L0.0999014 3.61917C-0.100099 3.31917 -9.85563e-05 2.91917 0.299901 2.61917C0.399901 2.61917 0.499901 2.51917 0.699901 2.51917H9.9999C10.0999 2.51917 10.2999 2.61917 10.3999 2.61917C10.6999 2.81917 10.6999 3.21917 10.4999 3.51917L7.1999 7.71916L7.2999 13.8192Z" fill="#7E8084"/>
</g>
<defs>
<clipPath id="clip0">
<rect width="23.2" height="20.5" fill="white" transform="translate(0 2.51917)"/>
</clipPath>
</defs>
</svg>
