<svg width="24" height="25" viewBox="0 0 24 25" fill="none" xmlns="http://www.w3.org/2000/svg">
<g clip-path="url(#clip0)">
<path d="M15 20.4192C15 20.7192 14.9 21.0192 14.7 21.2192C14.3 21.6192 13.7 21.6192 13.3 21.2192L9.3 17.2192C9.1 17.0192 9 16.7192 9 16.4192V11.3192L4.2 5.11917C3.9 4.71917 4 4.11917 4.4 3.71917C4.6 3.61917 4.8 3.51917 5 3.51917H19C19.2 3.51917 19.4 3.61917 19.6 3.71917C20 4.01917 20.1 4.71917 19.8 5.11917L15 11.3192V20.4192ZM7 5.51917L11 10.6192V16.1192L13 18.1192V10.6192L17 5.51917H7Z" fill="#7E8084"/>
</g>
<defs>
<clipPath id="clip0">
<rect width="16" height="18" fill="white" transform="translate(4 3.51917)"/>
</clipPath>
</defs>
</svg>
