<svg width="24" height="24" viewBox="0 0 24 24" fill="none" xmlns="http://www.w3.org/2000/svg">
<path d="M15 19.9C15 20.2 14.9 20.5 14.7 20.7C14.3 21.1 13.7 21.1 13.3 20.7L9.30001 16.7C9.10001 16.5 9.00001 16.2 9.00001 15.9V10.8L4.20001 4.6C3.90001 4.2 4.00001 3.6 4.40001 3.2C4.60001 3.1 4.80001 3 5.00001 3H19C19.2 3 19.4 3.1 19.6 3.2C20 3.5 20.1 4.2 19.8 4.6L15 10.8V19.9ZM7.00001 5L11 10.1V15.6L13 17.6V10.1L17 5H7.00001Z" fill="#7E8085"/>
<path opacity="0.3" d="M7 5L11 10.1V15.6L13 17.6V10.1L17 5H7Z" fill="#7E8085"/>
</svg>
