<svg width="24" height="24" viewBox="0 0 24 24" fill="none" xmlns="http://www.w3.org/2000/svg">
<g clip-path="url(#clip0_1944_11163)">
<path d="M15.2 11.5H16.7V15.7L19.6 17.4L18.8 18.6L15.2 16.4V11.5Z" fill="#7E8084"/>
<path d="M16.2 10.5C19 10.5 21.2 12.7 21.2 15.5C21.2 18.3 19 20.5 16.2 20.5C13.4 20.5 11.2 18.3 11.2 15.5C11.2 12.7 13.5 10.5 16.2 10.5ZM16.2 8.5C12.3 8.5 9.19995 11.6 9.19995 15.5C9.19995 19.4 12.3 22.5 16.2 22.5C20.1 22.5 23.2 19.4 23.2 15.5C23.2 11.6 20.1 8.5 16.2 8.5Z" fill="#7E8084"/>
<path d="M7.2999 13.3C7.2999 13.7 7.2999 13.7 7.0999 13.9C6.7999 14.2 6.4999 14.2 6.1999 13.9L3.4999 11.1C3.3999 11 3.1999 10.8 3.1999 10.6V7.2L0.0999014 3.1C-0.100099 2.8 -9.85563e-05 2.4 0.299901 2.1C0.399901 2.1 0.499901 2 0.699901 2H9.9999C10.0999 2 10.2999 2.1 10.3999 2.1C10.6999 2.3 10.6999 2.7 10.4999 3L7.1999 7.2L7.2999 13.3Z" fill="#7E8084"/>
</g>
<defs>
<clipPath id="clip0_1944_11163">
<rect width="23.2" height="20.5" fill="white" transform="translate(0 2)"/>
</clipPath>
</defs>
</svg>
