<svg width="24" height="24" viewBox="0 0 24 24" fill="none" xmlns="http://www.w3.org/2000/svg">
<path d="M15.0001 19.9C15.0001 20.2 14.9001 20.5 14.7001 20.7C14.3001 21.1 13.7001 21.1 13.3001 20.7L9.30007 16.7C9.10007 16.5 9.00007 16.2 9.00007 15.9V10.8L4.20007 4.6C3.90007 4.2 4.00007 3.6 4.40007 3.2C4.60007 3.1 4.80007 3 5.00007 3H19.0001C19.2001 3 19.4001 3.1 19.6001 3.2C20.0001 3.5 20.1001 4.2 19.8001 4.6L15.0001 10.8V19.9ZM7.00007 5L11.0001 10.1V15.6L13.0001 17.6V10.1L17.0001 5H7.00007Z" fill="#7E8084"/>
<path opacity="0.24" d="M7 5L11 10.1V15.6L13 17.6V10.1L17 5H7Z" fill="#7E8084"/>
</svg>
