<svg width="24" height="24" viewBox="0 0 24 24" fill="none" xmlns="http://www.w3.org/2000/svg">
<g clip-path="url(#clip0)">
<path d="M15.2 11.5H16.7V15.7L19.6 17.4L18.8 18.6L15.2 16.4V11.5" fill="#7E8085"/>
<path d="M16.2 10.5C19 10.5 21.2 12.7 21.2 15.5C21.2 18.3 19 20.5 16.2 20.5C13.4 20.5 11.2 18.3 11.2 15.5C11.2 12.7 13.5 10.5 16.2 10.5ZM16.2 8.5C12.3 8.5 9.20001 11.6 9.20001 15.5C9.20001 19.4 12.3 22.5 16.2 22.5C20.1 22.5 23.2 19.4 23.2 15.5C23.2 11.6 20.1 8.5 16.2 8.5Z" fill="#7E8085"/>
<path d="M7.30002 13.3C7.30002 13.7 7.30002 13.7 7.10002 13.9C6.80002 14.2 6.50002 14.2 6.20002 13.9L3.50002 11.1C3.40002 11 3.20002 10.8 3.20002 10.6V7.2L0.100024 3.1C-0.0999765 2.8 2.3514e-05 2.4 0.300024 2.1C0.400024 2.1 0.500024 2 0.700024 2H10C10.1 2 10.3 2.1 10.4 2.1C10.7 2.3 10.7 2.7 10.5 3L7.20002 7.2L7.30002 13.3Z" fill="#7E8085"/>
</g>
<defs>
<clipPath id="clip0">
<rect width="23.2" height="20.5" fill="white" transform="translate(0 2)"/>
</clipPath>
</defs>
</svg>
