<svg width="24" height="25" viewBox="0 0 24 25" fill="none" xmlns="http://www.w3.org/2000/svg">
<g clip-path="url(#clip0)">
<path d="M15.0001 20.4192C15.0001 20.7192 14.9001 21.0192 14.7001 21.2192C14.3001 21.6192 13.7001 21.6192 13.3001 21.2192L9.30007 17.2192C9.10007 17.0192 9.00007 16.7192 9.00007 16.4192V11.3192L4.20007 5.11917C3.90007 4.71917 4.00007 4.11917 4.40007 3.71917C4.60007 3.61917 4.80007 3.51917 5.00007 3.51917H19.0001C19.2001 3.51917 19.4001 3.61917 19.6001 3.71917C20.0001 4.01917 20.1001 4.71917 19.8001 5.11917L15.0001 11.3192V20.4192ZM7.00007 5.51917L11.0001 10.6192V16.1192L13.0001 18.1192V10.6192L17.0001 5.51917H7.00007Z" fill="#7E8084"/>
<path opacity="0.24" d="M7 5.51917L11 10.6192V16.1192L13 18.1192V10.6192L17 5.51917H7Z" fill="#7E8084"/>
</g>
<defs>
<clipPath id="clip0">
<rect width="16" height="18" fill="white" transform="translate(4 3.51917)"/>
</clipPath>
</defs>
</svg>
