<svg width="24" height="24" viewBox="0 0 24 24" fill="none" xmlns="http://www.w3.org/2000/svg">
<g clip-path="url(#clip0)">
<path d="M15.2002 11.5H16.7002V15.7L19.6002 17.4L18.8002 18.6L15.2002 16.4V11.5Z" fill="#7E8084"/>
<path d="M16.2002 10.5C19.0002 10.5 21.2002 12.7 21.2002 15.5C21.2002 18.3 19.0002 20.5 16.2002 20.5C13.4002 20.5 11.2002 18.3 11.2002 15.5C11.2002 12.7 13.5002 10.5 16.2002 10.5ZM16.2002 8.5C12.3002 8.5 9.2002 11.6 9.2002 15.5C9.2002 19.4 12.3002 22.5 16.2002 22.5C20.1002 22.5 23.2002 19.4 23.2002 15.5C23.2002 11.6 20.1002 8.5 16.2002 8.5Z" fill="#7E8084"/>
<path d="M7.30015 13.3C7.30015 13.7 7.30015 13.7 7.10015 13.9C6.80015 14.2 6.50015 14.2 6.20015 13.9L3.50015 11.1C3.40015 11 3.20015 10.8 3.20015 10.6V7.2L0.100146 3.1C-0.0998544 2.8 0.000145584 2.4 0.300146 2.1C0.400146 2.1 0.500146 2 0.700146 2H10.0001C10.1001 2 10.3001 2.1 10.4001 2.1C10.7001 2.3 10.7001 2.7 10.5001 3L7.20015 7.2L7.30015 13.3Z" fill="#7E8084"/>
</g>
<defs>
<clipPath id="clip0">
<rect width="23.2" height="20.5" fill="white" transform="translate(0 2)"/>
</clipPath>
</defs>
</svg>
