<svg width="24" height="24" viewBox="0 0 24 24" fill="none" xmlns="http://www.w3.org/2000/svg">
<path d="M20.7999 18.4L14.9999 10.67V6.5L16.3499 4.81C16.6099 4.48 16.3799 4 15.9599 4H8.03993C7.61993 4 7.38993 4.48 7.64993 4.81L8.99993 6.5V10.67L3.19993 18.4C2.70993 19.06 3.17993 20 3.99993 20H19.9999C20.8199 20 21.2899 19.06 20.7999 18.4ZM5.99993 18L10.9999 11.33V6H12.9999V11.33L17.9999 18H5.99993Z" fill="#7E8084"/>
<path opacity="0.24" d="M16 15L12.9368 15.6667L9 13.9267L6 18H18L16 15Z" fill="#7E8084"/>
</svg>
