<svg width="24" height="24" viewBox="0 0 24 24" fill="none" xmlns="http://www.w3.org/2000/svg">
<path fill-rule="evenodd" clip-rule="evenodd" d="M7 4C7 5.1 7.9 6 9 6C10.1 6 11 5.1 11 4C11 2.9 10.1 2 9 2C7.9 2 7 2.9 7 4ZM10 16V22H12V9H17V7H9C7 7 5.21 7.81 4.11 8.71C2.35 10.22 2 11.94 2 14H4C4 11.4803 4.83626 10.835 5.36848 10.4243L5.4 10.4C5.5 10.3 5.7 10.2 6 10.1V22H8V16H10ZM15 4C15 5.1 15.9 6 17 6C18.1 6 19 5.1 19 4C19 2.9 18.1 2 17 2C15.9 2 15 2.9 15 4ZM18 16V22H20V15H21V9C21 8 20 7 19 7H18V9C18 9 18 10 17 10H14V22H16V16H18Z" fill="#7E8084"/>
</svg>
