<svg width="24" height="24" viewBox="0 0 24 24" fill="none" xmlns="http://www.w3.org/2000/svg">
<g clip-path="url(#clip0)">
<path d="M11.5 7.1C11.8 8.2 12.4 9.3 13.2 10.1C13.6 10.5 14.1 10.9 14.5 11.2C14.8 11.4 15.1 11.6 15.3 11.8C16.1 12.5 16.4 13.3 16.4 13.3V13.4C17 14.9 16.6 16.7 15.4 17.8C14.4 18.8 13 19 12 19C11.7 19 11.4 19 11 18.9C9.69997 18.7 8.39997 17.9 7.59997 16.6C7.39997 16.3 7.29997 16 7.19997 15.7C7.59997 15.9 7.99997 16 8.39997 16C8.69997 16 9.09997 15.9 9.39997 15.8C10.3 15.4 11 14.5 11 13.5C11 13 10.8 12.6 10.8 12.5C10.2 10.7 10.5 8.7 11.5 7.1ZM13.8 3C12.9 3.2 12 3.8 11.3 4.3C8.79997 6.4 7.79997 10.1 8.99997 13.2C8.99997 13.3 9.09997 13.4 9.09997 13.5C9.09997 13.7 8.99997 13.9 8.79997 14C8.69997 14 8.69997 14 8.59997 14C8.49997 14 8.29997 13.9 8.19997 13.8C8.09997 13.8 8.09997 13.7 7.99997 13.6C6.79997 12.3 6.69997 10.3 7.39997 8.6C5.79997 10 4.89997 12.3 4.99997 14.5C4.99997 15 5.09997 15.5 5.29997 16C5.39997 16.6 5.69997 17.2 5.99997 17.7C6.99997 19.4 8.89997 20.7 10.8 20.9C11.2 21 11.7 21 12.1 21C13.8 21 15.5 20.5 16.8 19.3C18.6 17.6 19.3 15 18.3 12.7C18.3 12.7 17.9 11.5 16.7 10.4C16 9.8 15.3 9.4 14.7 8.7C13.2 7.3 12.9 4.9 13.8 3Z" fill="#7E8085"/>
<path opacity="0.3" d="M13.0154 12.5462C13.1209 12.6471 13.2265 12.7479 13.4375 12.8487C13.6486 13.0504 13.9652 13.2521 14.0707 13.3529C14.4929 13.6555 14.704 14.0588 14.704 14.1597V14.2605C15.0206 14.9664 14.8095 15.8739 14.1763 16.3782C13.5431 16.8824 12.6988 16.9832 12.0656 16.9832C11.8545 16.9832 11.6435 16.9832 11.4324 16.9832C12.4877 16.1765 13.1209 14.8655 13.1209 13.5546C13.1209 13.1513 13.0154 12.7479 13.0154 12.5462ZM11.4324 7C10.3771 8.61345 10.0605 10.6303 10.7992 12.4454C10.9047 12.6471 11.0103 12.9496 11.0103 13.4538C11.0103 14.4622 10.3771 15.3697 9.32174 15.7731C9.00514 15.874 8.583 15.9748 8.2664 15.9748C7.84427 15.9748 7.42213 15.874 7 15.6723C7.10553 15.9748 7.21107 16.2773 7.42213 16.5798C8.16087 17.7899 9.53281 18.6975 11.0103 18.8992C11.3269 18.8992 11.749 19 12.0656 19C13.1209 19 14.4929 18.7983 15.6538 17.7899C16.9202 16.6807 17.3423 14.8655 16.7091 13.3529V13.2521C16.7091 13.2521 16.3925 12.4454 15.5482 11.7395C15.3372 11.5378 15.0206 11.3361 14.704 11.1345C14.1763 10.8319 13.7541 10.5294 13.2265 10.0252C12.3822 9.21849 11.749 8.10924 11.4324 7Z" fill="#7E8085"/>
</g>
<defs>
<clipPath id="clip0">
<rect width="13.7" height="18" fill="white" transform="translate(5 3)"/>
</clipPath>
</defs>
</svg>
