<svg width="24" height="25" viewBox="0 0 24 25" fill="none" xmlns="http://www.w3.org/2000/svg">
<g clip-path="url(#clip0)">
<path d="M11.5 7.61916C11.8 8.71916 12.4 9.81916 13.2 10.6192C13.6 11.0192 14.1 11.4192 14.5 11.7192C14.8 11.9192 15.1 12.1192 15.3 12.3192C16.1 13.0192 16.4 13.8192 16.4 13.8192V13.9192C17 15.4192 16.6 17.2192 15.4 18.3192C14.4 19.3192 13 19.5192 12 19.5192C11.7 19.5192 11.4 19.5192 11 19.4192C9.69997 19.2192 8.39997 18.4192 7.59997 17.1192C7.39997 16.8192 7.29997 16.5192 7.19997 16.2192C7.59997 16.4192 7.99997 16.5192 8.39997 16.5192C8.69997 16.5192 9.09997 16.4192 9.39997 16.3192C10.3 15.9192 11 15.0192 11 14.0192C11 13.5192 10.8 13.1192 10.8 13.0192C10.2 11.2192 10.5 9.21916 11.5 7.61916ZM13.8 3.51917C12.9 3.71917 12 4.31916 11.3 4.81916C8.79997 6.91916 7.79997 10.6192 8.99997 13.7192C8.99997 13.8192 9.09997 13.9192 9.09997 14.0192C9.09997 14.2192 8.99997 14.4192 8.79997 14.5192C8.69997 14.5192 8.69997 14.5192 8.59997 14.5192C8.49997 14.5192 8.29997 14.4192 8.19997 14.3192C8.09997 14.3192 8.09997 14.2192 7.99997 14.1192C6.79997 12.8192 6.69997 10.8192 7.39997 9.11916C5.79997 10.5192 4.89997 12.8192 4.99997 15.0192C4.99997 15.5192 5.09997 16.0192 5.29997 16.5192C5.39997 17.1192 5.69997 17.7192 5.99997 18.2192C6.99997 19.9192 8.89997 21.2192 10.8 21.4192C11.2 21.5192 11.7 21.5192 12.1 21.5192C13.8 21.5192 15.5 21.0192 16.8 19.8192C18.6 18.1192 19.3 15.5192 18.3 13.2192C18.3 13.2192 17.9 12.0192 16.7 10.9192C16 10.3192 15.3 9.91916 14.7 9.21916C13.2 7.81916 12.9 5.41917 13.8 3.51917Z" fill="#7E8084"/>
<path opacity="0.24" d="M13.0154 13.0654C13.1209 13.1662 13.2265 13.2671 13.4375 13.3679C13.6486 13.5696 13.9652 13.7713 14.0707 13.8721C14.4929 14.1746 14.704 14.578 14.704 14.6788V14.7797C15.0206 15.4856 14.8095 16.3931 14.1763 16.8973C13.5431 17.4015 12.6988 17.5024 12.0656 17.5024C11.8545 17.5024 11.6435 17.5024 11.4324 17.5024C12.4877 16.6956 13.1209 15.3847 13.1209 14.0738C13.1209 13.6704 13.0154 13.2671 13.0154 13.0654ZM11.4324 7.51917C10.3771 9.13261 10.0605 11.1494 10.7992 12.9645C10.9047 13.1662 11.0103 13.4687 11.0103 13.9729C11.0103 14.9814 10.3771 15.8889 9.32174 16.2923C9.00514 16.3931 8.583 16.494 8.2664 16.494C7.84427 16.494 7.42213 16.3931 7 16.1914C7.10553 16.494 7.21107 16.7965 7.42213 17.099C8.16087 18.3091 9.53281 19.2166 11.0103 19.4183C11.3269 19.4183 11.749 19.5192 12.0656 19.5192C13.1209 19.5192 14.4929 19.3175 15.6538 18.3091C16.9202 17.1998 17.3423 15.3847 16.7091 13.8721V13.7713C16.7091 13.7713 16.3925 12.9645 15.5482 12.2587C15.3372 12.057 15.0206 11.8553 14.704 11.6536C14.1763 11.3511 13.7541 11.0486 13.2265 10.5444C12.3822 9.73765 11.749 8.62841 11.4324 7.51917Z" fill="#7E8084"/>
</g>
<defs>
<clipPath id="clip0">
<rect width="13.7" height="18" fill="white" transform="translate(5 3.51917)"/>
</clipPath>
</defs>
</svg>
