<svg width="24" height="24" viewBox="0 0 24 24" fill="none" xmlns="http://www.w3.org/2000/svg">
<g clip-path="url(#clip0)">
<path d="M11.5002 7.1C11.8002 8.2 12.4002 9.3 13.2002 10.1C13.6002 10.5 14.1002 10.9 14.5002 11.2C14.8002 11.4 15.1002 11.6 15.3002 11.8C16.1002 12.5 16.4002 13.3 16.4002 13.3V13.4C17.0002 14.9 16.6002 16.7 15.4002 17.8C14.4002 18.8 13.0002 19 12.0002 19C11.7002 19 11.4002 19 11.0002 18.9C9.70021 18.7 8.40021 17.9 7.60021 16.6C7.40021 16.3 7.30021 16 7.20021 15.7C7.60021 15.9 8.00021 16 8.40021 16C8.70021 16 9.10021 15.9 9.40021 15.8C10.3002 15.4 11.0002 14.5 11.0002 13.5C11.0002 13 10.8002 12.6 10.8002 12.5C10.2002 10.7 10.5002 8.7 11.5002 7.1ZM13.8002 3C12.9002 3.2 12.0002 3.8 11.3002 4.3C8.80021 6.4 7.80021 10.1 9.00021 13.2C9.00021 13.3 9.10021 13.4 9.10021 13.5C9.10021 13.7 9.00021 13.9 8.80021 14C8.70021 14 8.70021 14 8.60021 14C8.50021 14 8.30021 13.9 8.20021 13.8C8.10021 13.8 8.10021 13.7 8.00021 13.6C6.80021 12.3 6.70021 10.3 7.40021 8.6C5.80021 10 4.90021 12.3 5.00021 14.5C5.00021 15 5.10021 15.5 5.30021 16C5.40021 16.6 5.70021 17.2 6.00021 17.7C7.00021 19.4 8.90021 20.7 10.8002 20.9C11.2002 21 11.7002 21 12.1002 21C13.8002 21 15.5002 20.5 16.8002 19.3C18.6002 17.6 19.3002 15 18.3002 12.7C18.3002 12.7 17.9002 11.5 16.7002 10.4C16.0002 9.8 15.3002 9.4 14.7002 8.7C13.2002 7.3 12.9002 4.9 13.8002 3Z" fill="#7E8084"/>
<path opacity="0.24" d="M13.0154 12.5462C13.1209 12.6471 13.2265 12.7479 13.4375 12.8487C13.6486 13.0504 13.9652 13.2521 14.0707 13.3529C14.4929 13.6555 14.704 14.0588 14.704 14.1597V14.2605C15.0206 14.9664 14.8095 15.8739 14.1763 16.3782C13.5431 16.8824 12.6988 16.9832 12.0656 16.9832C11.8545 16.9832 11.6435 16.9832 11.4324 16.9832C12.4877 16.1765 13.1209 14.8655 13.1209 13.5546C13.1209 13.1513 13.0154 12.7479 13.0154 12.5462ZM11.4324 7C10.3771 8.61345 10.0605 10.6303 10.7992 12.4454C10.9047 12.6471 11.0103 12.9496 11.0103 13.4538C11.0103 14.4622 10.3771 15.3697 9.32174 15.7731C9.00514 15.874 8.583 15.9748 8.2664 15.9748C7.84427 15.9748 7.42213 15.874 7 15.6723C7.10553 15.9748 7.21107 16.2773 7.42213 16.5798C8.16087 17.7899 9.53281 18.6975 11.0103 18.8992C11.3269 18.8992 11.749 19 12.0656 19C13.1209 19 14.4929 18.7983 15.6538 17.7899C16.9202 16.6807 17.3423 14.8655 16.7091 13.3529V13.2521C16.7091 13.2521 16.3925 12.4454 15.5482 11.7395C15.3372 11.5378 15.0206 11.3361 14.704 11.1345C14.1763 10.8319 13.7541 10.5294 13.2265 10.0252C12.3822 9.21849 11.749 8.10924 11.4324 7Z" fill="#7E8084"/>
</g>
<defs>
<clipPath id="clip0">
<rect width="13.7" height="18" fill="white" transform="translate(5 3)"/>
</clipPath>
</defs>
</svg>
