<svg width="24" height="24" viewBox="0 0 24 24" fill="none" xmlns="http://www.w3.org/2000/svg">
<path opacity="0.3" d="M6 19H12V12H6V19Z" fill="#7E8085"/>
<path d="M12 3H6C4.9 3 4 3.9 4 5V21H14V13.5H15.5V18.5C15.5 19.9 16.6 21 18 21C19.4 21 20.5 19.9 20.5 18.5V9C20.5 8.3 20.2 7.7 19.8 7.2L16.1 3.5L15 4.6L17.1 6.7C16.2 7 15.5 7.9 15.5 9C15.5 10.4 16.6 11.5 18 11.5C18.4 11.5 18.7 11.4 19 11.3V18.5C19 19 18.5 19.5 18 19.5C17.5 19.5 17 19 17 18.5V14C17 12.9 16.1 12 15 12H14V5C14 3.9 13.1 3 12 3ZM12 13.5V19H6V12H12V13.5ZM12 10H6V5H12V10ZM18 10C17.5 10 17 9.6 17 9C17 8.4 17.5 8 18 8C18.5 8 19 8.4 19 9C19 9.6 18.5 10 18 10Z" fill="#7E8085"/>
</svg>
