<svg width="24" height="25" viewBox="0 0 24 25" fill="none" xmlns="http://www.w3.org/2000/svg">
<path opacity="0.24" d="M6 19.5192H12V12.5192H6V19.5192Z" fill="#7E8084"/>
<path d="M12 3.51917H6C4.9 3.51917 4 4.41917 4 5.51917V21.5192H14V14.0192H15.5V19.0192C15.5 20.4192 16.6 21.5192 18 21.5192C19.4 21.5192 20.5 20.4192 20.5 19.0192V9.51917C20.5 8.81917 20.2 8.21916 19.8 7.71916L16.1 4.01917L15 5.11916L17.1 7.21916C16.2 7.51916 15.5 8.41917 15.5 9.51917C15.5 10.9192 16.6 12.0192 18 12.0192C18.4 12.0192 18.7 11.9192 19 11.8192V19.0192C19 19.5192 18.5 20.0192 18 20.0192C17.5 20.0192 17 19.5192 17 19.0192V14.5192C17 13.4192 16.1 12.5192 15 12.5192H14V5.51917C14 4.41917 13.1 3.51917 12 3.51917ZM12 14.0192V19.5192H6V12.5192H12V14.0192ZM12 10.5192H6V5.51917H12V10.5192ZM18 10.5192C17.5 10.5192 17 10.1192 17 9.51917C17 8.91917 17.5 8.51917 18 8.51917C18.5 8.51917 19 8.91917 19 9.51917C19 10.1192 18.5 10.5192 18 10.5192Z" fill="#7E8084"/>
</svg>
