<svg width="24" height="24" viewBox="0 0 24 24" fill="none" xmlns="http://www.w3.org/2000/svg">
<path d="M14 5.8999C13.6 5.8999 13.3 6.1999 13.1 6.5999L11.8 9.7999L11.7 9.9999C11 10.0999 10.4 10.5999 10.1 11.2999C9.7 12.2999 10.2 13.4999 11.2 13.8999C12.2 14.2999 13.4 13.7999 13.8 12.7999C14.1 12.0999 13.9 11.3999 13.5 10.7999L13.6 10.4999L15 7.2999C15.2 6.7999 14.9 6.1999 14.4 5.9999C14.3 5.8999 14.1 5.8999 14 5.8999ZM10 5.9999C9.4 5.9999 9 6.3999 9 6.9999C9 7.5999 9.4 7.9999 10 7.9999C10.6 7.9999 11 7.5999 11 6.9999C11 6.3999 10.6 5.9999 10 5.9999ZM7 8.9999C6.4 8.9999 6 9.3999 6 9.9999C6 10.5999 6.4 10.9999 7 10.9999C7.6 10.9999 8 10.5999 8 9.9999C8 9.3999 7.6 8.9999 7 8.9999ZM17 8.9999C16.4 8.9999 16 9.3999 16 9.9999C16 10.5999 16.4 10.9999 17 10.9999C17.6 10.9999 18 10.5999 18 9.9999C18 9.3999 17.6 8.9999 17 8.9999Z" fill="#7E8084"/>
<path d="M12 2C17.5 2 22 6.5 22 12C22 17.5 17.5 22 12 22C6.5 22 2 17.5 2 12C2 6.5 6.5 2 12 2ZM12 4C7.6 4 4 7.6 4 12C4 16.4 7.6 20 12 20C16.4 20 20 16.4 20 12C20 7.6 16.4 4 12 4Z" fill="#7E8084"/>
<path opacity="0.24" d="M12 2C6.5 2 2 6.5 2 12C2 17.5 6.5 22 12 22C17.5 22 22 17.5 22 12C22 6.5 17.5 2 12 2ZM17.3 18C15.9 16.7 14 16 12 16C10 16 8.2 16.7 6.7 18C5 16.5 4 14.4 4 12C4 7.6 7.6 4 12 4C16.4 4 20 7.6 20 12C20 14.4 19 16.5 17.3 18Z" fill="#7E8084"/>
</svg>
