<svg width="24" height="24" viewBox="0 0 24 24" fill="none" xmlns="http://www.w3.org/2000/svg">
<path d="M14 5.9C13.6 5.9 13.3 6.2 13.1 6.6L11.8 9.8L11.7 10C11 10.1 10.4 10.6 10.1 11.3C9.7 12.3 10.2 13.5 11.2 13.9C12.2 14.3 13.4 13.8 13.8 12.8C14.1 12.1 13.9 11.4 13.5 10.8L13.6 10.5L15 7.3C15.2 6.8 14.9 6.2 14.4 6C14.3 5.9 14.1 5.9 14 5.9ZM10 6C9.4 6 9 6.4 9 7C9 7.6 9.4 8 10 8C10.6 8 11 7.6 11 7C11 6.4 10.6 6 10 6ZM7 9C6.4 9 6 9.4 6 10C6 10.6 6.4 11 7 11C7.6 11 8 10.6 8 10C8 9.4 7.6 9 7 9ZM17 9C16.4 9 16 9.4 16 10C16 10.6 16.4 11 17 11C17.6 11 18 10.6 18 10C18 9.4 17.6 9 17 9Z" fill="#7E8085"/>
<path d="M12 2C17.5 2 22 6.5 22 12C22 17.5 17.5 22 12 22C6.5 22 2 17.5 2 12C2 6.5 6.5 2 12 2ZM12 4C7.6 4 4 7.6 4 12C4 16.4 7.6 20 12 20C16.4 20 20 16.4 20 12C20 7.6 16.4 4 12 4Z" fill="#7E8085"/>
<path opacity="0.3" d="M12 2C6.5 2 2 6.5 2 12C2 17.5 6.5 22 12 22C17.5 22 22 17.5 22 12C22 6.5 17.5 2 12 2ZM17.3 18C15.9 16.7 14 16 12 16C10 16 8.2 16.7 6.7 18C5 16.5 4 14.4 4 12C4 7.6 7.6 4 12 4C16.4 4 20 7.6 20 12C20 14.4 19 16.5 17.3 18Z" fill="#7E8085"/>
</svg>
