<svg width="24" height="25" viewBox="0 0 24 25" fill="none" xmlns="http://www.w3.org/2000/svg">
<g clip-path="url(#clip0)">
<path d="M14 6.41919C13.6 6.41919 13.3 6.71919 13.1 7.11919L11.8 10.3192L11.7 10.5192C11 10.6192 10.4 11.1192 10.1 11.8192C9.7 12.8192 10.2 14.0192 11.2 14.4192C12.2 14.8192 13.4 14.3192 13.8 13.3192C14.1 12.6192 13.9 11.9192 13.5 11.3192L13.6 11.0192L15 7.81919C15.2 7.31919 14.9 6.71919 14.4 6.51919C14.3 6.41919 14.1 6.41919 14 6.41919ZM10 6.51919C9.4 6.51919 9 6.91919 9 7.51919C9 8.11919 9.4 8.51919 10 8.51919C10.6 8.51919 11 8.11919 11 7.51919C11 6.91919 10.6 6.51919 10 6.51919ZM7 9.51919C6.4 9.51919 6 9.91919 6 10.5192C6 11.1192 6.4 11.5192 7 11.5192C7.6 11.5192 8 11.1192 8 10.5192C8 9.91919 7.6 9.51919 7 9.51919ZM17 9.51919C16.4 9.51919 16 9.91919 16 10.5192C16 11.1192 16.4 11.5192 17 11.5192C17.6 11.5192 18 11.1192 18 10.5192C18 9.91919 17.6 9.51919 17 9.51919Z" fill="#7E8084"/>
<path d="M12 2.51917C17.5 2.51917 22 7.01917 22 12.5192C22 18.0192 17.5 22.5192 12 22.5192C6.5 22.5192 2 18.0192 2 12.5192C2 7.01917 6.5 2.51917 12 2.51917ZM12 4.51917C7.6 4.51917 4 8.11916 4 12.5192C4 16.9192 7.6 20.5192 12 20.5192C16.4 20.5192 20 16.9192 20 12.5192C20 8.11916 16.4 4.51917 12 4.51917Z" fill="#7E8084"/>
<path opacity="0.24" d="M12 2.51917C6.5 2.51917 2 7.01917 2 12.5192C2 18.0192 6.5 22.5192 12 22.5192C17.5 22.5192 22 18.0192 22 12.5192C22 7.01917 17.5 2.51917 12 2.51917ZM17.3 18.5192C15.9 17.2192 14 16.5192 12 16.5192C10 16.5192 8.2 17.2192 6.7 18.5192C5 17.0192 4 14.9192 4 12.5192C4 8.11916 7.6 4.51917 12 4.51917C16.4 4.51917 20 8.11916 20 12.5192C20 14.9192 19 17.0192 17.3 18.5192Z" fill="#7E8084"/>
</g>
<defs>
<clipPath id="clip0">
<rect width="20" height="20" fill="white" transform="translate(2 2.51917)"/>
</clipPath>
</defs>
</svg>
