<svg width="24" height="25" viewBox="0 0 24 25" fill="none" xmlns="http://www.w3.org/2000/svg">
<path opacity="0.24" d="M20.0996 11.519H12.5996V18.519H20.0996V11.519Z" fill="#7E8084"/>
<path d="M8.00039 9.91914L10.2004 12.1191C11.3004 11.0191 10.2004 9.91914 10.2004 9.91914L9.10039 8.81914C9.20039 8.51914 9.30039 8.21914 9.30039 7.81914C9.30039 7.01914 8.90039 6.31914 8.30039 5.91914L9.30039 2.51914C7.80039 2.11914 7.40039 3.51914 7.40039 3.51914L6.80039 5.51914C5.90039 5.61914 5.10039 6.21914 4.80039 7.11914L1.40039 8.41914C1.90039 9.91914 3.30039 9.41914 3.30039 9.41914L4.90039 8.91914C5.10039 9.41914 5.50039 9.81914 6.00039 10.0191V16.6191C5.60039 16.7191 4.70039 17.0191 4.70039 18.1191C4.70039 18.5191 4.70039 18.4191 4.70039 18.5191H9.30039V18.1191C9.30039 18.1191 9.30039 16.8191 8.00039 16.6191V9.91914ZM7.00039 6.91914C7.60039 6.91914 8.00039 7.31914 8.00039 7.91914C8.00039 8.51914 7.60039 8.91914 7.00039 8.91914C6.40039 8.91914 6.00039 8.51914 6.00039 7.91914C6.00039 7.31914 6.40039 6.91914 7.00039 6.91914Z" fill="#7E8084"/>
<path d="M13.5 10.519C13 10.519 12.6 10.919 12.5 11.419L10.8 18.319C10.7 18.619 10.8 18.919 11 19.119C11.2 19.319 11.5 19.519 11.8 19.519H16V21.519H18V19.519H20C20.5523 19.519 21 19.0713 21 18.519V11.519C21 10.9668 20.5523 10.519 20 10.519H13.5ZM19 12.519V17.519H13L14.3 12.619L19 12.519Z" fill="#7E8084"/>
<path d="M13 14.519H21V15.519H13" fill="#7E8084"/>
<path d="M16 18.519V11.519H17V18.519" fill="#7E8084"/>
</svg>
