<svg width="24" height="24" viewBox="0 0 24 24" fill="none" xmlns="http://www.w3.org/2000/svg">
<path opacity="0.24" d="M20.0996 11H12.5996V18H20.0996V11Z" fill="#7E8084"/>
<path d="M8.00039 9.4001L10.2004 11.6001C11.3004 10.5001 10.2004 9.4001 10.2004 9.4001L9.10039 8.3001C9.20039 8.0001 9.30039 7.7001 9.30039 7.3001C9.30039 6.5001 8.90039 5.8001 8.30039 5.4001L9.30039 2.0001C7.80039 1.6001 7.40039 3.0001 7.40039 3.0001L6.80039 5.0001C5.90039 5.1001 5.10039 5.7001 4.80039 6.6001L1.40039 7.9001C1.90039 9.4001 3.30039 8.9001 3.30039 8.9001L4.90039 8.4001C5.10039 8.9001 5.50039 9.3001 6.00039 9.5001V16.1001C5.60039 16.2001 4.70039 16.5001 4.70039 17.6001C4.70039 18.0001 4.70039 17.9001 4.70039 18.0001H9.30039V17.6001C9.30039 17.6001 9.30039 16.3001 8.00039 16.1001V9.4001ZM7.00039 6.4001C7.60039 6.4001 8.00039 6.8001 8.00039 7.4001C8.00039 8.0001 7.60039 8.4001 7.00039 8.4001C6.40039 8.4001 6.00039 8.0001 6.00039 7.4001C6.00039 6.8001 6.40039 6.4001 7.00039 6.4001Z" fill="#7E8084"/>
<path d="M13.5 10C13 10 12.6 10.4 12.5 10.9L10.8 17.8C10.7 18.1 10.8 18.4 11 18.6C11.2 18.8 11.5 19 11.8 19H16V21H18V19H20C20.5523 19 21 18.5523 21 18V11C21 10.4477 20.5523 10 20 10H13.5ZM19 12V17H13L14.3 12.1L19 12Z" fill="#7E8084"/>
<path d="M13 14H21V15H13" fill="#7E8084"/>
<path d="M16 18V11H17V18" fill="#7E8084"/>
</svg>
