<svg width="24" height="24" viewBox="0 0 24 24" fill="none" xmlns="http://www.w3.org/2000/svg">
<path opacity="0.3" d="M20.0996 10.9999H12.5996V17.9999H20.0996V10.9999Z" fill="#7E8085"/>
<path d="M8.00039 9.39998L10.2004 11.6C11.3004 10.5 10.2004 9.39998 10.2004 9.39998L9.10039 8.29998C9.20039 7.99998 9.30039 7.69998 9.30039 7.29998C9.30039 6.49998 8.90039 5.79998 8.30039 5.39998L9.30039 1.99998C7.80039 1.59998 7.40039 2.99998 7.40039 2.99998L6.80039 4.99998C5.90039 5.09998 5.10039 5.69998 4.80039 6.59998L1.40039 7.89998C1.90039 9.39998 3.30039 8.89998 3.30039 8.89998L4.90039 8.39998C5.10039 8.89998 5.50039 9.29998 6.00039 9.49998V16.1C5.60039 16.2 4.70039 16.5 4.70039 17.6C4.70039 18 4.70039 17.9 4.70039 18H9.30039V17.6C9.30039 17.6 9.30039 16.3 8.00039 16.1V9.39998ZM7.00039 6.39998C7.60039 6.39998 8.00039 6.79998 8.00039 7.39998C8.00039 7.99998 7.60039 8.39998 7.00039 8.39998C6.40039 8.39998 6.00039 7.99998 6.00039 7.39998C6.00039 6.79998 6.40039 6.39998 7.00039 6.39998Z" fill="#7E8085"/>
<path d="M13.5 9.99988C13 9.99988 12.6 10.3999 12.5 10.8999L10.8 17.7999C10.7 18.0999 10.8 18.3999 11 18.5999C11.2 18.7999 11.5 18.9999 11.8 18.9999H16V20.9999H18V18.9999H20C20.5523 18.9999 21 18.5522 21 17.9999V10.9999C21 10.4476 20.5523 9.99988 20 9.99988H13.5ZM19 11.9999V16.9999H13L14.3 12.0999L19 11.9999Z" fill="#7E8085"/>
<path d="M13 13.9999H21V14.9999H13" fill="#7E8085"/>
<path d="M16 17.9999V10.9999H17V17.9999" fill="#7E8085"/>
</svg>
