<svg width="24" height="25" viewBox="0 0 24 25" fill="none" xmlns="http://www.w3.org/2000/svg">
<path opacity="0.24" d="M12.12 9.51917L16 13.3992V9.51917H12.12Z" fill="#7E8084"/>
<path opacity="0.24" d="M11.5 17.6892V19.5192H12.5V17.6892L13.57 16.6292L8 11.0592V14.1692L11.5 17.6892Z" fill="#7E8084"/>
<path d="M10 3.51917H8V5.39917L10 7.39917V3.51917Z" fill="#7E8084"/>
<path d="M16 9.51917V13.3992L17.8 15.1992L18 14.9992V9.51917C18 8.41917 17.1 7.51917 16 7.51917V3.51917H14V7.51917H10.12L12.12 9.51917H16Z" fill="#7E8084"/>
<path fill-rule="evenodd" clip-rule="evenodd" d="M2.71001 5.76916L4.12001 4.35916L20.86 21.0992L19.45 22.5092L14.98 18.0392L14.5 18.5192V21.5192H9.50001V18.5192L6.00001 15.0192V9.05916L2.71001 5.76916ZM12.5 19.5192V17.6892L13.57 16.6292L8.00001 11.0592V14.1692L11.5 17.6892V19.5192H12.5Z" fill="#7E8084"/>
</svg>
