<svg width="24" height="24" viewBox="0 0 24 24" fill="none" xmlns="http://www.w3.org/2000/svg">
<path opacity="0.24" d="M12.1201 9L16.0001 12.88V9H12.1201Z" fill="#7E8084"/>
<path opacity="0.24" d="M11.5 17.17V19H12.5V17.17L13.57 16.11L8 10.54V13.65L11.5 17.17Z" fill="#7E8084"/>
<path d="M10 3H8V4.88L10 6.88V3Z" fill="#7E8084"/>
<path d="M16.0001 9V12.88L17.8001 14.68L18.0001 14.48V9C18.0001 7.9 17.1001 7 16.0001 7V3H14.0001V7H10.1201L12.1201 9H16.0001Z" fill="#7E8084"/>
<path fill-rule="evenodd" clip-rule="evenodd" d="M2.70996 5.25009L4.11996 3.84009L20.86 20.5801L19.45 21.9901L14.98 17.5201L14.5 18.0001V21.0001H9.49996V18.0001L5.99996 14.5001V8.54009L2.70996 5.25009ZM12.5 19.0001V17.1701L13.57 16.1101L7.99996 10.5401V13.6501L11.5 17.1701V19.0001H12.5Z" fill="#7E8084"/>
</svg>
