<svg width="24" height="25" viewBox="0 0 24 25" fill="none" xmlns="http://www.w3.org/2000/svg">
<path opacity="0.24" d="M12.1201 9.51917L16.0001 13.3992V9.51917H12.1201Z" fill="#7E8084"/>
<path opacity="0.24" d="M11.5 17.6891V19.5191H12.5V17.6891L13.57 16.6291L8 11.0591V14.1691L11.5 17.6891Z" fill="#7E8084"/>
<path d="M10 3.51917H8V5.39917L10 7.39917V3.51917Z" fill="#7E8084"/>
<path d="M16.0001 9.51917V13.3992L17.8001 15.1992L18.0001 14.9992V9.51917C18.0001 8.41917 17.1001 7.51917 16.0001 7.51917V3.51917H14.0001V7.51917H10.1201L12.1201 9.51917H16.0001Z" fill="#7E8084"/>
<path fill-rule="evenodd" clip-rule="evenodd" d="M2.70996 5.76919L4.11996 4.35919L20.86 21.0992L19.45 22.5092L14.98 18.0392L14.5 18.5192V21.5192H9.49996V18.5192L5.99996 15.0192V9.05919L2.70996 5.76919ZM12.5 19.5192V17.6892L13.57 16.6292L7.99996 11.0592V14.1692L11.5 17.6892V19.5192H12.5Z" fill="#7E8084"/>
</svg>
