<svg width="24" height="24" viewBox="0 0 24 24" fill="none" xmlns="http://www.w3.org/2000/svg">
<path d="M8.69998 12.1C9.69998 11.1 10.2 9.7 9.99998 8.4L9.89998 8H7.99998L8.09998 8.6C8.19998 9.4 7.99998 10.2 7.39998 10.8V10.9C6.39998 11.9 5.89998 13.3 6.09998 14.6V15H7.99998L7.89998 14.4C7.79998 13.6 7.99998 12.8 8.69998 12.1Z" fill="#7E8085"/>
<path d="M12.7 12.2C13.7 11.2 14.2 9.8 14 8.5L13.9 8H12L12.1 8.6C12.2 9.4 12 10.2 11.4 10.8V10.9C10.4 11.9 9.89998 13.3 10.1 14.6V15H12L11.9 14.4C11.8 13.6 12 12.8 12.7 12.2Z" fill="#7E8085"/>
<path d="M16.7 12.2C17.7 11.2 18.2 9.8 18 8.5L17.9 8H16L16.1 8.6C16.2 9.4 16 10.2 15.4 10.8L15.3 10.9C14.3 11.9 13.8 13.3 14 14.6L14.1 15H16L15.9 14.4C15.8 13.6 16 12.8 16.7 12.2Z" fill="#7E8085"/>
<path d="M12 2C6.5 2 2 6.5 2 12C2 17.5 6.5 22 12 22C17.5 22 22 17.5 22 12C22 6.5 17.5 2 12 2ZM12 20C7.6 20 4 16.4 4 12C4 7.6 7.6 4 12 4C16.4 4 20 7.6 20 12C20 16.4 16.4 20 12 20Z" fill="#7E8085"/>
<path opacity="0.3" d="M5.79999 17C8.29999 20.1 12.7 20.9 16.2 18.9C17 18.4 17.7 17.8 18.3 17H5.79999V17Z" fill="#7E8085"/>
</svg>
