<svg width="24" height="25" viewBox="0 0 24 25" fill="none" xmlns="http://www.w3.org/2000/svg">
<g clip-path="url(#clip0)">
<path d="M8.7 12.6192C9.7 11.6192 10.2 10.2192 10 8.91917L9.9 8.51917H8L8.1 9.11916C8.2 9.91916 8 10.7192 7.4 11.3192V11.4192C6.4 12.4192 5.9 13.8192 6.1 15.1192V15.5192H8L7.9 14.9192C7.8 14.1192 8 13.3192 8.7 12.6192Z" fill="#7E8084"/>
<path d="M12.7 12.7192C13.7 11.7192 14.2 10.3192 14 9.01917L13.9 8.51917H12L12.1 9.11916C12.2 9.91916 12 10.7192 11.4 11.3192V11.4192C10.4 12.4192 9.9 13.8192 10.1 15.1192V15.5192H12L11.9 14.9192C11.8 14.1192 12 13.3192 12.7 12.7192Z" fill="#7E8084"/>
<path d="M16.7 12.7192C17.7 11.7192 18.2 10.3192 18 9.01917L17.9 8.51917H16L16.1 9.11916C16.2 9.91916 16 10.7192 15.4 11.3192L15.3 11.4192C14.3 12.4192 13.8 13.8192 14 15.1192L14.1 15.5192H16L15.9 14.9192C15.8 14.1192 16 13.3192 16.7 12.7192Z" fill="#7E8084"/>
<path d="M12 2.51917C6.5 2.51917 2 7.01917 2 12.5192C2 18.0192 6.5 22.5192 12 22.5192C17.5 22.5192 22 18.0192 22 12.5192C22 7.01917 17.5 2.51917 12 2.51917ZM12 20.5192C7.6 20.5192 4 16.9192 4 12.5192C4 8.11916 7.6 4.51917 12 4.51917C16.4 4.51917 20 8.11916 20 12.5192C20 16.9192 16.4 20.5192 12 20.5192Z" fill="#7E8084"/>
<path opacity="0.24" d="M5.8 17.5192C8.3 20.6192 12.7 21.4192 16.2 19.4192C17 18.9192 17.7 18.3192 18.3 17.5192H5.8Z" fill="#7E8084"/>
</g>
<defs>
<clipPath id="clip0">
<rect width="20" height="20" fill="white" transform="translate(2 2.51917)"/>
</clipPath>
</defs>
</svg>
