<svg width="24" height="24" viewBox="0 0 24 24" fill="none" xmlns="http://www.w3.org/2000/svg">
<path d="M5 8H19V7H5V8Z" fill="#7E8084"/>
<path opacity="0.2" d="M5 7H19V6H5V7Z" fill="#7E8084"/>
<path d="M17 5H18H19C19.5477 5 20 5.45228 20 6V20C20 20.5477 19.5477 21 19 21H5C4.45228 21 4 20.5477 4 20V6C4 5.45228 4.45228 5 5 5H6H7H8H16H17Z" stroke="#7E8084" stroke-width="2"/>
<path d="M10.6435 14.2C11.6435 13.2 12.1435 11.8 11.9435 10.5L11.8435 10H9.94346L10.0435 10.6C10.1435 11.4 9.94346 12.2 9.34346 12.8V12.9C8.34346 13.9 7.84346 15.3 8.04346 16.6V17H9.94346L9.84346 16.4C9.74346 15.6 9.94346 14.8 10.6435 14.2Z" fill="#7E8084"/>
<path d="M14.6435 14.2C15.6435 13.2 16.1435 11.8 15.9435 10.5L15.8435 10H13.9435L14.0435 10.6C14.1435 11.4 13.9435 12.2 13.3435 12.8V12.9C12.3435 13.9 11.8435 15.3 12.0435 16.6V17H13.9435L13.8435 16.4C13.7435 15.6 13.9435 14.8 14.6435 14.2Z" fill="#7E8084"/>
</svg>
