<svg width="24" height="25" viewBox="0 0 24 25" fill="none" xmlns="http://www.w3.org/2000/svg">
<path opacity="0.24" d="M12 4.51917C7.6 4.51917 4 8.11916 4 12.5192C4 16.9192 7.6 20.5192 12 20.5192C16.4 20.5192 20 16.9192 20 12.5192C20 8.11916 16.4 4.51917 12 4.51917ZM13 18.5192H11V16.5192H13V18.5192ZM13 15.5192H11C11 12.3192 14 12.5192 14 10.5192C14 9.41917 13.1 8.51917 12 8.51917C10.9 8.51917 10 9.41917 10 10.5192H8C8 8.31916 9.8 6.51917 12 6.51917C14.2 6.51917 16 8.31916 16 10.5192C16 13.0192 13 13.3192 13 15.5192Z" fill="#7E8084"/>
<path d="M11 16.5192H13V18.5192H11V16.5192ZM12 2.51917C6.5 2.51917 2 7.01917 2 12.5192C2 18.0192 6.5 22.5192 12 22.5192C17.5 22.5192 22 18.0192 22 12.5192C22 7.01917 17.5 2.51917 12 2.51917ZM12 20.5192C7.6 20.5192 4 16.9192 4 12.5192C4 8.11916 7.6 4.51917 12 4.51917C16.4 4.51917 20 8.11916 20 12.5192C20 16.9192 16.4 20.5192 12 20.5192ZM12 6.51917C9.8 6.51917 8 8.31917 8 10.5192H10C10 9.41917 10.9 8.51917 12 8.51917C13.1 8.51917 14 9.41917 14 10.5192C14 12.5192 11 12.3192 11 15.5192H13C13 13.3192 16 13.0192 16 10.5192C16 8.31917 14.2 6.51917 12 6.51917Z" fill="#7E8084"/>
</svg>
