<svg width="24" height="25" viewBox="0 0 24 25" fill="none" xmlns="http://www.w3.org/2000/svg">
<path d="M11 16.5192H13V18.5192H11V16.5192Z" fill="#7E8084"/>
<path fill-rule="evenodd" clip-rule="evenodd" d="M2 12.5192C2 6.99917 6.48 2.51917 12 2.51917C17.52 2.51917 22 6.99917 22 12.5192C22 18.0392 17.52 22.5192 12 22.5192C6.48 22.5192 2 18.0392 2 12.5192ZM4 12.5192C4 16.9292 7.59 20.5192 12 20.5192C16.41 20.5192 20 16.9292 20 12.5192C20 8.10917 16.41 4.51917 12 4.51917C7.59 4.51917 4 8.10917 4 12.5192Z" fill="#7E8084"/>
<path d="M12 6.51917C9.79 6.51917 8 8.30917 8 10.5192H10C10 9.41917 10.9 8.51917 12 8.51917C13.1 8.51917 14 9.41917 14 10.5192C14 12.5192 11 12.2692 11 15.5192H13C13 13.2692 16 13.0192 16 10.5192C16 8.30917 14.21 6.51917 12 6.51917Z" fill="#7E8084"/>
</svg>
