<svg width="24" height="24" viewBox="0 0 24 24" fill="none" xmlns="http://www.w3.org/2000/svg">
<path d="M2 5.3L3.3 4L20 20.7L18.7 22L15.6 18.9C14.5 19.3 13.2 19.5 12 19.5C7 19.5 2.7 16.4 1 12C1.7 10.2 2.8 8.7 4.2 7.5L2 5.3ZM12 9C13.7 9 15 10.3 15 12C15 12.4 14.9 12.7 14.8 13L11 9.2C11.3 9.1 11.6 9 12 9ZM12 4.5C17 4.5 21.3 7.6 23 12C22.2 14.1 20.8 15.9 19 17.2L17.6 15.8C19 14.9 20.1 13.6 20.8 12C19.2 8.6 15.7 6.5 12 6.5C10.9 6.5 9.8 6.7 8.8 7L7.3 5.5C8.7 4.8 10.3 4.5 12 4.5ZM3.2 12C4.8 15.4 8.3 17.5 12 17.5C12.7 17.5 13.4 17.4 14 17.3L11.7 15C10.3 14.9 9.1 13.7 9 12.3L5.6 8.9C4.6 9.7 3.8 10.8 3.2 12Z" fill="#7E8085"/>
<path opacity="0.3" d="M15.9004 14.1C16.2004 13.5 16.5004 12.8 16.5004 12C16.5004 9.5 14.5004 7.5 12.0004 7.5C11.2004 7.5 10.5004 7.7 9.90039 8.1L15.9004 14.1Z" fill="#7E8085"/>
<path opacity="0.3" d="M7.6 10.9C7.6 11.3 7.5 11.6 7.5 12C7.5 14.5 9.5 16.5 12 16.5C12.4 16.5 12.7 16.4 13.1 16.4L7.6 10.9Z" fill="#7E8085"/>
</svg>
