<svg width="24" height="25" viewBox="0 0 24 25" fill="none" xmlns="http://www.w3.org/2000/svg">
<path d="M2 5.81916L3.3 4.51917L20 21.2192L18.7 22.5192L15.6 19.4192C14.5 19.8192 13.2 20.0192 12 20.0192C7 20.0192 2.7 16.9192 1 12.5192C1.7 10.7192 2.8 9.21916 4.2 8.01917L2 5.81916ZM12 9.51917C13.7 9.51917 15 10.8192 15 12.5192C15 12.9192 14.9 13.2192 14.8 13.5192L11 9.71916C11.3 9.61916 11.6 9.51917 12 9.51917ZM12 5.01917C17 5.01917 21.3 8.11916 23 12.5192C22.2 14.6192 20.8 16.4192 19 17.7192L17.6 16.3192C19 15.4192 20.1 14.1192 20.8 12.5192C19.2 9.11916 15.7 7.01917 12 7.01917C10.9 7.01917 9.8 7.21917 8.8 7.51917L7.3 6.01917C8.7 5.31917 10.3 5.01917 12 5.01917ZM3.2 12.5192C4.8 15.9192 8.3 18.0192 12 18.0192C12.7 18.0192 13.4 17.9192 14 17.8192L11.7 15.5192C10.3 15.4192 9.1 14.2192 9 12.8192L5.6 9.41917C4.6 10.2192 3.8 11.3192 3.2 12.5192Z" fill="#7E8084"/>
<path opacity="0.24" d="M15.9004 14.6192C16.2004 14.0192 16.5004 13.3192 16.5004 12.5192C16.5004 10.0192 14.5004 8.01917 12.0004 8.01917C11.2004 8.01917 10.5004 8.21916 9.90039 8.61916L15.9004 14.6192Z" fill="#7E8084"/>
<path opacity="0.24" d="M7.6 11.4192C7.6 11.8192 7.5 12.1192 7.5 12.5192C7.5 15.0192 9.5 17.0192 12 17.0192C12.4 17.0192 12.7 16.9192 13.1 16.9192L7.6 11.4192Z" fill="#7E8084"/>
</svg>
