<svg width="24" height="24" viewBox="0 0 24 24" fill="none" xmlns="http://www.w3.org/2000/svg">
<g clip-path="url(#clip0)">
<path opacity="0.3" d="M6 2L5.5 2.6C5.5 2.6 4.6 3.6 3.8 4.8C2.9 6 2 7.5 2 9C2 11.2 3.8 13 6 13C8.2 13 10 11.2 10 9C10 7.5 9.1 6 8.2 4.8C7.4 3.5 6.5 2.6 6.5 2.6" fill="#7E8085"/>
<path opacity="0.3" d="M17.8 2L17.3 2.6C17.3 2.6 16.4 3.6 15.6 4.8C14.7 6 13.8 7.5 13.8 9C13.8 11.2 15.6 13 17.8 13C20 13 21.8 11.2 21.8 9C21.8 7.6 20.9 6.1 20 4.8C19.1 3.5 18.3 2.6 18.3 2.6" fill="#7E8085"/>
<path opacity="0.3" d="M12 11L11.5 11.6C11.5 11.6 10.6 12.6 9.8 13.8C8.9 15 8 16.5 8 18C8 20.2 9.8 22 12 22C14.2 22 16 20.2 16 18C16 16.6 15.1 15.1 14.2 13.8C13.3 12.5 12.5 11.6 12.5 11.6" fill="#7E8085"/>
<path d="M6 5.1C6.2 5.3 6.4 5.6 6.6 5.9C7 6.5 8 8 8 9C8 10.1 7.1 11 6 11C4.9 11 4 10.1 4 9C4 8 5 6.6 5.4 5.9C5.6 5.6 5.8 5.4 6 5.1ZM6 2L5.5 2.6C5.5 2.6 4.6 3.6 3.8 4.8C2.9 6 2 7.5 2 9C2 11.2 3.8 13 6 13C8.2 13 10 11.2 10 9C10 7.5 9.1 6 8.2 4.8C7.4 3.5 6.5 2.6 6.5 2.6" fill="#7E8085"/>
<path d="M17.8 5.1C18 5.3 18.2 5.6 18.4 5.9C18.8 6.5 19.8 8 19.8 9C19.8 10.1 18.9 11 17.8 11C16.7 11 15.8 10.1 15.8 9C15.8 8 16.8 6.6 17.2 5.9C17.4 5.6 17.6 5.4 17.8 5.1ZM17.8 2L17.3 2.6C17.3 2.6 16.4 3.6 15.6 4.8C14.7 6 13.8 7.5 13.8 9C13.8 11.2 15.6 13 17.8 13C20 13 21.8 11.2 21.8 9C21.8 7.6 20.9 6.1 20 4.8C19.1 3.5 18.3 2.6 18.3 2.6" fill="#7E8085"/>
<path d="M12 14.1C12.2 14.3 12.4 14.6 12.6 14.9C13 15.5 14 17 14 18C14 19.1 13.1 20 12 20C10.9 20 10 19.1 10 18C10 17 11 15.6 11.4 14.9C11.6 14.6 11.8 14.4 12 14.1ZM12 11L11.5 11.6C11.5 11.6 10.6 12.6 9.8 13.8C8.9 15 8 16.5 8 18C8 20.2 9.8 22 12 22C14.2 22 16 20.2 16 18C16 16.6 15.1 15.1 14.2 13.8C13.3 12.5 12.5 11.6 12.5 11.6" fill="#7E8085"/>
</g>
<defs>
<clipPath id="clip0">
<rect width="19.8" height="20" fill="white" transform="translate(2 2)"/>
</clipPath>
</defs>
</svg>
