<svg width="24" height="25" viewBox="0 0 24 25" fill="none" xmlns="http://www.w3.org/2000/svg">
<g clip-path="url(#clip0)">
<path opacity="0.24" d="M6 2.51917L5.5 3.11917C5.5 3.11917 4.6 4.11916 3.8 5.31916C2.9 6.51917 2 8.01917 2 9.51917C2 11.7192 3.8 13.5192 6 13.5192C8.2 13.5192 10 11.7192 10 9.51917C10 8.01917 9.1 6.51917 8.2 5.31916C7.4 4.01917 6.5 3.11917 6.5 3.11917" fill="#7E8084"/>
<path opacity="0.24" d="M17.8 2.51917L17.3 3.11917C17.3 3.11917 16.4 4.11916 15.6 5.31916C14.7 6.51917 13.8 8.01917 13.8 9.51917C13.8 11.7192 15.6 13.5192 17.8 13.5192C20 13.5192 21.8 11.7192 21.8 9.51917C21.8 8.11916 20.9 6.61916 20 5.31916C19.1 4.01917 18.3 3.11917 18.3 3.11917" fill="#7E8084"/>
<path opacity="0.24" d="M12 11.5192L11.5 12.1192C11.5 12.1192 10.6 13.1192 9.8 14.3192C8.9 15.5192 8 17.0192 8 18.5192C8 20.7192 9.8 22.5192 12 22.5192C14.2 22.5192 16 20.7192 16 18.5192C16 17.1192 15.1 15.6192 14.2 14.3192C13.3 13.0192 12.5 12.1192 12.5 12.1192" fill="#7E8084"/>
<path d="M6 5.61916C6.2 5.81916 6.4 6.11917 6.6 6.41917C7 7.01917 8 8.51917 8 9.51917C8 10.6192 7.1 11.5192 6 11.5192C4.9 11.5192 4 10.6192 4 9.51917C4 8.51917 5 7.11916 5.4 6.41917C5.6 6.11917 5.8 5.91916 6 5.61916ZM6 2.51917L5.5 3.11917C5.5 3.11917 4.6 4.11916 3.8 5.31916C2.9 6.51917 2 8.01917 2 9.51917C2 11.7192 3.8 13.5192 6 13.5192C8.2 13.5192 10 11.7192 10 9.51917C10 8.01917 9.1 6.51917 8.2 5.31916C7.4 4.01917 6.5 3.11917 6.5 3.11917" fill="#7E8084"/>
<path d="M17.8 5.61916C18 5.81916 18.2 6.11917 18.4 6.41917C18.8 7.01917 19.8 8.51917 19.8 9.51917C19.8 10.6192 18.9 11.5192 17.8 11.5192C16.7 11.5192 15.8 10.6192 15.8 9.51917C15.8 8.51917 16.8 7.11916 17.2 6.41917C17.4 6.11917 17.6 5.91916 17.8 5.61916ZM17.8 2.51917L17.3 3.11917C17.3 3.11917 16.4 4.11916 15.6 5.31916C14.7 6.51917 13.8 8.01917 13.8 9.51917C13.8 11.7192 15.6 13.5192 17.8 13.5192C20 13.5192 21.8 11.7192 21.8 9.51917C21.8 8.11916 20.9 6.61916 20 5.31916C19.1 4.01917 18.3 3.11917 18.3 3.11917" fill="#7E8084"/>
<path d="M12 14.6192C12.2 14.8192 12.4 15.1192 12.6 15.4192C13 16.0192 14 17.5192 14 18.5192C14 19.6192 13.1 20.5192 12 20.5192C10.9 20.5192 10 19.6192 10 18.5192C10 17.5192 11 16.1192 11.4 15.4192C11.6 15.1192 11.8 14.9192 12 14.6192ZM12 11.5192L11.5 12.1192C11.5 12.1192 10.6 13.1192 9.8 14.3192C8.9 15.5192 8 17.0192 8 18.5192C8 20.7192 9.8 22.5192 12 22.5192C14.2 22.5192 16 20.7192 16 18.5192C16 17.1192 15.1 15.6192 14.2 14.3192C13.3 13.0192 12.5 12.1192 12.5 12.1192" fill="#7E8084"/>
</g>
<defs>
<clipPath id="clip0">
<rect width="19.8" height="20" fill="white" transform="translate(2 2.51917)"/>
</clipPath>
</defs>
</svg>
