<svg width="24" height="25" viewBox="0 0 24 25" fill="none" xmlns="http://www.w3.org/2000/svg">
<path opacity="0.24" d="M5 19.5192H19V5.51917H5V19.5192ZM12 6.51917C15.31 6.51917 18 9.20917 18 12.5192C18 15.8292 15.31 18.5192 12 18.5192C8.69 18.5192 6 15.8292 6 12.5192C6 9.20917 8.69 6.51917 12 6.51917Z" fill="#7E8084"/>
<path d="M19 3.51917H5C3.9 3.51917 3 4.41917 3 5.51917V19.5192C3 20.6192 3.9 21.5192 5 21.5192H19C20.1 21.5192 21 20.6192 21 19.5192V5.51917C21 4.41917 20.1 3.51917 19 3.51917ZM19 19.5192H5V5.51917H19V19.5192Z" fill="#7E8084"/>
<path d="M12 18.5192C15.31 18.5192 18 15.8292 18 12.5192C18 9.20917 15.31 6.51917 12 6.51917C8.69 6.51917 6 9.20917 6 12.5192C6 15.8292 8.69 18.5192 12 18.5192ZM12 16.5192C10.99 16.5192 10.09 16.1292 9.38 15.5192H14.62C13.91 16.1292 13.01 16.5192 12 16.5192ZM12 8.51917C13.01 8.51917 13.91 8.90916 14.62 9.51917H9.38C10.09 8.90916 10.99 8.51917 12 8.51917ZM8.56 10.5192H15.45C15.71 10.9692 15.89 11.4792 15.96 12.0192H8.06C8.12 11.4792 8.29 10.9692 8.56 10.5192ZM15.95 13.0192C15.88 13.5592 15.71 14.0692 15.44 14.5192H8.56C8.3 14.0692 8.12 13.5592 8.05 13.0192H15.95Z" fill="#7E8084"/>
</svg>
