<svg width="24" height="25" viewBox="0 0 24 25" fill="none" xmlns="http://www.w3.org/2000/svg">
<path opacity="0.24" d="M14.1 5H9.9L8.1 7H4V19H20V7H15.9L14.1 5ZM12 18C9.2 18 7 15.8 7 13C7 10.2 9.2 8 12 8C14.8 8 17 10.2 17 13C17 15.8 14.8 18 12 18Z" fill="#7E8084"/>
<path d="M20 5H16.8L15 3H9L7.2 5H4C2.9 5 2 5.9 2 7V19C2 20.1 2.9 21 4 21H20C21.1 21 22 20.1 22 19V7C22 5.9 21.1 5 20 5ZM20 19H4V7H8.1L9.9 5H14.1L15.9 7H20V19ZM12 8C9.2 8 7 10.2 7 13C7 15.8 9.2 18 12 18C14.8 18 17 15.8 17 13C17 10.2 14.8 8 12 8ZM12 16C10.4 16 9 14.6 9 13C9 11.4 10.4 10 12 10C13.6 10 15 11.4 15 13C15 14.6 13.6 16 12 16Z" fill="#7E8084"/>
</svg>
