<svg width="24" height="26" viewBox="0 0 24 26" fill="none" xmlns="http://www.w3.org/2000/svg">
<path opacity="0.24" d="M14.1 5.51917H9.9L8.1 7.51917H4V19.5192H20V7.51917H15.9L14.1 5.51917ZM12 18.5192C9.2 18.5192 7 16.3192 7 13.5192C7 10.7192 9.2 8.51917 12 8.51917C14.8 8.51917 17 10.7192 17 13.5192C17 16.3192 14.8 18.5192 12 18.5192Z" fill="#7E8084"/>
<path d="M20 5.51917H16.8L15 3.51917H9L7.2 5.51917H4C2.9 5.51917 2 6.41917 2 7.51917V19.5192C2 20.6192 2.9 21.5192 4 21.5192H20C21.1 21.5192 22 20.6192 22 19.5192V7.51917C22 6.41917 21.1 5.51917 20 5.51917ZM20 19.5192H4V7.51917H8.1L9.9 5.51917H14.1L15.9 7.51917H20V19.5192ZM12 8.51917C9.2 8.51917 7 10.7192 7 13.5192C7 16.3192 9.2 18.5192 12 18.5192C14.8 18.5192 17 16.3192 17 13.5192C17 10.7192 14.8 8.51917 12 8.51917ZM12 16.5192C10.4 16.5192 9 15.1192 9 13.5192C9 11.9192 10.4 10.5192 12 10.5192C13.6 10.5192 15 11.9192 15 13.5192C15 15.1192 13.6 16.5192 12 16.5192Z" fill="#7E8084"/>
</svg>
