<svg width="24" height="25" viewBox="0 0 24 25" fill="none" xmlns="http://www.w3.org/2000/svg">
<path opacity="0.24" d="M7 12.7892V16.5092L12 19.2392L17 16.5092V12.7892L12 15.5192L7 12.7892Z" fill="#7E8084"/>
<path opacity="0.24" d="M5.18 9.51916L12 13.2392L18.82 9.51916L12 5.79916L5.18 9.51916Z" fill="#7E8084"/>
<path fill-rule="evenodd" clip-rule="evenodd" d="M12 3.51917L1 9.51917L5 11.6992V17.6992L12 21.5192L19 17.6992V11.6992L21 10.6092V17.5192H23V9.51917L12 3.51917ZM17 16.5092L12 19.2392L7 16.5092V12.7892L12 15.5192L17 12.7892V16.5092ZM5.18 9.51917L12 13.2392L18.82 9.51917L12 5.79917L5.18 9.51917Z" fill="#7E8084"/>
</svg>
