<svg width="24" height="25" viewBox="0 0 24 25" fill="none" xmlns="http://www.w3.org/2000/svg">
<g clip-path="url(#clip0)">
<path d="M19.2588 8.11916C18.6941 4.96622 15.9176 2.51917 12.5765 2.51917H11.4941C8.15294 2.51917 5.37647 4.91916 4.81176 8.11916C2.88235 8.68387 1 10.425 1 12.5427V13.625C1.04706 16.025 3.4 18.0015 5.75294 18.1898C6.74118 20.7309 9.18824 22.5192 12.0588 22.5192C14.9294 22.5192 17.3765 20.7309 18.3647 18.1898C20.7176 18.0015 23.0706 16.025 23.0706 13.625V12.5427C23.0706 10.425 21.1882 8.68387 19.2588 8.11916ZM17.0471 15.7427C17.0471 18.4721 14.8353 20.7309 12.0588 20.7309C9.32941 20.7309 7.07059 18.5192 7.07059 15.7427V11.3192L7.82353 11.178C9.23529 10.8956 10.5059 10.0956 11.3059 8.96622L12.0588 7.93093L12.8118 8.96622C13.7059 10.1427 14.9294 10.9427 16.2941 11.178L17.0471 11.3192V15.7427Z" fill="#7E8084"/>
<path d="M15 12.3192C14.4 12.3192 13.8 12.8192 13.8 13.5192C13.8 14.2192 14.4 14.7192 15 14.7192C15.6 14.7192 16.2 14.1192 16.2 13.5192C16.2 12.9192 15.6 12.3192 15 12.3192Z" fill="#7E8084"/>
<path d="M10.2 13.5192C10.2 14.1192 9.70005 14.7192 9.00005 14.7192C8.30005 14.7192 7.80005 14.2192 7.80005 13.5192C7.80005 12.8192 8.30005 12.3192 9.00005 12.3192C9.70005 12.3192 10.2 12.9192 10.2 13.5192Z" fill="#7E8084"/>
</g>
<defs>
<clipPath id="clip0">
<rect width="22.0706" height="20" fill="white" transform="translate(1 2.51917)"/>
</clipPath>
</defs>
</svg>
