<svg width="24" height="24" viewBox="0 0 24 24" fill="none" xmlns="http://www.w3.org/2000/svg">
<g clip-path="url(#clip0)">
<path d="M19.2588 7.6C18.6941 4.44706 15.9176 2 12.5765 2H11.4941C8.15294 2 5.37647 4.4 4.81176 7.6C2.88235 8.16471 1 9.90588 1 12.0235V13.1059C1.04706 15.5059 3.4 17.4824 5.75294 17.6706C6.74118 20.2118 9.18824 22 12.0588 22C14.9294 22 17.3765 20.2118 18.3647 17.6706C20.7176 17.4824 23.0706 15.5059 23.0706 13.1059V12.0235C23.0706 9.90588 21.1882 8.16471 19.2588 7.6ZM17.0471 15.2235C17.0471 17.9529 14.8353 20.2118 12.0588 20.2118C9.32941 20.2118 7.07059 18 7.07059 15.2235V10.8L7.82353 10.6588C9.23529 10.3765 10.5059 9.57647 11.3059 8.44706L12.0588 7.41176L12.8118 8.44706C13.7059 9.62353 14.9294 10.4235 16.2941 10.6588L17.0471 10.8V15.2235Z" fill="#7E8085"/>
<path d="M15 11.8C14.4 11.8 13.8 12.3 13.8 13C13.8 13.7 14.4 14.2 15 14.2C15.6 14.2 16.2 13.6 16.2 13C16.2 12.4 15.6 11.8 15 11.8Z" fill="#7E8085"/>
<path d="M10.2 13C10.2 13.6 9.70005 14.2 9.00005 14.2C8.30005 14.2 7.80005 13.7 7.80005 13C7.80005 12.3 8.30005 11.8 9.00005 11.8C9.70005 11.8 10.2 12.4 10.2 13Z" fill="#7E8085"/>
</g>
<defs>
<clipPath id="clip0">
<rect width="22.0706" height="20" fill="white" transform="translate(1 2)"/>
</clipPath>
</defs>
</svg>
