<svg width="24" height="25" viewBox="0 0 24 25" fill="none" xmlns="http://www.w3.org/2000/svg">
<path d="M17 7.51917H13V9.51917H17C18.65 9.51917 20 10.8692 20 12.5192C20 14.1692 18.65 15.5192 17 15.5192H13V17.5192H17C19.76 17.5192 22 15.2792 22 12.5192C22 9.75917 19.76 7.51917 17 7.51917Z" fill="#7E8084"/>
<path d="M11 15.5192H7C5.35 15.5192 4 14.1692 4 12.5192C4 10.8692 5.35 9.51917 7 9.51917H11V7.51917H7C4.24 7.51917 2 9.75917 2 12.5192C2 15.2792 4.24 17.5192 7 17.5192H11V15.5192Z" fill="#7E8084"/>
<path d="M8 11.5192H16V13.5192H8V11.5192Z" fill="#7E8084"/>
</svg>
