<svg width="24" height="24" viewBox="0 0 24 24" fill="none" xmlns="http://www.w3.org/2000/svg">
<path d="M12 4C14.76 4 17 6.24 17 9C17 10.06 16.61 11.32 16 12.62L17.49 14.11C18.37 12.36 19 10.57 19 9C19 5.13 15.87 2 12 2C10.16 2 8.5 2.71 7.25 3.86L8.68 5.29C9.56 4.5 10.72 4 12 4ZM12 6.5C11.41 6.5 10.87 6.71 10.44 7.06L13.94 10.56C14.29 10.13 14.5 9.59 14.5 9C14.5 7.62 13.38 6.5 12 6.5ZM3.41 2.86L2 4.27L5.18 7.45C5.07 7.95 5 8.47 5 9C5 14.25 12 22 12 22C12 22 13.67 20.15 15.38 17.65L18.73 21L20.14 19.59L3.41 2.86ZM12 18.88C9.99 16.3 7.2 12.14 7.02 9.29L13.94 16.21C13.29 17.19 12.61 18.1 12 18.88Z" fill="#7E8084"/>
<path opacity="0.3" fill-rule="evenodd" clip-rule="evenodd" d="M7.47061 6.88061C7.16872 7.5242 7 8.24252 7 9C7 11.85 9.92 16.21 12 18.88C12.9677 17.6464 14.0993 16.072 15.0411 14.4511L12.0885 11.4985C12.0591 11.4995 12.0296 11.5 12 11.5C10.62 11.5 9.5 10.38 9.5 9C9.5 8.97039 9.50052 8.9409 9.50154 8.91154L7.47061 6.88061ZM13.9607 10.5507C14.2983 10.1244 14.5 9.58561 14.5 9C14.5 7.62 13.38 6.5 12 6.5C11.4144 6.5 10.8756 6.70169 10.4493 7.03934L8.67591 5.26591C9.55959 4.47859 10.7242 4 12 4C14.76 4 17 6.24 17 9C17 10.058 16.61 11.3091 16.0118 12.6018L13.9607 10.5507Z" fill="#7E8084"/>
</svg>
