<svg width="24" height="24" viewBox="0 0 24 24" fill="none" xmlns="http://www.w3.org/2000/svg">
<path opacity="0.3" fill-rule="evenodd" clip-rule="evenodd" d="M12 4C14.76 4 17 6.24 17 9C17 11.88 14.12 16.19 12 18.88C9.92 16.21 7 11.85 7 9C7 6.24 9.24 4 12 4ZM12 6.5C10.62 6.5 9.5 7.62 9.5 9C9.5 10.38 10.62 11.5 12 11.5C13.38 11.5 14.5 10.38 14.5 9C14.5 7.62 13.38 6.5 12 6.5Z" fill="#7E8085"/>
<path fill-rule="evenodd" clip-rule="evenodd" d="M12 2C15.87 2 19 5.13 19 9C19 14.25 12 22 12 22C12 22 5 14.25 5 9C5 5.13 8.13 2 12 2ZM17 9C17 6.24 14.76 4 12 4C9.24 4 7 6.24 7 9C7 11.85 9.92 16.21 12 18.88C14.12 16.19 17 11.88 17 9Z" fill="#7E8085"/>
<path d="M12 11.5C13.3807 11.5 14.5 10.3807 14.5 9C14.5 7.61929 13.3807 6.5 12 6.5C10.6193 6.5 9.5 7.61929 9.5 9C9.5 10.3807 10.6193 11.5 12 11.5Z" fill="#7E8085"/>
</svg>
