<svg width="24" height="25" viewBox="0 0 24 25" fill="none" xmlns="http://www.w3.org/2000/svg">
<g clip-path="url(#clip0)">
<path d="M17 15.9192C18.7 15.9192 20 17.2192 20 18.9192C20 20.6192 18.7 21.9192 17 21.9192C15.7 21.9192 14.6 21.1192 14.2 19.9192H13V17.9192H14.2C14.6 16.8192 15.7 15.9192 17 15.9192ZM17 17.9192C16.4 17.9192 16 18.3192 16 18.9192C16 19.5192 16.4 19.9192 17 19.9192C17.6 19.9192 18 19.5192 18 18.9192C18 18.3192 17.6 17.9192 17 17.9192ZM17 8.91917C17.8 8.91917 18.4 8.31917 18.4 7.51917C18.4 6.71917 17.8 6.11916 17 6.11916C16.2 6.11916 15.6 6.71917 15.6 7.51917C15.6 8.31917 16.2 8.91917 17 8.91917ZM17 3.51917C19.2 3.51917 21 5.31916 21 7.51917C21 10.5192 17 14.9192 17 14.9192C17 14.9192 13 10.5192 13 7.51917C13 5.31916 14.8 3.51917 17 3.51917ZM7.8 17.9192H9V19.9192H7.8C7.4 21.1192 6.3 21.9192 5 21.9192C3.3 21.9192 2 20.6192 2 18.9192C2 17.6192 2.8 16.5192 4 16.1192V14.9192H6V16.1192C6.8 16.4192 7.5 17.1192 7.8 17.9192ZM5 17.9192C4.4 17.9192 4 18.3192 4 18.9192C4 19.5192 4.4 19.9192 5 19.9192C5.6 19.9192 6 19.5192 6 18.9192C6 18.3192 5.6 17.9192 5 17.9192ZM5 3.91917C6.7 3.91917 8 5.21917 8 6.91917C8 8.21916 7.2 9.31916 6 9.71916V10.9192H4V9.81917C2.8 9.41917 2 8.21916 2 6.91917C2 5.31917 3.3 3.91917 5 3.91917ZM5 5.91917C4.4 5.91917 4 6.31917 4 6.91917C4 7.51917 4.4 7.91917 5 7.91917C5.6 7.91917 6 7.51917 6 6.91917C6 6.31917 5.6 5.91917 5 5.91917ZM10 19.9192V17.9192H12V19.9192H10ZM6 13.9192H4V11.9192H6V13.9192Z" fill="#7E8084"/>
</g>
<defs>
<clipPath id="clip0">
<rect width="19" height="18.4" fill="white" transform="translate(2 3.51917)"/>
</clipPath>
</defs>
</svg>
