<svg width="24" height="25" viewBox="0 0 24 25" fill="none" xmlns="http://www.w3.org/2000/svg">
<path opacity="0.24" fill-rule="evenodd" clip-rule="evenodd" d="M12 4.51917C14.76 4.51917 17 6.75917 17 9.51917C17 12.3992 14.12 16.7092 12 19.3992C9.92 16.7292 7 12.3692 7 9.51917C7 6.75917 9.24 4.51917 12 4.51917ZM12 7.01917C10.62 7.01917 9.5 8.13916 9.5 9.51917C9.5 10.8992 10.62 12.0192 12 12.0192C13.38 12.0192 14.5 10.8992 14.5 9.51917C14.5 8.13916 13.38 7.01917 12 7.01917Z" fill="#7E8084"/>
<path fill-rule="evenodd" clip-rule="evenodd" d="M12 2.51917C15.87 2.51917 19 5.64917 19 9.51917C19 14.7692 12 22.5192 12 22.5192C12 22.5192 5 14.7692 5 9.51917C5 5.64917 8.13 2.51917 12 2.51917ZM17 9.51917C17 6.75916 14.76 4.51917 12 4.51917C9.24 4.51917 7 6.75916 7 9.51917C7 12.3692 9.92 16.7292 12 19.3992C14.12 16.7092 17 12.3992 17 9.51917Z" fill="#7E8084"/>
<path d="M12 12.0192C13.3807 12.0192 14.5 10.8999 14.5 9.51917C14.5 8.13845 13.3807 7.01917 12 7.01917C10.6193 7.01917 9.5 8.13845 9.5 9.51917C9.5 10.8999 10.6193 12.0192 12 12.0192Z" fill="#7E8084"/>
</svg>
