<svg width="24" height="25" viewBox="0 0 24 25" fill="none" xmlns="http://www.w3.org/2000/svg">
<path d="M12 4.51917C14.76 4.51917 17 6.75916 17 9.51917C17 10.5792 16.61 11.8392 16 13.1392L17.49 14.6292C18.37 12.8792 19 11.0892 19 9.51917C19 5.64917 15.87 2.51917 12 2.51917C10.16 2.51917 8.5 3.22916 7.25 4.37916L8.68 5.80917C9.56 5.01917 10.72 4.51917 12 4.51917ZM12 7.01917C11.41 7.01917 10.87 7.22917 10.44 7.57916L13.94 11.0792C14.29 10.6492 14.5 10.1092 14.5 9.51917C14.5 8.13916 13.38 7.01917 12 7.01917ZM3.41 3.37916L2 4.78917L5.18 7.96916C5.07 8.46916 5 8.98917 5 9.51917C5 14.7692 12 22.5192 12 22.5192C12 22.5192 13.67 20.6692 15.38 18.1692L18.73 21.5192L20.14 20.1092L3.41 3.37916ZM12 19.3992C9.99 16.8192 7.2 12.6592 7.02 9.80917L13.94 16.7292C13.29 17.7092 12.61 18.6192 12 19.3992Z" fill="#7E8084"/>
<path opacity="0.3" fill-rule="evenodd" clip-rule="evenodd" d="M7.47061 7.39978C7.16872 8.04337 7 8.76168 7 9.51917C7 12.3692 9.92 16.7292 12 19.3992C12.9677 18.1655 14.0993 16.5912 15.0411 14.9703L12.0885 12.0176C12.0591 12.0186 12.0296 12.0192 12 12.0192C10.62 12.0192 9.5 10.8992 9.5 9.51917C9.5 9.48956 9.50052 9.46006 9.50154 9.4307L7.47061 7.39978ZM13.9607 11.0698C14.2983 10.6436 14.5 10.1048 14.5 9.51917C14.5 8.13916 13.38 7.01917 12 7.01917C11.4144 7.01917 10.8756 7.22085 10.4493 7.55851L8.67591 5.78507C9.55959 4.99776 10.7242 4.51917 12 4.51917C14.76 4.51917 17 6.75917 17 9.51917C17 10.5772 16.61 11.8282 16.0118 13.121L13.9607 11.0698Z" fill="#7E8084"/>
</svg>
