<svg width="24" height="24" viewBox="0 0 24 24" fill="none" xmlns="http://www.w3.org/2000/svg">
<g clip-path="url(#clip0)">
<path d="M17 15.4C18.7 15.4 20 16.7 20 18.4C20 20.1 18.7 21.4 17 21.4C15.7 21.4 14.6 20.6 14.2 19.4H13V17.4H14.2C14.6 16.3 15.7 15.4 17 15.4ZM17 17.4C16.4 17.4 16 17.8 16 18.4C16 19 16.4 19.4 17 19.4C17.6 19.4 18 19 18 18.4C18 17.8 17.6 17.4 17 17.4ZM17 8.4C17.8 8.4 18.4 7.8 18.4 7C18.4 6.2 17.8 5.6 17 5.6C16.2 5.6 15.6 6.2 15.6 7C15.6 7.8 16.2 8.4 17 8.4ZM17 3C19.2 3 21 4.8 21 7C21 10 17 14.4 17 14.4C17 14.4 13 10 13 7C13 4.8 14.8 3 17 3ZM7.8 17.4H9V19.4H7.8C7.4 20.6 6.3 21.4 5 21.4C3.3 21.4 2 20.1 2 18.4C2 17.1 2.8 16 4 15.6V14.4H6V15.6C6.8 15.9 7.5 16.6 7.8 17.4ZM5 17.4C4.4 17.4 4 17.8 4 18.4C4 19 4.4 19.4 5 19.4C5.6 19.4 6 19 6 18.4C6 17.8 5.6 17.4 5 17.4ZM5 3.4C6.7 3.4 8 4.7 8 6.4C8 7.7 7.2 8.8 6 9.2V10.4H4V9.3C2.8 8.9 2 7.7 2 6.4C2 4.8 3.3 3.4 5 3.4ZM5 5.4C4.4 5.4 4 5.8 4 6.4C4 7 4.4 7.4 5 7.4C5.6 7.4 6 7 6 6.4C6 5.8 5.6 5.4 5 5.4ZM10 19.4V17.4H12V19.4H10ZM6 13.4H4V11.4H6V13.4Z" fill="#7E8084"/>
</g>
<defs>
<clipPath id="clip0">
<rect width="19" height="18.4" fill="white" transform="translate(2 3)"/>
</clipPath>
</defs>
</svg>
