<svg width="24" height="25" viewBox="0 0 24 25" fill="none" xmlns="http://www.w3.org/2000/svg">
<g clip-path="url(#clip0)">
<path d="M14.1 16.1192L16.7 13.5192H7V11.5192H16.7L14.1 8.91917L15.5 7.51917L20.5 12.5192L15.5 17.5192L14.1 16.1192ZM19 3.51917C20.1 3.51917 21 4.41917 21 5.51917V10.2192L19 8.21916V5.51917H5V19.5192H19V16.8192L21 14.8192V19.5192C21 20.6192 20.1 21.5192 19 21.5192H5C3.9 21.5192 3 20.6192 3 19.5192V5.51917C3 4.41917 3.9 3.51917 5 3.51917H19Z" fill="#7E8084"/>
</g>
<defs>
<clipPath id="clip0">
<rect width="18" height="18" fill="white" transform="translate(3 3.51917)"/>
</clipPath>
</defs>
</svg>
