<svg width="24" height="25" viewBox="0 0 24 25" fill="none" xmlns="http://www.w3.org/2000/svg">
<path d="M12.9 2.51917V4.51917C17.3 5.01917 20.4 9.01916 19.9 13.4192C19.4 17.0192 16.6 19.9192 12.9 20.4192V22.4192C18.4 21.8192 22.4 17.0192 21.9 11.5192C21.5 6.71916 17.7 3.01917 12.9 2.51917ZM10.9 2.51917C9 2.71917 7.1 3.51917 5.6 4.71917L7 6.21917C8.2 5.31917 9.5 4.71917 10.9 4.51917V2.51917ZM4.2 6.11916C3 7.71916 2.2 9.51917 2 11.5192H4C4.2 10.1192 4.8 8.71916 5.6 7.61916L4.2 6.11916ZM15.4 9.01917L10.5 13.9192L8.4 11.7192L7.3 12.8192L10.5 16.0192L16.4 10.1192L15.4 9.01917ZM2 13.5192C2.2 15.5192 3 17.3192 4.2 18.8192L5.6 17.4192C4.8 16.2192 4.2 14.9192 4 13.5192H2ZM7.1 18.8192L5.7 20.2192C7.1 21.5192 9 22.3192 10.9 22.5192V20.5192C9.5 20.3192 8.2 19.7192 7.1 18.8192Z" fill="#7E8084"/>
</svg>
