<svg width="24" height="25" viewBox="0 0 24 25" fill="none" xmlns="http://www.w3.org/2000/svg">
<g clip-path="url(#clip0)">
<path d="M6 2.51917H18C19.1 2.51917 20 3.41917 20 4.51917V18.5192C20 19.6192 19.1 20.5192 18 20.5192H6C4.9 20.5192 4 19.6192 4 18.5192V4.51917C4 3.41917 4.9 2.51917 6 2.51917ZM12 5.51917C9.8 5.51917 8 7.31917 8 9.51917H11.3L10.9 6.71916L12.9 9.51917H16C16 7.31917 14.2 5.51917 12 5.51917ZM6 11.5192V18.5192H18V11.5192H6Z" fill="#7E8084"/>
<path d="M13 19.8192H11V22.6192H13V19.8192Z" fill="#7E8084"/>
<path d="M10 19.8192H8V22.6192H10V19.8192Z" fill="#7E8084"/>
<path d="M16 19.8192H14V22.6192H16V19.8192Z" fill="#7E8084"/>
<circle cx="8.5" cy="16.0192" r="0.5" fill="#7E8084"/>
<circle cx="15.5" cy="16.0192" r="0.5" fill="#7E8084"/>
</g>
<defs>
<clipPath id="clip0">
<rect width="18" height="20.1" fill="white" transform="translate(3 2.51917)"/>
</clipPath>
</defs>
</svg>
