<svg width="24" height="25" viewBox="0 0 24 25" fill="none" xmlns="http://www.w3.org/2000/svg">
<path opacity="0.24" d="M12 11.5192H14V13.5192H12V15.5192H14V17.5192H12V19.5192H20V9.51917H12V11.5192ZM16 11.5192H18V13.5192H16V11.5192ZM16 15.5192H18V17.5192H16V15.5192Z" fill="#7E8084"/>
<path d="M12 7.51917V3.51917H2V21.5192H22V7.51917H12ZM6 19.5192H4V17.5192H6V19.5192ZM6 15.5192H4V13.5192H6V15.5192ZM6 11.5192H4V9.51917H6V11.5192ZM6 7.51917H4V5.51917H6V7.51917ZM10 19.5192H8V17.5192H10V19.5192ZM10 15.5192H8V13.5192H10V15.5192ZM10 11.5192H8V9.51917H10V11.5192ZM10 7.51917H8V5.51917H10V7.51917ZM20 19.5192H12V17.5192H14V15.5192H12V13.5192H14V11.5192H12V9.51917H20V19.5192ZM16 11.5192H18V13.5192H16V11.5192ZM16 15.5192H18V17.5192H16V15.5192Z" fill="#7E8084"/>
</svg>
