<svg width="24" height="25" viewBox="0 0 24 25" fill="none" xmlns="http://www.w3.org/2000/svg">
<g clip-path="url(#clip0)">
<path d="M15.9 15.0692L16.62 16.5192H21V18.5192H16C15.62 18.5192 15.27 18.3092 15.11 17.9592L14.83 17.4092L12.8 20.1192C12.61 20.3692 12.31 20.5192 12 20.5192C11.93 20.5192 11.87 20.5092 11.8 20.4992C11.42 20.4192 11.12 20.1392 11.03 19.7592L9.7 14.4292L7.9 18.1292C7.73 18.4692 7.38 18.6892 7 18.6892H3V16.6892H6.38L8.66 11.9892C9.24 11.0892 10.56 11.1192 11.12 12.0292L11.18 12.1292L12.47 17.2392L14.21 14.9192C14.42 14.6392 14.75 14.4792 15.1 14.5192C15.44 14.5492 15.74 14.7592 15.9 15.0692Z" fill="#7E8084"/>
<path d="M10 12.5192C11.1 12.5192 12 11.6192 12 10.5192C12 9.41917 11.1 8.51917 10 8.51917C8.9 8.51917 8 9.41917 8 10.5192C8 11.6192 8.9 12.5192 10 12.5192Z" fill="#7E8084"/>
<path opacity="0.24" fill-rule="evenodd" clip-rule="evenodd" d="M15.41 13.1192C15.79 12.3392 16 11.4492 16 10.5192C16 7.20917 13.31 4.51917 10 4.51917C6.69 4.51917 4 7.20917 4 10.5192C4 12.1492 4.65 13.6192 5.7 14.6992L7.01 13.1692C6.38 12.4692 6 11.5392 6 10.5192C6 8.30917 7.79 6.51917 10 6.51917C12.21 6.51917 14 8.30917 14 10.5192C14 11.0392 13.9 11.5392 13.72 11.9992L15.41 13.1192Z" fill="#7E8084"/>
</g>
<defs>
<clipPath id="clip0">
<rect width="18" height="16" fill="white" transform="translate(3 4.51917)"/>
</clipPath>
</defs>
</svg>
