<svg width="24" height="25" viewBox="0 0 24 25" fill="none" xmlns="http://www.w3.org/2000/svg">
<g clip-path="url(#clip0)">
<path d="M15.9001 15.0692L16.6201 16.5192H21.0001V18.5192H16.0001C15.6201 18.5192 15.2701 18.3092 15.1101 17.9592L14.8301 17.4092L12.8001 20.1192C12.6101 20.3692 12.3101 20.5192 12.0001 20.5192C11.9301 20.5192 11.8701 20.5092 11.8001 20.4992C11.4201 20.4192 11.1201 20.1392 11.0301 19.7592L9.70006 14.4292L7.90006 18.1292C7.73006 18.4692 7.38006 18.6892 7.00006 18.6892H3.00006V16.6892H6.38006L8.66006 11.9892C9.24006 11.0892 10.5601 11.1192 11.1201 12.0292L11.1801 12.1292L12.4701 17.2392L14.2101 14.9192C14.4201 14.6392 14.7501 14.4792 15.1001 14.5192C15.4401 14.5492 15.7401 14.7592 15.9001 15.0692Z" fill="#7E8084"/>
<path d="M10.0001 12.5192C11.1001 12.5192 12.0001 11.6192 12.0001 10.5192C12.0001 9.41917 11.1001 8.51917 10.0001 8.51917C8.90006 8.51917 8.00006 9.41917 8.00006 10.5192C8.00006 11.6192 8.90006 12.5192 10.0001 12.5192Z" fill="#7E8084"/>
<path opacity="0.24" fill-rule="evenodd" clip-rule="evenodd" d="M15.4101 13.1192C15.7901 12.3392 16.0001 11.4492 16.0001 10.5192C16.0001 7.20917 13.3101 4.51917 10.0001 4.51917C6.69006 4.51917 4.00006 7.20917 4.00006 10.5192C4.00006 12.1492 4.65006 13.6192 5.70006 14.6992L7.01006 13.1692C6.38006 12.4692 6.00006 11.5392 6.00006 10.5192C6.00006 8.30917 7.79006 6.51917 10.0001 6.51917C12.2101 6.51917 14.0001 8.30917 14.0001 10.5192C14.0001 11.0392 13.9001 11.5392 13.7201 11.9992L15.4101 13.1192Z" fill="#7E8084"/>
</g>
<defs>
<clipPath id="clip0">
<rect width="18" height="16" fill="white" transform="translate(3.00006 4.51917)"/>
</clipPath>
</defs>
</svg>
