<svg width="24" height="25" viewBox="0 0 24 25" fill="none" xmlns="http://www.w3.org/2000/svg">
<path d="M15.5001 7.51913C16.3251 7.51913 17.0001 8.19413 17.0001 9.01913C17.0001 9.84413 16.3251 10.5191 15.5001 10.5191C14.6751 10.5191 14.0001 9.84413 14.0001 9.01913C14.0001 8.19413 14.6751 7.51913 15.5001 7.51913Z" fill="#7E8084"/>
<path d="M18.0001 2.51933C18.5501 2.51933 19.0001 2.96933 19.0001 3.51933C19.0001 4.06933 18.5501 4.51933 18.0001 4.51933C17.4501 4.51933 17.0001 4.06933 17.0001 3.51933C17.0001 2.96933 17.4501 2.51933 18.0001 2.51933Z" fill="#7E8084"/>
<path d="M7.99988 13.0192C8.55216 13.0192 8.99988 12.5714 8.99988 12.0192C8.99988 11.4669 8.55216 11.0192 7.99988 11.0192C7.44759 11.0192 6.99988 11.4669 6.99988 12.0192C6.99988 12.5714 7.44759 13.0192 7.99988 13.0192Z" fill="#7E8084"/>
<path d="M4 7.51933C4.55228 7.51933 5 7.07161 5 6.51933C5 5.96704 4.55228 5.51933 4 5.51933C3.44772 5.51933 3 5.96704 3 6.51933C3 7.07161 3.44772 7.51933 4 7.51933Z" fill="#7E8084"/>
<path d="M19.5 14.5193C20.3284 14.5193 21 13.8478 21 13.0193C21 12.1909 20.3284 11.5193 19.5 11.5193C18.6716 11.5193 18 12.1909 18 13.0193C18 13.8478 18.6716 14.5193 19.5 14.5193Z" fill="#7E8084"/>
<path d="M13.9999 15.5192C14.5532 15.5192 14.9999 15.9658 14.9999 16.5192C14.9999 17.0725 14.5532 17.5192 13.9999 17.5192C13.4466 17.5192 12.9999 17.0725 12.9999 16.5192C12.9999 15.9658 13.4466 15.5192 13.9999 15.5192Z" fill="#7E8084"/>
<path d="M10 4.519C10.5533 4.519 11 4.96567 11 5.519C11 6.07234 10.5533 6.519 10 6.519C9.44667 6.519 9 6.07234 9 5.519C9 4.96567 9.44667 4.519 10 4.519Z" fill="#7E8084"/>
<path d="M19.9999 19.519C20.5532 19.519 20.9999 19.9657 20.9999 20.519C20.9999 21.0723 20.5532 21.519 19.9999 21.519C19.4465 21.519 18.9999 21.0723 18.9999 20.519C18.9999 19.9657 19.4465 19.519 19.9999 19.519Z" fill="#7E8084"/>
<path d="M3.50012 14.7106C4.32512 14.7106 5.00012 15.3856 5.00012 16.2106C5.00012 17.0356 4.32512 17.7106 3.50012 17.7106C2.67512 17.7106 2.00012 17.0356 2.00012 16.2106C2.00012 15.3856 2.67512 14.7106 3.50012 14.7106Z" fill="#7E8084"/>
<path d="M8.99991 17.5193C9.55324 17.5193 9.99991 17.966 9.99991 18.5193C9.99991 19.0727 9.55324 19.5193 8.99991 19.5193C8.44658 19.5193 7.99991 19.0727 7.99991 18.5193C7.99991 17.966 8.44658 17.5193 8.99991 17.5193Z" fill="#7E8084"/>
</svg>
