<svg width="24" height="24" viewBox="0 0 24 24" fill="none" xmlns="http://www.w3.org/2000/svg">
<path d="M15.5 6.99997C16.325 6.99997 17 7.67497 17 8.49997C17 9.32497 16.325 9.99997 15.5 9.99997C14.675 9.99997 14 9.32497 14 8.49997C14 7.67497 14.675 6.99997 15.5 6.99997Z" fill="#7E8084"/>
<path d="M18 2.00016C18.55 2.00016 19 2.45016 19 3.00016C19 3.55016 18.55 4.00016 18 4.00016C17.45 4.00016 17 3.55016 17 3.00016C17 2.45016 17.45 2.00016 18 2.00016Z" fill="#7E8084"/>
<path d="M7.99976 12.5C8.55204 12.5 8.99976 12.0523 8.99976 11.5C8.99976 10.9477 8.55204 10.5 7.99976 10.5C7.44747 10.5 6.99976 10.9477 6.99976 11.5C6.99976 12.0523 7.44747 12.5 7.99976 12.5Z" fill="#7E8084"/>
<path d="M4 7.00016C4.55228 7.00016 5 6.55245 5 6.00016C5 5.44788 4.55228 5.00016 4 5.00016C3.44772 5.00016 3 5.44788 3 6.00016C3 6.55245 3.44772 7.00016 4 7.00016Z" fill="#7E8084"/>
<path d="M19.5 14.0002C20.3284 14.0002 21 13.3286 21 12.5002C21 11.6717 20.3284 11.0002 19.5 11.0002C18.6716 11.0002 18 11.6717 18 12.5002C18 13.3286 18.6716 14.0002 19.5 14.0002Z" fill="#7E8084"/>
<path d="M14 15C14.5533 15 15 15.4467 15 16C15 16.5533 14.5533 17 14 17C13.4467 17 13 16.5533 13 16C13 15.4467 13.4467 15 14 15Z" fill="#7E8084"/>
<path d="M10 3.99984C10.5533 3.99984 11 4.4465 11 4.99984C11 5.55317 10.5533 5.99984 10 5.99984C9.44667 5.99984 9 5.55317 9 4.99984C9 4.4465 9.44667 3.99984 10 3.99984Z" fill="#7E8084"/>
<path d="M20 18.9998C20.5533 18.9998 21 19.4465 21 19.9998C21 20.5532 20.5533 20.9998 20 20.9998C19.4467 20.9998 19 20.5532 19 19.9998C19 19.4465 19.4467 18.9998 20 18.9998Z" fill="#7E8084"/>
<path d="M3.5 14.1914C4.325 14.1914 5 14.8664 5 15.6914C5 16.5164 4.325 17.1914 3.5 17.1914C2.675 17.1914 2 16.5164 2 15.6914C2 14.8664 2.675 14.1914 3.5 14.1914Z" fill="#7E8084"/>
<path d="M9 17.0002C9.55333 17.0002 10 17.4468 10 18.0002C10 18.5535 9.55333 19.0002 9 19.0002C8.44667 19.0002 8 18.5535 8 18.0002C8 17.4468 8.44667 17.0002 9 17.0002Z" fill="#7E8084"/>
</svg>
