<svg width="24" height="25" viewBox="0 0 24 25" fill="none" xmlns="http://www.w3.org/2000/svg">
<path d="M15.5 7.51917C16.325 7.51917 17 8.19416 17 9.01916C17 9.84416 16.325 10.5192 15.5 10.5192C14.675 10.5192 14 9.84416 14 9.01916C14 8.19416 14.675 7.51917 15.5 7.51917Z" fill="#7E8084"/>
<path d="M18 2.51935C18.55 2.51935 19 2.96935 19 3.51935C19 4.06935 18.55 4.51935 18 4.51935C17.45 4.51935 17 4.06935 17 3.51935C17 2.96935 17.45 2.51935 18 2.51935Z" fill="#7E8084"/>
<path d="M7.99976 13.0192C8.55204 13.0192 8.99976 12.5714 8.99976 12.0192C8.99976 11.4669 8.55204 11.0192 7.99976 11.0192C7.44747 11.0192 6.99976 11.4669 6.99976 12.0192C6.99976 12.5714 7.44747 13.0192 7.99976 13.0192Z" fill="#7E8084"/>
<path d="M4 7.51935C4.55228 7.51935 5 7.07163 5 6.51935C5 5.96706 4.55228 5.51935 4 5.51935C3.44772 5.51935 3 5.96706 3 6.51935C3 7.07163 3.44772 7.51935 4 7.51935Z" fill="#7E8084"/>
<path d="M19.5 14.5193C20.3284 14.5193 21 13.8478 21 13.0193C21 12.1909 20.3284 11.5193 19.5 11.5193C18.6716 11.5193 18 12.1909 18 13.0193C18 13.8478 18.6716 14.5193 19.5 14.5193Z" fill="#7E8084"/>
<path d="M14 15.5192C14.5533 15.5192 15 15.9658 15 16.5192C15 17.0725 14.5533 17.5192 14 17.5192C13.4467 17.5192 13 17.0725 13 16.5192C13 15.9658 13.4467 15.5192 14 15.5192Z" fill="#7E8084"/>
<path d="M10 4.51898C10.5533 4.51898 11 4.96565 11 5.51898C11 6.07232 10.5533 6.51898 10 6.51898C9.44667 6.51898 9 6.07232 9 5.51898C9 4.96565 9.44667 4.51898 10 4.51898Z" fill="#7E8084"/>
<path d="M20 19.519C20.5533 19.519 21 19.9656 21 20.519C21 21.0723 20.5533 21.519 20 21.519C19.4467 21.519 19 21.0723 19 20.519C19 19.9656 19.4467 19.519 20 19.519Z" fill="#7E8084"/>
<path d="M3.5 14.7106C4.325 14.7106 5 15.3856 5 16.2106C5 17.0356 4.325 17.7106 3.5 17.7106C2.675 17.7106 2 17.0356 2 16.2106C2 15.3856 2.675 14.7106 3.5 14.7106Z" fill="#7E8084"/>
<path d="M9 17.5193C9.55333 17.5193 10 17.966 10 18.5194C10 19.0727 9.55333 19.5194 9 19.5194C8.44667 19.5194 8 19.0727 8 18.5194C8 17.966 8.44667 17.5193 9 17.5193Z" fill="#7E8084"/>
</svg>
