<svg width="24" height="24" viewBox="0 0 24 24" fill="none" xmlns="http://www.w3.org/2000/svg">
<path d="M15.5 7C16.325 7 17 7.675 17 8.5C17 9.325 16.325 10 15.5 10C14.675 10 14 9.325 14 8.5C14 7.675 14.675 7 15.5 7Z" fill="#7E8084"/>
<path d="M18 2.00012C18.55 2.00012 19 2.45012 19 3.00012C19 3.55012 18.55 4.00012 18 4.00012C17.45 4.00012 17 3.55012 17 3.00012C17 2.45012 17.45 2.00012 18 2.00012Z" fill="#7E8084"/>
<path d="M8 12.5C8.55229 12.5 9 12.0523 9 11.5C9 10.9477 8.55229 10.5 8 10.5C7.44772 10.5 7 10.9477 7 11.5C7 12.0523 7.44772 12.5 8 12.5Z" fill="#7E8084"/>
<path d="M4 7.00012C4.55228 7.00012 5 6.55241 5 6.00012C5 5.44784 4.55228 5.00012 4 5.00012C3.44772 5.00012 3 5.44784 3 6.00012C3 6.55241 3.44772 7.00012 4 7.00012Z" fill="#7E8084"/>
<path d="M19.5 14.0001C20.3284 14.0001 21 13.3285 21 12.5001C21 11.6717 20.3284 11.0001 19.5 11.0001C18.6716 11.0001 18 11.6717 18 12.5001C18 13.3285 18.6716 14.0001 19.5 14.0001Z" fill="#7E8084"/>
<path d="M14 15C14.5533 15 15 15.4467 15 16C15 16.5533 14.5533 17 14 17C13.4467 17 13 16.5533 13 16C13 15.4467 13.4467 15 14 15Z" fill="#7E8084"/>
<path d="M10 3.99988C10.5533 3.99988 11 4.44654 11 4.99988C11 5.55321 10.5533 5.99988 10 5.99988C9.44667 5.99988 9 5.55321 9 4.99988C9 4.44654 9.44667 3.99988 10 3.99988Z" fill="#7E8084"/>
<path d="M20 18.9999C20.5533 18.9999 21 19.4465 21 19.9999C21 20.5532 20.5533 20.9999 20 20.9999C19.4467 20.9999 19 20.5532 19 19.9999C19 19.4465 19.4467 18.9999 20 18.9999Z" fill="#7E8084"/>
<path d="M3.5 14.1914C4.325 14.1914 5 14.8664 5 15.6914C5 16.5164 4.325 17.1914 3.5 17.1914C2.675 17.1914 2 16.5164 2 15.6914C2 14.8664 2.675 14.1914 3.5 14.1914Z" fill="#7E8084"/>
<path d="M9 17.0001C9.55333 17.0001 10 17.4468 10 18.0001C10 18.5535 9.55333 19.0001 9 19.0001C8.44667 19.0001 8 18.5535 8 18.0001C8 17.4468 8.44667 17.0001 9 17.0001Z" fill="#7E8084"/>
</svg>
