<svg width="24" height="25" viewBox="0 0 24 25" fill="none" xmlns="http://www.w3.org/2000/svg">
<g clip-path="url(#clip0)">
<path d="M14 2.51917H20L17.9 6.71916H20L15.8 14.5192V9.71916H14V2.51917Z" fill="#7E8084"/>
<path opacity="0.24" d="M19.1 16.5192C16.2 16.8192 13.2 15.8192 11 13.6192C8.70001 11.3192 7.80001 8.31917 8.10001 5.41916C8.10001 5.31916 8.10001 5.11916 8.10001 5.11916C8.10001 4.81916 7.90001 4.51916 7.60001 4.31916C7.50001 4.21916 6.90001 4.01916 6.20001 4.31916C5.80001 4.71916 5.30001 5.01916 4.90001 5.41916C1.00001 9.31917 1.00001 15.7192 4.90001 19.6192C8.80001 23.5192 15.1 23.5192 19 19.6192C19.4 19.2192 19.8 18.8192 20.1 18.3192C20.7 17.6192 19.9 16.5192 19.1 16.5192Z" fill="#7E8084"/>
<path d="M19.1 16.5192C16.2 16.8192 13.2 15.8192 11 13.6192C8.70001 11.3192 7.80001 8.31917 8.10001 5.41916C8.10001 5.31916 8.10001 5.11916 8.10001 5.11916C8.10001 4.81916 7.90001 4.51916 7.60001 4.31916C7.50001 4.21916 6.90001 4.01916 6.20001 4.31916C5.80001 4.71916 5.30001 5.01916 4.90001 5.41916C1.00001 9.31917 1.00001 15.7192 4.90001 19.6192C8.80001 23.5192 15.1 23.5192 19 19.6192C19.4 19.2192 19.8 18.8192 20.1 18.3192C20.7 17.6192 19.9 16.5192 19.1 16.5192ZM6.30001 18.2192C3.30001 15.2192 3.20001 10.4192 6.00001 7.21916C6.20001 10.0192 7.30001 12.8192 9.50001 15.0192C11.7 17.1192 14.5 18.3192 17.3 18.5192C14.2 21.3192 9.40001 21.2192 6.30001 18.2192Z" fill="#7E8084"/>
</g>
<defs>
<clipPath id="clip0">
<rect width="19" height="20" fill="white" transform="translate(2 2.51917)"/>
</clipPath>
</defs>
</svg>
