<svg width="24" height="24" viewBox="0 0 24 24" fill="none" xmlns="http://www.w3.org/2000/svg">
<g clip-path="url(#clip0)">
<path d="M14 2H20L17.9 6.2H20L15.8 14V9.2H14V2Z" fill="#7E8085"/>
<path opacity="0.3" d="M19.1 16C16.2 16.3 13.2 15.3 11 13.1C8.69998 10.8 7.79998 7.8 8.09998 4.9C8.09998 4.8 8.09998 4.6 8.09998 4.6C8.09998 4.3 7.89998 4 7.59998 3.8C7.49998 3.7 6.89998 3.5 6.19998 3.8C5.79998 4.2 5.29998 4.5 4.89998 4.9C0.999976 8.8 0.999976 15.2 4.89998 19.1C8.79998 23 15.1 23 19 19.1C19.4 18.7 19.8 18.3 20.1 17.8C20.7 17.1 19.9 16 19.1 16Z" fill="#7E8085"/>
<path d="M19.1 16C16.2 16.3 13.2 15.3 11 13.1C8.69998 10.8 7.79998 7.8 8.09998 4.9C8.09998 4.8 8.09998 4.6 8.09998 4.6C8.09998 4.3 7.89998 4 7.59998 3.8C7.49998 3.7 6.89998 3.5 6.19998 3.8C5.79998 4.2 5.29998 4.5 4.89998 4.9C0.999976 8.8 0.999976 15.2 4.89998 19.1C8.79998 23 15.1 23 19 19.1C19.4 18.7 19.8 18.3 20.1 17.8C20.7 17.1 19.9 16 19.1 16ZM6.29998 17.7C3.29998 14.7 3.19998 9.9 5.99998 6.7C6.19998 9.5 7.29998 12.3 9.49998 14.5C11.7 16.6 14.5 17.8 17.3 18C14.2 20.8 9.39998 20.7 6.29998 17.7Z" fill="#7E8085"/>
</g>
<defs>
<clipPath id="clip0">
<rect width="19" height="20" fill="white" transform="translate(2 2)"/>
</clipPath>
</defs>
</svg>
