<svg width="24" height="25" viewBox="0 0 24 25" fill="none" xmlns="http://www.w3.org/2000/svg">
<g clip-path="url(#clip0)">
<path d="M14 2.51917H20L17.9 6.71916H20L15.8 14.5192V9.71916H14V2.51917Z" fill="#7E8084"/>
<path opacity="0.24" d="M19.1001 16.5192C16.2001 16.8192 13.2001 15.8192 11.0001 13.6192C8.7001 11.3192 7.8001 8.31915 8.1001 5.41915C8.1001 5.31915 8.1001 5.11915 8.1001 5.11915C8.1001 4.81915 7.9001 4.51915 7.6001 4.31915C7.5001 4.21915 6.9001 4.01915 6.2001 4.31915C5.8001 4.71915 5.3001 5.01915 4.9001 5.41915C1.0001 9.31915 1.0001 15.7192 4.9001 19.6192C8.8001 23.5192 15.1001 23.5192 19.0001 19.6192C19.4001 19.2192 19.8001 18.8192 20.1001 18.3192C20.7001 17.6192 19.9001 16.5192 19.1001 16.5192Z" fill="#7E8084"/>
<path d="M19.1001 16.5192C16.2001 16.8192 13.2001 15.8192 11.0001 13.6192C8.7001 11.3192 7.8001 8.31915 8.1001 5.41915C8.1001 5.31915 8.1001 5.11915 8.1001 5.11915C8.1001 4.81915 7.9001 4.51915 7.6001 4.31915C7.5001 4.21915 6.9001 4.01915 6.2001 4.31915C5.8001 4.71915 5.3001 5.01915 4.9001 5.41915C1.0001 9.31915 1.0001 15.7192 4.9001 19.6192C8.8001 23.5192 15.1001 23.5192 19.0001 19.6192C19.4001 19.2192 19.8001 18.8192 20.1001 18.3192C20.7001 17.6192 19.9001 16.5192 19.1001 16.5192ZM6.3001 18.2192C3.3001 15.2192 3.2001 10.4192 6.0001 7.21915C6.2001 10.0192 7.3001 12.8192 9.5001 15.0192C11.7001 17.1192 14.5001 18.3192 17.3001 18.5192C14.2001 21.3192 9.4001 21.2192 6.3001 18.2192Z" fill="#7E8084"/>
</g>
<defs>
<clipPath id="clip0">
<rect width="19" height="20" fill="white" transform="translate(2 2.51917)"/>
</clipPath>
</defs>
</svg>
