<svg width="24" height="24" viewBox="0 0 24 24" fill="none" xmlns="http://www.w3.org/2000/svg">
<g clip-path="url(#clip0)">
<path d="M14 2H20L17.9 6.2H20L15.8 14V9.2H14V2Z" fill="#7E8084"/>
<path opacity="0.24" d="M19.1001 16C16.2001 16.3 13.2001 15.3 11.0001 13.1C8.7001 10.8 7.8001 7.80005 8.1001 4.90005C8.1001 4.80005 8.1001 4.60005 8.1001 4.60005C8.1001 4.30005 7.9001 4.00005 7.6001 3.80005C7.5001 3.70005 6.9001 3.50005 6.2001 3.80005C5.8001 4.20005 5.3001 4.50005 4.9001 4.90005C1.0001 8.80005 1.0001 15.2 4.9001 19.1C8.8001 23 15.1001 23 19.0001 19.1C19.4001 18.7 19.8001 18.3 20.1001 17.8C20.7001 17.1 19.9001 16 19.1001 16Z" fill="#7E8084"/>
<path d="M19.1001 16C16.2001 16.3 13.2001 15.3 11.0001 13.1C8.7001 10.8 7.8001 7.80005 8.1001 4.90005C8.1001 4.80005 8.1001 4.60005 8.1001 4.60005C8.1001 4.30005 7.9001 4.00005 7.6001 3.80005C7.5001 3.70005 6.9001 3.50005 6.2001 3.80005C5.8001 4.20005 5.3001 4.50005 4.9001 4.90005C1.0001 8.80005 1.0001 15.2 4.9001 19.1C8.8001 23 15.1001 23 19.0001 19.1C19.4001 18.7 19.8001 18.3 20.1001 17.8C20.7001 17.1 19.9001 16 19.1001 16ZM6.3001 17.7C3.3001 14.7 3.2001 9.90005 6.0001 6.70005C6.2001 9.50005 7.3001 12.3 9.5001 14.5C11.7001 16.6 14.5001 17.8 17.3001 18C14.2001 20.8 9.4001 20.7 6.3001 17.7Z" fill="#7E8084"/>
</g>
<defs>
<clipPath id="clip0">
<rect width="19" height="20" fill="white" transform="translate(2 2)"/>
</clipPath>
</defs>
</svg>
