<svg width="24" height="24" viewBox="0 0 24 24" fill="none" xmlns="http://www.w3.org/2000/svg">
<path opacity="0.24" d="M9 10C9.82843 10 10.5 9.32843 10.5 8.5C10.5 7.67157 9.82843 7 9 7C8.17157 7 7.5 7.67157 7.5 8.5C7.5 9.32843 8.17157 10 9 10Z" fill="#7E8084"/>
<path opacity="0.24" d="M4.2998 17H13.5998C12.7998 16.4 10.6998 15.8 8.8998 15.8C7.0998 15.8 5.1998 16.4 4.2998 17Z" fill="#7E8084"/>
<path d="M9 12C10.9 12 12.5 10.4 12.5 8.5C12.5 6.6 10.9 5 9 5C7.1 5 5.5 6.6 5.5 8.5C5.5 10.4 7.1 12 9 12ZM9 7C9.8 7 10.5 7.7 10.5 8.5C10.5 9.3 9.8 10 9 10C8.2 10 7.5 9.3 7.5 8.5C7.5 7.7 8.2 7 9 7ZM9 13.8C6.7 13.8 2 15 2 17.3V19H16V17.2C16 14.9 11.3 13.8 9 13.8ZM4.3 17C5.1 16.4 7.2 15.8 9 15.8C10.8 15.8 12.8 16.5 13.7 17H4.3ZM16 13.8C17.2 14.6 18 15.8 18 17.2V19H22V17.2C22 15.2 18.5 14.1 16 13.8ZM15 12C16.9 12 18.5 10.4 18.5 8.5C18.5 6.6 16.9 5 15 5C14.5 5 14 5.1 13.5 5.3C14.1 6.2 14.5 7.3 14.5 8.5C14.5 9.7 14.1 10.8 13.5 11.6C14 11.9 14.5 12 15 12Z" fill="#7E8084"/>
</svg>
