<svg width="24" height="25" viewBox="0 0 24 25" fill="none" xmlns="http://www.w3.org/2000/svg">
<path opacity="0.24" d="M9 10.5192C9.82843 10.5192 10.5 9.84759 10.5 9.01917C10.5 8.19074 9.82843 7.51917 9 7.51917C8.17157 7.51917 7.5 8.19074 7.5 9.01917C7.5 9.84759 8.17157 10.5192 9 10.5192Z" fill="#7E8084"/>
<path opacity="0.24" d="M4.30005 17.5192H13.6C12.8 16.9192 10.7 16.3192 8.90005 16.3192C7.10005 16.3192 5.20005 16.9192 4.30005 17.5192Z" fill="#7E8084"/>
<path d="M9 12.5192C10.9 12.5192 12.5 10.9192 12.5 9.01917C12.5 7.11917 10.9 5.51917 9 5.51917C7.1 5.51917 5.5 7.11917 5.5 9.01917C5.5 10.9192 7.1 12.5192 9 12.5192ZM9 7.51917C9.8 7.51917 10.5 8.21917 10.5 9.01917C10.5 9.81917 9.8 10.5192 9 10.5192C8.2 10.5192 7.5 9.81917 7.5 9.01917C7.5 8.21917 8.2 7.51917 9 7.51917ZM9 14.3192C6.7 14.3192 2 15.5192 2 17.8192V19.5192H16V17.7192C16 15.4192 11.3 14.3192 9 14.3192ZM4.3 17.5192C5.1 16.9192 7.2 16.3192 9 16.3192C10.8 16.3192 12.8 17.0192 13.7 17.5192H4.3ZM16 14.3192C17.2 15.1192 18 16.3192 18 17.7192V19.5192H22V17.7192C22 15.7192 18.5 14.6192 16 14.3192ZM15 12.5192C16.9 12.5192 18.5 10.9192 18.5 9.01917C18.5 7.11917 16.9 5.51917 15 5.51917C14.5 5.51917 14 5.61917 13.5 5.81917C14.1 6.71917 14.5 7.81916 14.5 9.01917C14.5 10.2192 14.1 11.3192 13.5 12.1192C14 12.4192 14.5 12.5192 15 12.5192Z" fill="#7E8084"/>
</svg>
