<svg width="24" height="25" viewBox="0 0 24 25" fill="none" xmlns="http://www.w3.org/2000/svg">
<path opacity="0.24" d="M15 16.5192C12.3 16.5192 9.2 17.8192 9 18.5192H21C20.8 17.8192 17.7 16.5192 15 16.5192Z" fill="#7E8084"/>
<path opacity="0.24" d="M15 10.5192C16.1046 10.5192 17 9.62373 17 8.51917C17 7.4146 16.1046 6.51917 15 6.51917C13.8954 6.51917 13 7.4146 13 8.51917C13 9.62373 13.8954 10.5192 15 10.5192Z" fill="#7E8084"/>
<path d="M15 12.5192C17.2 12.5192 19 10.7192 19 8.51917C19 6.31916 17.2 4.51917 15 4.51917C12.8 4.51917 11 6.31916 11 8.51917C11 10.7192 12.8 12.5192 15 12.5192ZM15 6.51917C16.1 6.51917 17 7.41917 17 8.51917C17 9.61916 16.1 10.5192 15 10.5192C13.9 10.5192 13 9.61916 13 8.51917C13 7.41917 13.9 6.51917 15 6.51917ZM15 14.5192C12.3 14.5192 7 15.8192 7 18.5192V20.5192H23V18.5192C23 15.8192 17.7 14.5192 15 14.5192ZM9 18.5192C9.2 17.8192 12.3 16.5192 15 16.5192C17.7 16.5192 20.8 17.8192 21 18.5192H9ZM6 15.5192V12.5192H9V10.5192H6V7.51917H4V10.5192H1V12.5192H4V15.5192H6Z" fill="#7E8084"/>
</svg>
