<svg width="24" height="25" viewBox="0 0 24 25" fill="none" xmlns="http://www.w3.org/2000/svg">
<path fill-rule="evenodd" clip-rule="evenodd" d="M11 3.51917H13V13.5192H11V3.51917ZM16.41 7.10917L17.83 5.68917C19.77 7.33917 21 9.77917 21 12.5192C21 17.4892 16.97 21.5192 12 21.5192C7.03 21.5192 3 17.4892 3 12.5192C3 9.77917 4.23 7.33917 6.17 5.68917L7.58 7.09916C6.01 8.37917 5 10.3292 5 12.5192C5 16.3892 8.13 19.5192 12 19.5192C15.87 19.5192 19 16.3892 19 12.5192C19 10.3292 17.99 8.37917 16.41 7.10917Z" fill="#7E8084"/>
</svg>
