<svg width="24" height="25" viewBox="0 0 24 25" fill="none" xmlns="http://www.w3.org/2000/svg">
<path opacity="0.24" d="M8 5.51917H16V8.51917H8V5.51917Z" fill="#7E8084"/>
<path fill-rule="evenodd" clip-rule="evenodd" d="M18 13.5192H6V15.5192H4V11.5192C4 10.9692 4.45 10.5192 5 10.5192H6H18H19C19.55 10.5192 20 10.9692 20 11.5192V15.5192H18V13.5192ZM19 12.0192C19 11.4692 18.55 11.0192 18 11.0192C17.45 11.0192 17 11.4692 17 12.0192C17 12.5692 17.45 13.0192 18 13.0192C18.55 13.0192 19 12.5692 19 12.0192Z" fill="#7E8084"/>
<path d="M18 13.0192C18.5523 13.0192 19 12.5714 19 12.0192C19 11.4669 18.5523 11.0192 18 11.0192C17.4477 11.0192 17 11.4669 17 12.0192C17 12.5714 17.4477 13.0192 18 13.0192Z" fill="#7E8084"/>
<path fill-rule="evenodd" clip-rule="evenodd" d="M18 8.51917H19C20.66 8.51917 22 9.85917 22 11.5192V15.5192V17.5192H18V21.5192H6V17.5192H2V15.5192V11.5192C2 9.85917 3.34 8.51917 5 8.51917H6V3.51917H18V8.51917ZM16 5.51917H8V8.51917H16V5.51917ZM16 19.5192H8V15.5192H16V19.5192ZM18 15.5192H20V11.5192C20 10.9692 19.55 10.5192 19 10.5192H18H6H5C4.45 10.5192 4 10.9692 4 11.5192V15.5192H6V13.5192H18V15.5192Z" fill="#7E8084"/>
</svg>
