<svg width="24" height="24" viewBox="0 0 24 24" fill="none" xmlns="http://www.w3.org/2000/svg">
<path opacity="0.3" d="M8 5H16V8H8V5Z" fill="#7E8085"/>
<path fill-rule="evenodd" clip-rule="evenodd" d="M18 13H6V15H4V11C4 10.45 4.45 10 5 10H6H18H19C19.55 10 20 10.45 20 11V15H18V13ZM19 11.5C19 10.95 18.55 10.5 18 10.5C17.45 10.5 17 10.95 17 11.5C17 12.05 17.45 12.5 18 12.5C18.55 12.5 19 12.05 19 11.5Z" fill="#7E8085"/>
<path d="M18 12.5C18.5523 12.5 19 12.0523 19 11.5C19 10.9477 18.5523 10.5 18 10.5C17.4477 10.5 17 10.9477 17 11.5C17 12.0523 17.4477 12.5 18 12.5Z" fill="#7E8085"/>
<path fill-rule="evenodd" clip-rule="evenodd" d="M18 8H19C20.66 8 22 9.34 22 11V15V17H18V21H6V17H2V15V11C2 9.34 3.34 8 5 8H6V3H18V8ZM16 5H8V8H16V5ZM16 19H8V15H16V19ZM18 15H20V11C20 10.45 19.55 10 19 10H18H6H5C4.45 10 4 10.45 4 11V15H6V13H18V15Z" fill="#7E8085"/>
</svg>
