<svg width="24" height="24" viewBox="0 0 24 24" fill="none" xmlns="http://www.w3.org/2000/svg">
<path d="M12.9998 2.03003V2.05003V4.05003C17.3898 4.59003 20.4998 8.58003 19.9598 12.97C19.4998 16.61 16.6398 19.5 12.9998 19.93V21.93C18.4998 21.38 22.4998 16.5 21.9498 11C21.4998 6.25003 17.7298 2.50003 12.9998 2.03003ZM10.9998 2.06003C9.0498 2.25003 7.18981 3.00003 5.6698 4.26003L7.0998 5.74003C8.2198 4.84003 9.5698 4.26003 10.9998 4.06003V2.06003ZM4.2598 5.67003C2.9998 7.19003 2.2498 9.04003 2.0498 11H4.0498C4.2398 9.58003 4.7998 8.23003 5.6898 7.10003L4.2598 5.67003ZM2.0598 13C2.2598 14.96 3.0298 16.81 4.2698 18.33L5.6898 16.9C4.8098 15.77 4.2398 14.42 4.0598 13H2.0598ZM7.0998 18.37L5.6698 19.74C7.1798 21 9.0398 21.79 10.9998 22V20C9.5798 19.82 8.2298 19.25 7.0998 18.37ZM12.4998 7.00003V12.25L16.9998 14.92L16.2498 16.15L10.9998 13V7.00003H12.4998Z" fill="#7E8084"/>
</svg>
