<svg width="24" height="25" viewBox="0 0 24 25" fill="none" xmlns="http://www.w3.org/2000/svg">
<path d="M13 2.54919V2.56919V4.56919C17.39 5.10919 20.5 9.0992 19.96 13.4892C19.5 17.1292 16.64 20.0192 13 20.4492V22.4492C18.5 21.8992 22.5 17.0192 21.9501 11.5192C21.5 6.76919 17.73 3.01919 13 2.54919ZM11 2.57919C9.05005 2.76919 7.19005 3.51919 5.67005 4.77919L7.10005 6.25919C8.22005 5.35919 9.57005 4.77919 11 4.57919V2.57919ZM4.26005 6.18919C3.00005 7.70919 2.25005 9.55919 2.05005 11.5192H4.05005C4.24005 10.0992 4.80005 8.74919 5.69005 7.61919L4.26005 6.18919ZM2.06005 13.5192C2.26005 15.4792 3.03005 17.3292 4.27005 18.8492L5.69005 17.4192C4.81005 16.2892 4.24005 14.9392 4.06005 13.5192H2.06005ZM7.10005 18.8892L5.67005 20.2592C7.18005 21.5192 9.04005 22.3092 11 22.5192V20.5192C9.58005 20.3392 8.23005 19.7692 7.10005 18.8892ZM12.5 7.51919V12.7692L17 15.4392L16.25 16.6692L11 13.5192V7.51919H12.5Z" fill="#7E8084"/>
</svg>
