<svg width="24" height="25" viewBox="0 0 24 25" fill="none" xmlns="http://www.w3.org/2000/svg">
<path d="M13 2.54916V2.56916V4.56916C17.39 5.10916 20.5 9.09916 19.96 13.4892C19.5 17.1292 16.64 20.0192 13 20.4492V22.4492C18.5 21.8992 22.5 17.0192 21.95 11.5192C21.5 6.76916 17.73 3.01916 13 2.54916ZM11 2.57916C9.05 2.76916 7.19 3.51916 5.67 4.77916L7.1 6.25916C8.22 5.35916 9.57 4.77916 11 4.57916V2.57916ZM4.26 6.18916C3 7.70916 2.25 9.55916 2.05 11.5192H4.05C4.24 10.0992 4.8 8.74916 5.69 7.61916L4.26 6.18916ZM2.06 13.5192C2.26 15.4792 3.03 17.3292 4.27 18.8492L5.69 17.4192C4.81 16.2892 4.24 14.9392 4.06 13.5192H2.06ZM7.1 18.8892L5.67 20.2592C7.18 21.5192 9.04 22.3092 11 22.5192V20.5192C9.58 20.3392 8.23 19.7692 7.1 18.8892ZM12.5 7.51916V12.7692L17 15.4392L16.25 16.6692L11 13.5192V7.51916H12.5Z" fill="#7E8084"/>
</svg>
