<svg width="24" height="24" viewBox="0 0 24 24" fill="none" xmlns="http://www.w3.org/2000/svg">
<path d="M8.2801 5.45L6.5001 4.55L7.7601 2H16.2301L17.5001 4.55L15.7201 5.44L15.0001 4H9.0001L8.2801 5.45ZM18.6201 8H14.0901L13.3001 5H10.7001L9.9101 8H5.3801L4.1001 10.55L5.8901 11.44L6.6201 10H17.3801L18.1001 11.45L19.8901 10.56L18.6201 8ZM17.7701 22H15.7001L15.4601 21.1L12.0001 15.9L8.5301 21.1L8.3001 22H6.2301L9.1201 11H11.1901L10.8301 12.35L12.0001 14.1L13.1601 12.35L12.8101 11H14.8801L17.7701 22ZM11.4001 15L10.5001 13.65L9.3201 18.13L11.4001 15ZM14.6801 18.12L13.5001 13.64L12.6001 15L14.6801 18.12Z" fill="#7E8084"/>
</svg>
