<svg width="24" height="24" viewBox="0 0 24 24" fill="none" xmlns="http://www.w3.org/2000/svg">
<path d="M8.27985 5.45L6.49985 4.55L7.75985 2H16.2299L17.4999 4.55L15.7199 5.44L14.9999 4H8.99985L8.27985 5.45ZM18.6199 8H14.0899L13.2999 5H10.6999L9.90985 8H5.37985L4.09985 10.55L5.88985 11.44L6.61985 10H17.3799L18.0999 11.45L19.8899 10.56L18.6199 8ZM17.7699 22H15.6999L15.4599 21.1L11.9999 15.9L8.52985 21.1L8.29985 22H6.22985L9.11985 11H11.1899L10.8299 12.35L11.9999 14.1L13.1599 12.35L12.8099 11H14.8799L17.7699 22ZM11.3999 15L10.4999 13.65L9.31985 18.13L11.3999 15ZM14.6799 18.12L13.4999 13.64L12.5999 15L14.6799 18.12Z" fill="#7E8084"/>
</svg>
