<svg width="24" height="25" viewBox="0 0 24 25" fill="none" xmlns="http://www.w3.org/2000/svg">
<path d="M8.27985 5.96916L6.49985 5.06917L7.75985 2.51917H16.2299L17.4999 5.06917L15.7199 5.95917L14.9999 4.51917H8.99985L8.27985 5.96916ZM18.6199 8.51917H14.0899L13.2999 5.51917H10.6999L9.90985 8.51917H5.37985L4.09985 11.0692L5.88985 11.9592L6.61985 10.5192H17.3799L18.0999 11.9692L19.8899 11.0792L18.6199 8.51917ZM17.7699 22.5192H15.6999L15.4599 21.6192L11.9999 16.4192L8.52985 21.6192L8.29985 22.5192H6.22985L9.11985 11.5192H11.1899L10.8299 12.8692L11.9999 14.6192L13.1599 12.8692L12.8099 11.5192H14.8799L17.7699 22.5192ZM11.3999 15.5192L10.4999 14.1692L9.31985 18.6492L11.3999 15.5192ZM14.6799 18.6392L13.4999 14.1592L12.5999 15.5192L14.6799 18.6392Z" fill="#7E8084"/>
</svg>
