<svg width="24" height="25" viewBox="0 0 24 25" fill="none" xmlns="http://www.w3.org/2000/svg">
<path d="M8.27996 5.96916L6.49996 5.06917L7.75996 2.51917H16.23L17.5 5.06917L15.72 5.95917L15 4.51917H8.99996L8.27996 5.96916ZM18.62 8.51917H14.09L13.3 5.51917H10.7L9.90996 8.51917H5.37996L4.09996 11.0692L5.88996 11.9592L6.61996 10.5192H17.38L18.1 11.9692L19.89 11.0792L18.62 8.51917ZM17.77 22.5192H15.7L15.46 21.6192L12 16.4192L8.52996 21.6192L8.29996 22.5192H6.22996L9.11996 11.5192H11.19L10.83 12.8692L12 14.6192L13.16 12.8692L12.81 11.5192H14.88L17.77 22.5192ZM11.4 15.5192L10.5 14.1692L9.31996 18.6492L11.4 15.5192ZM14.68 18.6392L13.5 14.1592L12.6 15.5192L14.68 18.6392Z" fill="#7E8084"/>
</svg>
