<svg width="24" height="24" viewBox="0 0 24 24" fill="none" xmlns="http://www.w3.org/2000/svg">
<g clip-path="url(#clip0)">
<path d="M11.8571 2C9.5 2 7.57143 3.92857 7.57143 6.28571V7.71429H6.85714V17.7143H8L8.5 19.1429H15.2143L15.7143 17.7143H16.8571V7.71429H16.1429V6.28571C16.1429 3.92857 14.2143 2 11.8571 2ZM11.8571 3.42857C13.4286 3.42857 14.7143 4.71429 14.7143 6.28571V7.71429H12.5714V5.57143H11.1429V7.71429H9V6.28571C9 4.71429 10.2857 3.42857 11.8571 3.42857ZM4.71429 7.71429V9.14286H4V10.5714H4.71429V17.0714L5.5 19.8571L4.64286 20.7143V22H6.85714V19.7143L6.14286 16.9286V7.71429H4.71429ZM17.5714 7.71429V16.9286L16.8571 19.7143V22H19.1429V20.7857L18.2857 19.9286L19.0714 17.1429V10.5714H19.7857V9.14286H19.0714V7.71429H17.5714ZM8.28571 9.14286H15.4286V16.2857H14.7143V14.8571H13.2857V17.7143H12.5714V11.2857H11.1429V17.7143H9.5L9 16.2857H8.28571V9.14286Z" fill="#7E8084"/>
</g>
<defs>
<clipPath id="clip0">
<rect width="15.7143" height="20" fill="white" transform="translate(4 2)"/>
</clipPath>
</defs>
</svg>
