<svg width="24" height="25" viewBox="0 0 24 25" fill="none" xmlns="http://www.w3.org/2000/svg">
<g clip-path="url(#clip0)">
<path d="M11.8571 2.51917C9.5 2.51917 7.57143 4.44774 7.57143 6.80488V8.23345H6.85714V18.2335H8L8.5 19.662H15.2143L15.7143 18.2335H16.8571V8.23345H16.1429V6.80488C16.1429 4.44774 14.2143 2.51917 11.8571 2.51917ZM11.8571 3.94774C13.4286 3.94774 14.7143 5.23345 14.7143 6.80488V8.23345H12.5714V6.09059H11.1429V8.23345H9V6.80488C9 5.23345 10.2857 3.94774 11.8571 3.94774ZM4.71429 8.23345V9.66202H4V11.0906H4.71429V17.5906L5.5 20.3763L4.64286 21.2335V22.5192H6.85714V20.2334L6.14286 17.4477V8.23345H4.71429ZM17.5714 8.23345V17.4477L16.8571 20.2334V22.5192H19.1429V21.3049L18.2857 20.4477L19.0714 17.662V11.0906H19.7857V9.66202H19.0714V8.23345H17.5714ZM8.28571 9.66202H15.4286V16.8049H14.7143V15.3763H13.2857V18.2335H12.5714V11.8049H11.1429V18.2335H9.5L9 16.8049H8.28571V9.66202Z" fill="#7E8084"/>
</g>
<defs>
<clipPath id="clip0">
<rect width="15.7143" height="20" fill="white" transform="translate(4 2.51917)"/>
</clipPath>
</defs>
</svg>
