<svg width="24" height="24" viewBox="0 0 24 24" fill="none" xmlns="http://www.w3.org/2000/svg">
<g clip-path="url(#clip0)">
<path d="M18.3442 15.4447L20.6777 17.7782L17.8492 20.6066L17.3543 20.1116L18.3442 15.4447ZM10.0711 2.92893L3 10L5.12132 12.1213L12.1924 5.05025L10.0711 2.92893ZM11.4853 7.17157L11.2731 8.37365L10.7782 7.87868L7.94975 10.7071L10.2832 13.0406L10.0711 14.2426L10.7782 14.9497L12.2631 7.94939L11.4853 7.17157ZM14.3137 10L14.1016 11.2021L12.6874 9.78787L11.7681 14.5255L13.1823 15.9397L12.8995 17.0711L13.6066 17.7782L15.0915 10.7778L14.3137 10ZM17.1421 12.8284L16.93 14.0305L15.5158 12.6163L14.5966 17.3539L16.0108 18.7681L15.7279 19.8995L16.435 20.6066L17.92 13.6062L17.1421 12.8284Z" fill="#7E8084"/>
</g>
<defs>
<clipPath id="clip0">
<rect width="10" height="18" fill="white" transform="translate(3 10) rotate(-45)"/>
</clipPath>
</defs>
</svg>
