<svg width="24" height="24" viewBox="0 0 24 24" fill="none" xmlns="http://www.w3.org/2000/svg">
<g clip-path="url(#clip0)">
<path d="M21.5 17C21.5 19.8 19.3 22 16.5 22C13.7 22 11.5 19.8 11.5 17C11.5 15.4 12.2 13.9 13.5 13V5C13.5 3.3 14.8 2 16.5 2C18.2 2 19.5 3.3 19.5 5V13C20.7 13.9 21.5 15.4 21.5 17ZM15.5 8V14.2C13.9 14.8 13.1 16.5 13.7 18C14.3 19.6 16 20.4 17.5 19.8C19 19.2 19.9 17.5 19.3 16C19 15.1 18.3 14.5 17.5 14.2V8H15.5Z" fill="#7E8084"/>
<path d="M2.01916 8.40003C1.91916 7.90003 2.21916 7.30003 2.71916 7.20003L5.01916 6.50003L3.31916 4.90003C2.91916 4.50003 2.91916 3.90003 3.31916 3.40003C3.71916 3.00003 4.41916 3.00003 4.81916 3.40003L6.51916 5.10003L7.01916 2.80003C7.11916 2.20003 7.71916 1.90003 8.21916 2.10003C8.81916 2.20003 9.11916 2.80003 8.91916 3.40003L8.31916 5.60003L10.5192 5.00003C11.1192 4.80003 11.6192 5.10003 11.8192 5.70003C11.9192 6.20003 11.6192 6.80003 11.1192 6.90003L8.91916 7.50003L10.6192 9.20004C11.0192 9.60004 11.0192 10.3 10.6192 10.7C10.2192 11.1 9.51916 11.1 9.11916 10.7L7.51916 9.00003L6.91916 11.3C6.81916 11.9 6.21916 12.2 5.61916 12C5.01916 11.9 4.71916 11.3 4.91916 10.7L5.51916 8.50003L3.31916 9.10003C2.71916 9.20003 2.11916 8.90003 2.01916 8.40003Z" fill="#7E8084"/>
</g>
<defs>
<clipPath id="clip0">
<rect width="19.5" height="20" fill="white" transform="translate(2 2)"/>
</clipPath>
</defs>
</svg>
