<svg width="24" height="24" viewBox="0 0 24 24" fill="none" xmlns="http://www.w3.org/2000/svg">
<path d="M5.7001 6.2C6.7001 5.2 7.2001 3.8 7.0001 2.5L6.9001 2H5.0001L5.1001 2.6C5.2001 3.4 5.0001 4.2 4.4001 4.8V4.9C3.4001 5.9 2.9001 7.3 3.1001 8.6V9H5.0001L4.9001 8.4C4.8001 7.6 5.0001 6.8 5.7001 6.2Z" fill="#7E8084"/>
<path d="M9.7001 6.2C10.7001 5.2 11.2001 3.8 11.0001 2.5L10.9001 2H9.0001L9.1001 2.6C9.2001 3.4 9.0001 4.2 8.4001 4.8V4.9C7.4001 5.9 6.9001 7.3 7.1001 8.6V9H9.0001L8.9001 8.4C8.8001 7.6 9.0001 6.8 9.7001 6.2Z" fill="#7E8084"/>
<path d="M22 17C22 19.8 19.8 22 17 22C14.2 22 12 19.8 12 17C12 15.4 12.7 13.9 14 13V5C14 3.3 15.3 2 17 2C18.7 2 20 3.3 20 5V13C21.2 13.9 22 15.4 22 17ZM16 8V14.2C14.4 14.8 13.6 16.5 14.2 18C14.8 19.6 16.5 20.4 18 19.8C19.5 19.2 20.4 17.5 19.8 16C19.5 15.1 18.8 14.5 18 14.2V8H16Z" fill="#7E8084"/>
<path d="M9 12V11H7V12H5V11H3V18H2V20H3V22H5V20H7V22H9V20V18V14H11V12H9ZM7 14V18H5V14H7Z" fill="#7E8084"/>
</svg>
