<svg width="24" height="25" viewBox="0 0 24 25" fill="none" xmlns="http://www.w3.org/2000/svg">
<g clip-path="url(#clip0)">
<path d="M5.7001 6.71916C6.7001 5.71916 7.2001 4.31916 7.0001 3.01917L6.9001 2.51917H5.0001L5.1001 3.11917C5.2001 3.91917 5.0001 4.71916 4.4001 5.31916V5.41917C3.4001 6.41917 2.9001 7.81917 3.1001 9.11916V9.51917H5.0001L4.9001 8.91917C4.8001 8.11916 5.0001 7.31916 5.7001 6.71916Z" fill="#7E8084"/>
<path d="M9.7001 6.71916C10.7001 5.71916 11.2001 4.31916 11.0001 3.01917L10.9001 2.51917H9.0001L9.1001 3.11917C9.2001 3.91917 9.0001 4.71916 8.4001 5.31916V5.41917C7.4001 6.41917 6.9001 7.81917 7.1001 9.11916V9.51917H9.0001L8.9001 8.91917C8.8001 8.11916 9.0001 7.31916 9.7001 6.71916Z" fill="#7E8084"/>
<path d="M22 17.5192C22 20.3192 19.8 22.5192 17 22.5192C14.2 22.5192 12 20.3192 12 17.5192C12 15.9192 12.7 14.4192 14 13.5192V5.51917C14 3.81916 15.3 2.51917 17 2.51917C18.7 2.51917 20 3.81916 20 5.51917V13.5192C21.2 14.4192 22 15.9192 22 17.5192ZM16 8.51917V14.7192C14.4 15.3192 13.6 17.0192 14.2 18.5192C14.8 20.1192 16.5 20.9192 18 20.3192C19.5 19.7192 20.4 18.0192 19.8 16.5192C19.5 15.6192 18.8 15.0192 18 14.7192V8.51917H16Z" fill="#7E8084"/>
<path d="M9 12.5192V11.5192H7V12.5192H5V11.5192H3V18.5192H2V20.5192H3V22.5192H5V20.5192H7V22.5192H9V20.5192V18.5192V14.5192H11V12.5192H9ZM7 14.5192V18.5192H5V14.5192H7Z" fill="#7E8084"/>
</g>
<defs>
<clipPath id="clip0">
<rect width="20" height="20" fill="white" transform="translate(2 2.51917)"/>
</clipPath>
</defs>
</svg>
