<svg width="24" height="25" viewBox="0 0 24 25" fill="none" xmlns="http://www.w3.org/2000/svg">
<path d="M5.79289 7.72626L3 10.5192L3.70745 11.2259C4.48888 12.0066 5.75552 12.0063 6.53657 11.2252L10.7792 6.98259C11.5603 6.20154 11.5599 4.93552 10.7785 4.15485L10.0711 3.44809L7.20711 6.31205L8.53553 7.64048L7.12132 9.05469L5.79289 7.72626Z" fill="#7E8084"/>
<path d="M20.6839 18.2911L18.3493 15.9588L17.3602 20.6248L17.8555 21.1195L20.6839 18.2911Z" fill="#7E8084"/>
<path d="M11.4867 7.68935L12.2649 8.46679L10.7813 15.4658L10.0738 14.759L10.2857 13.5572L7.95113 11.2249L11.4867 7.68935Z" fill="#7E8084"/>
<path d="M14.1046 11.7182L14.3165 10.5164L15.0947 11.2938L13.6111 18.2928L12.9036 17.5861L13.1863 16.4549L11.7714 15.0414L12.6897 10.3047L14.1046 11.7182Z" fill="#7E8084"/>
<path d="M16.9344 14.5453L17.1463 13.3434L17.9245 14.1209L16.4409 21.1199L15.7334 20.4131L16.0161 19.282L14.6012 17.8684L15.5195 13.1318L16.9344 14.5453Z" fill="#7E8084"/>
</svg>
