<svg width="24" height="25" viewBox="0 0 24 25" fill="none" xmlns="http://www.w3.org/2000/svg">
<g clip-path="url(#clip0)">
<path opacity="0.24" d="M4 2.51917H20C21.1 2.51917 22 3.41917 22 4.51917V20.5192C22 21.6192 21.1 22.5192 20 22.5192H4C2.9 22.5192 2 21.6192 2 20.5192V4.51917C2 3.41917 2.9 2.51917 4 2.51917Z" fill="#7E8084"/>
<path d="M10 4.51917V8.51917H14V4.51917H10ZM16 4.51917V8.51917H20V4.51917H16ZM16 10.5192V14.5192H20V10.5192H16ZM16 16.5192V20.5192H20V16.5192H16ZM14 20.5192V16.5192H10V20.5192H14ZM8 20.5192V16.5192H4V20.5192H8ZM8 14.5192V10.5192H4V14.5192H8ZM8 8.51917V4.51917H4V8.51917H8ZM10 14.5192H14V10.5192H10V14.5192ZM4 2.51917H20C21.1 2.51917 22 3.41917 22 4.51917V20.5192C22 21.6192 21.1 22.5192 20 22.5192H4C2.9 22.5192 2 21.6192 2 20.5192V4.51917C2 3.41917 2.9 2.51917 4 2.51917Z" fill="#7E8084"/>
</g>
<defs>
<clipPath id="clip0">
<rect width="20" height="20" fill="white" transform="translate(2 2.51917)"/>
</clipPath>
</defs>
</svg>
