<svg width="24" height="24" viewBox="0 0 24 24" fill="none" xmlns="http://www.w3.org/2000/svg">
<g clip-path="url(#clip0)">
<path d="M14.0001 17.7001V21.0001H10.0001V20.3001L14.0001 17.7001ZM17.0001 3.00006L7.00006 3.00006V6.00006H17.0001V3.00006ZM15.0001 7.00006L14.0001 7.70006V7.00006H10.0001V10.3001L9.00006 11.0001V12.0001L15.0001 8.10006V7.00006ZM15.0001 11.0001L14.0001 11.7001V9.70006L10.0001 12.4001V14.4001L9.00006 15.0001V16.0001L15.0001 12.1001V11.0001ZM15.0001 15.0001L14.0001 15.7001V13.7001L10.0001 16.4001V18.4001L9.00006 19.0001V20.0001L15.0001 16.1001V15.0001Z" fill="#7E8085"/>
</g>
<defs>
<clipPath id="clip0">
<rect width="10" height="18" fill="white" transform="translate(7.00006 3.00006)"/>
</clipPath>
</defs>
</svg>
