<svg width="24" height="25" viewBox="0 0 24 25" fill="none" xmlns="http://www.w3.org/2000/svg">
<g clip-path="url(#clip0)">
<path d="M21.5 17.5192C21.5 20.3192 19.3 22.5192 16.5 22.5192C13.7 22.5192 11.5 20.3192 11.5 17.5192C11.5 15.9192 12.2 14.4192 13.5 13.5192V5.51917C13.5 3.81916 14.8 2.51917 16.5 2.51917C18.2 2.51917 19.5 3.81916 19.5 5.51917V13.5192C20.7 14.4192 21.5 15.9192 21.5 17.5192ZM15.5 8.51917V14.7192C13.9 15.3192 13.1 17.0192 13.7 18.5192C14.3 20.1192 16 20.9192 17.5 20.3192C19 19.7192 19.9 18.0192 19.3 16.5192C19 15.6192 18.3 15.0192 17.5 14.7192V8.51917H15.5Z" fill="#7E8084"/>
<path d="M2.01916 8.91914C1.91916 8.41914 2.21916 7.81914 2.71916 7.71914L5.01916 7.01914L3.31916 5.41914C2.91916 5.01914 2.91916 4.41914 3.31916 3.91914C3.71916 3.51914 4.41916 3.51914 4.81916 3.91914L6.51916 5.61914L7.01916 3.31914C7.11916 2.71914 7.71916 2.41914 8.21916 2.61914C8.81916 2.71914 9.11916 3.31914 8.91916 3.91914L8.31916 6.11914L10.5192 5.51914C11.1192 5.31914 11.6192 5.61914 11.8192 6.21914C11.9192 6.71914 11.6192 7.31914 11.1192 7.41914L8.91916 8.01914L10.6192 9.71914C11.0192 10.1191 11.0192 10.8191 10.6192 11.2191C10.2192 11.6191 9.51916 11.6191 9.11916 11.2191L7.51916 9.51914L6.91916 11.8191C6.81916 12.4191 6.21916 12.7191 5.61916 12.5191C5.01916 12.4191 4.71916 11.8191 4.91916 11.2191L5.51916 9.01914L3.31916 9.61914C2.71916 9.71914 2.11916 9.41914 2.01916 8.91914Z" fill="#7E8084"/>
</g>
<defs>
<clipPath id="clip0">
<rect width="19.5" height="20" fill="white" transform="translate(2 2.51917)"/>
</clipPath>
</defs>
</svg>
