<svg width="24" height="24" viewBox="0 0 24 24" fill="none" xmlns="http://www.w3.org/2000/svg">
<path d="M5.69998 6.2C6.69998 5.2 7.19998 3.8 6.99998 2.5L6.89998 2H4.99998L5.09998 2.6C5.19998 3.4 4.99998 4.2 4.39998 4.8V4.9C3.39998 5.9 2.89998 7.3 3.09998 8.6V9H4.99998L4.89998 8.4C4.79998 7.6 4.99998 6.8 5.69998 6.2Z" fill="#7E8085"/>
<path d="M9.69998 6.2C10.7 5.2 11.2 3.8 11 2.5L10.9 2H8.99998L9.09998 2.6C9.19998 3.4 8.99998 4.2 8.39998 4.8V4.9C7.39998 5.9 6.89998 7.3 7.09998 8.6V9H8.99998L8.89998 8.4C8.79998 7.6 8.99998 6.8 9.69998 6.2Z" fill="#7E8085"/>
<path d="M22 17C22 19.8 19.8 22 17 22C14.2 22 12 19.8 12 17C12 15.4 12.7 13.9 14 13V5C14 3.3 15.3 2 17 2C18.7 2 20 3.3 20 5V13C21.2 13.9 22 15.4 22 17ZM16 8V14.2C14.4 14.8 13.6 16.5 14.2 18C14.8 19.6 16.5 20.4 18 19.8C19.5 19.2 20.4 17.5 19.8 16C19.5 15.1 18.8 14.5 18 14.2V8H16Z" fill="#7E8085"/>
<path d="M9 12V11H7V12H5V11H3V18H2V20H3V22H5V20H7V22H9V20V18V14H11V12H9ZM7 14V18H5V14H7Z" fill="#7E8085"/>
</svg>
