<svg width="24" height="24" viewBox="0 0 24 24" fill="none" xmlns="http://www.w3.org/2000/svg">
<g clip-path="url(#clip0)">
<path d="M21.5 17C21.5 19.8 19.3 22 16.5 22C13.7 22 11.5 19.8 11.5 17C11.5 15.4 12.2 13.9 13.5 13V5C13.5 3.3 14.8 2 16.5 2C18.2 2 19.5 3.3 19.5 5V13C20.7 13.9 21.5 15.4 21.5 17ZM15.5 8V14.2C13.9 14.8 13.1 16.5 13.7 18C14.3 19.6 16 20.4 17.5 19.8C19 19.2 19.9 17.5 19.3 16C19 15.1 18.3 14.5 17.5 14.2V8H15.5Z" fill="#7E8084"/>
<path d="M2.01916 8.39997C1.91916 7.89997 2.21916 7.29997 2.71916 7.19997L5.01916 6.49997L3.31916 4.89997C2.91916 4.49997 2.91916 3.89997 3.31916 3.39997C3.71916 2.99997 4.41916 2.99997 4.81916 3.39997L6.51916 5.09997L7.01916 2.79997C7.11916 2.19997 7.71916 1.89997 8.21916 2.09997C8.81916 2.19997 9.11916 2.79997 8.91916 3.39997L8.31916 5.59997L10.5192 4.99997C11.1192 4.79997 11.6192 5.09997 11.8192 5.69997C11.9192 6.19997 11.6192 6.79997 11.1192 6.89997L8.91916 7.49997L10.6192 9.19997C11.0192 9.59997 11.0192 10.3 10.6192 10.7C10.2192 11.1 9.51916 11.1 9.11916 10.7L7.51916 8.99997L6.91916 11.3C6.81916 11.9 6.21916 12.2 5.61916 12C5.01916 11.9 4.71916 11.3 4.91916 10.7L5.51916 8.49997L3.31916 9.09997C2.71916 9.19997 2.11916 8.89997 2.01916 8.39997Z" fill="#7E8084"/>
</g>
<defs>
<clipPath id="clip0">
<rect width="19.5" height="20" fill="white" transform="translate(2 2)"/>
</clipPath>
</defs>
</svg>
