<svg width="24" height="24" viewBox="0 0 24 24" fill="none" xmlns="http://www.w3.org/2000/svg">
<g clip-path="url(#clip0)">
<path d="M13.8999 2H19.8999L17.7999 6.2H19.8999L15.6999 14V9.2H13.8999V2Z" fill="#7E8084"/>
<path d="M5.4 20.9999H3V8.3999H8.7C9.3 8.3999 9.8 8.4999 10.2 8.6999C10.6 8.8999 11 9.0999 11.4 9.4999C11.7 9.7999 12 10.2999 12.1 10.6999C12.3 11.1999 12.4 11.6999 12.4 12.2999C12.4 13.1999 12.2 13.8999 11.8 14.4999C11.4 15.0999 10.8 15.5999 10 15.7999L12.6 20.9999H10L7.7 16.1999H5.4V20.9999ZM8.4 14.1999C8.9 14.1999 9.2 14.0999 9.5 13.7999C9.8 13.5999 9.9 13.1999 9.9 12.6999V11.8999C9.9 11.3999 9.8 11.0999 9.5 10.8999C9.3 10.5999 8.9 10.4999 8.4 10.4999H5.4V14.1999H8.4Z" fill="#7E8084"/>
</g>
<defs>
<clipPath id="clip0">
<rect width="16.9" height="19" fill="white" transform="translate(3 2)"/>
</clipPath>
</defs>
</svg>
