<svg width="24" height="24" viewBox="0 0 24 24" fill="none" xmlns="http://www.w3.org/2000/svg">
<g clip-path="url(#clip0_1944_11725)">
<path d="M13.8999 2H19.8999L17.7999 6.2H19.8999L15.6999 14V9.2H13.8999V2" fill="#7E8084"/>
<path d="M5.4 21H3V8.40002H8.7C9.3 8.40002 9.8 8.50002 10.2 8.70002C10.6 8.90002 11 9.10002 11.4 9.50002C11.7 9.80002 12 10.3 12.1 10.7C12.3 11.2 12.4 11.7 12.4 12.3C12.4 13.2 12.2 13.9 11.8 14.5C11.4 15.1 10.8 15.6 10 15.8L12.6 21H10L7.7 16.2H5.4V21ZM8.4 14.2C8.9 14.2 9.2 14.1 9.5 13.8C9.8 13.6 9.9 13.2 9.9 12.7V11.9C9.9 11.4 9.8 11.1 9.5 10.9C9.3 10.6 8.9 10.5 8.4 10.5H5.4V14.2H8.4Z" fill="#7E8084"/>
</g>
<defs>
<clipPath id="clip0_1944_11725">
<rect width="16.9" height="19" fill="white" transform="translate(3 2)"/>
</clipPath>
</defs>
</svg>
