<svg width="24" height="25" viewBox="0 0 24 25" fill="none" xmlns="http://www.w3.org/2000/svg">
<g clip-path="url(#clip0)">
<path d="M13.9 2.51917H19.9L17.8 6.71916H19.9L15.7 14.5192V9.71916H13.9V2.51917Z" fill="#7E8084"/>
<path d="M5.4 21.5192H3V8.91919H8.7C9.3 8.91919 9.8 9.01919 10.2 9.21919C10.6 9.41919 11 9.61919 11.4 10.0192C11.7 10.3192 12 10.8192 12.1 11.2192C12.3 11.7192 12.4 12.2192 12.4 12.8192C12.4 13.7192 12.2 14.4192 11.8 15.0192C11.4 15.6192 10.8 16.1192 10 16.3192L12.6 21.5192H10L7.7 16.7192H5.4V21.5192ZM8.4 14.7192C8.9 14.7192 9.2 14.6192 9.5 14.3192C9.8 14.1192 9.9 13.7192 9.9 13.2192V12.4192C9.9 11.9192 9.8 11.6192 9.5 11.4192C9.3 11.1192 8.9 11.0192 8.4 11.0192H5.4V14.7192H8.4Z" fill="#7E8084"/>
</g>
<defs>
<clipPath id="clip0">
<rect width="16.9" height="19" fill="white" transform="translate(3 2.51917)"/>
</clipPath>
</defs>
</svg>
