<svg width="24" height="25" viewBox="0 0 24 25" fill="none" xmlns="http://www.w3.org/2000/svg">
<g clip-path="url(#clip0)">
<path d="M11 9.71916L15 5.71917L18.8 9.51917L14.8 13.5192L13.4 12.1192L16 9.41917L15.1 8.51917L12.5 11.1192L11 9.71916ZM21.7 5.11916L19.4 2.81917C19.2 2.61917 18.9 2.51917 18.7 2.51917C18.5 2.51917 18.2 2.61917 18 2.81917L16.2 4.61916L20 8.41917L21.7 6.51917C22.1 6.21917 22.1 5.51917 21.7 5.11916ZM20 21.2192L18.7 22.5192L12.2 16.0192L7.8 20.5192H4V16.7192L8.5 12.2192L2 5.81916L3.3 4.51917L20 21.2192ZM10.8 14.6192L9.9 13.7192L6 17.6192V18.5192H6.9L10.8 14.6192Z" fill="#7E8084"/>
</g>
<defs>
<clipPath id="clip0">
<rect width="20" height="20" fill="white" transform="translate(2 2.51917)"/>
</clipPath>
</defs>
</svg>
