<svg width="24" height="24" viewBox="0 0 24 24" fill="none" xmlns="http://www.w3.org/2000/svg">
<path opacity="0.24" d="M17 8H7V5H5V21H19V5H17V8Z" fill="#7E8084"/>
<path fill-rule="evenodd" clip-rule="evenodd" d="M19 4H14.82C14.4 2.84 13.3 2 12 2C10.7 2 9.6 2.84 9.18 4H5C3.9 4 3 4.9 3 6V20C3 21.1 3.9 22 5 22H19C20.1 22 21 21.1 21 20V6C21 4.9 20.1 4 19 4ZM12 4C12.55 4 13 4.45 13 5C13 5.55 12.55 6 12 6C11.45 6 11 5.55 11 5C11 4.45 11.45 4 12 4ZM5 6V20H19V6H17V9H7V6H5Z" fill="#7E8084"/>
<path d="M7 18H9V13.5H7V18ZM11 18H13V12H11V18ZM15 18H17V15H15V18Z" fill="#7E8084"/>
</svg>
