<svg width="24" height="25" viewBox="0 0 24 25" fill="none" xmlns="http://www.w3.org/2000/svg">
<path d="M13 10.5192H11V13.5192H8V15.5192H11V18.5192H13V15.5192H16V13.5192H13V10.5192Z" fill="#7E8084"/>
<path opacity="0.24" d="M17 8.51917H7V5.51917H5V21.5192H19V5.51917H17V8.51917Z" fill="#7E8084"/>
<path fill-rule="evenodd" clip-rule="evenodd" d="M19 4.51917H14.82C14.4 3.35917 13.3 2.51917 12 2.51917C10.7 2.51917 9.6 3.35917 9.18 4.51917H5C3.9 4.51917 3 5.41917 3 6.51917V20.5192C3 21.6192 3.9 22.5192 5 22.5192H19C20.1 22.5192 21 21.6192 21 20.5192V6.51917C21 5.41917 20.1 4.51917 19 4.51917ZM12 4.51917C12.55 4.51917 13 4.96917 13 5.51917C13 6.06916 12.55 6.51917 12 6.51917C11.45 6.51917 11 6.06916 11 5.51917C11 4.96917 11.45 4.51917 12 4.51917ZM5 6.51917V20.5192H19V6.51917H17V9.51917H7V6.51917H5Z" fill="#7E8084"/>
</svg>
