<svg width="24" height="25" viewBox="0 0 24 25" fill="none" xmlns="http://www.w3.org/2000/svg">
<g clip-path="url(#clip0)">
<path opacity="0.24" d="M14.7 6.01918H11.2C10.5 6.01918 9.9 6.11918 9.2 6.31918L6.5 3.71918C6.3 3.51918 5.9 3.41918 5.7 3.61918C5.5 3.81918 5.2 4.01918 5.2 4.31918L5.8 8.41918C5 9.21918 4.5 10.1192 4.2 11.1192L2 11.0192V16.5192H4.7C5.9 18.9192 8.4 20.4192 11.2 20.4192H14.7C18.7 20.4192 22 17.2192 22 13.2192C22 9.21918 18.7 6.01918 14.7 6.01918ZM17 11.4192H11V9.41918H17V11.4192Z" fill="#7E8084"/>
<path d="M10 19.4192H8V21.4192H10V19.4192Z" fill="#7E8084"/>
<path d="M17 19.4192H15V21.4192H17V19.4192Z" fill="#7E8084"/>
<path d="M17 9.41919H11V11.4192H17V9.41919Z" fill="#7E8084"/>
<path d="M9 12.4192C9.55228 12.4192 10 11.9715 10 11.4192C10 10.8669 9.55228 10.4192 9 10.4192C8.44772 10.4192 8 10.8669 8 11.4192C8 11.9715 8.44772 12.4192 9 12.4192Z" fill="#7E8084"/>
<path d="M4.7 16.5192C5.9 18.9192 8.4 20.4192 11.2 20.4192H14.7C18.7 20.4192 22 17.2192 22 13.2192C22 9.21918 18.7 6.01918 14.7 6.01918H11.2C10.5 6.01918 9.9 6.11918 9.2 6.31918L6.5 3.71918C6.3 3.51918 5.9 3.41918 5.7 3.61918C5.4 3.71918 5.2 4.01918 5.2 4.31918L5.8 8.41918C5 9.21918 4.5 10.1192 4.2 11.1192L2 11.0192V16.5192H4.7ZM14.7 18.8192H11.2C9.5 18.8192 8 18.1192 6.9 16.9192C6.9 16.9192 6 16.2192 5.6 15.0192C5.5 15.0192 5.5 15.0192 5.4 14.9192H4.9H3.8H3.6V12.7192H3.8H4.9C5.1 12.7192 5.3 12.6192 5.5 12.4192C5.7 11.8192 5.9 11.3192 5.9 11.3192C6.2 10.6192 6.6 9.91918 7.2 9.31918C7.4 9.11918 7.5 8.91918 7.4 8.61918L6.8 6.21918L8.5 7.81918C8.7 7.91918 9 8.01918 9.3 7.91918C9.9 7.71918 10.6 7.61918 11.2 7.61918H14.7C17.8 7.61918 20.4 10.1192 20.4 13.2192C20.4 16.3192 17.8 18.8192 14.7 18.8192Z" fill="#7E8084"/>
</g>
<defs>
<clipPath id="clip0">
<rect width="20" height="17.9" fill="white" transform="translate(2 3.51917)"/>
</clipPath>
</defs>
</svg>
