<svg width="24" height="24" viewBox="0 0 24 24" fill="none" xmlns="http://www.w3.org/2000/svg">
<g clip-path="url(#clip0)">
<path opacity="0.24" d="M14.7 5.49998H11.2C10.5 5.49998 9.9 5.59998 9.2 5.79998L6.5 3.19998C6.3 2.99998 5.9 2.89998 5.7 3.09998C5.5 3.29998 5.2 3.49998 5.2 3.79998L5.8 7.89998C5 8.69998 4.5 9.59998 4.2 10.6L2 10.5V16H4.7C5.9 18.4 8.4 19.9 11.2 19.9H14.7C18.7 19.9 22 16.7 22 12.7C22 8.69998 18.7 5.49998 14.7 5.49998ZM17 10.9H11V8.89998H17V10.9Z" fill="#7E8084"/>
<path d="M10 18.8999H8V20.8999H10V18.8999Z" fill="#7E8084"/>
<path d="M17 18.8999H15V20.8999H17V18.8999Z" fill="#7E8084"/>
<path d="M17 8.8999H11V10.8999H17V8.8999Z" fill="#7E8084"/>
<path d="M9 11.8999C9.55228 11.8999 10 11.4522 10 10.8999C10 10.3476 9.55228 9.8999 9 9.8999C8.44772 9.8999 8 10.3476 8 10.8999C8 11.4522 8.44772 11.8999 9 11.8999Z" fill="#7E8084"/>
<path d="M4.7 16C5.9 18.4 8.4 19.9 11.2 19.9H14.7C18.7 19.9 22 16.7 22 12.7C22 8.69998 18.7 5.49998 14.7 5.49998H11.2C10.5 5.49998 9.9 5.59998 9.2 5.79998L6.5 3.19998C6.3 2.99998 5.9 2.89998 5.7 3.09998C5.4 3.19998 5.2 3.49998 5.2 3.79998L5.8 7.89998C5 8.69998 4.5 9.59998 4.2 10.6L2 10.5V16H4.7ZM14.7 18.3H11.2C9.5 18.3 8 17.6 6.9 16.4C6.9 16.4 6 15.7 5.6 14.5C5.5 14.5 5.5 14.5 5.4 14.4H4.9H3.8H3.6V12.2H3.8H4.9C5.1 12.2 5.3 12.1 5.5 11.9C5.7 11.3 5.9 10.8 5.9 10.8C6.2 10.1 6.6 9.39998 7.2 8.79998C7.4 8.59998 7.5 8.39998 7.4 8.09998L6.8 5.69998L8.5 7.29998C8.7 7.39998 9 7.49998 9.3 7.39998C9.9 7.19998 10.6 7.09998 11.2 7.09998H14.7C17.8 7.09998 20.4 9.59998 20.4 12.7C20.4 15.8 17.8 18.3 14.7 18.3Z" fill="#7E8084"/>
</g>
<defs>
<clipPath id="clip0">
<rect width="20" height="17.9" fill="white" transform="translate(2 3)"/>
</clipPath>
</defs>
</svg>
