<svg width="24" height="24" viewBox="0 0 24 24" fill="none" xmlns="http://www.w3.org/2000/svg">
<g clip-path="url(#clip0)">
<path opacity="0.24" d="M14.7 5.50001H11.2C10.5 5.50001 9.9 5.60001 9.2 5.80001L6.5 3.20001C6.3 3.00001 5.9 2.90001 5.7 3.10001C5.5 3.30001 5.2 3.50001 5.2 3.80001L5.8 7.90001C5 8.70001 4.5 9.60001 4.2 10.6L2 10.5V16H4.7C5.9 18.4 8.4 19.9 11.2 19.9H14.7C18.7 19.9 22 16.7 22 12.7C22 8.70001 18.7 5.50001 14.7 5.50001ZM17 10.9H11V8.90001H17V10.9Z" fill="#7E8084"/>
<path d="M10 18.9H8V20.9H10V18.9Z" fill="#7E8084"/>
<path d="M17 18.9H15V20.9H17V18.9Z" fill="#7E8084"/>
<path d="M17 8.90002H11V10.9H17V8.90002Z" fill="#7E8084"/>
<path d="M9 11.9C9.55228 11.9 10 11.4523 10 10.9C10 10.3477 9.55228 9.90002 9 9.90002C8.44772 9.90002 8 10.3477 8 10.9C8 11.4523 8.44772 11.9 9 11.9Z" fill="#7E8084"/>
<path d="M4.7 16C5.9 18.4 8.4 19.9 11.2 19.9H14.7C18.7 19.9 22 16.7 22 12.7C22 8.70001 18.7 5.50001 14.7 5.50001H11.2C10.5 5.50001 9.9 5.60001 9.2 5.80001L6.5 3.20001C6.3 3.00001 5.9 2.90001 5.7 3.10001C5.4 3.20001 5.2 3.50001 5.2 3.80001L5.8 7.90001C5 8.70001 4.5 9.60001 4.2 10.6L2 10.5V16H4.7ZM14.7 18.3H11.2C9.5 18.3 8 17.6 6.9 16.4C6.9 16.4 6 15.7 5.6 14.5C5.5 14.5 5.5 14.5 5.4 14.4H4.9H3.8H3.6V12.2H3.8H4.9C5.1 12.2 5.3 12.1 5.5 11.9C5.7 11.3 5.9 10.8 5.9 10.8C6.2 10.1 6.6 9.40001 7.2 8.80001C7.4 8.60001 7.5 8.40001 7.4 8.10001L6.8 5.70001L8.5 7.30001C8.7 7.40001 9 7.50001 9.3 7.40001C9.9 7.20001 10.6 7.10001 11.2 7.10001H14.7C17.8 7.10001 20.4 9.60001 20.4 12.7C20.4 15.8 17.8 18.3 14.7 18.3Z" fill="#7E8084"/>
</g>
<defs>
<clipPath id="clip0">
<rect width="20" height="17.9" fill="white" transform="translate(2 3)"/>
</clipPath>
</defs>
</svg>
