<svg width="24" height="24" viewBox="0 0 24 24" fill="none" xmlns="http://www.w3.org/2000/svg">
<g clip-path="url(#clip0)">
<path opacity="0.3" d="M14.7 5.5H11.2C10.5 5.5 9.9 5.6 9.2 5.8L6.5 3.2C6.3 3 5.9 2.9 5.7 3.1C5.5 3.3 5.2 3.5 5.2 3.8L5.8 7.9C5 8.7 4.5 9.6 4.2 10.6L2 10.5V16H4.7C5.9 18.4 8.4 19.9 11.2 19.9H14.7C18.7 19.9 22 16.7 22 12.7C22 8.7 18.7 5.5 14.7 5.5ZM17 10.9H11V8.9H17V10.9Z" fill="#7E8085"/>
<path d="M10 18.9H8V20.9H10V18.9Z" fill="#7E8085"/>
<path d="M17 18.9H15V20.9H17V18.9Z" fill="#7E8085"/>
<path d="M17 8.89999H11V10.9H17V8.89999Z" fill="#7E8085"/>
<path d="M9 11.9C9.55228 11.9 10 11.4523 10 10.9C10 10.3477 9.55228 9.89999 9 9.89999C8.44772 9.89999 8 10.3477 8 10.9C8 11.4523 8.44772 11.9 9 11.9Z" fill="#7E8085"/>
<path d="M4.7 16C5.9 18.4 8.4 19.9 11.2 19.9H14.7C18.7 19.9 22 16.7 22 12.7C22 8.7 18.7 5.5 14.7 5.5H11.2C10.5 5.5 9.9 5.6 9.2 5.8L6.5 3.2C6.3 3 5.9 2.9 5.7 3.1C5.4 3.2 5.2 3.5 5.2 3.8L5.8 7.9C5 8.7 4.5 9.6 4.2 10.6L2 10.5V16H4.7ZM14.7 18.3H11.2C9.5 18.3 8 17.6 6.9 16.4C6.9 16.4 6 15.7 5.6 14.5C5.5 14.5 5.5 14.5 5.4 14.4H4.9H3.8H3.6V12.2H3.8H4.9C5.1 12.2 5.3 12.1 5.5 11.9C5.7 11.3 5.9 10.8 5.9 10.8C6.2 10.1 6.6 9.4 7.2 8.8C7.4 8.6 7.5 8.4 7.4 8.1L6.8 5.7L8.5 7.3C8.7 7.4 9 7.5 9.3 7.4C9.9 7.2 10.6 7.1 11.2 7.1H14.7C17.8 7.1 20.4 9.6 20.4 12.7C20.4 15.8 17.8 18.3 14.7 18.3Z" fill="#7E8085"/>
</g>
<defs>
<clipPath id="clip0">
<rect width="20" height="17.9" fill="white" transform="translate(2 3)"/>
</clipPath>
</defs>
</svg>
