<svg width="24" height="24" viewBox="0 0 24 24" fill="none" xmlns="http://www.w3.org/2000/svg">
<path opacity="0.24" d="M7 12.27V15.99L12 18.72L17 15.99V12.27L12 15L7 12.27Z" fill="#7E8084"/>
<path opacity="0.24" d="M5.18018 9.00003L12.0002 12.72L18.8202 9.00003L12.0002 5.28003L5.18018 9.00003Z" fill="#7E8084"/>
<path fill-rule="evenodd" clip-rule="evenodd" d="M12 3L1 9L5 11.18V17.18L12 21L19 17.18V11.18L21 10.09V17H23V9L12 3ZM17 15.99L12 18.72L7 15.99V12.27L12 15L17 12.27V15.99ZM5.18 9L12 12.72L18.82 9L12 5.28L5.18 9Z" fill="#7E8084"/>
</svg>
