<svg width="24" height="25" viewBox="0 0 24 25" fill="none" xmlns="http://www.w3.org/2000/svg">
<path d="M15.5 14.5192H14.7L14.4 14.2192C15.4 13.1192 16 11.6192 16 10.0192C16 6.41917 13.1 3.51917 9.5 3.51917C5.9 3.51917 3 6.41917 3 10.0192C3 13.6192 5.9 16.5192 9.5 16.5192C11.1 16.5192 12.6 15.9192 13.7 14.9192L14 15.2192V16.0192L19 21.0192L20.5 19.5192L15.5 14.5192ZM9.5 14.5192C7 14.5192 5 12.5192 5 10.0192C5 7.51917 7 5.51917 9.5 5.51917C12 5.51917 14 7.51917 14 10.0192C14 12.5192 12 14.5192 9.5 14.5192Z" fill="#7E8084"/>
</svg>
