<svg width="24" height="24" viewBox="0 0 24 24" fill="none" xmlns="http://www.w3.org/2000/svg">
<g clip-path="url(#clip0)">
<path opacity="0.3" d="M19.2 13C19.2 12.7 19.3 12.4 19.3 12C19.3 11.7 19.3 11.3 19.2 11L21.3 9.4C21.5 9.2 21.5 9 21.4 8.8L19.4 5.3C19.3 5.1 19.1 5 19 5C18.9 5 18.9 5 18.8 5L16.3 6C15.8 5.6 15.2 5.3 14.6 5L14.2 2.3C14.2 2.2 14 2 13.7 2H9.7C9.5 2 9.3 2.2 9.2 2.4L8.9 5.1C8.2 5.3 7.7 5.7 7.2 6L4.7 5C4.6 5 4.6 5 4.5 5C4.3 5 4.2 5.1 4.1 5.3L2.1 8.8C1.9 9 2 9.2 2.2 9.4L4.3 11C4.3 11.3 4.2 11.7 4.2 12C4.2 12.3 4.2 12.6 4.3 13L2.2 14.7C2 14.8 1.9 15 2.1 15.3L4.1 18.8C4.2 18.9 4.3 19 4.5 19C4.6 19 4.6 19 4.7 19L7.2 18C7.7 18.4 8.3 18.7 8.9 19L9.3 21.6C9.3 21.8 9.5 22 9.8 22H13.8C14 22 14.3 21.8 14.3 21.6L14.7 19C15.3 18.7 15.9 18.4 16.4 18L18.9 19C19 19 19 19 19.1 19C19.3 19 19.4 18.9 19.5 18.7L21.5 15.2C21.6 15 21.6 14.7 21.4 14.6L19.2 13ZM11.7 14C10.6 14 9.7 13.1 9.7 12C9.7 10.9 10.6 10 11.7 10C12.8 10 13.7 10.9 13.7 12C13.7 13.1 12.8 14 11.7 14Z" fill="#7E8085"/>
<path d="M11.7 8C9.5 8 7.7 9.8 7.7 12C7.7 14.2 9.5 16 11.7 16C13.9 16 15.7 14.2 15.7 12C15.7 9.8 13.9 8 11.7 8ZM11.7 14C10.6 14 9.7 13.1 9.7 12C9.7 10.9 10.6 10 11.7 10C12.8 10 13.7 10.9 13.7 12C13.7 13.1 12.8 14 11.7 14Z" fill="#7E8085"/>
<path d="M12.4 4L12.6 5.3L12.8 6.5L13.9 6.9C14.3 7.1 14.7 7.3 15.1 7.6L16 8.3L17 7.9L18.3 7.4L19 8.6L17.9 9.4L17 10.1L17.1 11.2C17.1 11.5 17.2 11.8 17.2 12C17.2 12.2 17.2 12.4 17.1 12.7L17 13.8L17.9 14.5L19 15.4L18.3 16.6L17 16.1L16 15.7L15.1 16.4C14.7 16.7 14.3 17 13.9 17.1L12.8 17.5L12.6 18.6L12.4 20H11L10.8 18.7L10.6 17.5L9.5 17.1C9.1 16.9 8.7 16.7 8.3 16.4L7.4 15.7L6.3 16.1L5 16.6L4.3 15.4L5.4 14.5L6.3 13.8L6.2 12.7C6.2 12.4 6.1 12.2 6.1 12C6.1 11.8 6.1 11.6 6.2 11.2L6.3 10.1L5.5 9.4L4.5 8.6L5.2 7.4L6.5 7.9L7.5 8.3L8.4 7.6C8.9 7.3 9.2 7 9.6 6.9L10.7 6.5L10.9 5.3L11 4H12.4ZM13.7 2H9.7C9.5 2 9.3 2.2 9.2 2.4L8.9 5.1C8.2 5.3 7.7 5.7 7.2 6L4.7 5C4.6 5 4.6 5 4.5 5C4.3 5 4.2 5.1 4.1 5.3L2.1 8.8C1.9 8.9 2 9.2 2.2 9.4L4.3 11C4.3 11.3 4.2 11.7 4.2 12C4.2 12.3 4.2 12.6 4.3 13L2.2 14.7C2 14.8 2 15.1 2.1 15.3L4.1 18.8C4.2 18.9 4.3 19 4.5 19C4.6 19 4.6 19 4.7 19L7.2 18C7.7 18.4 8.3 18.7 8.9 19L9.3 21.6C9.3 21.8 9.5 22 9.8 22H13.8C14 22 14.3 21.8 14.3 21.6L14.7 19C15.3 18.7 15.9 18.4 16.4 18L18.9 19C19 19 19 19 19.1 19C19.3 19 19.4 18.9 19.5 18.7L21.5 15.2C21.6 15 21.6 14.7 21.4 14.6L19.2 13C19.2 12.7 19.3 12.4 19.3 12C19.3 11.6 19.3 11.3 19.2 11L21.3 9.4C21.5 9.3 21.5 9 21.4 8.8L19.4 5.3C19.3 5.1 19.1 5 19 5C18.9 5 18.9 5 18.8 5L16.3 6C15.8 5.6 15.2 5.3 14.6 5L14.2 2.4C14.2 2.2 14 2 13.7 2Z" fill="#7E8085"/>
</g>
<defs>
<clipPath id="clip0">
<rect width="19.5" height="20" fill="white" transform="translate(2 2)"/>
</clipPath>
</defs>
</svg>
