<svg width="24" height="24" viewBox="0 0 24 24" fill="none" xmlns="http://www.w3.org/2000/svg">
<g clip-path="url(#clip0)">
<path opacity="0.24" d="M19.2 13C19.2 12.7 19.3 12.4 19.3 12C19.3 11.7 19.3 11.3 19.2 11L21.3 9.4C21.5 9.2 21.5 9 21.4 8.8L19.4 5.3C19.3 5.1 19.1 5 19 5C18.9 5 18.9 5 18.8 5L16.3 6C15.8 5.6 15.2 5.3 14.6 5L14.2 2.3C14.2 2.2 14 2 13.7 2H9.69998C9.49998 2 9.29998 2.2 9.19998 2.4L8.89998 5.1C8.19998 5.3 7.69998 5.7 7.19998 6L4.69998 5C4.59998 5 4.59998 5 4.49998 5C4.29998 5 4.19998 5.1 4.09998 5.3L2.09998 8.8C1.89998 9 1.99998 9.2 2.19998 9.4L4.29998 11C4.29998 11.3 4.19998 11.7 4.19998 12C4.19998 12.3 4.19998 12.6 4.29998 13L2.19998 14.7C1.99998 14.8 1.89998 15 2.09998 15.3L4.09998 18.8C4.19998 18.9 4.29998 19 4.49998 19C4.59998 19 4.59998 19 4.69998 19L7.19998 18C7.69998 18.4 8.29998 18.7 8.89998 19L9.29998 21.6C9.29998 21.8 9.49998 22 9.79998 22H13.8C14 22 14.3 21.8 14.3 21.6L14.7 19C15.3 18.7 15.9 18.4 16.4 18L18.9 19C19 19 19 19 19.1 19C19.3 19 19.4 18.9 19.5 18.7L21.5 15.2C21.6 15 21.6 14.7 21.4 14.6L19.2 13ZM11.7 14C10.6 14 9.69998 13.1 9.69998 12C9.69998 10.9 10.6 10 11.7 10C12.8 10 13.7 10.9 13.7 12C13.7 13.1 12.8 14 11.7 14Z" fill="#7E8084"/>
<path d="M11.7 8C9.49995 8 7.69995 9.8 7.69995 12C7.69995 14.2 9.49995 16 11.7 16C13.9 16 15.7 14.2 15.7 12C15.7 9.8 13.9 8 11.7 8ZM11.7 14C10.6 14 9.69995 13.1 9.69995 12C9.69995 10.9 10.6 10 11.7 10C12.8 10 13.7 10.9 13.7 12C13.7 13.1 12.8 14 11.7 14Z" fill="#7E8084"/>
<path d="M12.4 4L12.6 5.3L12.8 6.5L13.9 6.9C14.3 7.1 14.7 7.3 15.1 7.6L16 8.3L17 7.9L18.3 7.4L19 8.6L17.9 9.4L17 10.1L17.1 11.2C17.1 11.5 17.2 11.8 17.2 12C17.2 12.2 17.2 12.4 17.1 12.7L17 13.8L17.9 14.5L19 15.4L18.3 16.6L17 16.1L16 15.7L15.1 16.4C14.7 16.7 14.3 17 13.9 17.1L12.8 17.5L12.6 18.6L12.4 20H11L10.8 18.7L10.6 17.5L9.49998 17.1C9.09998 16.9 8.69998 16.7 8.29998 16.4L7.39998 15.7L6.29998 16.1L4.99998 16.6L4.29998 15.4L5.39998 14.5L6.29998 13.8L6.19998 12.7C6.19998 12.4 6.09998 12.2 6.09998 12C6.09998 11.8 6.09998 11.6 6.19998 11.2L6.29998 10.1L5.49998 9.4L4.49998 8.6L5.19998 7.4L6.49998 7.9L7.49998 8.3L8.39998 7.6C8.89998 7.3 9.19998 7 9.59998 6.9L10.7 6.5L10.9 5.3L11 4H12.4ZM13.7 2H9.69998C9.49998 2 9.29998 2.2 9.19998 2.4L8.89998 5.1C8.19998 5.3 7.69998 5.7 7.19998 6L4.69998 5C4.59998 5 4.59998 5 4.49998 5C4.29998 5 4.19998 5.1 4.09998 5.3L2.09998 8.8C1.89998 8.9 1.99998 9.2 2.19998 9.4L4.29998 11C4.29998 11.3 4.19998 11.7 4.19998 12C4.19998 12.3 4.19998 12.6 4.29998 13L2.19998 14.7C1.99998 14.8 1.99998 15.1 2.09998 15.3L4.09998 18.8C4.19998 18.9 4.29998 19 4.49998 19C4.59998 19 4.59998 19 4.69998 19L7.19998 18C7.69998 18.4 8.29998 18.7 8.89998 19L9.29998 21.6C9.29998 21.8 9.49998 22 9.79998 22H13.8C14 22 14.3 21.8 14.3 21.6L14.7 19C15.3 18.7 15.9 18.4 16.4 18L18.9 19C19 19 19 19 19.1 19C19.3 19 19.4 18.9 19.5 18.7L21.5 15.2C21.6 15 21.6 14.7 21.4 14.6L19.2 13C19.2 12.7 19.3 12.4 19.3 12C19.3 11.6 19.3 11.3 19.2 11L21.3 9.4C21.5 9.3 21.5 9 21.4 8.8L19.4 5.3C19.3 5.1 19.1 5 19 5C18.9 5 18.9 5 18.8 5L16.3 6C15.8 5.6 15.2 5.3 14.6 5L14.2 2.4C14.2 2.2 14 2 13.7 2Z" fill="#7E8084"/>
</g>
<defs>
<clipPath id="clip0">
<rect width="19.5" height="20" fill="white" transform="translate(2 2)"/>
</clipPath>
</defs>
</svg>
