<svg width="24" height="25" viewBox="0 0 24 25" fill="none" xmlns="http://www.w3.org/2000/svg">
<g clip-path="url(#clip0)">
<path opacity="0.24" d="M19.2 13.5192C19.2 13.2192 19.3 12.9192 19.3 12.5192C19.3 12.2192 19.3 11.8192 19.2 11.5192L21.3 9.91917C21.5 9.71917 21.5 9.51917 21.4 9.31917L19.4 5.81916C19.3 5.61916 19.1 5.51917 19 5.51917C18.9 5.51917 18.9 5.51917 18.8 5.51917L16.3 6.51917C15.8 6.11916 15.2 5.81916 14.6 5.51917L14.2 2.81917C14.2 2.71917 14 2.51917 13.7 2.51917H9.69998C9.49998 2.51917 9.29998 2.71917 9.19998 2.91917L8.89998 5.61916C8.19998 5.81916 7.69998 6.21917 7.19998 6.51917L4.69998 5.51917C4.59998 5.51917 4.59998 5.51917 4.49998 5.51917C4.29998 5.51917 4.19998 5.61916 4.09998 5.81916L2.09998 9.31917C1.89998 9.51917 1.99998 9.71917 2.19998 9.91917L4.29998 11.5192C4.29998 11.8192 4.19998 12.2192 4.19998 12.5192C4.19998 12.8192 4.19998 13.1192 4.29998 13.5192L2.19998 15.2192C1.99998 15.3192 1.89998 15.5192 2.09998 15.8192L4.09998 19.3192C4.19998 19.4192 4.29998 19.5192 4.49998 19.5192C4.59998 19.5192 4.59998 19.5192 4.69998 19.5192L7.19998 18.5192C7.69998 18.9192 8.29998 19.2192 8.89998 19.5192L9.29998 22.1192C9.29998 22.3192 9.49998 22.5192 9.79998 22.5192H13.8C14 22.5192 14.3 22.3192 14.3 22.1192L14.7 19.5192C15.3 19.2192 15.9 18.9192 16.4 18.5192L18.9 19.5192C19 19.5192 19 19.5192 19.1 19.5192C19.3 19.5192 19.4 19.4192 19.5 19.2192L21.5 15.7192C21.6 15.5192 21.6 15.2192 21.4 15.1192L19.2 13.5192ZM11.7 14.5192C10.6 14.5192 9.69998 13.6192 9.69998 12.5192C9.69998 11.4192 10.6 10.5192 11.7 10.5192C12.8 10.5192 13.7 11.4192 13.7 12.5192C13.7 13.6192 12.8 14.5192 11.7 14.5192Z" fill="#7E8084"/>
<path d="M11.7 8.51917C9.50001 8.51917 7.70001 10.3192 7.70001 12.5192C7.70001 14.7192 9.50001 16.5192 11.7 16.5192C13.9 16.5192 15.7 14.7192 15.7 12.5192C15.7 10.3192 13.9 8.51917 11.7 8.51917ZM11.7 14.5192C10.6 14.5192 9.70001 13.6192 9.70001 12.5192C9.70001 11.4192 10.6 10.5192 11.7 10.5192C12.8 10.5192 13.7 11.4192 13.7 12.5192C13.7 13.6192 12.8 14.5192 11.7 14.5192Z" fill="#7E8084"/>
<path d="M12.4 4.51917L12.6 5.81916L12.8 7.01917L13.9 7.41917C14.3 7.61916 14.7 7.81916 15.1 8.11916L16 8.81917L17 8.41917L18.3 7.91917L19 9.11916L17.9 9.91917L17 10.6192L17.1 11.7192C17.1 12.0192 17.2 12.3192 17.2 12.5192C17.2 12.7192 17.2 12.9192 17.1 13.2192L17 14.3192L17.9 15.0192L19 15.9192L18.3 17.1192L17 16.6192L16 16.2192L15.1 16.9192C14.7 17.2192 14.3 17.5192 13.9 17.6192L12.8 18.0192L12.6 19.1192L12.4 20.5192H11L10.8 19.2192L10.6 18.0192L9.49998 17.6192C9.09998 17.4192 8.69998 17.2192 8.29998 16.9192L7.39998 16.2192L6.29998 16.6192L4.99998 17.1192L4.29998 15.9192L5.39998 15.0192L6.29998 14.3192L6.19998 13.2192C6.19998 12.9192 6.09998 12.7192 6.09998 12.5192C6.09998 12.3192 6.09998 12.1192 6.19998 11.7192L6.29998 10.6192L5.49998 9.91917L4.49998 9.11916L5.19998 7.91917L6.49998 8.41917L7.49998 8.81917L8.39998 8.11916C8.89998 7.81916 9.19998 7.51917 9.59998 7.41917L10.7 7.01917L10.9 5.81916L11 4.51917H12.4ZM13.7 2.51917H9.69998C9.49998 2.51917 9.29998 2.71917 9.19998 2.91917L8.89998 5.61916C8.19998 5.81916 7.69998 6.21917 7.19998 6.51917L4.69998 5.51917C4.59998 5.51917 4.59998 5.51917 4.49998 5.51917C4.29998 5.51917 4.19998 5.61916 4.09998 5.81916L2.09998 9.31917C1.89998 9.41917 1.99998 9.71917 2.19998 9.91917L4.29998 11.5192C4.29998 11.8192 4.19998 12.2192 4.19998 12.5192C4.19998 12.8192 4.19998 13.1192 4.29998 13.5192L2.19998 15.2192C1.99998 15.3192 1.99998 15.6192 2.09998 15.8192L4.09998 19.3192C4.19998 19.4192 4.29998 19.5192 4.49998 19.5192C4.59998 19.5192 4.59998 19.5192 4.69998 19.5192L7.19998 18.5192C7.69998 18.9192 8.29998 19.2192 8.89998 19.5192L9.29998 22.1192C9.29998 22.3192 9.49998 22.5192 9.79998 22.5192H13.8C14 22.5192 14.3 22.3192 14.3 22.1192L14.7 19.5192C15.3 19.2192 15.9 18.9192 16.4 18.5192L18.9 19.5192C19 19.5192 19 19.5192 19.1 19.5192C19.3 19.5192 19.4 19.4192 19.5 19.2192L21.5 15.7192C21.6 15.5192 21.6 15.2192 21.4 15.1192L19.2 13.5192C19.2 13.2192 19.3 12.9192 19.3 12.5192C19.3 12.1192 19.3 11.8192 19.2 11.5192L21.3 9.91917C21.5 9.81917 21.5 9.51917 21.4 9.31917L19.4 5.81916C19.3 5.61916 19.1 5.51917 19 5.51917C18.9 5.51917 18.9 5.51917 18.8 5.51917L16.3 6.51917C15.8 6.11916 15.2 5.81916 14.6 5.51917L14.2 2.91917C14.2 2.71917 14 2.51917 13.7 2.51917Z" fill="#7E8084"/>
</g>
<defs>
<clipPath id="clip0">
<rect width="19.5" height="20" fill="white" transform="translate(2 2.51917)"/>
</clipPath>
</defs>
</svg>
