<svg width="24" height="25" viewBox="0 0 24 25" fill="none" xmlns="http://www.w3.org/2000/svg">
<g clip-path="url(#clip0)">
<path opacity="0.24" d="M21 11.5192L14 4.51917V8.51917C7 9.51917 4 14.5192 3 19.5192C5.5 16.0192 9 14.4192 14 14.4192V18.5192L21 11.5192Z" fill="#7E8084"/>
<path d="M14 4.51917V8.51917C7 9.51917 4 14.5192 3 19.5192C5.5 16.0192 9 14.4192 14 14.4192V18.5192L21 11.5192L14 4.51917ZM16 9.31917L18.2 11.5192L16 13.7192V12.4192H14C11.9 12.4192 10.1 12.8192 8.3 13.4192C9.7 12.0192 11.5 10.9192 14.3 10.5192L16 10.2192V9.31917Z" fill="#7E8084"/>
</g>
<defs>
<clipPath id="clip0">
<rect width="18" height="15" fill="white" transform="translate(3 4.51917)"/>
</clipPath>
</defs>
</svg>
