<svg width="24" height="24" viewBox="0 0 24 24" fill="none" xmlns="http://www.w3.org/2000/svg">
<g clip-path="url(#clip0)">
<path opacity="0.24" d="M12.3 12H3.80005V19H12.3V12Z" fill="#7E8084"/>
<path opacity="0.24" d="M11.8818 19.026L20.3818 19.026L20.3818 12.026L11.8818 12.026L11.8818 19.026Z" fill="#7E8084"/>
<path d="M20.4999 11.9C20.3999 11.4 19.9999 11.1 19.4999 11.1L12.1999 11H12.0999H11.9999L4.69992 11.1C4.19992 11.1 3.79992 11.4 3.69992 11.9L1.99992 18.8C1.89992 19.1 1.99992 19.4 2.19992 19.6C2.39992 19.9 2.69992 20 2.99992 20H11.1999V22H13.1999V20H14.9999H21.1999C21.4999 20 21.7999 19.9 21.9999 19.6C22.1999 19.4 22.2999 19.1 22.1999 18.8L20.4999 11.9ZM12.6999 13H15.0999L15.3999 15H12.6999V13ZM9.09992 13H11.6999V15H8.79992L9.09992 13ZM7.39992 18H4.19992L4.69992 16H7.59992L7.39992 18ZM7.79992 15H4.99992L5.49992 13.1H8.09992L7.79992 15ZM8.39992 18L8.69992 16H11.7999V18H11.1999H8.39992ZM12.6999 18V16H15.4999L15.7999 18H12.6999ZM16.0999 13H18.6999L19.1999 14.9H16.3999L16.0999 13ZM16.8999 18L16.5999 16H19.4999L19.9999 18H16.8999Z" fill="#7E8084"/>
<path d="M13.2 2H11.2V4H13.2V2Z" fill="#7E8084"/>
<path d="M16.5209 3.35252L15.1067 4.76672L16.5209 6.18092L17.9351 4.76672L16.5209 3.35252Z" fill="#7E8084"/>
<path d="M19.2 7H17.2V9H19.2V7Z" fill="#7E8084"/>
<path d="M8.02577 3.36317L6.61157 4.77737L8.02577 6.19157L9.43997 4.77737L8.02577 3.36317Z" fill="#7E8084"/>
<path d="M7.19995 7H5.19995V9H7.19995V7Z" fill="#7E8084"/>
<path d="M16.2 9C16.2 6.8 14.4 5 12.2 5C9.99995 5 8.19995 6.8 8.19995 9H16.2ZM10.2 9C10.2 7.9 11.1 7 12.2 7C13.3 7 14.2 7.9 14.2 9" fill="#7E8084"/>
</g>
<defs>
<clipPath id="clip0">
<rect width="20.2" height="20" fill="white" transform="translate(2 2)"/>
</clipPath>
</defs>
</svg>
