<svg width="24" height="24" viewBox="0 0 24 24" fill="none" xmlns="http://www.w3.org/2000/svg">
<g clip-path="url(#clip0)">
<path opacity="0.24" d="M12.2998 12H3.7998V19H12.2998V12Z" fill="#7E8084"/>
<path opacity="0.24" d="M11.8818 19.0259L20.3818 19.0259L20.3818 12.0259L11.8818 12.0259L11.8818 19.0259Z" fill="#7E8084"/>
<path d="M20.5002 11.9C20.4002 11.4 20.0002 11.1 19.5002 11.1L12.2002 11H12.1002H12.0002L4.70017 11.1C4.20017 11.1 3.80017 11.4 3.70017 11.9L2.00017 18.8C1.90017 19.1 2.00017 19.4 2.20017 19.6C2.40017 19.9 2.70017 20 3.00017 20H11.2002V22H13.2002V20H15.0002H21.2002C21.5002 20 21.8002 19.9 22.0002 19.6C22.2002 19.4 22.3002 19.1 22.2002 18.8L20.5002 11.9ZM12.7002 13H15.1002L15.4002 15H12.7002V13ZM9.10017 13H11.7002V15H8.80017L9.10017 13ZM7.40017 18H4.20017L4.70017 16H7.60017L7.40017 18ZM7.80017 15H5.00017L5.50017 13.1H8.10017L7.80017 15ZM8.40017 18L8.70017 16H11.8002V18H11.2002H8.40017ZM12.7002 18V16H15.5002L15.8002 18H12.7002ZM16.1002 13H18.7002L19.2002 14.9H16.4002L16.1002 13ZM16.9002 18L16.6002 16H19.5002L20.0002 18H16.9002Z" fill="#7E8084"/>
<path d="M13.2002 2H11.2002V4H13.2002V2Z" fill="#7E8084"/>
<path d="M16.5211 3.35265L15.1069 4.76685L16.5211 6.18105L17.9353 4.76685L16.5211 3.35265Z" fill="#7E8084"/>
<path d="M19.2002 7H17.2002V9H19.2002V7Z" fill="#7E8084"/>
<path d="M8.02553 3.36314L6.61133 4.77734L8.02553 6.19154L9.43973 4.77734L8.02553 3.36314Z" fill="#7E8084"/>
<path d="M7.2002 7H5.2002V9H7.2002V7Z" fill="#7E8084"/>
<path d="M16.2002 9C16.2002 6.8 14.4002 5 12.2002 5C10.0002 5 8.2002 6.8 8.2002 9H16.2002ZM10.2002 9C10.2002 7.9 11.1002 7 12.2002 7C13.3002 7 14.2002 7.9 14.2002 9" fill="#7E8084"/>
</g>
<defs>
<clipPath id="clip0">
<rect width="20.2" height="20" fill="white" transform="translate(2 2)"/>
</clipPath>
</defs>
</svg>
