<svg width="24" height="24" viewBox="0 0 24 24" fill="none" xmlns="http://www.w3.org/2000/svg">
<g clip-path="url(#clip0)">
<path opacity="0.3" d="M12.3 12H3.79999V19H12.3V12Z" fill="#7E8085"/>
<path opacity="0.3" d="M11.8819 19.026L20.3819 19.026L20.3819 12.026L11.8819 12.026L11.8819 19.026Z" fill="#7E8085"/>
<path d="M20.5 11.9C20.4 11.4 20 11.1 19.5 11.1L12.2 11H12.1H12L4.69999 11.1C4.19999 11.1 3.79998 11.4 3.69998 11.9L1.99998 18.8C1.89998 19.1 1.99998 19.4 2.19998 19.6C2.39998 19.9 2.69998 20 2.99998 20H11.2V22H13.2V20H15H21.2C21.5 20 21.8 19.9 22 19.6C22.2 19.4 22.3 19.1 22.2 18.8L20.5 11.9ZM12.7 13H15.1L15.4 15H12.7V13ZM9.09998 13H11.7V15H8.79998L9.09998 13ZM7.39998 18H4.19999L4.69999 16H7.59998L7.39998 18ZM7.79998 15H4.99998L5.49998 13.1H8.09998L7.79998 15ZM8.39998 18L8.69998 16H11.8V18H11.2H8.39998ZM12.7 18V16H15.5L15.8 18H12.7ZM16.1 13H18.7L19.2 14.9H16.4L16.1 13ZM16.9 18L16.6 16H19.5L20 18H16.9Z" fill="#7E8085"/>
<path d="M13.2 2H11.2V4H13.2V2Z" fill="#7E8085"/>
<path d="M16.521 3.35252L15.1068 4.76672L16.521 6.18092L17.9352 4.76672L16.521 3.35252Z" fill="#7E8085"/>
<path d="M19.2 7H17.2V9H19.2V7Z" fill="#7E8085"/>
<path d="M8.02565 3.36317L6.61145 4.77737L8.02565 6.19157L9.43985 4.77737L8.02565 3.36317Z" fill="#7E8085"/>
<path d="M7.20001 7H5.20001V9H7.20001V7Z" fill="#7E8085"/>
<path d="M16.2 9C16.2 6.8 14.4 5 12.2 5C10 5 8.20001 6.8 8.20001 9H16.2ZM10.2 9C10.2 7.9 11.1 7 12.2 7C13.3 7 14.2 7.9 14.2 9" fill="#7E8085"/>
</g>
<defs>
<clipPath id="clip0">
<rect width="20.2" height="20" fill="white" transform="translate(2 2)"/>
</clipPath>
</defs>
</svg>
