<svg width="24" height="25" viewBox="0 0 24 25" fill="none" xmlns="http://www.w3.org/2000/svg">
<g clip-path="url(#clip0)">
<path opacity="0.24" d="M12.3 12.5192H3.80005V19.5192H12.3V12.5192Z" fill="#7E8084"/>
<path opacity="0.24" d="M11.8818 19.5452L20.3818 19.5452L20.3818 12.5452L11.8818 12.5452L11.8818 19.5452Z" fill="#7E8084"/>
<path d="M20.4999 12.4192C20.3999 11.9192 19.9999 11.6192 19.4999 11.6192L12.1999 11.5192H12.0999H11.9999L4.69992 11.6192C4.19992 11.6192 3.79992 11.9192 3.69992 12.4192L1.99992 19.3192C1.89992 19.6192 1.99992 19.9192 2.19992 20.1192C2.39992 20.4192 2.69992 20.5192 2.99992 20.5192H11.1999V22.5192H13.1999V20.5192H14.9999H21.1999C21.4999 20.5192 21.7999 20.4192 21.9999 20.1192C22.1999 19.9192 22.2999 19.6192 22.1999 19.3192L20.4999 12.4192ZM12.6999 13.5192H15.0999L15.3999 15.5192H12.6999V13.5192ZM9.09992 13.5192H11.6999V15.5192H8.79992L9.09992 13.5192ZM7.39992 18.5192H4.19992L4.69992 16.5192H7.59992L7.39992 18.5192ZM7.79992 15.5192H4.99992L5.49992 13.6192H8.09992L7.79992 15.5192ZM8.39992 18.5192L8.69992 16.5192H11.7999V18.5192H11.1999H8.39992ZM12.6999 18.5192V16.5192H15.4999L15.7999 18.5192H12.6999ZM16.0999 13.5192H18.6999L19.1999 15.4192H16.3999L16.0999 13.5192ZM16.8999 18.5192L16.5999 16.5192H19.4999L19.9999 18.5192H16.8999Z" fill="#7E8084"/>
<path d="M13.2 2.51917H11.2V4.51917H13.2V2.51917Z" fill="#7E8084"/>
<path d="M16.5209 3.87169L15.1067 5.28589L16.5209 6.70009L17.9351 5.28589L16.5209 3.87169Z" fill="#7E8084"/>
<path d="M19.2 7.51917H17.2V9.51917H19.2V7.51917Z" fill="#7E8084"/>
<path d="M8.02577 3.88234L6.61157 5.29654L8.02577 6.71074L9.43997 5.29654L8.02577 3.88234Z" fill="#7E8084"/>
<path d="M7.19995 7.51917H5.19995V9.51917H7.19995V7.51917Z" fill="#7E8084"/>
<path d="M16.2 9.51917C16.2 7.31916 14.4 5.51917 12.2 5.51917C9.99995 5.51917 8.19995 7.31916 8.19995 9.51917H16.2ZM10.2 9.51917C10.2 8.41917 11.1 7.51917 12.2 7.51917C13.3 7.51917 14.2 8.41917 14.2 9.51917" fill="#7E8084"/>
</g>
<defs>
<clipPath id="clip0">
<rect width="20.2" height="20" fill="white" transform="translate(2 2.51917)"/>
</clipPath>
</defs>
</svg>
