<svg width="24" height="25" viewBox="0 0 24 25" fill="none" xmlns="http://www.w3.org/2000/svg">
<g clip-path="url(#clip0)">
<path opacity="0.24" d="M12.3 12.5192H3.79999V19.5192H12.3V12.5192Z" fill="#7E8084"/>
<path opacity="0.24" d="M11.8819 19.5452L20.3819 19.5452L20.3819 12.5452L11.8819 12.5452L11.8819 19.5452Z" fill="#7E8084"/>
<path d="M20.5 12.4192C20.4 11.9192 20 11.6192 19.5 11.6192L12.2 11.5192H12.1H12L4.69999 11.6192C4.19999 11.6192 3.79998 11.9192 3.69998 12.4192L1.99998 19.3192C1.89998 19.6192 1.99998 19.9192 2.19998 20.1192C2.39998 20.4192 2.69998 20.5192 2.99998 20.5192H11.2V22.5192H13.2V20.5192H15H21.2C21.5 20.5192 21.8 20.4192 22 20.1192C22.2 19.9192 22.3 19.6192 22.2 19.3192L20.5 12.4192ZM12.7 13.5192H15.1L15.4 15.5192H12.7V13.5192ZM9.09998 13.5192H11.7V15.5192H8.79998L9.09998 13.5192ZM7.39998 18.5192H4.19999L4.69999 16.5192H7.59998L7.39998 18.5192ZM7.79998 15.5192H4.99998L5.49998 13.6192H8.09998L7.79998 15.5192ZM8.39998 18.5192L8.69998 16.5192H11.8V18.5192H11.2H8.39998ZM12.7 18.5192V16.5192H15.5L15.8 18.5192H12.7ZM16.1 13.5192H18.7L19.2 15.4192H16.4L16.1 13.5192ZM16.9 18.5192L16.6 16.5192H19.5L20 18.5192H16.9Z" fill="#7E8084"/>
<path d="M13.2 2.51917H11.2V4.51917H13.2V2.51917Z" fill="#7E8084"/>
<path d="M16.521 3.87169L15.1068 5.28589L16.521 6.70009L17.9352 5.28589L16.521 3.87169Z" fill="#7E8084"/>
<path d="M19.2 7.51917H17.2V9.51917H19.2V7.51917Z" fill="#7E8084"/>
<path d="M8.02565 3.88234L6.61145 5.29654L8.02565 6.71074L9.43985 5.29654L8.02565 3.88234Z" fill="#7E8084"/>
<path d="M7.20001 7.51917H5.20001V9.51917H7.20001V7.51917Z" fill="#7E8084"/>
<path d="M16.2 9.51917C16.2 7.31916 14.4 5.51917 12.2 5.51917C10 5.51917 8.20001 7.31916 8.20001 9.51917H16.2ZM10.2 9.51917C10.2 8.41917 11.1 7.51917 12.2 7.51917C13.3 7.51917 14.2 8.41917 14.2 9.51917" fill="#7E8084"/>
</g>
<defs>
<clipPath id="clip0">
<rect width="20.2" height="20" fill="white" transform="translate(2 2.51917)"/>
</clipPath>
</defs>
</svg>
