<svg width="24" height="25" viewBox="0 0 24 25" fill="none" xmlns="http://www.w3.org/2000/svg">
<path opacity="0.24" fill-rule="evenodd" clip-rule="evenodd" d="M19 19.5192H5V5.51917H19V19.5192ZM11 11.5192H7V13.5192H11V17.5192H13V13.5192H17V11.5192H13V7.51917H11V11.5192Z" fill="#7E8084"/>
<path fill-rule="evenodd" clip-rule="evenodd" d="M5 3.51917H19C20.1 3.51917 21 4.41917 21 5.51917V19.5192C21 20.6192 20.1 21.5192 19 21.5192H5C3.89 21.5192 3 20.6192 3 19.5192V5.51917C3 4.41917 3.89 3.51917 5 3.51917ZM5 19.5192H19V5.51917H5V19.5192Z" fill="#7E8084"/>
<path d="M11 17.5192H13V13.5192H17V11.5192H13V7.51917H11V11.5192H7V13.5192H11V17.5192Z" fill="#7E8084"/>
</svg>
