<svg width="24" height="25" viewBox="0 0 24 25" fill="none" xmlns="http://www.w3.org/2000/svg">
<path opacity="0.24" d="M11.9999 15.9191L8.23992 18.1891L9.23992 13.9091L5.91992 11.0291L10.2999 10.6491L11.9999 6.61914L13.7099 10.6591L18.0899 11.0391L14.7699 13.9191L15.7699 18.1991L11.9999 15.9191Z" fill="#7E8084"/>
<path fill-rule="evenodd" clip-rule="evenodd" d="M14.81 9.13916L22 9.75916L16.55 14.4892L18.18 21.5192L12 17.7892L5.82 21.5192L7.46 14.4892L2 9.75916L9.19 9.14917L12 2.51917L14.81 9.13916ZM8.24 18.1892L12 15.9192L15.77 18.1992L14.77 13.9192L18.09 11.0392L13.71 10.6592L12 6.61916L10.3 10.6492L5.92 11.0292L9.24 13.9092L8.24 18.1892Z" fill="#7E8084"/>
</svg>
