<svg width="24" height="24" viewBox="0 0 24 24" fill="none" xmlns="http://www.w3.org/2000/svg">
<path opacity="0.3" d="M11.9999 15.4L8.23992 17.67L9.23992 13.39L5.91992 10.51L10.2999 10.13L11.9999 6.09998L13.7099 10.14L18.0899 10.52L14.7699 13.4L15.7699 17.68L11.9999 15.4Z" fill="#7E8085"/>
<path fill-rule="evenodd" clip-rule="evenodd" d="M14.81 8.62L22 9.24L16.55 13.97L18.18 21L12 17.27L5.82 21L7.46 13.97L2 9.24L9.19 8.63L12 2L14.81 8.62ZM8.24 17.67L12 15.4L15.77 17.68L14.77 13.4L18.09 10.52L13.71 10.14L12 6.1L10.3 10.13L5.92 10.51L9.24 13.39L8.24 17.67Z" fill="#7E8085"/>
</svg>
