<svg width="24" height="24" viewBox="0 0 24 24" fill="none" xmlns="http://www.w3.org/2000/svg">
<path d="M15.0138 18.0687C14.7138 18.0687 14.5138 17.9687 14.3138 17.7687C13.9138 17.3687 14.0138 16.7687 14.4138 16.3687C14.9138 15.9687 16.1138 14.5687 16.1138 13.4687C16.1138 12.8687 15.7138 12.2687 15.3138 11.5687C14.8138 10.7687 14.1138 9.76873 14.1138 8.56873C14.1138 6.26873 15.4138 5.36873 15.6138 5.26873C16.1138 4.96873 16.7138 5.16873 17.0138 5.56873C17.3138 6.06873 17.1138 6.66873 16.7138 6.96873C16.7138 6.96873 16.2138 7.36873 16.2138 8.56873C16.2138 9.16873 16.6138 9.76873 17.0138 10.4687C17.5138 11.2687 18.2138 12.2687 18.2138 13.4687C18.2138 15.6687 16.1138 17.6687 15.9138 17.8687C15.5138 17.9687 15.2138 18.0687 15.0138 18.0687ZM11.7138 17.7687C11.9138 17.5687 14.0138 15.5687 14.0138 13.3687C14.0138 12.1687 13.4138 11.1687 12.8138 10.3687C12.4138 9.66873 12.0138 9.06873 12.0138 8.46873C12.0138 7.26873 12.5138 6.86873 12.5138 6.86873C13.0138 6.56873 13.1138 5.96873 12.8138 5.46873C12.5138 4.96873 11.9138 4.86873 11.4138 5.16873C11.2138 5.26873 9.91384 6.16873 9.91384 8.46873C9.91384 9.66873 10.5138 10.6687 11.1138 11.4687C11.5138 12.1687 11.9138 12.7687 11.9138 13.3687C11.9138 14.4687 10.7138 15.8687 10.2138 16.2687C9.81384 16.6687 9.81384 17.2687 10.1138 17.6687C10.3138 17.8687 10.6138 17.9687 10.8138 17.9687C11.2138 18.0687 11.5138 17.9687 11.7138 17.7687ZM7.71384 17.7687C7.91384 17.5687 10.0138 15.5687 10.0138 13.3687C10.0138 12.1687 9.41384 11.1687 8.81384 10.3687C8.41384 9.76873 8.01384 9.16873 8.01384 8.46873C8.01384 7.26873 8.51384 6.86873 8.51384 6.86873C9.01384 6.56873 9.11384 5.96873 8.81384 5.46873C8.61384 5.06873 7.91384 4.96873 7.51384 5.16873C7.31384 5.26873 6.01384 6.16873 6.01384 8.46873C6.01384 9.66873 6.61384 10.6687 7.21384 11.4687C7.61384 12.1687 8.01384 12.7687 8.01384 13.3687C8.01384 14.4687 6.81384 15.8687 6.31384 16.2687C5.91384 16.6687 5.91384 17.2687 6.21384 17.6687C6.51384 17.9687 6.71384 18.0687 7.01384 18.0687C7.21384 18.0687 7.51384 17.9687 7.71384 17.7687Z" fill="#7E8084"/>
</svg>
