<svg width="24" height="24" viewBox="0 0 24 24" fill="none" xmlns="http://www.w3.org/2000/svg">
<path opacity="0.24" d="M18.9999 9.1L14.8999 5H9.09988L8.87988 5.22L10.9999 7.33V7H12.9999V9.33L18.7799 15.12L18.9999 14.9V9.1Z" fill="#7E8084"/>
<path opacity="0.24" fill-rule="evenodd" clip-rule="evenodd" d="M5 9.1L6.05 8.04L15.95 17.95L14.9 19H9.1L5 14.9V9.1ZM12 17C12.55 17 13 16.55 13 16C13 15.45 12.55 15 12 15C11.45 15 11 15.45 11 16C11 16.55 11.45 17 12 17Z" fill="#7E8084"/>
<path d="M9.09997 5H14.9L19 9.1V14.9L18.78 15.12L20.2 16.53L21 15.73V8.27L15.73 3H8.26997L7.46997 3.8L8.87997 5.22L9.09997 5Z" fill="#7E8084"/>
<path d="M12 17C12.5523 17 13 16.5523 13 16C13 15.4477 12.5523 15 12 15C11.4477 15 11 15.4477 11 16C11 16.5523 11.4477 17 12 17Z" fill="#7E8084"/>
<path d="M13 7H11V7.33L13 9.33V7Z" fill="#7E8084"/>
<path fill-rule="evenodd" clip-rule="evenodd" d="M1 2.99L2.41 1.58L22.42 21.59L21.01 23L17.37 19.36L15.73 21H8.27L3 15.73V8.27L4.64 6.63L1 2.99ZM9.1 19H14.9L15.95 17.95L6.05 8.05L5 9.1V14.9L9.1 19Z" fill="#7E8084"/>
</svg>
