<svg width="24" height="25" viewBox="0 0 24 25" fill="none" xmlns="http://www.w3.org/2000/svg">
<path fill-rule="evenodd" clip-rule="evenodd" d="M8.27 3.51917H15.73L21 8.78917V16.2492L15.73 21.5192H8.27L3 16.2492V8.78917L8.27 3.51917ZM14.9 19.5192L19 15.4192V9.61916L14.9 5.51917H9.1L5 9.61916V15.4192L9.1 19.5192H14.9Z" fill="#7E8084"/>
<path d="M12 17.5192C12.5523 17.5192 13 17.0714 13 16.5192C13 15.9669 12.5523 15.5192 12 15.5192C11.4477 15.5192 11 15.9669 11 16.5192C11 17.0714 11.4477 17.5192 12 17.5192Z" fill="#7E8084"/>
<path d="M11 7.51917H13V14.5192H11V7.51917Z" fill="#7E8084"/>
</svg>
