<svg width="24" height="25" viewBox="0 0 24 25" fill="none" xmlns="http://www.w3.org/2000/svg">
<path opacity="0.24" d="M19 9.61916L14.9 5.51917H9.1L8.88 5.73917L11 7.84916V7.51917H13V9.84916L18.78 15.6392L19 15.4192V9.61916Z" fill="#7E8084"/>
<path opacity="0.24" fill-rule="evenodd" clip-rule="evenodd" d="M5 9.61917L6.05 8.55917L15.95 18.4692L14.9 19.5192H9.1L5 15.4192V9.61917ZM12 17.5192C12.55 17.5192 13 17.0692 13 16.5192C13 15.9692 12.55 15.5192 12 15.5192C11.45 15.5192 11 15.9692 11 16.5192C11 17.0692 11.45 17.5192 12 17.5192Z" fill="#7E8084"/>
<path d="M9.09997 5.51917H14.9L19 9.61916V15.4192L18.78 15.6392L20.2 17.0492L21 16.2492V8.78917L15.73 3.51917H8.26997L7.46997 4.31917L8.87997 5.73917L9.09997 5.51917Z" fill="#7E8084"/>
<path d="M12 17.5192C12.5523 17.5192 13 17.0714 13 16.5192C13 15.9669 12.5523 15.5192 12 15.5192C11.4477 15.5192 11 15.9669 11 16.5192C11 17.0714 11.4477 17.5192 12 17.5192Z" fill="#7E8084"/>
<path d="M13 7.51917H11V7.84917L13 9.84916V7.51917Z" fill="#7E8084"/>
<path fill-rule="evenodd" clip-rule="evenodd" d="M1 3.50917L2.41 2.09917L22.42 22.1092L21.01 23.5192L17.37 19.8792L15.73 21.5192H8.27L3 16.2492V8.78917L4.64 7.14917L1 3.50917ZM9.1 19.5192H14.9L15.95 18.4692L6.05 8.56917L5 9.61917V15.4192L9.1 19.5192Z" fill="#7E8084"/>
</svg>
