<svg width="24" height="25" viewBox="0 0 24 25" fill="none" xmlns="http://www.w3.org/2000/svg">
<path opacity="0.24" d="M18.9999 9.61916L14.8999 5.51917H9.09988L8.87988 5.73917L10.9999 7.84916V7.51917H12.9999V9.84916L18.7799 15.6392L18.9999 15.4192V9.61916Z" fill="#7E8084"/>
<path opacity="0.24" fill-rule="evenodd" clip-rule="evenodd" d="M5 9.61914L6.05 8.55914L15.95 18.4691L14.9 19.5191H9.1L5 15.4191V9.61914ZM12 17.5191C12.55 17.5191 13 17.0691 13 16.5191C13 15.9691 12.55 15.5191 12 15.5191C11.45 15.5191 11 15.9691 11 16.5191C11 17.0691 11.45 17.5191 12 17.5191Z" fill="#7E8084"/>
<path d="M9.09997 5.51917H14.9L19 9.61916V15.4192L18.78 15.6392L20.2 17.0492L21 16.2492V8.78917L15.73 3.51917H8.26997L7.46997 4.31917L8.87997 5.73917L9.09997 5.51917Z" fill="#7E8084"/>
<path d="M12 17.5192C12.5523 17.5192 13 17.0714 13 16.5192C13 15.9669 12.5523 15.5192 12 15.5192C11.4477 15.5192 11 15.9669 11 16.5192C11 17.0714 11.4477 17.5192 12 17.5192Z" fill="#7E8084"/>
<path d="M13 7.51917H11V7.84917L13 9.84916V7.51917Z" fill="#7E8084"/>
<path fill-rule="evenodd" clip-rule="evenodd" d="M1 3.50918L2.41 2.09918L22.42 22.1092L21.01 23.5192L17.37 19.8792L15.73 21.5192H8.27L3 16.2492V8.78918L4.64 7.14918L1 3.50918ZM9.1 19.5192H14.9L15.95 18.4692L6.05 8.56918L5 9.61918V15.4192L9.1 19.5192Z" fill="#7E8084"/>
</svg>
