<svg width="24" height="24" viewBox="0 0 24 24" fill="none" xmlns="http://www.w3.org/2000/svg">
<path opacity="0.3" d="M12 7.5C9.79 7.5 8 9.29 8 11.5C8 13.71 9.79 15.5 12 15.5C14.21 15.5 16 13.71 16 11.5C16 9.29 14.21 7.5 12 7.5Z" fill="#7E8084"/>
<path d="M5.34 6.25L6.76 4.84L4.96 3.05L3.55 4.46L5.34 6.25ZM1 10.5H4V12.5H1V10.5ZM11 0.550003H13V3.5H11V0.550003ZM18.66 6.255L17.25 4.848L19.04 3.058L20.446 4.468L18.66 6.255ZM17.24 18.16L19.03 19.96L20.44 18.55L18.64 16.76L17.24 18.16ZM20 10.5H23V12.5H20V10.5ZM12 5.5C8.69 5.5 6 8.19 6 11.5C6 14.81 8.69 17.5 12 17.5C15.31 17.5 18 14.81 18 11.5C18 8.19 15.31 5.5 12 5.5ZM12 15.5C9.79 15.5 8 13.71 8 11.5C8 9.29 9.79 7.5 12 7.5C14.21 7.5 16 9.29 16 11.5C16 13.71 14.21 15.5 12 15.5ZM11 19.5H13V22.45H11V19.5ZM3.55 18.54L4.96 19.95L6.75 18.15L5.34 16.74L3.55 18.54Z" fill="#7E8084"/>
</svg>
