<svg width="24" height="25" viewBox="0 0 24 25" fill="none" xmlns="http://www.w3.org/2000/svg">
<path opacity="0.24" fill-rule="evenodd" clip-rule="evenodd" d="M4 4.51917H11L20 13.5192L13 20.5292L4 11.5192V4.51917ZM5 7.01917C5 7.84916 5.67 8.51917 6.5 8.51917C7.33 8.51917 8 7.84916 8 7.01917C8 6.18917 7.33 5.51917 6.5 5.51917C5.67 5.51917 5 6.18917 5 7.01917Z" fill="#7E8084"/>
<path fill-rule="evenodd" clip-rule="evenodd" d="M11 2.51917C11.55 2.51917 12.05 2.73917 12.41 3.09917L21.41 12.0992C21.77 12.4592 22 12.9692 22 13.5192C22 14.0692 21.78 14.5692 21.41 14.9292L14.41 21.9292C14.05 22.2992 13.55 22.5192 13 22.5192C12.45 22.5192 11.95 22.2992 11.59 21.9392L2.59 12.9392C2.22 12.5692 2 12.0692 2 11.5192V4.51917C2 3.41917 2.9 2.51917 4 2.51917H11ZM4 11.5192L13 20.5292L20 13.5092L11 4.50917V4.51917H4V11.5192Z" fill="#7E8084"/>
<path d="M6.5 8.51917C7.32843 8.51917 8 7.84759 8 7.01917C8 6.19074 7.32843 5.51917 6.5 5.51917C5.67157 5.51917 5 6.19074 5 7.01917C5 7.84759 5.67157 8.51917 6.5 8.51917Z" fill="#7E8084"/>
</svg>
