<svg width="24" height="24" viewBox="0 0 24 24" fill="none" xmlns="http://www.w3.org/2000/svg">
<path opacity="0.24" d="M22.1099 21.46L2.38986 1.72998L1.10986 2.99998L8.99986 10.89V13C6.78986 14.66 6.33986 17.79 7.99986 20C9.65986 22.21 12.7899 22.66 14.9999 21C15.8399 20.37 16.3999 19.5 16.7099 18.6L20.8399 22.73L22.1099 21.46Z" fill="#7E8084"/>
<path d="M1.10986 2.99998L2.38986 1.72998L22.1099 21.46L20.8399 22.73L1.10986 2.99998Z" fill="#7E8084"/>
<path d="M9 8.39012V13C7.7 13.9 7 15.4 7 17C7 19.8 9.2 22 12 22C14.8 22 17 19.8 17 17C17 16.7795 16.9848 16.561 16.9555 16.3456L13 12.3901V14L13.8 14.6C14.5138 15.1353 15 16.051 15 17C15 18.6954 13.6954 20 12 20C10.3046 20 9 18.6954 9 17C9 15.9752 9.44142 15.1269 10.1384 14.6444L11 14.0479V10.3901L9 8.39012Z" fill="#7E8084"/>
<path d="M13 9.84471V5C13 4.40457 12.5954 4 12 4C11.4046 4 11 4.40457 11 5V7.84369L9 5.84268V5C9 3.3 10.3 2 12 2C13.7 2 15 3.3 15 5V11.8457L13 9.84471Z" fill="#7E8084"/>
</svg>
