<svg width="24" height="24" viewBox="0 0 24 24" fill="none" xmlns="http://www.w3.org/2000/svg">
<g clip-path="url(#clip0)">
<path d="M12 17C12 19.8 9.8 22 7 22C4.2 22 2 19.8 2 17C2 15.4 2.7 13.9 4 13V5C4 3.3 5.3 2 7 2C8.7 2 10 3.3 10 5V13C11.3 13.9 12 15.4 12 17ZM6 8V14.2C4.4 14.8 3.6 16.5 4.2 18C4.8 19.5 6.5 20.4 8 19.8C9.6 19.2 10.4 17.5 9.8 16C9.5 15.1 8.8 14.5 8 14.2V8H6Z" fill="#7E8085"/>
<path d="M20.6 11.2C20.1 11.7 19.5 12 18.8 12C18.2 12 17.5 11.8 16.7 11.3C16.1 11 15.7 10.8 15.4 10.8C14.7 10.8 14.4 11.3 14.3 12.1H12.6C12.6 11.3 12.9 10.5 13.3 9.89999C13.9 9.29999 14.5 8.99999 15.2 8.99999C15.8 8.99999 16.5 9.19999 17.2 9.59999C17.9 9.99999 18.4 10.2 18.7 10.2C19 10.2 19.2 10.1 19.4 9.89999C19.6 9.69999 19.7 9.39999 19.7 8.89999H21.4C21.3 9.99999 21.1 10.6 20.6 11.2Z" fill="#7E8085"/>
</g>
<defs>
<clipPath id="clip0">
<rect width="19.3" height="20" fill="white" transform="translate(2 2)"/>
</clipPath>
</defs>
</svg>
