<svg width="24" height="25" viewBox="0 0 24 25" fill="none" xmlns="http://www.w3.org/2000/svg">
<g clip-path="url(#clip0)">
<path d="M12 17.5192C12 20.3192 9.8 22.5192 7 22.5192C4.2 22.5192 2 20.3192 2 17.5192C2 15.9192 2.7 14.4192 4 13.5192V5.51917C4 3.81916 5.3 2.51917 7 2.51917C8.7 2.51917 10 3.81916 10 5.51917V13.5192C11.3 14.4192 12 15.9192 12 17.5192ZM6 8.51917V14.7192C4.4 15.3192 3.6 17.0192 4.2 18.5192C4.8 20.0192 6.5 20.9192 8 20.3192C9.6 19.7192 10.4 18.0192 9.8 16.5192C9.5 15.6192 8.8 15.0192 8 14.7192V8.51917H6Z" fill="#7E8084"/>
<path d="M20.6001 11.7192C20.1001 12.2192 19.5001 12.5192 18.8001 12.5192C18.2001 12.5192 17.5001 12.3192 16.7001 11.8192C16.1001 11.5192 15.7001 11.3192 15.4001 11.3192C14.7001 11.3192 14.4001 11.8192 14.3001 12.6192H12.6001C12.6001 11.8192 12.9001 11.0192 13.3001 10.4192C13.9001 9.81919 14.5001 9.51919 15.2001 9.51919C15.8001 9.51919 16.5001 9.71919 17.2001 10.1192C17.9001 10.5192 18.4001 10.7192 18.7001 10.7192C19.0001 10.7192 19.2001 10.6192 19.4001 10.4192C19.6001 10.2192 19.7001 9.91919 19.7001 9.41919H21.4001C21.3001 10.5192 21.1001 11.1192 20.6001 11.7192Z" fill="#7E8084"/>
</g>
<defs>
<clipPath id="clip0">
<rect width="19.3" height="20" fill="white" transform="translate(2 2.51917)"/>
</clipPath>
</defs>
</svg>
