<svg width="24" height="24" viewBox="0 0 24 24" fill="none" xmlns="http://www.w3.org/2000/svg">
<g clip-path="url(#clip0)">
<path d="M12 17C12 19.8 9.8 22 7 22C4.2 22 2 19.8 2 17C2 15.4 2.7 13.9 4 13V5C4 3.3 5.3 2 7 2C8.7 2 10 3.3 10 5V13C11.3 13.9 12 15.4 12 17ZM6 8V14.2C4.4 14.8 3.6 16.5 4.2 18C4.8 19.5 6.5 20.4 8 19.8C9.6 19.2 10.4 17.5 9.8 16C9.5 15.1 8.8 14.5 8 14.2V8H6Z" fill="#7E8084"/>
<path d="M20.6001 11.2C20.1001 11.7 19.5001 12 18.8001 12C18.2001 12 17.5001 11.8 16.7001 11.3C16.1001 11 15.7001 10.8 15.4001 10.8C14.7001 10.8 14.4001 11.3 14.3001 12.1H12.6001C12.6001 11.3 12.9001 10.5 13.3001 9.89999C13.9001 9.29999 14.5001 8.99999 15.2001 8.99999C15.8001 8.99999 16.5001 9.19999 17.2001 9.59999C17.9001 9.99999 18.4001 10.2 18.7001 10.2C19.0001 10.2 19.2001 10.1 19.4001 9.89999C19.6001 9.69999 19.7001 9.39999 19.7001 8.89999H21.4001C21.3001 9.99999 21.1001 10.6 20.6001 11.2Z" fill="#7E8084"/>
</g>
<defs>
<clipPath id="clip0">
<rect width="19.3" height="20" fill="white" transform="translate(2 2)"/>
</clipPath>
</defs>
</svg>
