<svg width="24" height="25" viewBox="0 0 24 25" fill="none" xmlns="http://www.w3.org/2000/svg">
<path opacity="0.24" d="M22.1099 21.9791L2.38986 2.24915L1.10986 3.51915L8.99986 11.4091V13.5191C6.78986 15.1791 6.33986 18.3091 7.99986 20.5191C9.65986 22.7291 12.7899 23.1791 14.9999 21.5191C15.8399 20.8891 16.3999 20.0191 16.7099 19.1191L20.8399 23.2491L22.1099 21.9791Z" fill="#7E8084"/>
<path d="M1.10986 3.51915L2.38986 2.24915L22.1099 21.9791L20.8399 23.2491L1.10986 3.51915Z" fill="#7E8084"/>
<path d="M9 8.90928V13.5192C7.7 14.4192 7 15.9192 7 17.5192C7 20.3192 9.2 22.5192 12 22.5192C14.8 22.5192 17 20.3192 17 17.5192C17 17.2987 16.9848 17.0801 16.9555 16.8648L13 12.9093V14.5192L13.8 15.1192C14.5138 15.6545 15 16.5701 15 17.5192C15 19.2146 13.6954 20.5192 12 20.5192C10.3046 20.5192 9 19.2146 9 17.5192C9 16.4944 9.44142 15.6461 10.1384 15.1635L11 14.5671V10.9093L9 8.90928Z" fill="#7E8084"/>
<path d="M13 10.3639V5.51917C13 4.92373 12.5954 4.51917 12 4.51917C11.4046 4.51917 11 4.92373 11 5.51917V8.36286L9 6.36184V5.51917C9 3.81916 10.3 2.51917 12 2.51917C13.7 2.51917 15 3.81916 15 5.51917V12.3649L13 10.3639Z" fill="#7E8084"/>
</svg>
