<svg width="24" height="25" viewBox="0 0 24 25" fill="none" xmlns="http://www.w3.org/2000/svg">
<g clip-path="url(#clip0)">
<path d="M17 17.5192C17 20.3192 14.8 22.5192 12 22.5192C9.2 22.5192 7 20.3192 7 17.5192C7 15.9192 7.7 14.4192 9 13.5192V5.51917C9 3.81916 10.3 2.51917 12 2.51917C13.7 2.51917 15 3.81916 15 5.51917V13.5192C16.2 14.4192 17 15.9192 17 17.5192ZM11 8.51917V14.7192C9.4 15.3192 8.6 17.0192 9.2 18.5192C9.8 20.1192 11.5 20.9192 13 20.3192C14.5 19.7192 15.4 18.0192 14.8 16.5192C14.5 15.6192 13.8 15.0192 13 14.7192V8.51917H11Z" fill="#7E8084"/>
</g>
<defs>
<clipPath id="clip0">
<rect width="10" height="20" fill="white" transform="translate(7 2.51917)"/>
</clipPath>
</defs>
</svg>
