<svg width="24" height="25" viewBox="0 0 24 25" fill="none" xmlns="http://www.w3.org/2000/svg">
<path opacity="0.24" fill-rule="evenodd" clip-rule="evenodd" d="M4 12.5192C4 8.09916 7.58 4.51917 12 4.51917C16.42 4.51917 20 8.09916 20 12.5192C20 16.9392 16.42 20.5192 12 20.5192C7.58 20.5192 4 16.9392 4 12.5192ZM11 13.5192L16.25 16.6692L17 15.4392L12.5 12.7692V7.51917H11V13.5192Z" fill="#7E8084"/>
<path fill-rule="evenodd" clip-rule="evenodd" d="M2 12.5192C2 6.99917 6.47 2.51917 11.99 2.51917C17.52 2.51917 22 6.99917 22 12.5192C22 18.0392 17.52 22.5192 11.99 22.5192C6.47 22.5192 2 18.0392 2 12.5192ZM4 12.5192C4 16.9392 7.58 20.5192 12 20.5192C16.42 20.5192 20 16.9392 20 12.5192C20 8.09916 16.42 4.51917 12 4.51917C7.58 4.51917 4 8.09916 4 12.5192Z" fill="#7E8084"/>
<path d="M12.5 7.51917H11V13.5192L16.25 16.6692L17 15.4392L12.5 12.7692V7.51917Z" fill="#7E8084"/>
</svg>
