<svg width="24" height="24" viewBox="0 0 24 24" fill="none" xmlns="http://www.w3.org/2000/svg">
<path opacity="0.2" d="M12 16C14.7625 16 17 13.8592 17 11.2162C17 10.1996 16.675 9.25483 16.1 8.48942L12 3L7.9 8.48942C7.325 9.25483 7 10.1996 7 11.2162C7 13.8592 9.2375 16 12 16Z" fill="#7E8084"/>
<path fill-rule="evenodd" clip-rule="evenodd" d="M12 1.32892L16.8995 7.88882C16.8998 7.88921 16.9001 7.88961 16.9004 7.89C17.6051 8.82854 18 9.9837 18 11.2162C18 14.4528 15.2727 17 12 17C8.72733 17 6 14.4528 6 11.2162C6 9.9837 6.39493 8.82853 7.09959 7.89C7.09988 7.8896 7.10018 7.88921 7.10047 7.88882L12 1.32892ZM12 4.67114L8.69953 9.09008C8.25475 9.68215 8 10.4161 8 11.2162C8 13.2658 9.74767 15 12 15C14.2523 15 16 13.2658 16 11.2162C16 10.4161 15.7453 9.68215 15.3005 9.09008L15.2988 9.08785L12 4.67114Z" fill="#7E8084"/>
<path fill-rule="evenodd" clip-rule="evenodd" d="M13 16L13 22L11 22L11 16L13 16Z" fill="#7E8084"/>
<path fill-rule="evenodd" clip-rule="evenodd" d="M6 20L18 20L18 22L6 22L6 20Z" fill="#7E8084"/>
</svg>
