<svg width="24" height="25" viewBox="0 0 24 25" fill="none" xmlns="http://www.w3.org/2000/svg">
<path opacity="0.2" d="M12 16.5192C14.7625 16.5192 17 14.3784 17 11.7354C17 10.7188 16.675 9.774 16.1 9.00859L12 3.51917L7.9 9.00859C7.325 9.774 7 10.7188 7 11.7354C7 14.3784 9.2375 16.5192 12 16.5192Z" fill="#7E8084"/>
<path fill-rule="evenodd" clip-rule="evenodd" d="M12 1.84805L16.8995 8.40795C16.8998 8.40835 16.9001 8.40874 16.9004 8.40914C17.6051 9.34767 18 10.5028 18 11.7354C18 14.9719 15.2727 17.5192 12 17.5192C8.72733 17.5192 6 14.9719 6 11.7354C6 10.5028 6.39493 9.34767 7.09959 8.40913C7.09988 8.40874 7.10018 8.40835 7.10047 8.40795L12 1.84805ZM12 5.19027L8.69953 9.60922C8.25475 10.2013 8 10.9353 8 11.7354C8 13.7849 9.74767 15.5192 12 15.5192C14.2523 15.5192 16 13.7849 16 11.7354C16 10.9353 15.7453 10.2013 15.3005 9.60921L15.2988 9.60699L12 5.19027Z" fill="#7E8084"/>
<path fill-rule="evenodd" clip-rule="evenodd" d="M13 16.5192L13 22.5192L11 22.5192L11 16.5192L13 16.5192Z" fill="#7E8084"/>
<path fill-rule="evenodd" clip-rule="evenodd" d="M6 20.5192L18 20.5192L18 22.5192L6 22.5192L6 20.5192Z" fill="#7E8084"/>
</svg>
