<svg width="24" height="25" viewBox="0 0 24 25" fill="none" xmlns="http://www.w3.org/2000/svg">
<path d="M22 11.5192V3.51917H15V6.51917H9V3.51917H2V11.5192H9V8.51917H11V18.5192H15V21.5192H22V13.5192H15V16.5192H13V8.51917H15V11.5192H22ZM7 9.51917H4V5.51917H7V9.51917ZM17 15.5192H20V19.5192H17V15.5192ZM17 5.51917H20V9.51917H17V5.51917Z" fill="#7E8084"/>
<path opacity="0.24" d="M7 5.51917V9.51917H4V5.51917H7Z" fill="#7E8084"/>
<path opacity="0.24" d="M20 5.51917V9.51917H17V5.51917H20Z" fill="#7E8084"/>
<path opacity="0.24" d="M20 15.5192V19.5192H17V15.5192H20Z" fill="#7E8084"/>
</svg>
