<svg width="24" height="24" viewBox="0 0 24 24" fill="none" xmlns="http://www.w3.org/2000/svg">
<g clip-path="url(#clip0)">
<path opacity="0.24" d="M15.7001 9.5L19.4001 3.1H17.1001L15.0001 6.8L11.1001 4.5L8.5001 3L7.0001 5.6L3.1001 12.4V16.4L9.2001 5.7L15.7001 9.5Z" fill="#7E8084"/>
<path d="M19.1001 21.1001H21.1001V19.1001H19.1001V21.1001ZM19.1001 9.1001V17.1001H21.1001V9.1001H19.1001Z" fill="#7E8084"/>
<path d="M18.1 8.1001H20L22.1 4.6001L20.3 3.6001L16.1 10.9001L9.6 7.1001L2 20.3001L3.7 21.4001L10.3 9.9001L16.8 13.6001L18.1 11.4001V8.1001Z" fill="#7E8084"/>
<path opacity="0.24" d="M17.8 15.3L10.7 11.2L5 21.1H7.3L11.4 14L15.3 16.2L17.8 17.6V15.3Z" fill="#7E8084"/>
</g>
<defs>
<clipPath id="clip0">
<rect width="20.1" height="18.4" fill="white" transform="translate(2 3)"/>
</clipPath>
</defs>
</svg>
