<svg width="24" height="25" viewBox="0 0 24 25" fill="none" xmlns="http://www.w3.org/2000/svg">
<g clip-path="url(#clip0)">
<path d="M11 6.31916L12.9 9.51917H9.1L11 6.31916ZM16.5 15.0192C17.9 15.0192 19 16.1192 19 17.5192C19 18.9192 17.9 20.0192 16.5 20.0192C15.1 20.0192 14 18.9192 14 17.5192C14 16.1192 15.1 15.0192 16.5 15.0192ZM8 15.5192V19.5192H4V15.5192H8ZM11 2.51917L5.5 11.5192H16.5L11 2.51917ZM16.5 13.0192C14 13.0192 12 15.0192 12 17.5192C12 20.0192 14 22.0192 16.5 22.0192C19 22.0192 21 20.0192 21 17.5192C21 15.0192 19 13.0192 16.5 13.0192ZM10 13.5192H2V21.5192H10V13.5192Z" fill="#7E8084"/>
<path opacity="0.24" d="M11 2.51917L5.5 11.5192H16.5L11 2.51917ZM16.5 13.0192C14 13.0192 12 15.0192 12 17.5192C12 20.0192 14 22.0192 16.5 22.0192C19 22.0192 21 20.0192 21 17.5192C21 15.0192 19 13.0192 16.5 13.0192ZM10 13.5192H2V21.5192H10V13.5192Z" fill="#7E8084"/>
</g>
<defs>
<clipPath id="clip0">
<rect width="19" height="19.5" fill="white" transform="translate(2 2.51917)"/>
</clipPath>
</defs>
</svg>
