<svg width="24" height="25" viewBox="0 0 24 25" fill="none" xmlns="http://www.w3.org/2000/svg">
<g clip-path="url(#clip0)">
<path d="M21 13.4192L20 14.4192L18 12.3192L19 11.3192C19.2 11.1192 19.6 11.1192 19.8 11.3192L21 12.6192C21.2 12.8192 21.2 13.1192 21 13.4192ZM11.3 18.9192L17.4 12.8192L19.5 14.9192L13.4 21.0192H11.3V18.9192Z" fill="#7E8084"/>
<path opacity="0.5" d="M3 17.5192V20.5192H9.3V18.3192L13.7 13.9192C12.8 13.6192 11.8 13.5192 11 13.5192C8.3 13.5192 3 14.8192 3 17.5192Z" fill="#7E8084"/>
<path opacity="0.5" d="M11 12.5192C13.2091 12.5192 15 10.7283 15 8.51917C15 6.31003 13.2091 4.51917 11 4.51917C8.79086 4.51917 7 6.31003 7 8.51917C7 10.7283 8.79086 12.5192 11 12.5192Z" fill="#7E8084"/>
</g>
<defs>
<clipPath id="clip0">
<rect width="18.2" height="16.5" fill="white" transform="translate(3 4.51917)"/>
</clipPath>
</defs>
</svg>
