<svg width="24" height="24" viewBox="0 0 24 24" fill="none" xmlns="http://www.w3.org/2000/svg">
<g clip-path="url(#clip0_1944_8698)">
<path d="M20.9998 12.9L19.9998 13.9L17.9998 11.8L18.9998 10.8C19.1998 10.6 19.5998 10.6 19.7998 10.8L20.9998 12.1C21.1998 12.3 21.1998 12.6 20.9998 12.9ZM11.2998 18.4L17.3998 12.3L19.4998 14.4L13.3998 20.5H11.2998V18.4Z" fill="#7E8084"/>
<path opacity="0.5" d="M3 17V20H9.3V17.8L13.7 13.4C12.8 13.1 11.8 13 11 13C8.3 13 3 14.3 3 17Z" fill="#7E8084"/>
<path opacity="0.5" d="M11 12C13.2091 12 15 10.2091 15 8C15 5.79086 13.2091 4 11 4C8.79086 4 7 5.79086 7 8C7 10.2091 8.79086 12 11 12Z" fill="#7E8084"/>
</g>
<defs>
<clipPath id="clip0_1944_8698">
<rect width="18.2" height="16.5" fill="white" transform="translate(3 4)"/>
</clipPath>
</defs>
</svg>
