<svg width="24" height="24" viewBox="0 0 24 24" fill="none" xmlns="http://www.w3.org/2000/svg">
<g clip-path="url(#clip0)">
<path d="M21 12.8999L20 13.8999L18 11.7999L19 10.7999C19.2 10.5999 19.6 10.5999 19.8 10.7999L21 12.0999C21.2 12.2999 21.2 12.5999 21 12.8999ZM11.3 18.3999L17.4 12.2999L19.5 14.3999L13.4 20.4999H11.3V18.3999Z" fill="#7E8084"/>
<path opacity="0.5" d="M3 17V20H9.3V17.8L13.7 13.4C12.8 13.1 11.8 13 11 13C8.3 13 3 14.3 3 17Z" fill="#7E8084"/>
<path opacity="0.5" d="M11 12C13.2091 12 15 10.2091 15 8C15 5.79086 13.2091 4 11 4C8.79086 4 7 5.79086 7 8C7 10.2091 8.79086 12 11 12Z" fill="#7E8084"/>
</g>
<defs>
<clipPath id="clip0">
<rect width="18.2" height="16.5" fill="white" transform="translate(3 4)"/>
</clipPath>
</defs>
</svg>
