<svg width="24" height="24" viewBox="0 0 24 24" fill="none" xmlns="http://www.w3.org/2000/svg">
<g clip-path="url(#clip0)">
<path d="M21 12.9L20 13.9L18 11.8L19 10.8C19.2 10.6 19.6 10.6 19.8 10.8L21 12.1C21.2 12.3 21.2 12.6 21 12.9ZM11.3 18.4L17.4 12.3L19.5 14.4L13.4 20.5H11.3V18.4Z" fill="#7E8085"/>
<path opacity="0.5" d="M3 17V20H9.3V17.8L13.7 13.4C12.8 13.1 11.8 13 11 13C8.3 13 3 14.3 3 17Z" fill="#7E8085"/>
<path opacity="0.5" d="M11 12C13.2091 12 15 10.2091 15 8C15 5.79086 13.2091 4 11 4C8.79086 4 7 5.79086 7 8C7 10.2091 8.79086 12 11 12Z" fill="#7E8085"/>
</g>
<defs>
<clipPath id="clip0">
<rect width="18.2" height="16.5" fill="white" transform="translate(3 4)"/>
</clipPath>
</defs>
</svg>
