<svg width="24" height="24" viewBox="0 0 24 24" fill="none" xmlns="http://www.w3.org/2000/svg">
<path opacity="0.24" d="M11.2857 2V2.71429C8.64286 2.71429 6.35714 4.64286 5.85714 7.07143C5.85714 7.21429 5.78571 7.28571 5.78571 7.42857C5.78571 7.42857 5.78571 7.5 5.71429 7.64286C5.71429 8 5.64286 8.42857 5.57143 8.92857C5.57143 9.07143 5.5 9.21429 5.5 9.35714C5.28571 9.85714 5.21429 10.2857 5.07143 10.5714C4.92857 11 4.71429 11.4286 4.5 11.9286C4.07143 12.8571 3.5 13.9286 3 14.9286C2.5 15.9286 2 16.7857 2 17.7143C2 17.9286 2.07143 18.5 2.64286 19.0714C3.07143 19.5 3.64286 19.7857 4.42857 20.0714C5.14286 20.3571 6.07143 20.6429 7.07143 20.7857C7.21429 20.9286 7.28571 21.2143 7.42857 21.2857C7.78571 21.5 8.21429 21.6429 8.64286 21.7143C9.57143 21.9286 10.7143 21.9286 12 21.9286C13.2857 21.9286 14.4286 21.8571 15.3571 21.7143C15.8571 21.6429 16.2143 21.5 16.5714 21.2857C16.7143 21.2143 16.7857 20.9286 16.9286 20.7857C17.8571 20.6429 18.7857 20.3571 19.5714 20.0714C20.3571 19.7857 20.9286 19.5 21.3571 19.0714C21.9286 18.5 22 17.9286 22 17.7143C22 16.7857 21.5 15.9286 21 14.9286C20.5 13.9286 19.8571 12.8571 19.5 11.9286C19.2857 11.5 19.1429 11 18.9286 10.5714C18.9286 10.5 18.9286 10.5 18.8571 10.4286V10.3571C18.8571 10.2857 18.8571 10.2143 18.7857 10.2143C18.7857 10.1429 18.7143 10.0714 18.7143 10C18.7143 9.92857 18.6429 9.85714 18.6429 9.78571V9.71429C18.6429 9.64286 18.5714 9.57143 18.5714 9.5C18.5714 9.42857 18.5714 9.35714 18.5 9.28571V9.21429C18.3571 8.78571 18.2857 8.28571 18.2857 7.92857C18.2857 7.78571 18.2143 7.71429 18.2143 7.71429C18.2143 7.57143 18.2143 7.5 18.1429 7.35714C17.6429 4.64286 15.3571 2.71429 12.7143 2.71429V2H11.2857Z" fill="#7E8084"/>
<path d="M11.2857 2V2.71429C8.64286 2.71429 6.35714 4.64286 5.85714 7.07143C5.85714 7.21429 5.78571 7.28571 5.78571 7.42857C5.78571 7.42857 5.78571 7.5 5.71429 7.64286C5.71429 8 5.64286 8.42857 5.57143 8.92857C5.57143 9.07143 5.5 9.21429 5.5 9.35714C5.28571 9.85714 5.21429 10.2857 5.07143 10.5714C4.92857 11 4.71429 11.4286 4.5 11.9286C4.07143 12.8571 3.5 13.9286 3 14.9286C2.5 15.9286 2 16.7857 2 17.7143C2 17.9286 2.07143 18.5 2.64286 19.0714C3.07143 19.5 3.64286 19.7857 4.42857 20.0714C5.14286 20.3571 6.07143 20.6429 7.07143 20.7857C7.21429 20.9286 7.28571 21.2143 7.42857 21.2857C7.78571 21.5 8.21429 21.6429 8.64286 21.7143C9.57143 21.9286 10.7143 21.9286 12 21.9286C13.2857 21.9286 14.4286 21.8571 15.3571 21.7143C15.8571 21.6429 16.2143 21.5 16.5714 21.2857C16.7143 21.2143 16.7857 20.9286 16.9286 20.7857C17.8571 20.6429 18.7857 20.3571 19.5714 20.0714C20.3571 19.7857 20.9286 19.5 21.3571 19.0714C21.9286 18.5 22 17.9286 22 17.7143C22 16.7857 21.5 15.9286 21 14.9286C20.5 13.9286 19.8571 12.8571 19.5 11.9286C19.2857 11.5 19.1429 11 18.9286 10.5714C18.9286 10.5 18.9286 10.5 18.8571 10.4286V10.3571C18.8571 10.2857 18.8571 10.2143 18.7857 10.2143C18.7857 10.1429 18.7143 10.0714 18.7143 10C18.7143 9.92857 18.6429 9.85714 18.6429 9.78571V9.71429C18.6429 9.64286 18.5714 9.57143 18.5714 9.5C18.5714 9.42857 18.5714 9.35714 18.5 9.28571V9.21429C18.3571 8.78571 18.2857 8.28571 18.2857 7.92857C18.2857 7.78571 18.2143 7.71429 18.2143 7.71429C18.2143 7.57143 18.2143 7.5 18.1429 7.35714C17.6429 4.64286 15.3571 2.71429 12.7143 2.71429V2H11.2857ZM11.2857 4.14286V9.07143C10.9286 8.85714 9.92857 8.42857 8.78571 8.42857C8.21429 8.42857 7.64286 8.5 7.07143 8.78571C7.07143 8.42857 7.14286 8.14286 7.14286 7.85714C7.14286 7.85714 7.14286 7.85714 7.14286 7.78571C7.14286 7.78571 7.14286 7.78571 7.14286 7.85714V7.78571V7.71429C7.14286 7.57143 7.14286 7.5 7.21429 7.42857V7.35714C7.64286 5.64286 9.35714 4.14286 11.2857 4.14286ZM12.7143 4.14286C14.6429 4.14286 16.3571 5.64286 16.7143 7.35714C16.7143 7.42857 16.7857 7.5 16.7857 7.64286V7.71429V7.78571C16.7857 7.85714 16.7857 7.85714 16.7857 7.85714C16.7857 8.14286 16.8571 8.42857 16.9286 8.78571C16.3571 8.5 15.7143 8.42857 15.2143 8.42857C14.0714 8.42857 13.1429 8.85714 12.7143 9.07143V4.14286ZM8.78571 9.85714C9.71429 9.85714 11 10.5 11 10.5L11.1429 10.5714H12.9286L13.0714 10.5C13.0714 10.5 14.2143 9.85714 15.2143 9.85714C16.1429 9.85714 17.2143 10.2857 17.5714 11.1429C17.7143 11.5714 17.9286 12.0714 18.1429 12.5C18.5714 13.5714 19.2143 14.6429 19.7143 15.6429C20.2143 16.5714 20.5714 17.5 20.5714 17.7857C20.5714 17.6429 20.6429 17.8571 20.3571 18.1429C20.2857 18.2143 19.7857 18.5714 19.0714 18.8571C18.3571 19.1429 17.5 19.4286 16.5714 19.5714H16.5L16.2857 19.1429H14.8571V20.4286C14.1429 20.5714 13.1429 20.5714 12 20.5714C10.8571 20.5714 9.85714 20.5 9.14286 20.3571V19.1429H7.71429L7.57143 19.4286H7.5C6.57143 19.2857 5.71429 19 5 18.7143C4.28571 18.4286 3.78571 18.0714 3.71429 18C3.35714 17.7857 3.42857 17.6429 3.42857 17.7143C3.42857 17.4286 3.78571 16.5714 4.28571 15.5714C4.78571 14.6429 5.42857 13.5 5.85714 12.4286C6.07143 12 6.28571 11.5714 6.42857 11.1429C6.78571 10.2143 7.85714 9.85714 8.78571 9.85714ZM9.14286 10.5714C7.57143 10.5714 7 11.7857 7 12.7143C7 13.3571 7.21429 14.1429 7.42857 14.9286C7.64286 15.7143 7.85714 16.3571 7.85714 16.3571L9.21429 15.9286C9.21429 15.9286 9 15.2857 8.78571 14.5714C8.71429 14.1429 8.64286 13.7857 8.57143 13.4286C8.92857 13.4286 9.21429 13.4286 9.21429 13.4286H11.3571V11.8571C11.2857 11.8571 10.3571 10.5714 9.14286 10.5714ZM11.2857 13.4286V14.8571L9.14286 17.7143H14.8571L12.7143 14.8571V13.4286H11.2857ZM12.7143 13.4286H14.8571C14.8571 13.4286 15.1429 13.4286 15.5 13.4286C15.4286 13.7857 15.3571 14.1429 15.2143 14.5C15 15.2143 14.7857 15.8571 14.7857 15.8571L16.1429 16.2857C16.1429 16.2857 16.3571 15.6429 16.5714 14.8571C16.7857 14.0714 17 13.3571 17 12.7143C17 11.7857 16.5 10.5714 14.8571 10.5714C13.6429 10.5714 12.7143 11.8571 12.7143 11.8571V13.4286Z" fill="#7E8084"/>
</svg>
