<svg width="24" height="25" viewBox="0 0 24 25" fill="none" xmlns="http://www.w3.org/2000/svg">
<g clip-path="url(#clip0)">
<path opacity="0.24" d="M11.2857 2.51917V3.23345C8.64286 3.23345 6.35714 5.16202 5.85714 7.59059C5.85714 7.73345 5.78571 7.80488 5.78571 7.94774C5.78571 7.94774 5.78571 8.01917 5.71429 8.16202C5.71429 8.51917 5.64286 8.94774 5.57143 9.44774C5.57143 9.59059 5.5 9.73345 5.5 9.87631C5.28571 10.3763 5.21429 10.8049 5.07143 11.0906C4.92857 11.5192 4.71429 11.9477 4.5 12.4477C4.07143 13.3763 3.5 14.4477 3 15.4477C2.5 16.4477 2 17.3049 2 18.2335C2 18.4477 2.07143 19.0192 2.64286 19.5906C3.07143 20.0192 3.64286 20.3049 4.42857 20.5906C5.14286 20.8763 6.07143 21.162 7.07143 21.3049C7.21429 21.4477 7.28571 21.7335 7.42857 21.8049C7.78571 22.0192 8.21429 22.162 8.64286 22.2335C9.57143 22.4477 10.7143 22.4477 12 22.4477C13.2857 22.4477 14.4286 22.3763 15.3571 22.2335C15.8571 22.162 16.2143 22.0192 16.5714 21.8049C16.7143 21.7335 16.7857 21.4477 16.9286 21.3049C17.8571 21.162 18.7857 20.8763 19.5714 20.5906C20.3571 20.3049 20.9286 20.0192 21.3571 19.5906C21.9286 19.0192 22 18.4477 22 18.2335C22 17.3049 21.5 16.4477 21 15.4477C20.5 14.4477 19.8571 13.3763 19.5 12.4477C19.2857 12.0192 19.1429 11.5192 18.9286 11.0906C18.9286 11.0192 18.9286 11.0192 18.8571 10.9477V10.8763C18.8571 10.8049 18.8571 10.7335 18.7857 10.7335C18.7857 10.662 18.7143 10.5906 18.7143 10.5192C18.7143 10.4477 18.6429 10.3763 18.6429 10.3049V10.2335C18.6429 10.162 18.5714 10.0906 18.5714 10.0192C18.5714 9.94774 18.5714 9.87631 18.5 9.80488V9.73345C18.3571 9.30488 18.2857 8.80488 18.2857 8.44774C18.2857 8.30488 18.2143 8.23345 18.2143 8.23345C18.2143 8.09059 18.2143 8.01917 18.1429 7.87631C17.6429 5.16202 15.3571 3.23345 12.7143 3.23345V2.51917H11.2857Z" fill="#7E8084"/>
<path d="M11.2857 2.51917V3.23345C8.64286 3.23345 6.35714 5.16202 5.85714 7.59059C5.85714 7.73345 5.78571 7.80488 5.78571 7.94774C5.78571 7.94774 5.78571 8.01917 5.71429 8.16202C5.71429 8.51917 5.64286 8.94774 5.57143 9.44774C5.57143 9.59059 5.5 9.73345 5.5 9.87631C5.28571 10.3763 5.21429 10.8049 5.07143 11.0906C4.92857 11.5192 4.71429 11.9477 4.5 12.4477C4.07143 13.3763 3.5 14.4477 3 15.4477C2.5 16.4477 2 17.3049 2 18.2335C2 18.4477 2.07143 19.0192 2.64286 19.5906C3.07143 20.0192 3.64286 20.3049 4.42857 20.5906C5.14286 20.8763 6.07143 21.162 7.07143 21.3049C7.21429 21.4477 7.28571 21.7335 7.42857 21.8049C7.78571 22.0192 8.21429 22.162 8.64286 22.2335C9.57143 22.4477 10.7143 22.4477 12 22.4477C13.2857 22.4477 14.4286 22.3763 15.3571 22.2335C15.8571 22.162 16.2143 22.0192 16.5714 21.8049C16.7143 21.7335 16.7857 21.4477 16.9286 21.3049C17.8571 21.162 18.7857 20.8763 19.5714 20.5906C20.3571 20.3049 20.9286 20.0192 21.3571 19.5906C21.9286 19.0192 22 18.4477 22 18.2335C22 17.3049 21.5 16.4477 21 15.4477C20.5 14.4477 19.8571 13.3763 19.5 12.4477C19.2857 12.0192 19.1429 11.5192 18.9286 11.0906C18.9286 11.0192 18.9286 11.0192 18.8571 10.9477V10.8763C18.8571 10.8049 18.8571 10.7335 18.7857 10.7335C18.7857 10.662 18.7143 10.5906 18.7143 10.5192C18.7143 10.4477 18.6429 10.3763 18.6429 10.3049V10.2335C18.6429 10.162 18.5714 10.0906 18.5714 10.0192C18.5714 9.94774 18.5714 9.87631 18.5 9.80488V9.73345C18.3571 9.30488 18.2857 8.80488 18.2857 8.44774C18.2857 8.30488 18.2143 8.23345 18.2143 8.23345C18.2143 8.09059 18.2143 8.01917 18.1429 7.87631C17.6429 5.16202 15.3571 3.23345 12.7143 3.23345V2.51917H11.2857ZM11.2857 4.66202V9.59059C10.9286 9.37631 9.92857 8.94774 8.78571 8.94774C8.21429 8.94774 7.64286 9.01917 7.07143 9.30488C7.07143 8.94774 7.14286 8.66202 7.14286 8.37631C7.14286 8.37631 7.14286 8.37631 7.14286 8.30488C7.14286 8.30488 7.14286 8.30488 7.14286 8.37631V8.30488V8.23345C7.14286 8.09059 7.14286 8.01917 7.21429 7.94774V7.87631C7.64286 6.16202 9.35714 4.66202 11.2857 4.66202ZM12.7143 4.66202C14.6429 4.66202 16.3571 6.16202 16.7143 7.87631C16.7143 7.94774 16.7857 8.01917 16.7857 8.16202V8.23345V8.30488C16.7857 8.37631 16.7857 8.37631 16.7857 8.37631C16.7857 8.66202 16.8571 8.94774 16.9286 9.30488C16.3571 9.01917 15.7143 8.94774 15.2143 8.94774C14.0714 8.94774 13.1429 9.37631 12.7143 9.59059V4.66202ZM8.78571 10.3763C9.71429 10.3763 11 11.0192 11 11.0192L11.1429 11.0906H12.9286L13.0714 11.0192C13.0714 11.0192 14.2143 10.3763 15.2143 10.3763C16.1429 10.3763 17.2143 10.8049 17.5714 11.662C17.7143 12.0906 17.9286 12.5906 18.1429 13.0192C18.5714 14.0906 19.2143 15.162 19.7143 16.162C20.2143 17.0906 20.5714 18.0192 20.5714 18.3049C20.5714 18.162 20.6429 18.3763 20.3571 18.662C20.2857 18.7335 19.7857 19.0906 19.0714 19.3763C18.3571 19.662 17.5 19.9477 16.5714 20.0906H16.5L16.2857 19.662H14.8571V20.9477C14.1429 21.0906 13.1429 21.0906 12 21.0906C10.8571 21.0906 9.85714 21.0192 9.14286 20.8763V19.662H7.71429L7.57143 19.9477H7.5C6.57143 19.8049 5.71429 19.5192 5 19.2334C4.28571 18.9477 3.78571 18.5906 3.71429 18.5192C3.35714 18.3049 3.42857 18.162 3.42857 18.2335C3.42857 17.9477 3.78571 17.0906 4.28571 16.0906C4.78571 15.162 5.42857 14.0192 5.85714 12.9477C6.07143 12.5192 6.28571 12.0906 6.42857 11.662C6.78571 10.7335 7.85714 10.3763 8.78571 10.3763ZM9.14286 11.0906C7.57143 11.0906 7 12.3049 7 13.2335C7 13.8763 7.21429 14.662 7.42857 15.4477C7.64286 16.2335 7.85714 16.8763 7.85714 16.8763L9.21429 16.4477C9.21429 16.4477 9 15.8049 8.78571 15.0906C8.71429 14.662 8.64286 14.3049 8.57143 13.9477C8.92857 13.9477 9.21429 13.9477 9.21429 13.9477H11.3571V12.3763C11.2857 12.3763 10.3571 11.0906 9.14286 11.0906ZM11.2857 13.9477V15.3763L9.14286 18.2335H14.8571L12.7143 15.3763V13.9477H11.2857ZM12.7143 13.9477H14.8571C14.8571 13.9477 15.1429 13.9477 15.5 13.9477C15.4286 14.3049 15.3571 14.662 15.2143 15.0192C15 15.7335 14.7857 16.3763 14.7857 16.3763L16.1429 16.8049C16.1429 16.8049 16.3571 16.162 16.5714 15.3763C16.7857 14.5906 17 13.8763 17 13.2335C17 12.3049 16.5 11.0906 14.8571 11.0906C13.6429 11.0906 12.7143 12.3763 12.7143 12.3763V13.9477Z" fill="#7E8084"/>
</g>
<defs>
<clipPath id="clip0">
<rect width="20" height="20" fill="white" transform="translate(2 2.51917)"/>
</clipPath>
</defs>
</svg>
