<svg width="24" height="25" viewBox="0 0 24 25" fill="none" xmlns="http://www.w3.org/2000/svg">
<path fill-rule="evenodd" clip-rule="evenodd" d="M3 5.51917L12 1.51917L21 5.51917V11.5192C21 17.0692 17.16 22.2592 12 23.5192C6.84 22.2592 3 17.0692 3 11.5192V5.51917ZM12 21.4492C16.02 20.2092 19 16.0392 19 11.5192V6.81917L12 3.70917L5 6.81917V11.5192C5 16.0392 7.98 20.2092 12 21.4492Z" fill="#7E8084"/>
<path d="M7.41 12.1092L6 13.5192L10 17.5192L18 9.51918L16.59 8.09918L10 14.6892L7.41 12.1092Z" fill="#7E8084"/>
<path opacity="0.24" fill-rule="evenodd" clip-rule="evenodd" d="M5 11.5192V6.81917L12 3.70917L19 6.81917V11.5192C19 16.0392 16.02 20.2192 12 21.4492C7.98 20.2092 5 16.0392 5 11.5192ZM10 17.5192L18 9.51917L16.59 8.09917L10 14.6892L7.41 12.1092L6 13.5192L10 17.5192Z" fill="#7E8084"/>
</svg>
