<svg width="24" height="24" viewBox="0 0 24 24" fill="none" xmlns="http://www.w3.org/2000/svg">
<path fill-rule="evenodd" clip-rule="evenodd" d="M3 5L12 1L21 5V11C21 16.55 17.16 21.74 12 23C6.84 21.74 3 16.55 3 11V5ZM12 20.93C16.02 19.69 19 15.52 19 11V6.3L12 3.19L5 6.3V11C5 15.52 7.98 19.69 12 20.93Z" fill="#7E8084"/>
<path d="M7.41 11.5901L6 13.0001L10 17.0001L18 9.00008L16.59 7.58008L10 14.1701L7.41 11.5901Z" fill="#7E8084"/>
<path opacity="0.24" fill-rule="evenodd" clip-rule="evenodd" d="M5 10.9999V6.29994L12 3.18994L19 6.29994V10.9999C19 15.5199 16.02 19.6999 12 20.9299C7.98 19.6899 5 15.5199 5 10.9999ZM10 16.9999L18 8.99994L16.59 7.57994L10 14.1699L7.41 11.5899L6 12.9999L10 16.9999Z" fill="#7E8084"/>
</svg>
