<svg width="24" height="24" viewBox="0 0 24 24" fill="none" xmlns="http://www.w3.org/2000/svg">
<path opacity="0.24" d="M12 16.5C14.4853 16.5 16.5 14.4853 16.5 12C16.5 9.51472 14.4853 7.5 12 7.5C9.51472 7.5 7.5 9.51472 7.5 12C7.5 14.4853 9.51472 16.5 12 16.5Z" fill="#7E8084"/>
<path d="M12 4.5C7 4.5 2.7 7.6 1 12C2.7 16.4 7 19.5 12 19.5C17 19.5 21.3 16.4 23 12C21.3 7.6 17 4.5 12 4.5ZM12 17.5C8.2 17.5 4.8 15.4 3.2 12C4.8 8.6 8.2 6.5 12 6.5C15.8 6.5 19.2 8.6 20.8 12C19.2 15.4 15.8 17.5 12 17.5ZM12 14.5C10.6 14.5 9.5 13.4 9.5 12C9.5 10.6 10.6 9.5 12 9.5C13.4 9.5 14.5 10.6 14.5 12C14.5 13.4 13.4 14.5 12 14.5Z" fill="#7E8084"/>
</svg>
