<svg width="24" height="25" viewBox="0 0 24 25" fill="none" xmlns="http://www.w3.org/2000/svg">
<path opacity="0.24" d="M12 17.0192C14.4853 17.0192 16.5 15.0044 16.5 12.5192C16.5 10.0339 14.4853 8.01917 12 8.01917C9.51472 8.01917 7.5 10.0339 7.5 12.5192C7.5 15.0044 9.51472 17.0192 12 17.0192Z" fill="#7E8084"/>
<path d="M12 5.01917C7 5.01917 2.7 8.11916 1 12.5192C2.7 16.9192 7 20.0192 12 20.0192C17 20.0192 21.3 16.9192 23 12.5192C21.3 8.11916 17 5.01917 12 5.01917ZM12 18.0192C8.2 18.0192 4.8 15.9192 3.2 12.5192C4.8 9.11916 8.2 7.01917 12 7.01917C15.8 7.01917 19.2 9.11916 20.8 12.5192C19.2 15.9192 15.8 18.0192 12 18.0192ZM12 15.0192C10.6 15.0192 9.5 13.9192 9.5 12.5192C9.5 11.1192 10.6 10.0192 12 10.0192C13.4 10.0192 14.5 11.1192 14.5 12.5192C14.5 13.9192 13.4 15.0192 12 15.0192Z" fill="#7E8084"/>
</svg>
