<svg width="24" height="25" viewBox="0 0 24 25" fill="none" xmlns="http://www.w3.org/2000/svg">
<path opacity="0.24" d="M12 21.5192C8.7 21.5192 6 18.8192 6 15.5192C6 11.5192 12 4.71918 12 4.71918C12 4.71918 18 11.5192 18 15.5192C18 18.8192 15.3 21.5192 12 21.5192Z" fill="#7E8084"/>
<path d="M12 7.91918C14 10.5192 16 13.7192 16 15.5192C16 17.7192 14.2 19.5192 12 19.5192C9.8 19.5192 8 17.7192 8 15.5192C8 13.7192 10 10.5192 12 7.91918ZM12 4.81918C12 4.81918 6 11.6192 6 15.6192C6 18.9192 8.7 21.6192 12 21.6192C15.3 21.6192 18 18.9192 18 15.6192C18 11.5192 12 4.81918 12 4.81918Z" fill="#7E8084"/>
</svg>
