<svg width="24" height="24" viewBox="0 0 24 24" fill="none" xmlns="http://www.w3.org/2000/svg">
<path fill-rule="evenodd" clip-rule="evenodd" d="M19.95 4.45991C19.2 4.07991 18.37 3.65991 17 3.65991C15.63 3.65991 14.8 4.07991 14.05 4.45991L13.9703 4.49921C13.3558 4.80249 12.8342 5.05991 12 5.05991C11.1 5.05991 10.6 4.80991 9.95 4.45991L9.87173 4.42124C9.14248 4.06062 8.33216 3.65991 7 3.65991C5.62883 3.65991 4.81051 4.07456 4.0644 4.45262L4.05 4.45991L4.0245 4.47286C3.3863 4.79695 2.86846 5.05991 2 5.05991V6.98991C3.3291 6.98991 4.17356 6.57313 4.91509 6.20714L4.95 6.18991L4.9755 6.17696C5.6137 5.85288 6.13154 5.58991 7 5.58991C7.88 5.58991 8.4 5.83991 9.05 6.18991L9.0644 6.19721C9.81051 6.57527 10.6288 6.98991 12 6.98991C13.3322 6.98991 14.1425 6.58921 14.8717 6.22858L14.95 6.18991L15.0297 6.15062C15.6442 5.84734 16.1658 5.58991 17 5.58991C17.9 5.58991 18.4 5.83991 19.05 6.18991C19.8 6.56991 20.63 6.98991 22 6.98991V5.03991C21.1 5.03991 20.6 4.78991 19.95 4.45991ZM14.0849 13.3227C14.8264 12.9567 15.6709 12.5399 17 12.5399C18.35 12.5399 19.2 12.9599 19.95 13.3399C20.6 13.6899 21.1 13.9399 22 13.9399V15.8899C20.63 15.8899 19.8 15.4699 19.05 15.0899C18.4 14.7399 17.9 14.4899 17 14.4899C16.1 14.4899 15.6 14.7399 14.95 15.0899L14.8717 15.1286C14.1425 15.4892 13.3322 15.8899 12 15.8899C10.6288 15.8899 9.81051 15.4753 9.0644 15.0972L9.05 15.0899C8.4 14.7399 7.9 14.4899 7 14.4899C6.1 14.4899 5.6 14.7399 4.95 15.0899L4.91509 15.1071C4.17356 15.4731 3.3291 15.8899 2 15.8899V13.9399C2.83575 13.9399 3.3468 13.6874 3.95287 13.3878L4.05 13.3399L4.12827 13.3012C4.85752 12.9406 5.66784 12.5399 7 12.5399C8.37117 12.5399 9.18949 12.9546 9.9356 13.3326L9.95 13.3399C10.6 13.6899 11.1 13.9399 12 13.9399C12.8342 13.9399 13.3558 13.6825 13.9703 13.3792L14.05 13.3399L14.0849 13.3227ZM14.05 17.7899C14.8 17.4099 15.65 16.9899 17 16.9899C18.35 16.9899 19.2 17.4099 19.95 17.7899C20.6 18.1399 21.1 18.3899 22 18.3899V20.3399C20.63 20.3399 19.8 19.9199 19.05 19.5399C18.4 19.1899 17.9 18.9399 17 18.9399C16.1318 18.9399 15.6022 19.2088 14.9541 19.5379L14.95 19.5399L14.9356 19.5472C14.1895 19.9253 13.3712 20.3399 12 20.3399C10.6288 20.3399 9.81051 19.9253 9.0644 19.5472L9.05 19.5399C8.4 19.1899 7.88 18.9399 7 18.9399C6.13154 18.9399 5.6137 19.2029 4.9755 19.527L4.95 19.5399C4.2 19.9199 3.35 20.3399 2 20.3399V18.3899C2.86846 18.3899 3.3863 18.1269 4.0245 17.8029L4.05 17.7899L4.0644 17.7826C4.81051 17.4046 5.62883 16.9899 7 16.9899C8.37117 16.9899 9.18949 17.4046 9.9356 17.7826L9.95 17.7899C10.6 18.1399 11.1 18.3899 12 18.3899C12.8682 18.3899 13.3978 18.121 14.0459 17.792L14.05 17.7899ZM14.0849 8.87268C14.8264 8.5067 15.6709 8.08991 17 8.08991C18.35 8.08991 19.2 8.50991 19.95 8.88991C20.6 9.23991 21.1 9.48991 22 9.48991V11.4399C20.63 11.4399 19.8 11.0199 19.05 10.6399C18.4 10.2899 17.9 10.0399 17 10.0399C16.1658 10.0399 15.6442 10.2973 15.0297 10.6006C15.0033 10.6136 14.9768 10.6267 14.95 10.6399C14.924 10.6527 14.8979 10.6656 14.8717 10.6786C14.1425 11.0392 13.3322 11.4399 12 11.4399C10.6288 11.4399 9.81051 11.0253 9.0644 10.6472L9.05 10.6399C8.4 10.2899 7.87 10.0399 7 10.0399C6.16581 10.0399 5.64421 10.2973 5.02969 10.6006C5.00331 10.6136 4.97675 10.6267 4.95 10.6399C4.93839 10.6456 4.92675 10.6514 4.91509 10.6571C4.17356 11.0231 3.3291 11.4399 2 11.4399V9.48991C2.9 9.48991 3.4 9.23991 4.05 8.88991C4.076 8.87709 4.10208 8.86419 4.12826 8.85124C4.85752 8.49062 5.66783 8.08991 7 8.08991C8.37117 8.08991 9.18949 8.50456 9.9356 8.88262L9.95 8.88991C10.6 9.23991 11.1 9.48991 12 9.48991C12.9 9.48991 13.4 9.23991 14.05 8.88991L14.0849 8.87268Z" fill="#7E8084"/>
</svg>
