<svg width="24" height="25" viewBox="0 0 24 25" fill="none" xmlns="http://www.w3.org/2000/svg">
<path fill-rule="evenodd" clip-rule="evenodd" d="M19.95 4.97917C19.2 4.59917 18.37 4.17917 17 4.17917C15.63 4.17917 14.8 4.59917 14.05 4.97917L13.9703 5.01846C13.3558 5.32174 12.8342 5.57917 12 5.57917C11.1 5.57917 10.6 5.32917 9.95 4.97917L9.87173 4.9405C9.14248 4.57987 8.33216 4.17917 7 4.17917C5.62883 4.17917 4.81051 4.59381 4.0644 4.97187L4.05 4.97917L4.0245 4.99212C3.3863 5.3162 2.86846 5.57917 2 5.57917V7.50917C3.3291 7.50917 4.17356 7.09238 4.91509 6.7264L4.95 6.70917L4.9755 6.69622C5.6137 6.37213 6.13154 6.10917 7 6.10917C7.88 6.10917 8.4 6.35917 9.05 6.70917L9.0644 6.71647C9.81051 7.09452 10.6288 7.50917 12 7.50917C13.3322 7.50917 14.1425 7.10846 14.8717 6.74784L14.95 6.70917L15.0297 6.66987C15.6442 6.36659 16.1658 6.10917 17 6.10917C17.9 6.10917 18.4 6.35917 19.05 6.70917C19.8 7.08917 20.63 7.50917 22 7.50917V5.55917C21.1 5.55917 20.6 5.30917 19.95 4.97917ZM14.0849 13.8419C14.8264 13.476 15.6709 13.0592 17 13.0592C18.35 13.0592 19.2 13.4792 19.95 13.8592C20.6 14.2092 21.1 14.4592 22 14.4592V16.4092C20.63 16.4092 19.8 15.9892 19.05 15.6092C18.4 15.2592 17.9 15.0092 17 15.0092C16.1 15.0092 15.6 15.2592 14.95 15.6092L14.8717 15.6478C14.1425 16.0085 13.3322 16.4092 12 16.4092C10.6288 16.4092 9.81051 15.9945 9.0644 15.6165L9.05 15.6092C8.4 15.2592 7.9 15.0092 7 15.0092C6.1 15.0092 5.6 15.2592 4.95 15.6092L4.91509 15.6264C4.17356 15.9924 3.3291 16.4092 2 16.4092V14.4592C2.83575 14.4592 3.3468 14.2066 3.95287 13.9071L4.05 13.8592L4.12827 13.8205C4.85752 13.4599 5.66784 13.0592 7 13.0592C8.37117 13.0592 9.18949 13.4738 9.9356 13.8519L9.95 13.8592C10.6 14.2092 11.1 14.4592 12 14.4592C12.8342 14.4592 13.3558 14.2017 13.9703 13.8985L14.05 13.8592L14.0849 13.8419ZM14.05 18.3092C14.8 17.9292 15.65 17.5092 17 17.5092C18.35 17.5092 19.2 17.9292 19.95 18.3092C20.6 18.6592 21.1 18.9092 22 18.9092V20.8592C20.63 20.8592 19.8 20.4392 19.05 20.0592C18.4 19.7092 17.9 19.4592 17 19.4592C16.1318 19.4592 15.6022 19.728 14.9541 20.0571L14.95 20.0592L14.9356 20.0665C14.1895 20.4445 13.3712 20.8592 12 20.8592C10.6288 20.8592 9.81051 20.4445 9.0644 20.0665L9.05 20.0592C8.4 19.7092 7.88 19.4592 7 19.4592C6.13154 19.4592 5.6137 19.7221 4.9755 20.0462L4.95 20.0592C4.2 20.4392 3.35 20.8592 2 20.8592V18.9092C2.86846 18.9092 3.3863 18.6462 4.0245 18.3221L4.05 18.3092L4.0644 18.3019C4.81051 17.9238 5.62883 17.5092 7 17.5092C8.37117 17.5092 9.18949 17.9238 9.9356 18.3019L9.95 18.3092C10.6 18.6592 11.1 18.9092 12 18.9092C12.8682 18.9092 13.3978 18.6403 14.0459 18.3112L14.05 18.3092ZM14.0849 9.39194C14.8264 9.02595 15.6709 8.60917 17 8.60917C18.35 8.60917 19.2 9.02917 19.95 9.40917C20.6 9.75917 21.1 10.0092 22 10.0092V11.9592C20.63 11.9592 19.8 11.5392 19.05 11.1592C18.4 10.8092 17.9 10.5592 17 10.5592C16.1658 10.5592 15.6442 10.8166 15.0297 11.1199C15.0033 11.1329 14.9768 11.146 14.95 11.1592C14.924 11.172 14.8979 11.1849 14.8717 11.1978C14.1425 11.5585 13.3322 11.9592 12 11.9592C10.6288 11.9592 9.81051 11.5445 9.0644 11.1665L9.05 11.1592C8.4 10.8092 7.87 10.5592 7 10.5592C6.16581 10.5592 5.64421 10.8166 5.02969 11.1199C5.00331 11.1329 4.97675 11.146 4.95 11.1592C4.93839 11.1649 4.92675 11.1706 4.91509 11.1764C4.17356 11.5424 3.3291 11.9592 2 11.9592V10.0092C2.9 10.0092 3.4 9.75917 4.05 9.40917C4.076 9.39634 4.10208 9.38345 4.12826 9.3705C4.85752 9.00987 5.66783 8.60917 7 8.60917C8.37117 8.60917 9.18949 9.02381 9.9356 9.40187L9.95 9.40917C10.6 9.75917 11.1 10.0092 12 10.0092C12.9 10.0092 13.4 9.75917 14.05 9.40917L14.0849 9.39194Z" fill="#7E8084"/>
</svg>
