<svg width="24" height="24" viewBox="0 0 24 24" fill="none" xmlns="http://www.w3.org/2000/svg">
<path d="M6 16C5.34339 16 4.69321 15.8707 4.08658 15.6194C3.47995 15.3681 2.92876 14.9998 2.46447 14.5355C1.52678 13.5979 1 12.3261 1 11C1 9.67392 1.52678 8.40215 2.46447 7.46447C3.40215 6.52678 4.67392 6 6 6C7 3.65 9.3 2 12 2C15.43 2 18.24 4.66 18.5 8.03L19 8C20.0609 8 21.0783 8.42143 21.8284 9.17157C22.5786 9.92172 23 10.9391 23 12C23 13.0609 22.5786 14.0783 21.8284 14.8284C21.0783 15.5786 20.0609 16 19 16H17V14H19C19.5304 14 20.0391 13.7893 20.4142 13.4142C20.7893 13.0391 21 12.5304 21 12C21 11.4696 20.7893 10.9609 20.4142 10.5858C20.0391 10.2107 19.5304 10 19 10H17V9C17 7.67392 16.4732 6.40215 15.5355 5.46447C14.5979 4.52678 13.3261 4 12 4C9.5 4 7.45 5.82 7.06 8.19C6.73 8.07 6.37 8 6 8C5.20435 8 4.44129 8.31607 3.87868 8.87868C3.31607 9.44129 3 10.2044 3 11C3 11.7956 3.31607 12.5587 3.87868 13.1213C4.44129 13.6839 5.20435 14 6 14H7V16H6Z" fill="#7E8084"/>
<path d="M12 14.15C12.18 14.39 12.37 14.66 12.56 14.94C13 15.56 14 17.03 14 18C14 19.11 13.1 20 12 20C11.4696 20 10.9609 19.7893 10.5858 19.4142C10.2107 19.0392 10 18.5305 10 18C10 17.03 11 15.56 11.44 14.94C11.63 14.66 11.82 14.4 12 14.15ZM12 11.03L11.5 11.59C11.5 11.59 10.65 12.55 9.79 13.81C8.93 15.06 8 16.56 8 18C8 19.0609 8.42143 20.0783 9.17157 20.8285C9.92172 21.5786 10.9391 22 12 22C13.0609 22 14.0783 21.5786 14.8284 20.8285C15.5786 20.0783 16 19.0609 16 18C16 16.56 15.07 15.06 14.21 13.81C13.35 12.55 12.5 11.59 12.5 11.59" fill="#7E8084"/>
<path opacity="0.24" d="M19 14C19.5304 14 20.0391 13.7893 20.4142 13.4142C20.7893 13.0391 21 12.5304 21 12C21 11.4696 20.7893 10.9609 20.4142 10.5858C20.0391 10.2107 19.5304 10 19 10H17V9C17 7.67392 16.4732 6.40215 15.5355 5.46447C14.5979 4.52678 13.3261 4 12 4C9.5 4 7.45 5.82 7.06 8.19C6.73 8.07 6.37 8 6 8C5.20435 8 4.44129 8.31607 3.87868 8.87868C3.31607 9.44129 3 10.2044 3 11C3 11.7956 3.31607 12.5587 3.87868 13.1213C4.44129 13.6839 5.20435 14 6 14L6.9784 15L12 8L17 15L19 14Z" fill="#7E8084"/>
</svg>
