<svg width="24" height="24" viewBox="0 0 24 24" fill="none" xmlns="http://www.w3.org/2000/svg">
<g opacity="0.8">
<path d="M2.20532 6.23657V3.42188H3.22705V3.06592H0.788086V3.42188H1.80981V6.23657H2.20532Z" fill="#7E8084"/>
<path d="M4.24825 6.27832C4.92281 6.27832 5.34029 5.8125 5.34029 5.05225C5.34029 4.28979 4.92281 3.82617 4.24825 3.82617C3.57369 3.82617 3.15621 4.28979 3.15621 5.05225C3.15621 5.8125 3.57369 6.27832 4.24825 6.27832ZM4.24825 5.93774C3.80001 5.93774 3.54732 5.61255 3.54732 5.05225C3.54732 4.48975 3.80001 4.16675 4.24825 4.16675C4.69649 4.16675 4.94918 4.48975 4.94918 5.05225C4.94918 5.61255 4.69649 5.93774 4.24825 5.93774Z" fill="#7E8084"/>
<path d="M6.01652 3.25488V3.86792H5.6342V4.18433H6.01652V5.62134C6.01652 6.07397 6.21208 6.25415 6.69987 6.25415C6.77458 6.25415 6.84709 6.24536 6.9218 6.23218V5.91357C6.85148 5.92017 6.81413 5.92236 6.74602 5.92236C6.49992 5.92236 6.39445 5.80371 6.39445 5.52466V4.18433H6.9218V3.86792H6.39445V3.25488H6.01652Z" fill="#7E8084"/>
<path d="M8.07703 6.27832C8.39344 6.27832 8.65271 6.13989 8.80652 5.88721H8.84168V6.23657H9.20203V4.61499C9.20203 4.1228 8.87903 3.82617 8.30115 3.82617C7.79578 3.82617 7.42225 4.07666 7.37171 4.45679H7.75403C7.80677 4.27002 8.00452 4.16235 8.28797 4.16235C8.64173 4.16235 8.8241 4.32275 8.8241 4.61499V4.83032L8.14075 4.87207C7.58924 4.90503 7.27723 5.14893 7.27723 5.573C7.27723 6.00586 7.6178 6.27832 8.07703 6.27832ZM8.14734 5.94653C7.87269 5.94653 7.66834 5.80591 7.66834 5.56421C7.66834 5.3269 7.82654 5.20166 8.18689 5.17749L8.8241 5.13574V5.35327C8.8241 5.69165 8.53626 5.94653 8.14734 5.94653Z" fill="#7E8084"/>
<path d="M9.8475 6.23657H10.2254V2.92749H9.8475V6.23657Z" fill="#7E8084"/>
</g>
<path d="M4.43164 18.0725C6.32422 18.0725 7.66602 16.8303 7.66602 15.0784C7.66602 13.4612 6.48828 12.2834 4.88281 12.2834C3.89844 12.2834 3.11328 12.7288 2.72656 13.5256H2.62109C2.62109 11.6506 3.30078 10.5959 4.47266 10.5959C5.1582 10.5959 5.66797 10.9534 5.80273 11.5452H7.55469C7.34961 10.1448 6.11328 9.1897 4.44922 9.1897C2.28711 9.1897 0.933594 10.8831 0.933594 13.7014C0.933594 16.6252 2.4043 18.0725 4.43164 18.0725ZM4.41406 16.6721C3.53516 16.6721 2.88477 15.9866 2.88477 15.0959C2.88477 14.217 3.51172 13.5725 4.41992 13.5725C5.32812 13.5725 5.94922 14.2112 5.94922 15.1194C5.94922 15.9924 5.29297 16.6721 4.41406 16.6721Z" fill="#7E8084"/>
<path d="M9.44524 17.8616H11.2968L14.83 10.8303V9.40063H8.78313V10.8127H13.0488V10.9124L9.44524 17.8616Z" fill="#7E8084"/>
<path d="M18.0741 17.8616V15.2776L18.912 14.2698L21.367 17.8616H23.4881L20.1893 13.1096L23.2713 9.40649H21.3026L18.1795 13.2034H18.0741V9.40649H16.3045V17.8616H18.0741Z" fill="#7E8084"/>
</svg>
