<svg width="24" height="24" viewBox="0 0 24 24" fill="none" xmlns="http://www.w3.org/2000/svg">
<path opacity="0.4" d="M18.21 8.29952C19.0053 9.3282 19.4797 10.4803 19.5724 11.6509C19.555 14.1146 19.0092 16.007 18.041 17.3023L20.709 19.9703C22.5939 17.7317 23.3228 14.7222 23.3228 11.5292C23.1897 9.31015 22.2687 7.29831 20.8933 5.655L18.21 8.29952Z" fill="#7E8084"/>
<path fill-rule="evenodd" clip-rule="evenodd" d="M4.427 12.5051C4.427 14.2751 5.04347 15.9039 6.07295 17.1882L3.41057 19.8506C1.70771 17.8787 0.677002 15.3107 0.677002 12.5051C0.677002 6.29883 5.10053 1.25532 11.927 1.25507C14.468 1.25497 17.1629 2.3091 19.2956 4.07086L16.6049 6.72272C15.1192 5.59783 13.3867 5.00501 11.9272 5.00507C7.30734 5.00523 4.427 8.23154 4.427 12.5051ZM11.1195 19.4226C11.1195 20.0876 10.7328 20.4685 10.0677 20.4685C9.40564 20.4685 9.01599 20.0847 9.01599 19.4226C9.01599 18.781 9.41736 18.3826 10.0677 18.3826C10.7211 18.3826 11.1195 18.7751 11.1195 19.4226ZM13.3812 18.4646L10.6302 22.6921H9.84802L12.599 18.4646H13.3812ZM9.79822 19.4255C9.79822 19.7214 9.89783 19.8914 10.0677 19.8914C10.2377 19.8914 10.3344 19.7185 10.3344 19.4255C10.3344 19.1384 10.2318 18.9597 10.0677 18.9597C9.90369 18.9597 9.79822 19.1384 9.79822 19.4255ZM14.2103 21.696C14.2103 22.3611 13.8265 22.7449 13.1615 22.7449C12.4965 22.7449 12.1097 22.3611 12.1097 21.696C12.1097 21.0544 12.5111 20.656 13.1615 20.656C13.8148 20.656 14.2103 21.0515 14.2103 21.696ZM12.892 21.699C12.892 21.9978 12.9886 22.1648 13.1615 22.1648C13.3314 22.1648 13.4281 21.9949 13.4281 21.699C13.4281 21.4148 13.3256 21.2361 13.1615 21.2361C12.9945 21.2361 12.892 21.4148 12.892 21.699Z" fill="#7E8084"/>
</svg>
