<svg width="24" height="24" viewBox="0 0 24 24" fill="none" xmlns="http://www.w3.org/2000/svg">
<path fill-rule="evenodd" clip-rule="evenodd" d="M15 5H19V9H15V5ZM0 10H4V14H0V10ZM9 10H5V14H9V10ZM10 10H14V14H10V10ZM9 15H5V19H9V15Z" fill="#7E8084" />
<path opacity="0.5" fill-rule="evenodd" clip-rule="evenodd" d="M4 5H0V9H4V5ZM9 5H5V9H9V5ZM10 5H14V9H10V5ZM24 5H20V9H24V5ZM15 10H19V14H15V10ZM24 10H20V14H24V10ZM0 15H4V19H0V15ZM14 15H10V19H14V15ZM15 15H19V19H15V15ZM24 15H20V19H24V15Z" fill="#7E8084" />
<path opacity="0.2" fill-rule="evenodd" clip-rule="evenodd" d="M9 0H5V4H9V0ZM14 0H10V4H14V0ZM15 0H19V4H15V0ZM24 0H20V4H24V0ZM0 20H4V24H0V20ZM9 20H5V24H9V20ZM10 20H14V24H10V20ZM19 20H15V24H19V20Z" fill="#7E8084" />
</svg>