<svg width="24" height="24" viewBox="0 0 24 24" fill="none" xmlns="http://www.w3.org/2000/svg">
<path opacity="0.4" d="M11.9001 4C9.10015 4 6.90015 6.2 6.90015 9C6.90015 11.9 9.80015 16.2 11.9001 18.9C14.0001 16.2 16.9001 11.9 16.9001 9C16.9001 6.2 14.7001 4 11.9001 4ZM11.9001 11.5C10.5001 11.5 9.40015 10.4 9.40015 9C9.40015 7.6 10.5001 6.5 11.9001 6.5C13.3001 6.5 14.4001 7.6 14.4001 9C14.4001 10.4 13.3001 11.5 11.9001 11.5Z" fill="#7E8084"/>
<path fill-rule="evenodd" clip-rule="evenodd" d="M4.90039 9.00002C4.90039 5.10002 8.00039 2.00002 11.9004 2.00002C15.8004 2.00002 18.9004 5.10002 18.9004 9.00002C18.9004 14.2 11.9004 22 11.9004 22C11.9004 22 4.90039 14.2 4.90039 9.00002ZM11.9004 4.00002C9.10039 4.00002 6.90039 6.20002 6.90039 9.00002C6.90039 11.9 9.80039 16.2 11.9004 18.9C14.0004 16.2 16.9004 11.9 16.9004 9.00002C16.9004 6.20002 14.7004 4.00002 11.9004 4.00002ZM14.4004 9.00002C14.4004 10.3807 13.2811 11.5 11.9004 11.5C10.5197 11.5 9.40039 10.3807 9.40039 9.00002C9.40039 7.6193 10.5197 6.50002 11.9004 6.50002C13.2811 6.50002 14.4004 7.6193 14.4004 9.00002Z" fill="#7E8084"/>
</svg>
