<svg width="24" height="24" viewBox="0 0 24 24" fill="none" xmlns="http://www.w3.org/2000/svg">
<path opacity="0.4" d="M18.21 8.29952C19.0053 9.3282 19.4797 10.4803 19.5724 11.6509C19.555 14.1146 19.0092 16.007 18.041 17.3023L20.709 19.9703C22.5939 17.7317 23.3228 14.7222 23.3228 11.5292C23.1897 9.31015 22.2687 7.29831 20.8933 5.655L18.21 8.29952Z" fill="#7E8084"/>
<path fill-rule="evenodd" clip-rule="evenodd" d="M4.42676 12.5051C4.42676 14.2751 5.04323 15.9039 6.07271 17.1882L3.41033 19.8506C1.70746 17.8787 0.676758 15.3107 0.676758 12.5051C0.676758 6.29883 5.10029 1.25532 11.9268 1.25507C14.4677 1.25497 17.1626 2.3091 19.2953 4.07086L16.6046 6.72272C15.1189 5.59783 13.3864 5.00501 11.9269 5.00507C7.30709 5.00523 4.42676 8.23154 4.42676 12.5051ZM11.1193 19.4226C11.1193 20.0876 10.7325 20.4685 10.0675 20.4685C9.4054 20.4685 9.01575 20.0847 9.01575 19.4226C9.01575 18.781 9.41711 18.3826 10.0675 18.3826C10.7208 18.3826 11.1193 18.7751 11.1193 19.4226ZM13.381 18.4646L10.63 22.6921H9.84778L12.5988 18.4646H13.381ZM9.79797 19.4255C9.79797 19.7214 9.89758 19.8914 10.0675 19.8914C10.2374 19.8914 10.3341 19.7185 10.3341 19.4255C10.3341 19.1384 10.2316 18.9597 10.0675 18.9597C9.90344 18.9597 9.79797 19.1384 9.79797 19.4255ZM14.2101 21.696C14.2101 22.3611 13.8263 22.7449 13.1613 22.7449C12.4962 22.7449 12.1095 22.3611 12.1095 21.696C12.1095 21.0544 12.5109 20.656 13.1613 20.656C13.8146 20.656 14.2101 21.0515 14.2101 21.696ZM12.8917 21.699C12.8917 21.9978 12.9884 22.1648 13.1613 22.1648C13.3312 22.1648 13.4279 21.9949 13.4279 21.699C13.4279 21.4148 13.3253 21.2361 13.1613 21.2361C12.9943 21.2361 12.8917 21.4148 12.8917 21.699Z" fill="#7E8084"/>
</svg>
