<svg width="24" height="24" viewBox="0 0 24 24" fill="none" xmlns="http://www.w3.org/2000/svg">
<path opacity="0.4" d="M11.3504 4.54552V0.77774C6.34578 1.15954 1.01164 5.43454 0.67627 11.024C0.67627 11.3703 0.684841 11.7144 0.702531 12.0556H4.4586C4.4396 11.7615 4.4289 11.4582 4.4267 11.1458C4.55926 9.47183 5.47241 7.83556 6.98821 6.54413C8.32632 5.40408 9.92074 4.72147 11.3504 4.54552Z" fill="#7E8084"/>
<path fill-rule="evenodd" clip-rule="evenodd" d="M23.3228 12C23.3228 6.26992 19.552 1.531 13.6007 0.837341V4.62556C17.3189 5.25869 19.5728 8.2196 19.5728 12C19.5728 16.1004 16.2644 19.4433 12.1771 19.4993C8.74976 19.2754 7.02066 18.1333 6.06532 16.9357C5.51151 16.2414 5.08641 15.3633 4.8081 14.3056H0.966797C1.86869 19.0647 4.99734 22.8348 12.0728 23.25C18.279 23.25 23.3228 18.2063 23.3228 12ZM11.1299 10.9804C11.1299 11.6454 10.7432 12.0263 10.0781 12.0263C9.41602 12.0263 9.02637 11.6425 9.02637 10.9804C9.02637 10.3388 9.42773 9.94034 10.0781 9.94034C10.7314 9.94034 11.1299 10.3329 11.1299 10.9804ZM13.3916 10.0224L10.6406 14.2499H9.8584L12.6094 10.0224H13.3916ZM9.80859 10.9833C9.80859 11.2792 9.9082 11.4491 10.0781 11.4491C10.248 11.4491 10.3447 11.2763 10.3447 10.9833C10.3447 10.6962 10.2422 10.5175 10.0781 10.5175C9.91406 10.5175 9.80859 10.6962 9.80859 10.9833ZM14.2207 13.2538C14.2207 13.9189 13.8369 14.3026 13.1719 14.3026C12.5068 14.3026 12.1201 13.9189 12.1201 13.2538C12.1201 12.6122 12.5215 12.2138 13.1719 12.2138C13.8252 12.2138 14.2207 12.6093 14.2207 13.2538ZM12.9023 13.2567C12.9023 13.5556 12.999 13.7226 13.1719 13.7226C13.3418 13.7226 13.4385 13.5526 13.4385 13.2567C13.4385 12.9726 13.3359 12.7939 13.1719 12.7939C13.0049 12.7939 12.9023 12.9726 12.9023 13.2567Z" fill="#7E8084"/>
</svg>
