<svg width="24" height="24" viewBox="0 0 24 24" fill="none" xmlns="http://www.w3.org/2000/svg">
<path opacity="0.4" d="M11.9004 4C9.10039 4 6.90039 6.2 6.90039 9C6.90039 11.9 9.80039 16.2 11.9004 18.9C14.0004 16.2 16.9004 11.9 16.9004 9C16.9004 6.2 14.7004 4 11.9004 4ZM11.9004 11.5C10.5004 11.5 9.40039 10.4 9.40039 9C9.40039 7.6 10.5004 6.5 11.9004 6.5C13.3004 6.5 14.4004 7.6 14.4004 9C14.4004 10.4 13.3004 11.5 11.9004 11.5Z" fill="#7E8084"/>
<path fill-rule="evenodd" clip-rule="evenodd" d="M4.90039 9C4.90039 5.1 8.00039 2 11.9004 2C15.8004 2 18.9004 5.1 18.9004 9C18.9004 14.2 11.9004 22 11.9004 22C11.9004 22 4.90039 14.2 4.90039 9ZM11.9004 4C9.10039 4 6.90039 6.2 6.90039 9C6.90039 11.9 9.80039 16.2 11.9004 18.9C14.0004 16.2 16.9004 11.9 16.9004 9C16.9004 6.2 14.7004 4 11.9004 4ZM14.4004 9C14.4004 10.3807 13.2811 11.5 11.9004 11.5C10.5197 11.5 9.40039 10.3807 9.40039 9C9.40039 7.61929 10.5197 6.5 11.9004 6.5C13.2811 6.5 14.4004 7.61929 14.4004 9Z" fill="#7E8084"/>
</svg>
