<svg width="24" height="25" viewBox="0 0 24 25" fill="none" xmlns="http://www.w3.org/2000/svg">
<g clip-path="url(#clip0)">
<path opacity="0.24" d="M15 15.5192H5V19.5192H19V15.5192H15ZM8 18.5192H6V16.5192H8V18.5192ZM11.5 18.5192H9.5V16.5192H11.5V18.5192ZM15 18.5192H13V16.5192H15V18.5192Z" fill="#7E8084"/>
<path d="M16 4.71917C17.5 4.71917 19 5.31917 20.2 6.41917L21 5.61916C19.6 4.21916 17.8 3.51917 16 3.51917C14.2 3.51917 12.4 4.21916 11 5.61916L11.8 6.41917C13 5.31917 14.5 4.71917 16 4.71917ZM12.7 7.21917L13.5 8.01917C14.2 7.31916 15.1 7.01917 16 7.01917C16.9 7.01917 17.8 7.31916 18.5 8.01917L19.3 7.21917C18.4 6.31917 17.2 5.81916 16 5.81916C14.8 5.81916 13.6 6.31917 12.7 7.21917ZM19 13.5192H17V9.51917H15V13.5192H5C3.9 13.5192 3 14.4192 3 15.5192V19.5192C3 20.6192 3.9 21.5192 5 21.5192H19C20.1 21.5192 21 20.6192 21 19.5192V15.5192C21 14.4192 20.1 13.5192 19 13.5192ZM19 19.5192H5V15.5192H19V19.5192ZM6 16.5192H8V18.5192H6V16.5192ZM9.5 16.5192H11.5V18.5192H9.5V16.5192ZM13 16.5192H15V18.5192H13V16.5192Z" fill="#7E8084"/>
</g>
<defs>
<clipPath id="clip0">
<rect width="18" height="18" fill="white" transform="translate(3 3.51917)"/>
</clipPath>
</defs>
</svg>
