<svg width="24" height="25" viewBox="0 0 24 25" fill="none" xmlns="http://www.w3.org/2000/svg">
<path opacity="0.24" d="M14.99 5.10916V5.51916C14.99 6.61916 14.09 7.51916 12.99 7.51916H10.99V9.51916C10.99 10.0692 10.54 10.5192 9.98999 10.5192H7.98999V12.5192H13.99C14.54 12.5192 14.99 12.9692 14.99 13.5192V16.5192H15.99C16.88 16.5192 17.63 17.1092 17.89 17.9192C19.19 16.4992 20 14.5992 20 12.5192C20 9.16916 17.92 6.28916 14.99 5.10916Z" fill="#7E8084"/>
<path opacity="0.24" d="M8.99 16.5192V15.5192L4.21 10.7392C4.08 11.3092 4 11.9092 4 12.5192C4 16.5892 7.06 19.9492 10.99 20.4492V18.5192C9.89 18.5192 8.99 17.6192 8.99 16.5192Z" fill="#7E8084"/>
<path fill-rule="evenodd" clip-rule="evenodd" d="M12 2.51917C6.48 2.51917 2 6.99917 2 12.5192C2 18.0392 6.48 22.5192 12 22.5192C17.52 22.5192 22 18.0392 22 12.5192C22 6.99917 17.52 2.51917 12 2.51917ZM10.99 20.4492C7.06 19.9492 4 16.5892 4 12.5192C4 11.9092 4.08 11.3092 4.21 10.7392L8.99 15.5192V16.5192C8.99 17.6192 9.89 18.5192 10.99 18.5192V20.4492ZM15.99 16.5192C16.89 16.5192 17.63 17.1092 17.89 17.9192C19.19 16.4992 20 14.5992 20 12.5192C20 9.16916 17.92 6.28917 14.99 5.10916V5.51917C14.99 6.61916 14.09 7.51917 12.99 7.51917H10.99V9.51917C10.99 10.0692 10.54 10.5192 9.99 10.5192H7.99V12.5192H13.99C14.54 12.5192 14.99 12.9692 14.99 13.5192V16.5192H15.99Z" fill="#7E8084"/>
</svg>
