<svg width="24" height="24" viewBox="0 0 24 24" fill="none" xmlns="http://www.w3.org/2000/svg">
<path opacity="0.24" d="M14.99 4.59V5C14.99 6.1 14.09 7 12.99 7H10.99V9C10.99 9.55 10.54 10 9.98999 10H7.98999V12H13.99C14.54 12 14.99 12.45 14.99 13V16H15.99C16.88 16 17.63 16.59 17.89 17.4C19.19 15.98 20 14.08 20 12C20 8.65 17.92 5.77 14.99 4.59Z" fill="#7E8084"/>
<path opacity="0.24" d="M8.99 16V15L4.21 10.22C4.08 10.79 4 11.39 4 12C4 16.07 7.06 19.43 10.99 19.93V18C9.89 18 8.99 17.1 8.99 16Z" fill="#7E8084"/>
<path fill-rule="evenodd" clip-rule="evenodd" d="M12 2C6.48 2 2 6.48 2 12C2 17.52 6.48 22 12 22C17.52 22 22 17.52 22 12C22 6.48 17.52 2 12 2ZM10.99 19.93C7.06 19.43 4 16.07 4 12C4 11.39 4.08 10.79 4.21 10.22L8.99 15V16C8.99 17.1 9.89 18 10.99 18V19.93ZM15.99 16C16.89 16 17.63 16.59 17.89 17.4C19.19 15.98 20 14.08 20 12C20 8.65 17.92 5.77 14.99 4.59V5C14.99 6.1 14.09 7 12.99 7H10.99V9C10.99 9.55 10.54 10 9.99 10H7.99V12H13.99C14.54 12 14.99 12.45 14.99 13V16H15.99Z" fill="#7E8084"/>
</svg>
