<svg width="286" height="310" viewBox="0 0 286 310" fill="none" xmlns="http://www.w3.org/2000/svg">
<path d="M30.4655 256.723L46.576 212.006H59.1753L37.488 268.909H23.2364L1.54909 212.006H14.1484L30.4655 256.723ZM93.8636 211.283C99.3715 211.283 104.329 212.453 108.735 214.794C113.141 217.135 116.584 220.509 119.062 224.915C121.541 229.321 122.78 234.485 122.78 240.406C122.78 246.396 121.541 251.594 119.062 256C116.584 260.406 113.141 263.78 108.735 266.121C104.329 268.462 99.3715 269.632 93.8636 269.632C88.3557 269.632 83.3986 268.462 78.9923 266.121C74.6549 263.78 71.2125 260.406 68.6651 256C66.1865 251.525 64.9473 246.327 64.9473 240.406C64.9473 234.485 66.1865 229.321 68.6651 224.915C71.2125 220.509 74.6549 217.135 78.9923 214.794C83.3986 212.453 88.3557 211.283 93.8636 211.283ZM93.8636 221.507C90.8343 221.507 88.0459 222.195 85.4985 223.572C82.9511 224.949 80.8857 227.084 79.3022 229.975C77.7875 232.798 77.0302 236.275 77.0302 240.406C77.0302 244.606 77.7875 248.117 79.3022 250.94C80.8857 253.762 82.9511 255.862 85.4985 257.239C88.0459 258.616 90.8343 259.305 93.8636 259.305C96.8929 259.305 99.6813 258.616 102.229 257.239C104.776 255.862 106.807 253.762 108.322 250.94C109.905 248.117 110.697 244.606 110.697 240.406C110.697 236.275 109.905 232.798 108.322 229.975C106.807 227.084 104.776 224.949 102.229 223.572C99.6813 222.195 96.8929 221.507 93.8636 221.507ZM145.872 192.487V268.909H134.099V192.487H145.872ZM188.725 258.685V268.909H181.496C175.437 268.909 170.825 267.463 167.658 264.572C164.559 261.611 163.01 256.723 163.01 249.907V222.023H154.852V212.006H163.01V197.857H174.887V212.006H188.622V222.023H174.887V250.113C174.887 253.349 175.472 255.587 176.642 256.826C177.882 258.065 180.016 258.685 183.045 258.685H188.725ZM198.101 195.482C198.101 193.486 198.79 191.833 200.167 190.525C201.544 189.217 203.368 188.563 205.64 188.563C207.912 188.563 209.737 189.217 211.114 190.525C212.559 191.833 213.282 193.486 213.282 195.482C213.282 197.479 212.559 199.097 211.114 200.336C209.737 201.575 207.912 202.195 205.64 202.195C203.368 202.195 201.544 201.575 200.167 200.336C198.79 199.097 198.101 197.479 198.101 195.482ZM211.527 212.006V268.909H199.754V212.006H211.527ZM251.075 211.283C258.442 211.283 264.535 213.245 269.355 217.169C274.174 221.025 277.169 226.292 278.339 232.97H265.843C265.155 229.39 263.468 226.602 260.783 224.605C258.167 222.54 254.862 221.507 250.869 221.507C246.325 221.507 242.538 223.125 239.509 226.361C236.479 229.528 234.965 234.209 234.965 240.406C234.965 246.602 236.479 251.318 239.509 254.554C242.538 257.79 246.325 259.408 250.869 259.408C254.862 259.408 258.167 258.375 260.783 256.31C263.468 254.244 265.155 251.422 265.843 247.841H278.339C277.169 254.52 274.174 259.821 269.355 263.745C264.535 267.67 258.442 269.632 251.075 269.632C245.567 269.632 240.679 268.462 236.411 266.121C232.211 263.78 228.906 260.406 226.496 256C224.087 251.594 222.882 246.396 222.882 240.406C222.882 234.485 224.087 229.321 226.496 224.915C228.906 220.509 232.211 217.135 236.411 214.794C240.679 212.453 245.567 211.283 251.075 211.283Z" fill="#003B6F"/>
<path d="M184.35 142H75.2675L0.999977 26.5H108.576L184.35 142Z" fill="url(#paint0_linear)"/>
<path d="M129.486 61.3182L184.349 142L285.04 0H175.313L129.486 61.3182Z" fill="url(#paint1_linear)"/>
<defs>
<linearGradient id="paint0_linear" x1="47.4868" y1="20.3621" x2="222.742" y2="215.094" gradientUnits="userSpaceOnUse">
<stop stop-color="#47D7AC"/>
<stop offset="0.786458" stop-color="#0A5383"/>
</linearGradient>
<linearGradient id="paint1_linear" x1="211.803" y1="23.3082" x2="140.642" y2="191.936" gradientUnits="userSpaceOnUse">
<stop offset="0.0226016" stop-color="#47D7AC"/>
<stop offset="1" stop-color="#0A7F83"/>
</linearGradient>
</defs>
</svg>
